<svg id="Layer_1" data-name="Layer 1" xmlns="http://www.w3.org/2000/svg" xmlns:xlink="http://www.w3.org/1999/xlink" viewBox="0 0 500 167"><defs><style>.cls-1,.cls-8{fill:#fff;}.cls-2{fill:#ff4284;}.cls-3{mask:url(#mask);}.cls-4{fill:#292b3c;}.cls-5{fill:#6ad2ff;}.cls-6{fill:#ffab09;}.cls-7{fill:#f8774e;}.cls-8{stroke:#131520;}.cls-9{fill:none;stroke:#292b3c;stroke-width:3px;}</style><mask id="mask" x="7.27" y="39.55" width="113.08" height="119.51" maskUnits="userSpaceOnUse"><g id="path-1-inside-1"><path class="cls-1" d="M8.13,46.33a5.78,5.78,0,0,0,4.75,5.82C21.21,60,27,70.63,30.08,83.65v29.82h0a42.06,42.06,0,0,0,15.49,32.62,2.05,2.05,0,0,0,.69.55,41.82,41.82,0,0,0,25.86,8.93h43.32v.6a2,2,0,1,0,4,0v-5.23a2,2,0,1,0-4,0v.6H90.1A42.09,42.09,0,1,0,46.27,80.3a2.21,2.21,0,0,0-.69.56A42.41,42.41,0,0,0,34.12,95.49V83.16c3.18-12.83,9-23.25,17.15-31a5.58,5.58,0,0,0,3.29-1.82,6,6,0,0,0,1.46-4,5.76,5.76,0,0,0-5.85-5.91H14a5.71,5.71,0,0,0-4.39,1.91A6,6,0,0,0,8.13,46.33ZM14,44.45a1.88,1.88,0,0,0,0,3.76H50.17a1.88,1.88,0,0,0,0-3.76Zm31.56,7.79H18.61A64.61,64.61,0,0,1,32.06,75.82,65.08,65.08,0,0,1,45.54,52.24Zm26.68,99.3a38.07,38.07,0,0,0-.09-76.14,37.72,37.72,0,0,0-23,7.76v4.61a34.45,34.45,0,1,1,0,51.4v4.62a37.74,37.74,0,0,0,22.94,7.75h.11Zm-23-18.07a30.41,30.41,0,1,0,0-40v4.76h6.76a9,9,0,0,1,17.91,0h6.89v-.94a2,2,0,1,1,4,0v5.91a2,2,0,0,1-4,0v-.94H73.88v9.2h6.85v-.94a2,2,0,1,1,4,0v5.9a2,2,0,1,1-4,0v-.93H73.88v9.19h6.85v-.94a2,2,0,0,1,4,0v5.85a2,2,0,0,1-4,0v-.88H73.84a8.67,8.67,0,0,1-9,7.91,9.22,9.22,0,0,1-6.13-2.23,8.37,8.37,0,0,1-2.82-5.68H49.17Zm20.6-35.24a5,5,0,0,0-9.78,0Zm.08,4v9.2H59.91v-9.2Zm-14,0H49.17v9.2h6.71Zm-10.74-2V86.7a38,38,0,0,0,0,53.55v-40Zm4,24.44h6.71v-9.19H49.17Zm10.82,4a5,5,0,0,0,9.78,0Zm9.86-4H59.91v-9.19h9.94Z"/></g></mask></defs><title>footerImage</title><path class="cls-2" d="M8.13,46.33a5.78,5.78,0,0,0,4.75,5.82C21.21,60,27,70.63,30.08,83.65v29.82h0a42.06,42.06,0,0,0,15.49,32.62,2.05,2.05,0,0,0,.69.55,41.82,41.82,0,0,0,25.86,8.93h43.32v.6a2,2,0,1,0,4,0v-5.23a2,2,0,1,0-4,0v.6H90.1A42.09,42.09,0,1,0,46.27,80.3a2.21,2.21,0,0,0-.69.56A42.41,42.41,0,0,0,34.12,95.49V83.16c3.18-12.83,9-23.25,17.15-31a5.58,5.58,0,0,0,3.29-1.82,6,6,0,0,0,1.46-4,5.76,5.76,0,0,0-5.85-5.91H14a5.71,5.71,0,0,0-4.39,1.91A6,6,0,0,0,8.13,46.33ZM14,44.45a1.88,1.88,0,0,0,0,3.76H50.17a1.88,1.88,0,0,0,0-3.76Zm31.56,7.79H18.61A64.61,64.61,0,0,1,32.06,75.82,65.08,65.08,0,0,1,45.54,52.24Zm26.68,99.3a38.07,38.07,0,0,0-.09-76.14,37.72,37.72,0,0,0-23,7.76v4.61a34.45,34.45,0,1,1,0,51.4v4.62a37.74,37.74,0,0,0,22.94,7.75h.11Zm-23-18.07a30.41,30.41,0,1,0,0-40v4.76h6.76a9,9,0,0,1,17.91,0h6.89v-.94a2,2,0,1,1,4,0v5.91a2,2,0,0,1-4,0v-.94H73.88v9.2h6.85v-.94a2,2,0,1,1,4,0v5.9a2,2,0,1,1-4,0v-.93H73.88v9.19h6.85v-.94a2,2,0,0,1,4,0v5.85a2,2,0,0,1-4,0v-.88H73.84a8.67,8.67,0,0,1-9,7.91,9.22,9.22,0,0,1-6.13-2.23,8.37,8.37,0,0,1-2.82-5.68H49.17Zm20.6-35.24a5,5,0,0,0-9.78,0Zm.08,4v9.2H59.91v-9.2Zm-14,0H49.17v9.2h6.71Zm-10.74-2V86.7a38,38,0,0,0,0,53.55v-40Zm4,24.44h6.71v-9.19H49.17Zm10.82,4a5,5,0,0,0,9.78,0Zm9.86-4H59.91v-9.19h9.94Z"/><g class="cls-3"><path class="cls-4" d="M12.88,52.15l.6-.63-.19-.19-.26,0Zm17.2,31.5.85-.19h0Zm0,0H31v-.11l0-.11Zm15.49,62.39.68-.55-.06-.07-.07-.06Zm.69.55.53-.69-.07,0-.08,0Zm25.86,8.93v.87h0Zm.1,0v-.87h0Zm43.22,0h.87v-.87h-.87Zm4-1.95-.87,0v0h.87Zm0-.13h-.87v0Zm-4-2v.87h.87v-.87Zm-25.35,0-.37-.78.37,1.65ZM46.27,80.3l.38.78.08,0,.08-.05Zm-.69.56.55.67.07-.06.06-.07ZM34.12,95.49h-.86l1.65.37Zm0-12.33L33.28,83l0,.11v.11Zm17.15-31-.15-.86-.26,0-.19.18Zm3.29-1.82.66.57h0Zm-45-8,.65.57h0Zm9,9.91v-.87h-2L18,52.82Zm26.93,0,.64.58,1.32-1.45h-2ZM32.06,75.82l-.83.28.82,2.48.83-2.48Zm40.16,75.72v.87h0Zm-23-68.38-.53-.7-.34.26v.44Zm0,4.61H48.3V89.7l1.45-1.28Zm0,51.4.58-.64-1.45-1.29v1.93Zm0,4.62H48.3v.43l.34.26Zm22.94,7.75v.87h0Zm0,0v-.87h0Zm-23-18.07H48.3v.33l.22.25Zm0-40-.65-.57-.22.24v.33Zm0,4.76H48.3v.87h.87Zm6.76,0v.87h.79l.07-.79Zm17.91,0-.87.08.07.79h.8Zm6.89,0v.87h.87v-.87Zm4,2h-.87v0h0Zm0,.12-.87,0h.87Zm-4,2h.87v-.87h-.87Zm-6.85,0v-.87H73v.87Zm0,9.2H73v.86h.87Zm6.85,0v.86h.87v-.86Zm4,2h-.87v0Zm0,.12-.87,0h.87Zm-4,2h.87v-.87h-.87Zm-6.85,0v-.87H73v.87Zm0,9.19H73v.87h.87Zm6.85,0v.87h.87v-.87Zm4,2h-.87Zm0,.12-.87,0v0h.87Zm-4,2h.87v-.87h-.87Zm-6.89,0v-.87H73l-.07.79Zm-15.09,5.68.57-.65h0Zm-2.82-5.68.86-.08-.07-.79h-.79Zm-6.76,0v-.87H48.3v.87Zm20.6-30.48v.87h1l-.17-1Zm-9.78,0-.85-.14-.17,1h1Zm9.86,13.23v.86h.87v-.86Zm0-9.2h.87v-.87h-.87Zm-9.94,9.2H59v.86h.87Zm0-9.2v-.87H59v.87Zm-10.74,0v-.87H48.3v.87Zm6.71,0h.87v-.87h-.87Zm-6.71,9.2H48.3v.86h.87Zm6.71,0v.86h.87v-.86ZM45.14,86.7H46V84.58l-1.49,1.51Zm0,53.55-.62.61,1.49,1.5v-2.11Zm10.74-15.57v.87h.87v-.87Zm-6.71,0H48.3v.87h.87Zm6.71-9.19h.87v-.87h-.87Zm-6.71,0v-.87H48.3v.87ZM60,128.71v-.87H59l.17,1Zm9.78,0,.86.15.17-1h-1Zm-9.86-4H59v.87h.87Zm9.94,0v.87h.87v-.87Zm-9.94-9.19v-.87H59v.87Zm9.94,0h.87v-.87h-.87ZM13,51.29a4.92,4.92,0,0,1-4-5H7.27A6.63,6.63,0,0,0,12.74,53Zm17.9,32.16c-3.12-13.16-9-23.92-17.45-31.93l-1.19,1.26c8.18,7.75,13.89,18.18,17,31.07Zm0,0v0l-1.69.39s0,.05,0,.07Zm0,30V83.7H29.23v29.77Zm0,0Zm15.17,31.94A41.18,41.18,0,0,1,31,113.47H29.23A42.93,42.93,0,0,0,45,146.76Zm.52.45a1.1,1.1,0,0,1-.39-.32l-1.36,1.09a2.94,2.94,0,0,0,1,.79Zm25.48,8.84A41,41,0,0,1,46.8,146l-1.07,1.37a42.69,42.69,0,0,0,26.4,9.12Zm.1,0h-.1v1.74h.1Zm43.22,0H72.23v1.74h43.22Zm.87,1.47v-.6h-1.74v.6Zm1.14,1.15a1.14,1.14,0,0,1-1.14-1.15h-1.74a2.88,2.88,0,0,0,2.88,2.89Zm1.15-1.15a1.14,1.14,0,0,1-1.15,1.15v1.74a2.89,2.89,0,0,0,2.89-2.89Zm0-2.55v2.55h1.74v-2.55Zm0-.06v0l1.74.06v-.09Zm0,0v0h1.74v-.1Zm0-2.58v2.55h1.74v-2.55Zm-1.15-1.15a1.14,1.14,0,0,1,1.15,1.15h1.74a2.89,2.89,0,0,0-2.89-2.89Zm-1.14,1.15a1.14,1.14,0,0,1,1.14-1.15v-1.74a2.88,2.88,0,0,0-2.88,2.89Zm0,.6v-.6h-1.74v.6Zm-26.22.87h25.35v-1.74H90.1Zm23.27-38.94a41.29,41.29,0,0,1-23.64,37.29l.75,1.57a43,43,0,0,0,24.63-38.86ZM72.13,72.24a41.28,41.28,0,0,1,41.24,41.23h1.74a43,43,0,0,0-43-43ZM46.81,81a40.9,40.9,0,0,1,25.32-8.75V70.5a42.69,42.69,0,0,0-26.4,9.12Zm-.55.41a1.22,1.22,0,0,1,.39-.32l-.76-1.56a2.94,2.94,0,0,0-1,.79ZM34.91,95.86A41.4,41.4,0,0,1,46.13,81.53L45,80.18A43.28,43.28,0,0,0,33.34,95.12ZM33.26,83.19v12.3H35V83.19Zm0,0v0H35v0ZM50.67,51.51C42.33,59.41,36.49,70,33.28,83l1.69.42c3.14-12.69,8.84-23,16.89-30.59Zm3.24-1.75a4.69,4.69,0,0,1-2.79,1.53L51.41,53a6.39,6.39,0,0,0,3.81-2.1Zm1.24-3.43a5.21,5.21,0,0,1-1.24,3.43l1.31,1.14a6.94,6.94,0,0,0,1.66-4.57Zm-5-5a4.89,4.89,0,0,1,5,5h1.73a6.62,6.62,0,0,0-6.71-6.78ZM14,41.29H50.17V39.55H14ZM10.24,42.9A4.84,4.84,0,0,1,14,41.29V39.55a6.57,6.57,0,0,0-5,2.2ZM9,46.33a5.19,5.19,0,0,1,1.24-3.43l-1.3-1.15a6.91,6.91,0,0,0-1.67,4.58Zm4,0a1.39,1.39,0,0,1,.16-.67.58.58,0,0,1,.22-.22,1.09,1.09,0,0,1,.57-.12V43.58a2.5,2.5,0,0,0-2.29,1.2,3.13,3.13,0,0,0-.39,1.55Zm1,1a1.09,1.09,0,0,1-.57-.12.54.54,0,0,1-.22-.23,1.35,1.35,0,0,1-.16-.66H11.3a3.08,3.08,0,0,0,.39,1.54A2.49,2.49,0,0,0,14,49.08Zm36.19,0H14v1.74H50.17Zm.95-1A1.35,1.35,0,0,1,51,47a.49.49,0,0,1-.22.23,1.09,1.09,0,0,1-.57.12v1.74a2.49,2.49,0,0,0,2.29-1.21,3.11,3.11,0,0,0,.4-1.54Zm-.95-1a1.09,1.09,0,0,1,.57.12.52.52,0,0,1,.22.22,1.41,1.41,0,0,1,.16.67h1.74a3.17,3.17,0,0,0-.4-1.55,2.5,2.5,0,0,0-2.29-1.2ZM14,45.32H50.17V43.58H14Zm4.63,7.79H45.54V51.37H18.61ZM32.88,75.55a65.27,65.27,0,0,0-13.63-23.9L18,52.82A63.81,63.81,0,0,1,31.23,76.1Zm12-23.9a65.89,65.89,0,0,0-13.67,23.9l1.65.55a64.29,64.29,0,0,1,13.3-23.28Zm64.44,61.82a37.25,37.25,0,0,1-37.12,37.2v1.74a39,39,0,0,0,38.85-38.94ZM72.13,76.27a37.25,37.25,0,0,1,37.21,37.2h1.74A39,39,0,0,0,72.13,74.53ZM49.69,83.85a36.88,36.88,0,0,1,22.44-7.58V74.53a38.68,38.68,0,0,0-23.49,7.93ZM50,87.77V83.16H48.3v4.61Zm-.29.65A33.59,33.59,0,0,1,72.13,79.9V78.16a35.35,35.35,0,0,0-23.54,9ZM72.13,79.9a33.62,33.62,0,0,1,33.59,33.57h1.73A35.35,35.35,0,0,0,72.13,78.16Zm33.59,33.57a33.63,33.63,0,0,1-33.59,33.58v1.74a35.36,35.36,0,0,0,35.32-35.32ZM72.13,147.05a33.64,33.64,0,0,1-22.38-8.52l-1.16,1.29a35.36,35.36,0,0,0,23.54,9ZM50,143.79v-4.62H48.3v4.62Zm22.08,6.88a36.9,36.9,0,0,1-22.43-7.57l-1,1.38a38.63,38.63,0,0,0,23.47,7.93Zm0,0h0v1.74h0Zm.09,0h-.08v1.74h.08Zm-23.7-16.62a31.41,31.41,0,0,0,23.61,10.71V143A29.68,29.68,0,0,1,49.82,132.9Zm23.61,10.71a31.32,31.32,0,0,0,31.29-31.29h-1.73A29.59,29.59,0,0,1,72.13,143Zm31.29-31.29A31.31,31.31,0,0,0,72.13,82.19v1.73a29.59,29.59,0,0,1,29.56,29.55ZM72.13,82.19A31.37,31.37,0,0,0,48.52,92.9L49.82,94A29.68,29.68,0,0,1,72.13,83.92ZM50,98.23V93.47H48.3v4.76Zm5.89-.87H49.17V99.1h6.76Zm8.95-7.9c-4.55,0-9.28,3-9.82,8.69l1.73.16a7.8,7.8,0,0,1,8.09-7.12Zm9.82,8.69c-.54-5.74-5.26-8.69-9.82-8.69v1.73A7.8,7.8,0,0,1,73,98.31Zm6-.79H73.84V99.1h6.89Zm-.87-.07v.94H81.6v-.94Zm2.88-2.88a2.88,2.88,0,0,0-2.88,2.88H81.6a1.15,1.15,0,0,1,1.14-1.15Zm2.89,2.88a2.88,2.88,0,0,0-2.89-2.88v1.73a1.15,1.15,0,0,1,1.15,1.15Zm0,2.89V97.29H83.89v2.89Zm0,.06v-.08l-1.74,0v0Zm0,.09v-.09H83.89v0Zm0,2.87v-2.9H83.89v2.9Zm-2.89,2.88a2.88,2.88,0,0,0,2.89-2.88H83.89a1.14,1.14,0,0,1-1.15,1.14Zm-2.88-2.88a2.88,2.88,0,0,0,2.88,2.88v-1.74a1.14,1.14,0,0,1-1.14-1.14Zm0-.94v.94H81.6v-.94Zm-6,.87h6.85v-1.74H73.88Zm.87,8.33v-9.2H73v9.2Zm6-.87H73.88v1.73h6.85Zm-.87-.07v.94H81.6v-.94Zm2.88-2.89a2.88,2.88,0,0,0-2.88,2.89H81.6a1.14,1.14,0,0,1,1.14-1.15Zm2.89,2.89a2.89,2.89,0,0,0-2.89-2.89v1.74a1.14,1.14,0,0,1,1.15,1.15Zm0,2.89v-2.89H83.89v2.89Zm0,.06v-.08l-1.74,0v0Zm0,.09v-.09H83.89v0Zm0,2.86v-2.89H83.89v2.89Zm-2.89,2.89a2.89,2.89,0,0,0,2.89-2.89H83.89a1.14,1.14,0,0,1-1.15,1.15Zm-2.88-2.89a2.88,2.88,0,0,0,2.88,2.89v-1.74a1.14,1.14,0,0,1-1.14-1.15Zm0-.93v.93H81.6v-.93Zm-6,.86h6.85v-1.73H73.88Zm.87,8.33v-9.19H73v9.19Zm6-.87H73.88v1.74h6.85Zm-.87-.07v.94H81.6v-.94Zm2.88-2.88a2.88,2.88,0,0,0-2.88,2.88H81.6a1.14,1.14,0,0,1,1.14-1.14Zm2.89,2.88a2.88,2.88,0,0,0-2.89-2.88v1.74a1.14,1.14,0,0,1,1.15,1.14Zm0,2.9v-2.9H83.89v2.9Zm0,.06v-.09l-1.74,0v0Zm0,.08v-.08H83.89v0Zm0,2.81v-2.83H83.89v2.83Zm-2.89,2.88a2.88,2.88,0,0,0,2.89-2.88H83.89a1.14,1.14,0,0,1-1.15,1.14Zm-2.88-2.88a2.88,2.88,0,0,0,2.88,2.88v-1.74a1.14,1.14,0,0,1-1.14-1.14Zm0-.88v.88H81.6v-.88Zm-6,.87h6.89v-1.74H73.84Zm-9,7.91c4.56,0,9.28-3,9.82-8.7L73,128.63a7.8,7.8,0,0,1-8.09,7.12ZM58.18,135a10.09,10.09,0,0,0,6.7,2.45v-1.74a8.39,8.39,0,0,1-5.56-2Zm-3.12-6.25a9.29,9.29,0,0,0,3.12,6.26l1.14-1.31a7.55,7.55,0,0,1-2.53-5.11Zm-5.89.79h6.76v-1.74H49.17Zm.87,3.89v-4.76H48.3v4.76ZM64.88,95.22a3.79,3.79,0,0,1,4,3.15l1.72-.28a5.54,5.54,0,0,0-5.75-4.61Zm-4,3.15a3.8,3.8,0,0,1,4-3.15V93.48a5.53,5.53,0,0,0-5.74,4.61Zm8.92-1H60V99.1h9.78Zm1,14.1v-9.2H69v9.2Zm-10.81.86h9.94v-1.73H59.91ZM59,102.26v9.2h1.74v-9.2Zm10.81-.87H59.91v1.74h9.94Zm-20.68,1.74h6.71v-1.74H49.17Zm.87,8.33v-9.2H48.3v9.2Zm5.84-.87H49.17v1.73h6.71ZM55,102.26v9.2h1.74v-9.2ZM44.27,86.7v13.54H46V86.7ZM35,113.47A37.06,37.06,0,0,1,45.76,87.31l-1.24-1.22a38.81,38.81,0,0,0-11.26,27.38Zm10.77,26.17A37.1,37.1,0,0,1,35,113.47H33.26a38.85,38.85,0,0,0,11.26,27.39ZM44.27,126.7v13.55H46V126.7Zm0-13.23V126.7H46V113.47Zm0-13.23v13.23H46V100.24Zm11.61,23.57H49.17v1.74h6.71ZM55,115.49v9.19h1.74v-9.19Zm-5.84.86h6.71v-1.73H49.17Zm.87,8.33v-9.19H48.3v9.19Zm14.84,7a3.8,3.8,0,0,1-4-3.15l-1.71.29a5.53,5.53,0,0,0,5.74,4.6Zm4-3.15a3.79,3.79,0,0,1-4,3.15v1.74a5.54,5.54,0,0,0,5.75-4.6Zm-8.92,1h9.78v-1.74H60Zm-.08-4h9.94v-1.74H59.91ZM59,115.49v9.19h1.74v-9.19Zm10.81-.87H59.91v1.73h9.94Zm.87,10.06v-9.19H69v9.19Z"/></g><path class="cls-5" d="M470.75,97.75a1.19,1.19,0,0,1-.17-1.46c4.23-6.86,6.24-13.82,6-20.71a1.19,1.19,0,0,1,2-.89L493.84,90a1.19,1.19,0,0,1-1.68,1.68L478.91,78.39a39.88,39.88,0,0,1-6.3,19.14,1.19,1.19,0,0,1-1.64.39A1.84,1.84,0,0,1,470.75,97.75Z"/><path class="cls-5" d="M470.76,97.75a1,1,0,0,1-.18-.22,1.19,1.19,0,0,1,.4-1.63c7.29-4.46,14.72-6.58,22.07-6.29A1.19,1.19,0,0,1,493,92c-6.88-.27-13.85,1.72-20.74,5.93A1.18,1.18,0,0,1,470.76,97.75Z"/><path class="cls-5" d="M492.08,91.56,477,76.46a3.41,3.41,0,0,1,0-4.91,3.59,3.59,0,0,1,2.28-1.06,3.32,3.32,0,0,1,2.62,1L497,86.63a3.39,3.39,0,0,1,0,4.9,3.61,3.61,0,0,1-2.28,1.07A3.39,3.39,0,0,1,492.08,91.56ZM480.22,73.21a1.1,1.1,0,0,0-1.56,1.56l15.1,15.11a1.11,1.11,0,0,0,1.57-1.57Z"/><path class="cls-5" d="M458.12,143.84a24.84,24.84,0,1,1,35.14,0A24.85,24.85,0,0,1,458.12,143.84Zm33.45-33.45a22.46,22.46,0,1,0,0,31.77A22.46,22.46,0,0,0,491.57,110.39Z"/><path class="cls-5" d="M451.34,129.77a1.2,1.2,0,0,1,0-1.68l26.17-26.16a1.18,1.18,0,0,1,1.68,0,1.2,1.2,0,0,1,0,1.68L453,129.77A1.18,1.18,0,0,1,451.34,129.77Z"/><path class="cls-5" d="M458.15,110.41a1.18,1.18,0,0,1,0-1.68L470.78,96.1a1.19,1.19,0,1,1,1.68,1.68l-12.63,12.63A1.18,1.18,0,0,1,458.15,110.41Z"/><path class="cls-5" d="M463,132.91a5.45,5.45,0,0,1-1.63-3.49,5,5,0,0,1,1.59-4l11.88-11.88a5.31,5.31,0,0,1,7.51,7.51l-11.88,11.88A5.12,5.12,0,0,1,463,132.91Zm17.63-17.64a2.76,2.76,0,0,0-4.11,0l-11.88,11.88a2.93,2.93,0,0,0,4.15,4.15l11.88-11.88A2.76,2.76,0,0,0,480.64,115.27Z"/><path class="cls-5" d="M479.28,131.54l-14.85-14.85a1.19,1.19,0,0,1,0-1.68,1.21,1.21,0,0,1,1.69,0L481,129.86a1.2,1.2,0,0,1,0,1.68A1.18,1.18,0,0,1,479.28,131.54Z"/><path class="cls-5" d="M478,132.77a1.2,1.2,0,0,1,0-1.68l2.47-2.46a1.19,1.19,0,1,1,1.68,1.68l-2.46,2.46A1.19,1.19,0,0,1,478,132.77Z"/><path class="cls-5" d="M473.76,137.06l-14.85-14.85a1.19,1.19,0,0,1,1.68-1.68l14.85,14.85a1.2,1.2,0,0,1,0,1.68A1.18,1.18,0,0,1,473.76,137.06Z"/><path class="cls-5" d="M472.55,138.27a1.21,1.21,0,0,1,0-1.69l2.44-2.43a1.19,1.19,0,1,1,1.68,1.68l-2.44,2.44A1.2,1.2,0,0,1,472.55,138.27Z"/><path class="cls-5" d="M484.8,126l-14.86-14.85a1.2,1.2,0,0,1,0-1.68,1.21,1.21,0,0,1,1.69,0l14.85,14.85a1.2,1.2,0,0,1,0,1.68A1.18,1.18,0,0,1,484.8,126Z"/><path class="cls-5" d="M483.56,127.26a1.21,1.21,0,0,1,0-1.69l2.47-2.46a1.18,1.18,0,0,1,1.68,0,1.2,1.2,0,0,1,0,1.68l-2.47,2.47A1.2,1.2,0,0,1,483.56,127.26Z"/><path class="cls-5" d="M461.32,140.65a20.43,20.43,0,0,1-5.9-16.25,1.19,1.19,0,1,1,2.37.21A18,18,0,1,0,474,108.38a1.19,1.19,0,1,1-.21-2.37,20.34,20.34,0,1,1-12.5,34.64Z"/><path class="cls-6" d="M152.14,104.68a10.65,10.65,0,0,1-7.61-3.15,10.8,10.8,0,0,1,0-15.23l17.41-17.41a10.77,10.77,0,1,1,15.24,15.23l-17.45,17.41A10.61,10.61,0,0,1,152.14,104.68Zm-6.18-17a8.76,8.76,0,0,0,0,12.37,8.73,8.73,0,0,0,12.34,0L175.75,82.7a8.82,8.82,0,0,0,0-12.38,8.76,8.76,0,0,0-12.38,0L146,87.73Z"/><path class="cls-6" d="M170.47,95.84a1,1,0,0,1-.72-.3L150.5,76.31a1,1,0,0,1,0-1.42,1,1,0,0,1,1.43,0l19.26,19.23a1,1,0,0,1,0,1.43A1,1,0,0,1,170.47,95.84Z"/><path class="cls-6" d="M149.86,78a1,1,0,0,1-.71-.3,1,1,0,0,1,0-1.43l2.72-2.73a1,1,0,0,1,1.43,0,1,1,0,0,1,0,1.43l-2.72,2.73A1,1,0,0,1,149.86,78Z"/><path class="cls-6" d="M165.12,101.19a1,1,0,0,1-.72-.3L145.14,81.67a1,1,0,0,1,1.43-1.43l19.26,19.22a1,1,0,0,1,0,1.43A1,1,0,0,1,165.12,101.19Z"/><path class="cls-6" d="M144.51,83.31a1,1,0,0,1-.72-1.72l2.73-2.73a1,1,0,0,1,1.43,0,1,1,0,0,1,0,1.43L145.22,83A1,1,0,0,1,144.51,83.31Z"/><path class="cls-6" d="M175.82,90.48a1,1,0,0,1-.71-.29L155.85,71a1,1,0,0,1,0-1.43,1,1,0,0,1,1.43,0l19.26,19.23a1,1,0,0,1,0,1.43A1,1,0,0,1,175.82,90.48Z"/><path class="cls-6" d="M155.22,72.6a1,1,0,0,1-.72-.29,1,1,0,0,1,0-1.43l2.73-2.73a1,1,0,0,1,1.43,1.43l-2.73,2.73A1,1,0,0,1,155.22,72.6Z"/><path class="cls-6" d="M135,98.29a1,1,0,0,1-.72-.29,1,1,0,0,1,0-1.43l32.83-32.83a1,1,0,1,1,1.43,1.43L135.69,98A1,1,0,0,1,135,98.29Z"/><path class="cls-6" d="M167.81,65.46a1,1,0,0,1-.53-.14,1,1,0,0,1-.33-1.39,30.92,30.92,0,0,0,5-17.25,1,1,0,0,1,1.72-.75q6.31,6.36,12.69,12.69a1,1,0,1,1-1.42,1.43c-3.67-3.64-7.35-7.31-11-11A33.77,33.77,0,0,1,168.67,65,1,1,0,0,1,167.81,65.46Z"/><path class="cls-6" d="M135.72,99a1,1,0,0,1-.72-.3l-1.48-1.48a1,1,0,0,1,0-1.43,1,1,0,0,1,1.43,0l1.48,1.48a1,1,0,0,1,0,1.43A1,1,0,0,1,135.72,99Z"/><path class="cls-6" d="M167.81,65.46a1,1,0,0,1-.53-1.87,32.86,32.86,0,0,1,18.38-5.26,1,1,0,0,1,0,2h0a30.72,30.72,0,0,0-17.25,5A1,1,0,0,1,167.81,65.46Z"/><path class="cls-2" d="M312.8,146.38a10.65,10.65,0,0,0,7.6-3.15,10.79,10.79,0,0,0,0-15.23L303,110.59a10.77,10.77,0,0,0-15.24,15.23l17.45,17.41A10.61,10.61,0,0,0,312.8,146.38ZM319,129.43a8.76,8.76,0,0,1,0,12.37,8.73,8.73,0,0,1-12.34,0l-17.45-17.42a8.8,8.8,0,0,1,0-12.37,8.75,8.75,0,0,1,12.37,0L319,129.43Z"/><path class="cls-2" d="M294.46,137.53a1,1,0,0,0,.72-.29L314.43,118a1,1,0,1,0-1.42-1.43l-19.26,19.23a1,1,0,0,0,0,1.43A1,1,0,0,0,294.46,137.53Z"/><path class="cls-2" d="M315.07,119.65a1,1,0,0,0,.71-.29,1,1,0,0,0,0-1.43l-2.72-2.73a1,1,0,0,0-1.43,0,1,1,0,0,0,0,1.43l2.72,2.73A1,1,0,0,0,315.07,119.65Z"/><path class="cls-2" d="M299.82,142.89a1,1,0,0,0,.71-.3l19.26-19.22a1,1,0,0,0,0-1.43,1,1,0,0,0-1.43,0L299.1,141.16a1,1,0,0,0,.72,1.73Z"/><path class="cls-2" d="M320.42,125a1,1,0,0,0,.72-1.73l-2.73-2.72a1,1,0,0,0-1.43,0,1,1,0,0,0,0,1.43l2.73,2.72A1,1,0,0,0,320.42,125Z"/><path class="cls-2" d="M289.11,132.18a1,1,0,0,0,.71-.29l19.26-19.23a1,1,0,1,0-1.43-1.43L288.4,130.45a1,1,0,0,0,0,1.43A1,1,0,0,0,289.11,132.18Z"/><path class="cls-2" d="M309.71,114.3a1,1,0,0,0,.72-.29,1,1,0,0,0,0-1.43l-2.73-2.73a1,1,0,0,0-1.43,0,1,1,0,0,0,0,1.43L309,114A1,1,0,0,0,309.71,114.3Z"/><path class="cls-2" d="M330,140a1,1,0,0,0,.71-1.72l-32.82-32.83a1,1,0,0,0-1.43,1.43l32.82,32.83A1,1,0,0,0,330,140Z"/><path class="cls-2" d="M297.12,107.16a1,1,0,0,0,.53-.15,1,1,0,0,0,.33-1.39,30.9,30.9,0,0,1-5-17.25,1,1,0,0,0-.6-1,1,1,0,0,0-1.12.22Q285,94,278.6,100.32a1,1,0,0,0,1.42,1.43q5.52-5.46,11-11a33.64,33.64,0,0,0,5.24,15.91A1,1,0,0,0,297.12,107.16Z"/><path class="cls-2" d="M329.21,140.73a1,1,0,0,0,.71-.29l1.49-1.49a1,1,0,1,0-1.43-1.42L328.5,139a1,1,0,0,0,.71,1.72Z"/><path class="cls-2" d="M297.12,107.16a1,1,0,0,0,.53-1.87A32.92,32.92,0,0,0,279.28,100a1,1,0,0,0,0,2h0a30.87,30.87,0,0,1,17.24,5A1,1,0,0,0,297.12,107.16Z"/><path class="cls-7" d="M266,137.49H213.6a.93.93,0,0,1-.92-.93V102A18.84,18.84,0,0,1,231.5,83.22a18.61,18.61,0,0,1,11.26,3.72,19.08,19.08,0,0,1,6.71,9.47c.06.19.13.43.2.7.73,2.63,1.71,5.2,5.11,5.69a15.58,15.58,0,0,1,8.3,3.86h0a11.56,11.56,0,0,1,3.86,8.63v21.27A.93.93,0,0,1,266,137.49Zm-51.48-1.86h50.55V115.29a9.79,9.79,0,0,0-3.26-7.27,13.75,13.75,0,0,0-7.3-3.39c-4.89-.69-6.06-4.94-6.63-7-.08-.31-.13-.5-.19-.67a17.33,17.33,0,0,0-6-8.56A17,17,0,0,0,214.53,102v33.59Z"/><path class="cls-7" d="M266,128.26H213.6a.93.93,0,0,1,0-1.86H266a.93.93,0,1,1,0,1.86Z"/><path class="cls-7" d="M218.77,134.42a.93.93,0,0,1-.93-.93v-6.16a.93.93,0,1,1,1.86,0v6.16A.92.92,0,0,1,218.77,134.42Z"/><path class="cls-7" d="M222.27,134.42a.93.93,0,0,1-.93-.93v-6.16a.93.93,0,1,1,1.86,0v6.16A.93.93,0,0,1,222.27,134.42Z"/><path class="cls-7" d="M229.3,134.42a.92.92,0,0,1-.93-.93v-6.16a.93.93,0,1,1,1.86,0v6.16A.93.93,0,0,1,229.3,134.42Z"/><path class="cls-7" d="M232.8,134.42a.92.92,0,0,1-.93-.93v-6.16a.93.93,0,1,1,1.85,0v6.16A.92.92,0,0,1,232.8,134.42Z"/><path class="cls-7" d="M236.29,134.42a.93.93,0,0,1-.93-.93v-6.16a.93.93,0,0,1,1.86,0v6.16A.92.92,0,0,1,236.29,134.42Z"/><path class="cls-7" d="M243.32,134.42a.93.93,0,0,1-.93-.93v-6.16a.93.93,0,0,1,1.86,0v6.16A.93.93,0,0,1,243.32,134.42Z"/><path class="cls-7" d="M246.82,134.42a.93.93,0,0,1-.93-.93v-6.16a.93.93,0,0,1,1.86,0v6.16A.93.93,0,0,1,246.82,134.42Z"/><path class="cls-7" d="M253.84,134.42a.92.92,0,0,1-.92-.93v-6.16a.93.93,0,1,1,1.85,0v6.16A.92.92,0,0,1,253.84,134.42Z"/><path class="cls-7" d="M257.34,134.42a.93.93,0,0,1-.93-.93v-6.16a.93.93,0,0,1,1.86,0v6.16A.93.93,0,0,1,257.34,134.42Z"/><path class="cls-7" d="M260.84,134.42a.93.93,0,0,1-.93-.93v-6.16a.93.93,0,0,1,1.86,0v6.16A.93.93,0,0,1,260.84,134.42Z"/><path class="cls-7" d="M217.6,103.62a.92.92,0,0,1-.93-.93,15,15,0,0,1,15-15,.93.93,0,0,1,0,1.86,13.1,13.1,0,0,0-13.09,13.09A.93.93,0,0,1,217.6,103.62Z"/><path class="cls-7" d="M217.41,120.24H213.6a.93.93,0,0,1,0-1.85h3.81a.93.93,0,1,1,0,1.85Z"/><path class="cls-7" d="M266,120.24H262.2a.93.93,0,1,1,0-1.85H266a.93.93,0,1,1,0,1.85Z"/><path class="cls-5" d="M263.35,89.75h0a.74.74,0,0,1-.51-.21L259,85.7a.71.71,0,0,1,0-1l21-21a.72.72,0,0,1,.51-.22h0a.75.75,0,0,1,.51.22l3.81,3.83a.72.72,0,0,1,0,1l-21,21A.75.75,0,0,1,263.35,89.75Zm-2.8-4.55,2.8,2.81,20-20-2.8-2.82Z"/><path class="cls-5" d="M278.47,70.82a.72.72,0,0,1-.51-1.23l.48-.48a.72.72,0,0,1,1,1l-.48.48A.73.73,0,0,1,278.47,70.82Z"/><path class="cls-5" d="M275.09,74.2a.72.72,0,0,1-.51-1.23l.48-.48a.72.72,0,0,1,1,1l-.48.48A.73.73,0,0,1,275.09,74.2Z"/><path class="cls-5" d="M271.69,77.58a.71.71,0,0,1-.51-.21.72.72,0,0,1,0-1l.48-.48a.72.72,0,0,1,1,0,.72.72,0,0,1,0,1l-.47.48A.75.75,0,0,1,271.69,77.58Z"/><path class="cls-5" d="M268.31,81a.71.71,0,0,1-.52-.23.72.72,0,0,1,0-1l.48-.46a.72.72,0,0,1,1,0,.71.71,0,0,1,0,1l-.48.46A.7.7,0,0,1,268.31,81Z"/><path class="cls-5" d="M264.93,84.36a.72.72,0,0,1-.51-1.23l.48-.48a.72.72,0,0,1,1,1l-.48.48A.73.73,0,0,1,264.93,84.36Z"/><path class="cls-5" d="M286,67.08h0a.74.74,0,0,1-.51-.21L281.7,63a.71.71,0,0,1,0-1l5.58-5.59a.72.72,0,0,1,1,0l3.83,3.81a.72.72,0,0,1,.22.51.74.74,0,0,1-.21.51l-5.61,5.61A.75.75,0,0,1,286,67.08Zm-2.8-4.55,2.8,2.81,4.59-4.59L287.79,58Z"/><path class="cls-5" d="M287.72,62.36a.74.74,0,0,1-.5-.2l-.82-.8a.71.71,0,0,1,0-1,.72.72,0,0,1,1,0l.81.79a.72.72,0,0,1-.5,1.24Z"/><path class="cls-5" d="M286.5,62.77a.71.71,0,0,1-.51-.21.72.72,0,0,1,0-1l.81-.82a.72.72,0,0,1,1,1l-.81.82A.73.73,0,0,1,286.5,62.77Z"/><path class="cls-5" d="M262.39,92.15a.73.73,0,0,1-.51-.21l-5.25-5.25a.72.72,0,0,1,0-1L258.31,84a.72.72,0,0,1,1,0l5.25,5.25a.72.72,0,0,1,0,1l-1.68,1.68A.73.73,0,0,1,262.39,92.15Zm-4.23-6,4.23,4.23.66-.66-4.23-4.23Z"/><path class="cls-5" d="M258.51,94.59a.71.71,0,0,1-.51-.21l-3.81-3.81a.69.69,0,0,1-.21-.51.71.71,0,0,1,.21-.51l3.16-3.16a.72.72,0,0,1,1,0l3.81,3.81a.72.72,0,0,1,0,1L259,94.38A.73.73,0,0,1,258.51,94.59Zm-2.8-4.53,2.8,2.8,2.14-2.15-2.79-2.79Z"/><path class="cls-5" d="M285.06,69.48a.73.73,0,0,1-.51-.21L279.3,64a.72.72,0,0,1,0-1L281,61.32a.72.72,0,0,1,1,0l5.25,5.25a.72.72,0,0,1,0,1l-1.68,1.68A.73.73,0,0,1,285.06,69.48Zm-4.23-6,4.23,4.23.66-.66-4.23-4.23Z"/><path class="cls-5" d="M291.63,61.47a.69.69,0,0,1-.51-.21l-3.84-3.81a.74.74,0,0,1-.21-.51.73.73,0,0,1,.22-.52,17.52,17.52,0,0,1,5.53-3.8.72.72,0,0,1,.75.17l2.2,2.18a.73.73,0,0,1,.18.75,17.41,17.41,0,0,1-3.8,5.53.72.72,0,0,1-.51.22ZM288.83,57l2.78,2.76a16.22,16.22,0,0,0,2.81-4.06l-1.53-1.52A16.2,16.2,0,0,0,288.83,57Z"/><path class="cls-7" d="M131.2,72.56h-5a.79.79,0,0,1-.8-.79.8.8,0,0,1,.8-.8h5a1.35,1.35,0,0,0,1.25-.74,1.38,1.38,0,0,0,0-1.44l-15.21-24.1L102,68.78a1.36,1.36,0,0,0,0,1.44,1.43,1.43,0,0,0,1.26.75h18.67a.8.8,0,0,1,.8.8.79.79,0,0,1-.8.79H103.24a3,3,0,0,1-2.54-4.64l15.86-25.14a.82.82,0,0,1,1.34,0l15.87,25.15a2.93,2.93,0,0,1,.08,3.06A3,3,0,0,1,131.2,72.56Z"/><path class="cls-7" d="M117.23,44a.79.79,0,0,1-.56-.23l-2.88-2.89a4.85,4.85,0,0,1,3.44-8.28h0a4.85,4.85,0,0,1,3.4,8.28l-2.85,2.88a.82.82,0,0,1-.57.24Zm0-9.81a3.27,3.27,0,0,0-2.32,5.57l2.32,2.32,2.29-2.32a3.24,3.24,0,0,0,0-4.61,3.18,3.18,0,0,0-2.29-1Z"/><path class="cls-7" d="M131.46,79a.81.81,0,0,1-.61-.28l-15.2-18.07a.79.79,0,1,1,1.21-1l15.21,18.06a.79.79,0,0,1-.1,1.12A.77.77,0,0,1,131.46,79Z"/><path class="cls-5" d="M195.81,94.21a5.21,5.21,0,0,0,.72.6l-1.8,1.85-1.59-1.58L195,93.3a4.94,4.94,0,0,0,.52.61ZM191,97.15l-4.38,4.22,1.8,1.81,4.23-4.37Zm-10.91,10.51,4.38-4.22,1.88,1.88-4.23,4.37ZM178,109.73l-8.31,8,2.38,2.38,8-8.28ZM163,124.12l4.48-4.31,2.45,2.44-4.31,4.46Zm39.46-29.36a5.18,5.18,0,0,1-2.68.95l-24,24.75c4.82,6.3,4.83,11.92,0,16.72A16.15,16.15,0,0,1,170,141a6.74,6.74,0,0,0-4.51,6.05,21.38,21.38,0,0,1-6.25,13.78c-3.07,3.08-6.44,4.62-10.06,4.62a14,14,0,0,1-3.41-.44c-4-1-8.16-3.73-12.73-8.3-10.06-10.06-11.45-18.88-4.13-26.21a21.44,21.44,0,0,1,13.78-6.24,6.75,6.75,0,0,0,6-4.5,17,17,0,0,1,3.77-5.85c4.83-4.82,10.45-4.81,16.75,0L194,90.08a5.16,5.16,0,0,1,.95-2.82l-.14-.14A1.49,1.49,0,1,1,196.9,85l.14.14.92-.93-.09-.09a1.49,1.49,0,1,1,2.06-2.15l.14.13.92-.92-.09-.09A1.49,1.49,0,0,1,203,78.91l.16.16a3.67,3.67,0,0,1,4.7.28l2.57,2.56a3.7,3.7,0,0,1,.31,4.73l.15.16a1.5,1.5,0,0,1-1.07,2.53,1.53,1.53,0,0,1-1.08-.46l-.09-.1-.93.92.14.15a1.49,1.49,0,0,1-1.07,2.52,1.52,1.52,0,0,1-1.08-.46l-.1-.11-.93.92.16.16a1.49,1.49,0,0,1-.05,2.1,1.49,1.49,0,0,1-2.11,0Zm-4.86-6,3.5-3.5,0,0h0l3.7-3.7a.61.61,0,0,1,.43-.17.64.64,0,0,1,.44.17l2.51,2.5a.67.67,0,0,1,0,.9L201,92.1a2.18,2.18,0,0,1-3.1,0l-.3-.3A2.21,2.21,0,0,1,197.62,88.74Zm-28.79,39,4.91-5.06c3.6,4.88,3.59,8.87,0,12.46a13.14,13.14,0,0,1-4.77,3.12,9.78,9.78,0,0,0-6.43,8.66,18.36,18.36,0,0,1-5.38,11.85c-3.27,3.27-6.75,4.38-10.63,3.4-3.41-.86-7.23-3.39-11.36-7.52-8.9-8.91-10.21-15.89-4.12-22a18.48,18.48,0,0,1,11.85-5.38,9.76,9.76,0,0,0,8.66-6.42,13.91,13.91,0,0,1,3.09-4.79c3.6-3.6,7.58-3.6,12.46,0L162,120.93a9.24,9.24,0,1,0-2.18,18.22h0a9.09,9.09,0,0,0,6.47-2.71A9.31,9.31,0,0,0,168.83,127.69Zm-13.39-2.23a6.22,6.22,0,0,1,4-1.81,1.63,1.63,0,0,0-.07.45,1.54,1.54,0,0,0,.44,1.07l4.77,4.71a1.49,1.49,0,0,0,1,.44h0a2,2,0,0,0,.43-.07,6.34,6.34,0,0,1-1.85,4.09,6.12,6.12,0,0,1-4.36,1.83h0a6.27,6.27,0,0,1-4.42-10.71Zm-8.87,24.79a1.49,1.49,0,0,0,2.11-2.11l-7.05-7a1.49,1.49,0,1,0-2.11,2.1Z"/><path class="cls-4" d="M196.53,94.81l.31.3.36-.37-.43-.29Zm-.72-.6-.31.3h0Zm-1.08,2.45-.31.31.31.31L195,97Zm-1.59-1.58-.3-.31-.32.3.32.31ZM195,93.3l.35-.26-.29-.4-.36.34Zm.52.61.31-.31h0Zm-8.89,7.46-.3-.31-.32.3.31.32ZM191,97.15l.3-.31-.3-.3-.3.29Zm-2.58,6-.3.3.31.31.3-.31Zm4.23-4.37.32.3.29-.31-.3-.3Zm-8.18,4.63.31-.31-.3-.3-.31.3Zm-4.38,4.22-.3-.31-.32.31.32.31Zm6.26-2.34.31.3.3-.31-.3-.3Zm-4.23,4.37-.31.3.31.32.31-.32Zm-12.48,8-.3-.31-.31.31.31.31Zm8.31-8,.3-.31-.3-.3-.31.3ZM172,120.11l-.31.31.32.31.3-.32Zm8-8.28.31.3.3-.31-.3-.3Zm-12.54,8,.3-.31-.3-.3-.3.29ZM163,124.12l-.3-.31-.32.3.32.32Zm6.93-1.87.31.31.3-.31-.31-.3Zm-4.31,4.46-.31.3.31.31L166,127Zm34.16-31,0-.43h-.17l-.12.12Zm2.68-.95.31-.3-.26-.27-.3.22Zm-26.65,25.7-.31-.3-.26.27.23.3Zm0,16.72-.31-.3h0ZM170,141l.15.4h0Zm-4.51,6.05.43,0h0Zm-6.25,13.78-.31-.31h0Zm-10.06,4.62v.44h0Zm-3.41-.44-.1.42h0Zm-12.73-8.3.3-.31Zm-4.13-26.21.31.31h0Zm13.78-6.24,0-.44h0Zm6-4.5-.4-.16h0Zm3.77-5.85-.3-.31h0Zm16.75,0-.27.34.3.23.27-.26ZM194,90.08l.31.31.12-.12V90.1Zm.95-2.82.35.25.22-.3-.27-.26Zm-.14-.14.3-.31h0Zm-.05-2.1.31.3h0Zm2.11,0-.3.31h0Zm.14.14-.3.31.3.29.3-.3Zm.92-.93.31.31.31-.31-.32-.31Zm-.09-.09.3-.31h0Zm-.05-2.1.32.3h0Zm2.11,0-.3.31h0Zm.14.13-.3.32.3.29.31-.3Zm.92-.92.31.31.31-.31-.32-.31Zm-.09-.09-.3.32h0Zm0-2.11.31.31h0Zm2.1,0,.3-.31h0Zm.16.16-.3.31.27.26.3-.23Zm4.7.28.31-.31h0Zm2.57,2.56.31-.29h0Zm.31,4.73-.35-.26-.22.3.26.26Zm.15.16.32-.3h0Zm0,2.11.3.32h0Zm-2.11,0-.31.3h0Zm-.09-.1.31-.3-.3-.32-.32.31Zm-.93.92-.3-.31-.31.3.3.31Zm.14.15-.31.3h0Zm0,2.1-.3-.31h0Zm-2.11,0-.31.3h0Zm-.1-.11.31-.3-.3-.32-.32.31Zm-.93.92-.3-.31-.31.3.3.31Zm.16.16.31-.3h0Zm-.05,2.1-.3-.31h0Zm-2.11,0,.32-.3h0Zm-1.52-9.69-.3-.31h0Zm-3.5,3.5-.31-.31h0Zm3.55-3.55.31.3h0Zm0,0-.3-.31h0Zm3.7-3.7-.3-.31h0Zm.87,0,.31-.31h0Zm2.51,2.5.31-.3h0Zm0,.9.3.31h0ZM201,92.1l-.3-.31h0Zm-3.1,0-.31.31h0Zm-.3-.3.31-.31h0Zm-23.88,30.83.35-.26-.31-.41-.36.37Zm-4.91,5.06-.31-.3-.17.18.06.23Zm4.9,7.4-.31-.31h0ZM169,138.21l.15.41h0Zm-6.43,8.66.44,0h0Zm-5.38,11.85-.3-.3h0Zm-10.63,3.4-.1.42h0Zm-11.36-7.52.31-.31h0Zm-4.12-22,.31.31h0Zm11.85-5.38,0-.43h0Zm8.66-6.42-.41-.15h0Zm3.09-4.79-.31-.31Zm12.46,0,.31.32.36-.36-.41-.3ZM162,120.93l-.1.42.23.06.17-.17Zm-8.71,2.42L153,123h0Zm0,13.09.3-.31h0Zm6.53,2.71v-.44h0Zm0,0v.43h0Zm6.47-2.71-.31-.31h0Zm-6.9-12.79.41.13.2-.6-.63,0Zm-4,1.81.3.3Zm4-1.36h0Zm.44,1.07-.3.3h0Zm4.77,4.71-.31.31h0Zm1.06.44v.43h0Zm.43-.07.44,0,0-.63-.6.18Zm-1.85,4.09-.31-.31h0Zm-4.36,1.83v.43h0Zm-4.45-1.84.3-.31h0Zm-8.87,15.92.31-.31h0Zm2.11,0,.31.31h0Zm0-2.11-.31.31h0Zm-7.05-7-.31.3h0Zm-2.11,0-.31-.31h0Zm0,2.1.3-.3h0Zm57.25-48.74a4.81,4.81,0,0,1-.66-.55l-.61.61a5.27,5.27,0,0,0,.78.65ZM195,97l1.8-1.86-.63-.61-1.79,1.86Zm-2.2-1.59L194.42,97l.62-.61-1.59-1.59Zm1.85-2.4-1.85,1.79.61.62,1.84-1.78Zm1.13.62a3.64,3.64,0,0,1-.48-.56l-.7.51a5,5,0,0,0,.56.67Zm.29.3-.29-.3-.62.62.3.29Zm-9.19,7.78,4.38-4.22-.6-.63-4.38,4.23Zm1.81,1.19-1.81-1.81-.61.62,1.81,1.8Zm3.61-4.37-4.23,4.37.62.61L193,99.11Zm-1.65-1,1.66,1.66.61-.61-1.66-1.66Zm-6.52,5.68-4.38,4.22.6.62,4.38-4.22Zm2.49,1.88-1.88-1.88-.62.62,1.88,1.87Zm-4.23,5,4.23-4.37L186,105l-4.23,4.36Zm-2.64-2,2,2,.62-.61-2-2ZM170,118.05l8.3-8-.61-.63-8.3,8Zm2.38,1.76L170,117.43l-.61.61,2.37,2.38Zm7.4-8.28-8,8.28.62.6,8-8.28ZM177.64,110l2.1,2.1.61-.62-2.1-2.1Zm-10.44,9.45-4.48,4.32.6.62,4.48-4.31Zm3.05,2.46-2.45-2.45-.61.61,2.45,2.45ZM166,127l4.31-4.45-.62-.61-4.32,4.45Zm-3.23-2.58,2.61,2.58.61-.61-2.61-2.59Zm37.11-28.29a5.48,5.48,0,0,0,2.9-1l-.5-.7a4.85,4.85,0,0,1-2.45.87Zm-23.68,24.62,24-24.75-.63-.6-24,24.75Zm0,16.73a11.3,11.3,0,0,0,3.73-8.11c0-2.92-1.27-6-3.71-9.18l-.69.53c2.37,3.1,3.52,6,3.53,8.65a10.47,10.47,0,0,1-3.47,7.5Zm-6,3.91a16.52,16.52,0,0,0,6-3.91l-.63-.61a15.61,15.61,0,0,1-5.67,3.71Zm-4.24,5.67a6.33,6.33,0,0,1,4.23-5.67l-.3-.81a7.19,7.19,0,0,0-4.8,6.43Zm-6.37,14.07a21.85,21.85,0,0,0,6.37-14.07l-.87,0a20.9,20.9,0,0,1-6.12,13.5Zm-10.37,4.75c3.75,0,7.23-1.61,10.37-4.75l-.62-.62c-3,3-6.27,4.5-9.75,4.5Zm-3.51-.46a14.34,14.34,0,0,0,3.51.46V165a13.12,13.12,0,0,1-3.3-.43ZM132.75,157c4.6,4.6,8.84,7.37,12.94,8.41l.21-.84c-3.89-1-8-3.64-12.54-8.19Zm-4.12-26.82c-3.75,3.74-5.3,7.91-4.58,12.45s3.64,9.31,8.7,14.37l.61-.62c-5-5-7.79-9.64-8.46-13.89s.76-8.11,4.34-11.7Zm14.05-6.38a21.81,21.81,0,0,0-14.05,6.38l.61.61a21,21,0,0,1,13.5-6.12Zm5.68-4.22a6.31,6.31,0,0,1-5.67,4.22l.05.87a7.17,7.17,0,0,0,6.43-4.78Zm3.87-6a17.31,17.31,0,0,0-3.87,6l.81.31a16.5,16.5,0,0,1,3.67-5.69Zm17.31,0c-3.19-2.46-6.26-3.73-9.18-3.74a11.32,11.32,0,0,0-8.13,3.73l.61.62a10.46,10.46,0,0,1,7.51-3.48c2.67,0,5.56,1.17,8.66,3.55Zm24.19-23.84L169,113.64l.61.62,24.76-23.87Zm.9-2.76a5.61,5.61,0,0,0-1,3l.87,0a4.75,4.75,0,0,1,.86-2.59Zm-.09.43.14.13.6-.62-.14-.14Zm-.06-2.72a1.92,1.92,0,0,0,.06,2.72l.6-.63a1,1,0,0,1,0-1.49Zm2.72-.06a1.92,1.92,0,0,0-2.72.06l.62.6a1.06,1.06,0,0,1,1.5,0Zm.14.13-.14-.13-.6.62.14.14Zm.31-.91-.92.92.61.61.93-.92Zm-.08.53.09.09.6-.63-.09-.09Zm-.06-2.72a1.92,1.92,0,0,0,.06,2.72l.6-.63a1,1,0,0,1,0-1.49Zm2.72-.06a1.92,1.92,0,0,0-2.72.06l.63.6a1,1,0,0,1,1.49,0Zm.14.13-.14-.13-.6.62.14.14Zm.31-.92-.92.93.62.61.92-.92Zm-.08.54.09.09.6-.63-.09-.09Zm-.06-2.73a1.94,1.94,0,0,0,.06,2.73l.6-.63a1,1,0,0,1,0-1.49Zm2.72-.05a1.93,1.93,0,0,0-2.72.05l.63.61a1,1,0,0,1,1.49,0Zm.16.15-.16-.15-.6.62.16.16Zm4.7.28a4.11,4.11,0,0,0-5.26-.31l.53.69a3.24,3.24,0,0,1,4.13.25Zm2.57,2.58L208.13,79l-.62.62,2.57,2.56Zm.36,5.29a4.11,4.11,0,0,0-.35-5.28l-.63.59a3.25,3.25,0,0,1,.28,4.17Zm.12-.4-.16-.16-.62.6.15.17Zm-.06,2.73a1.94,1.94,0,0,0,.06-2.73l-.63.61a1,1,0,0,1,0,1.49Zm-1.33.53a1.94,1.94,0,0,0,1.33-.53l-.6-.63a1,1,0,0,1-.73.29Zm-1.39-.59a1.93,1.93,0,0,0,1.39.59v-.87a1.07,1.07,0,0,1-.76-.32Zm-.09-.1.09.1.63-.6-.1-.1ZM208,90l.92-.92-.61-.62-.92.92Zm.15-.46-.14-.15-.63.6.14.15Zm-.06,2.72a1.93,1.93,0,0,0,.06-2.72l-.63.6a1.06,1.06,0,0,1,0,1.49Zm-1.33.53a1.94,1.94,0,0,0,1.33-.53l-.6-.63a1,1,0,0,1-.73.29Zm-1.39-.59a1.93,1.93,0,0,0,1.39.59v-.87a1.05,1.05,0,0,1-.76-.32Zm-.11-.11.11.11.63-.6-.11-.11ZM205,93l.92-.92-.61-.62-.92.92Zm.16-.45-.15-.16-.63.6.15.16Zm-.06,2.72a1.93,1.93,0,0,0,.06-2.72l-.63.6a1.06,1.06,0,0,1,0,1.49Zm-1.33.53a1.89,1.89,0,0,0,1.33-.53l-.6-.63a1,1,0,0,1-.73.29Zm-1.39-.59a1.93,1.93,0,0,0,1.39.59V95a1,1,0,0,1-.76-.32Zm-.16-.17.16.17.63-.6-.17-.17Zm-1.36-10.12-3.5,3.49.62.62,3.49-3.5Zm0,0,0,0,.59.63a.46.46,0,0,0,.07-.07Zm0,0h0l.63.6h0Zm3.7-3.71-3.69,3.7.61.61,3.7-3.7Zm.74-.29a1,1,0,0,0-.73.29l.61.62s0,0,.12,0Zm.74.28a1.07,1.07,0,0,0-.74-.28v.87a.25.25,0,0,1,.14,0Zm2.51,2.51-2.5-2.5-.61.62,2.5,2.5Zm0,1.52a1.11,1.11,0,0,0,0-1.51l-.63.6a.27.27,0,0,1,.07.18.16.16,0,0,1,0,.12Zm-7.26,7.21,7.25-7.21-.61-.61-7.25,7.2Zm-3.72,0a2.64,2.64,0,0,0,3.72,0l-.61-.62a1.77,1.77,0,0,1-2.5,0Zm-.3-.3.3.3.61-.62-.29-.3Zm0-3.68a2.67,2.67,0,0,0,0,3.68l.62-.62a1.77,1.77,0,0,1,0-2.44Zm-23.89,33.9-4.9,5.06.62.61,4.91-5.07ZM174,135.4a8.55,8.55,0,0,0,2.83-6.06c0-2.18-1-4.49-2.78-7l-.7.52c1.77,2.4,2.61,4.53,2.61,6.45a7.58,7.58,0,0,1-2.58,5.44Zm-4.92,3.22a13.51,13.51,0,0,0,4.92-3.23l-.62-.6a12.83,12.83,0,0,1-4.61,3ZM163,146.89a9.33,9.33,0,0,1,6.14-8.27l-.3-.82a10.21,10.21,0,0,0-6.71,9ZM157.46,159A18.86,18.86,0,0,0,163,146.89l-.87,0a18,18,0,0,1-5.25,11.58Zm-11,3.51c4.05,1,7.68-.15,11-3.51l-.61-.61c-3.19,3.18-6.51,4.22-10.22,3.28Zm-11.56-7.63c4.15,4.15,8,6.74,11.56,7.63l.21-.84c-3.3-.83-7-3.3-11.16-7.41Zm-4.13-22.61c-3.12,3.13-4.39,6.54-3.68,10.33s3.33,7.8,7.81,12.28l.61-.62c-4.43-4.43-6.91-8.33-7.56-11.82s.47-6.58,3.44-9.55Zm12.14-5.5a18.9,18.9,0,0,0-12.14,5.5l.62.62a18,18,0,0,1,11.57-5.25Zm8.27-6.14a9.31,9.31,0,0,1-8.27,6.14l0,.87a10.23,10.23,0,0,0,9-6.7Zm3.19-5a14.3,14.3,0,0,0-3.19,5l.82.31a13.42,13.42,0,0,1,3-4.65Zm13,0c-2.48-1.85-4.78-2.81-7-2.81a8.42,8.42,0,0,0-6.06,2.82l.62.61a7.59,7.59,0,0,1,5.44-2.56c1.93,0,4.05.85,6.45,2.63Zm-5,5.54,5.07-4.88-.61-.63-5.06,4.88Zm-8.71,2.42a8.85,8.85,0,0,1,8.31-2.31l.2-.84A9.66,9.66,0,0,0,153,123Zm-2.58,6.23a8.77,8.77,0,0,1,2.58-6.23L153,123a9.64,9.64,0,0,0-2.84,6.85Zm2.58,6.24a8.79,8.79,0,0,1-2.58-6.24h-.87a9.6,9.6,0,0,0,2.84,6.85Zm6.23,2.58a8.74,8.74,0,0,1-6.23-2.58l-.61.61a9.62,9.62,0,0,0,6.84,2.84Zm0,0h0v.87h0Zm6.16-2.58a8.64,8.64,0,0,1-6.16,2.58v.87a9.49,9.49,0,0,0,6.78-2.84Zm2.35-8.33a8.86,8.86,0,0,1-2.35,8.33l.61.61a9.69,9.69,0,0,0,2.58-9.15Zm-9-4.58a6.64,6.64,0,0,0-4.32,1.93l.61.61a5.81,5.81,0,0,1,3.76-1.67Zm.38.88a1.77,1.77,0,0,1,0-.32l-.82-.26a1.84,1.84,0,0,0-.09.57Zm.32.76a1.09,1.09,0,0,1-.32-.76H159a1.88,1.88,0,0,0,.57,1.38Zm4.77,4.72-4.77-4.72-.61.61,4.76,4.72Zm.74.3a1.09,1.09,0,0,1-.75-.3l-.6.61a1.9,1.9,0,0,0,1.35.56Zm0,0h0v.87h0Zm.3,0a1,1,0,0,1-.3,0v.87a1.71,1.71,0,0,0,.55-.09Zm-1.41,4.82a6.84,6.84,0,0,0,2-4.37l-.87-.06a5.9,5.9,0,0,1-1.73,3.81Zm-4.67,1.95a6.55,6.55,0,0,0,4.67-2l-.62-.61a5.64,5.64,0,0,1-4.05,1.7Zm0,0h0v-.87h0Zm-4.73-2a6.67,6.67,0,0,0,4.73,2v-.87a5.78,5.78,0,0,1-4.12-1.71Zm-2-4.75a6.67,6.67,0,0,0,2,4.75l.61-.62a5.81,5.81,0,0,1-1.71-4.13Zm2-4.74a6.65,6.65,0,0,0-2,4.74H154a5.83,5.83,0,0,1,1.71-4.13Zm-7.51,25.1a1,1,0,0,1-.74-.31l-.62.62a2,2,0,0,0,1.36.56Zm.75-.31a1,1,0,0,1-.75.31v.87a2,2,0,0,0,1.37-.56Zm0-1.49a1.06,1.06,0,0,1,0,1.49l.62.62a1.94,1.94,0,0,0,0-2.73Zm-7.05-7.06,7.05,7.06.62-.62-7.06-7.05Zm-1.5,0a1.07,1.07,0,0,1,1.5,0l.61-.61a1.93,1.93,0,0,0-2.72,0Zm0,1.5a1.07,1.07,0,0,1,0-1.5l-.61-.61a1.93,1.93,0,0,0,0,2.72Zm7.06,7.05-7.06-7.05-.61.61,7,7.06Z"/><path class="cls-1" d="M78.05,42.8a.87.87,0,0,1-1.18.07L74,40.25a.84.84,0,0,1-.06-1.17A.86.86,0,0,1,75.09,39L78,41.62A.87.87,0,0,1,78.05,42.8Z"/><path class="cls-1" d="M78.07,39.81l-3,3.32A.83.83,0,1,1,73.85,42l3-3.33A.87.87,0,0,1,78,38.63.86.86,0,0,1,78.07,39.81Z"/><path class="cls-1" d="M95.83,32.84a4.68,4.68,0,1,1-.3-6.66A4.7,4.7,0,0,1,95.83,32.84Zm-5.32-4.79A2.48,2.48,0,1,0,94,27.84,2.5,2.5,0,0,0,90.51,28.05Z"/><path class="cls-8" d="M8.72,32a4.68,4.68,0,1,1-7-6.27,4.72,4.72,0,0,1,6.66-.4A4.72,4.72,0,0,1,8.72,32ZM3.4,27.18A2.48,2.48,0,1,0,6.92,27,2.49,2.49,0,0,0,3.4,27.18Z"/><path class="cls-1" d="M464.62,42.8a.85.85,0,0,1-1.17.07l-2.91-2.62A.84.84,0,0,1,461.66,39l2.91,2.62A.86.86,0,0,1,464.62,42.8Z"/><path class="cls-1" d="M464.65,39.81l-3,3.32a.83.83,0,1,1-1.23-1.1l3-3.33a.85.85,0,0,1,1.17-.07A.87.87,0,0,1,464.65,39.81Z"/><path class="cls-1" d="M476.08,31.11a4.68,4.68,0,1,1-.3-6.67A4.72,4.72,0,0,1,476.08,31.11Zm-5.32-4.79a2.48,2.48,0,1,0,3.53-.22A2.48,2.48,0,0,0,470.76,26.32Z"/><path class="cls-1" d="M203.56,135.88a4.68,4.68,0,1,1-.3-6.67A4.71,4.71,0,0,1,203.56,135.88Zm-5.32-4.8a2.48,2.48,0,1,0,3.53-.21A2.48,2.48,0,0,0,198.24,131.08Z"/><path class="cls-1" d="M225.43,75.67a2.32,2.32,0,1,1-.14-3.3A2.33,2.33,0,0,1,225.43,75.67Zm-2.63-2.38a1.23,1.23,0,1,0,1.75-.1A1.23,1.23,0,0,0,222.8,73.29Z"/><path class="cls-1" d="M256.38,74.44a.44.44,0,0,1-.54-.33l-.75-3.44a.43.43,0,0,1,.34-.53.44.44,0,0,1,.54.34l.75,3.43A.43.43,0,0,1,256.38,74.44Z"/><path class="cls-1" d="M257.91,72.3l-3.82.85a.43.43,0,0,1-.53-.34.43.43,0,0,1,.34-.53l3.82-.84a.44.44,0,1,1,.19.86Z"/><path class="cls-1" d="M375.62,12.22a1.64,1.64,0,0,1-2.31.45L362.49,5.26a1.64,1.64,0,0,1-.41-2.32,1.63,1.63,0,0,1,2.31-.45L375.2,9.9A1.63,1.63,0,0,1,375.62,12.22Z"/><path class="cls-1" d="M374.32,2.51l-8.22,12a1.65,1.65,0,1,1-2.72-1.87l8.22-12A1.63,1.63,0,0,1,373.91.2,1.63,1.63,0,0,1,374.32,2.51Z"/><path class="cls-1" d="M389.58,24a1.14,1.14,0,0,1-1.39-.88L387,17.73a1.17,1.17,0,0,1,2.29-.5l1.19,5.37A1.15,1.15,0,0,1,389.58,24Z"/><path class="cls-1" d="M392.05,20.63,385.93,22a1.15,1.15,0,1,1-.5-2.25l6.12-1.35a1.16,1.16,0,1,1,.5,2.26Z"/><path class="cls-6" d="M361.46,85.29a11,11,0,0,1-4.42-1,2.63,2.63,0,0,1,2.13-4.82h0c1.05.47,4.2,1.86,9.33-3.39a2.63,2.63,0,1,1,3.76,3.69C368.19,84,364.49,85.29,361.46,85.29Z"/><path class="cls-6" d="M370.43,97.75a2.64,2.64,0,0,0,2.41,1.56,2.55,2.55,0,0,0,1.07-.23,2.63,2.63,0,0,0,1.33-3.48c-.45-1-1.83-4.13,3.47-9.34A2.63,2.63,0,1,0,375,82.5C368.49,88.92,368.92,94.33,370.43,97.75Z"/><path class="cls-6" d="M436.31,28.94a12.12,12.12,0,0,0,4.26.84,7.44,7.44,0,0,0,5.32-2c1.78-1.89,2.36-4.74,1.64-7.84.26-.23.51-.46.76-.71A17.53,17.53,0,0,0,453,11.28c.8-3.18.19-6.06-1.65-7.91s-4.78-2.5-8-1.7a17.42,17.42,0,0,0-7.86,4.68c-.28.28-.54.55-.78.82-3.11-.79-5.95-.22-7.82,1.65s-2.5,4.79-1.69,8a14.07,14.07,0,0,0,.54,1.67L405.2,38.17c-14.11-10-30.14-7.48-48.92,7.61a2.64,2.64,0,0,0-.21,3.92l3.51,3.51a7.35,7.35,0,0,1,0,10.33l-5.79,5.8a7.3,7.3,0,0,1-10.31,0l-4.3-4.3a2.62,2.62,0,0,0-3.63-.09c-9.64,8.75-18.75,17-19,28.08-.19,7.64,3.79,15.76,12.44,25.28a2.4,2.4,0,0,0,.47.54.4.4,0,0,0,.12.1c.4.44.82.89,1.25,1.33L328,123.1a2.63,2.63,0,0,0,0,3.72,2.63,2.63,0,0,0,3.72,0l2.81-2.81c.44.43.89.85,1.33,1.25l.09.12a2.41,2.41,0,0,0,.55.47c9.3,8.47,17.25,12.47,24.73,12.47h.51c11.05-.27,19.31-9.39,28.05-19a2.64,2.64,0,0,0-.09-3.63l-4.3-4.31a7.34,7.34,0,0,1,0-10.32l5.79-5.8a7.49,7.49,0,0,1,10.31,0L405,98.71a2.64,2.64,0,0,0,2,.77,2.62,2.62,0,0,0,1.91-1c14.74-18.55,17.2-34.52,7.5-48.74ZM336.42,118.5l1.6,1.56,14-12.35-5-4.91-12.33,14c.5.53,1,1.06,1.55,1.6l0,0,0,0Zm95.21-92.29A17,17,0,0,1,430,24.75a20.14,20.14,0,0,1-1.46-1.62l-45.2,43.21,5.07,5.12,22.69-23.78.2-.18Zm-1-13.67a2.08,2.08,0,0,1,1.45-.44,6.7,6.7,0,0,1,2.51.57,2.63,2.63,0,0,0,3.13-.85,15.48,15.48,0,0,1,1.51-1.74,12.37,12.37,0,0,1,5.42-3.3,3.23,3.23,0,0,1,3,.32c.5.5.6,1.58.27,2.9a12.55,12.55,0,0,1-3.34,5.49c-.33.33-.69.63-1,.92l-.1.08-.65.54a2.63,2.63,0,0,0-.73,2.95c.69,1.8.7,3.44.1,4.09-1.12,1.08-5,.43-8.42-3a12.67,12.67,0,0,1-3.38-5.52C430,14.16,430.12,13.08,430.66,12.54Zm-40.3,64.52-.11.11a2.58,2.58,0,0,1-1.53.69l-.21,0h-.06a2.67,2.67,0,0,1-1.82-.73h0l-.05-.05-8.86-9a3.29,3.29,0,0,1-.33-.41l0,0v0a1.91,1.91,0,0,1-.15-.28.69.69,0,0,1,0-.1,2.7,2.7,0,0,1-.21-1,2.64,2.64,0,0,1,.81-1.87l23.51-22.5c-11.31-7.45-24-5.45-39.38,6.2l1.4,1.41a12.59,12.59,0,0,1,0,17.78l-5.79,5.8a12.57,12.57,0,0,1-17.76,0l-2.52-2.53C328.88,78.16,322,85,321.79,93.16c-.14,5.67,2.95,12.16,9.41,19.71L345,97.22a2.61,2.61,0,0,1,1.91-.89.85.85,0,0,1,.16,0,2.61,2.61,0,0,1,1.76.76l8.94,8.87a2.58,2.58,0,0,1,.73,1.34,2.63,2.63,0,0,1-.23,1.72,2.71,2.71,0,0,1-.61.79l-15.71,13.81q11.37,9.74,19.68,9.42c8.19-.2,15-7.09,22.58-15.46l-2.52-2.53a12.6,12.6,0,0,1,0-17.78l5.79-5.8a12.57,12.57,0,0,1,17.75,0l1.4,1.4c11.34-15.21,13.3-27.8,6.08-39.21Z"/><path class="cls-6" d="M397.29,128a2.64,2.64,0,0,0-.76,1.6c0,.14,0,.27,0,.41a2.7,2.7,0,0,0,0,.28L398,140l-10.56,10.59a2.63,2.63,0,1,0,3.72,3.73l78.33-78.53a2.67,2.67,0,0,0,.74-2.26l-1.67-11a2.63,2.63,0,0,0-4.47-1.5Zm67.56-55-62.2,62.37-.7-4.57,62.22-62.31Z"/><path class="cls-9" d="M361.46,85.29a11,11,0,0,1-4.42-1,2.63,2.63,0,0,1,2.13-4.82h0c1.05.47,4.2,1.86,9.33-3.39a2.63,2.63,0,1,1,3.76,3.69C368.19,84,364.49,85.29,361.46,85.29Z"/><path class="cls-9" d="M370.43,97.75a2.64,2.64,0,0,0,2.41,1.56,2.55,2.55,0,0,0,1.07-.23,2.63,2.63,0,0,0,1.33-3.48c-.45-1-1.83-4.13,3.47-9.34A2.63,2.63,0,1,0,375,82.5C368.49,88.92,368.92,94.33,370.43,97.75Z"/><path class="cls-9" d="M436.31,28.94a12.12,12.12,0,0,0,4.26.84,7.44,7.44,0,0,0,5.32-2c1.78-1.89,2.36-4.74,1.64-7.84.26-.23.51-.46.76-.71A17.53,17.53,0,0,0,453,11.28c.8-3.18.19-6.06-1.65-7.91s-4.78-2.5-8-1.7a17.42,17.42,0,0,0-7.86,4.68c-.28.28-.54.55-.78.82-3.11-.79-5.95-.22-7.82,1.65s-2.5,4.79-1.69,8a14.07,14.07,0,0,0,.54,1.67L405.2,38.17c-14.11-10-30.14-7.48-48.92,7.61a2.64,2.64,0,0,0-.21,3.92l3.51,3.51a7.35,7.35,0,0,1,0,10.33l-5.79,5.8a7.3,7.3,0,0,1-10.31,0l-4.3-4.3a2.62,2.62,0,0,0-3.63-.09c-9.64,8.75-18.75,17-19,28.08-.19,7.64,3.79,15.76,12.44,25.28a2.4,2.4,0,0,0,.47.54.4.4,0,0,0,.12.1c.4.44.82.89,1.25,1.33L328,123.1a2.63,2.63,0,0,0,0,3.72,2.63,2.63,0,0,0,3.72,0l2.81-2.81c.44.43.89.85,1.33,1.25l.09.12a2.41,2.41,0,0,0,.55.47c9.3,8.47,17.25,12.47,24.73,12.47h.51c11.05-.27,19.31-9.39,28.05-19a2.64,2.64,0,0,0-.09-3.63l-4.3-4.31a7.34,7.34,0,0,1,0-10.32l5.79-5.8a7.49,7.49,0,0,1,10.31,0L405,98.71a2.64,2.64,0,0,0,2,.77,2.62,2.62,0,0,0,1.91-1c14.74-18.55,17.2-34.52,7.5-48.74ZM336.42,118.5l1.6,1.56,14-12.35-5-4.91-12.33,14c.5.53,1,1.06,1.55,1.6l0,0,0,0Zm95.21-92.29A17,17,0,0,1,430,24.75a20.14,20.14,0,0,1-1.46-1.62l-45.2,43.21,5.07,5.12,22.69-23.78.2-.18Zm-1-13.67a2.08,2.08,0,0,1,1.45-.44,6.7,6.7,0,0,1,2.51.57,2.63,2.63,0,0,0,3.13-.85,15.48,15.48,0,0,1,1.51-1.74,12.37,12.37,0,0,1,5.42-3.3,3.23,3.23,0,0,1,3,.32c.5.5.6,1.58.27,2.9a12.55,12.55,0,0,1-3.34,5.49c-.33.33-.69.63-1,.92l-.1.08-.65.54a2.63,2.63,0,0,0-.73,2.95c.69,1.8.7,3.44.1,4.09-1.12,1.08-5,.43-8.42-3a12.67,12.67,0,0,1-3.38-5.52C430,14.16,430.12,13.08,430.66,12.54Zm-40.3,64.52-.11.11a2.58,2.58,0,0,1-1.53.69l-.21,0h-.06a2.67,2.67,0,0,1-1.82-.73h0l-.05-.05-8.86-9a3.29,3.29,0,0,1-.33-.41l0,0v0a1.91,1.91,0,0,1-.15-.28.69.69,0,0,1,0-.1,2.7,2.7,0,0,1-.21-1,2.64,2.64,0,0,1,.81-1.87l23.51-22.5c-11.31-7.45-24-5.45-39.38,6.2l1.4,1.41a12.59,12.59,0,0,1,0,17.78l-5.79,5.8a12.57,12.57,0,0,1-17.76,0l-2.52-2.53C328.88,78.16,322,85,321.79,93.16c-.14,5.67,2.95,12.16,9.41,19.71L345,97.22a2.61,2.61,0,0,1,1.91-.89.85.85,0,0,1,.16,0,2.61,2.61,0,0,1,1.76.76l8.94,8.87a2.58,2.58,0,0,1,.73,1.34,2.63,2.63,0,0,1-.23,1.72,2.71,2.71,0,0,1-.61.79l-15.71,13.81q11.37,9.74,19.68,9.42c8.19-.2,15-7.09,22.58-15.46l-2.52-2.53a12.6,12.6,0,0,1,0-17.78l5.79-5.8a12.57,12.57,0,0,1,17.75,0l1.4,1.4c11.34-15.21,13.3-27.8,6.08-39.21Z"/><path class="cls-9" d="M397.29,128a2.64,2.64,0,0,0-.76,1.6c0,.14,0,.27,0,.41a2.7,2.7,0,0,0,0,.28L398,140l-10.56,10.59a2.63,2.63,0,1,0,3.72,3.73l78.33-78.53a2.67,2.67,0,0,0,.74-2.26l-1.67-11a2.63,2.63,0,0,0-4.47-1.5Zm67.56-55-62.2,62.37-.7-4.57,62.22-62.31Z"/></svg>