<svg width="585" height="167" viewBox="0 0 585 167" fill="none" xmlns="http://www.w3.org/2000/svg">
<mask id="path-1-inside-1" fill="white">
<path fill-rule="evenodd" clip-rule="evenodd" d="M11 58.802C11 61.7674 12.9058 64.8996 16.4676 65.5009C26.0531 74.5735 32.7112 86.7711 36.2657 101.769C36.2699 101.787 36.2743 101.805 36.2789 101.823V136.093V136.093C36.2789 151.216 43.2328 164.744 54.1062 173.638C54.3193 173.903 54.5896 174.121 54.8984 174.272C63.115 180.712 73.4544 184.555 84.6728 184.555L84.7825 184.555H134.534V185.25C134.534 186.53 135.573 187.569 136.854 187.569C138.135 187.569 139.174 186.53 139.174 185.25V182.313C139.175 182.287 139.175 182.261 139.175 182.235C139.175 182.21 139.175 182.184 139.174 182.158V179.221C139.174 177.94 138.135 176.902 136.854 176.902C135.573 176.902 134.534 177.94 134.534 179.221V179.916H105.359C121.768 172.142 133.144 155.421 133.144 136.093C133.144 109.371 111.398 87.6315 84.6728 87.6315C73.4553 87.6315 63.1166 91.4737 54.9003 97.9129C54.59 98.0644 54.3186 98.283 54.1049 98.5498C48.5526 103.092 44.0224 108.842 40.9183 115.395V101.235C40.9183 101.222 40.9182 101.21 40.918 101.197C44.5794 86.4369 51.2149 74.4331 60.6526 65.4989C62.1545 65.2424 63.4717 64.5222 64.446 63.4098C65.5247 62.1743 66.1186 60.538 66.1186 58.8019C66.1186 55.5042 63.7616 52 59.3939 52H17.7274C15.706 52 13.9109 52.7802 12.6752 54.1941C11.5939 55.4296 11 57.0659 11 58.802ZM17.7274 56.6385C15.7885 56.6385 15.6394 58.2947 15.6394 58.8019C15.6394 59.3092 15.7885 60.9654 17.7274 60.9654H59.3939C61.33 60.9654 61.4819 59.3092 61.4819 58.8019C61.4819 58.2947 61.3301 56.6385 59.3939 56.6385H17.7274ZM54.0562 65.604H23.0613C29.8558 73.0545 35.0378 82.1466 38.5378 92.7556C42.0787 82.1348 47.2749 73.0426 54.0562 65.604ZM84.7771 179.916C108.898 179.86 128.505 160.223 128.505 136.093C128.505 111.929 108.842 92.27 84.6728 92.27C74.7485 92.27 65.5853 95.5964 58.2363 101.195V106.504C65.4938 100.054 74.8563 96.4422 84.6735 96.4422C106.541 96.4422 124.332 114.229 124.332 136.093C124.332 157.957 106.541 175.744 84.6735 175.744C74.8542 175.744 65.4932 172.132 58.2363 165.681V170.992C65.5799 176.586 74.735 179.911 84.6509 179.916L84.6744 179.916H84.7771ZM58.2363 159.117C64.9511 166.747 74.5373 171.105 84.6735 171.105C103.982 171.105 119.693 155.399 119.693 136.093C119.693 116.787 103.982 101.081 84.6735 101.081C74.5373 101.081 64.9511 105.439 58.2363 113.068V118.547H66.0182C66.5802 112.567 71.4807 109.447 76.3247 109.447C81.1687 109.447 86.0693 112.567 86.6313 118.547H94.5673V117.465C94.5673 116.184 95.606 115.146 96.887 115.146C98.168 115.146 99.2067 116.184 99.2067 117.465V120.797C99.2073 120.82 99.2077 120.843 99.2077 120.866C99.2077 120.889 99.2073 120.912 99.2067 120.935V124.267C99.2067 125.548 98.168 126.586 96.887 126.586C95.606 126.586 94.5673 125.548 94.5673 124.267V123.185H86.6848V133.773H94.5673V132.691C94.5673 131.41 95.606 130.372 96.887 130.372C98.168 130.372 99.2067 131.41 99.2067 132.691V136.024C99.2073 136.047 99.2077 136.07 99.2077 136.093C99.2077 136.116 99.2073 136.139 99.2067 136.162V139.493C99.2067 140.774 98.168 141.812 96.887 141.812C95.606 141.812 94.5673 140.774 94.5673 139.493V138.412H86.6848V148.999H94.5673V147.918C94.5673 146.637 95.606 145.599 96.887 145.599C98.168 145.599 99.2067 146.637 99.2067 147.918V151.25C99.2073 151.273 99.2077 151.296 99.2077 151.319C99.2077 151.342 99.2073 151.365 99.2067 151.388V154.643C99.2067 155.924 98.168 156.962 96.887 156.962C95.606 156.962 94.5673 155.924 94.5673 154.643V153.638H86.6313C86.0693 159.618 81.1687 162.738 76.3247 162.738C73.6562 162.738 71.1474 161.828 69.2671 160.176C67.9127 158.988 66.3259 156.923 66.018 153.638H58.2363V159.117ZM81.9526 118.547C81.4384 115.475 78.8709 114.084 76.3247 114.084C73.7786 114.084 71.2111 115.475 70.6969 118.547H81.9526ZM82.0454 123.185V133.773H70.6041V123.185H82.0454ZM65.9647 123.185H58.2363V133.773H65.9647V123.185ZM53.5969 120.866V105.272C45.7629 113.195 40.9183 124.088 40.9183 136.093C40.9183 148.098 45.7629 158.991 53.5969 166.914V151.319V136.093V120.866ZM58.2363 148.999H65.9647V138.412H58.2363V148.999ZM70.6969 153.638C71.2111 156.71 73.7786 158.101 76.3247 158.101C78.8709 158.101 81.4384 156.71 81.9526 153.638H70.6969ZM82.0454 148.999H70.6041V138.412H82.0454V148.999Z"/>
</mask>
<path fill-rule="evenodd" clip-rule="evenodd" d="M11 58.802C11 61.7674 12.9058 64.8996 16.4676 65.5009C26.0531 74.5735 32.7112 86.7711 36.2657 101.769C36.2699 101.787 36.2743 101.805 36.2789 101.823V136.093V136.093C36.2789 151.216 43.2328 164.744 54.1062 173.638C54.3193 173.903 54.5896 174.121 54.8984 174.272C63.115 180.712 73.4544 184.555 84.6728 184.555L84.7825 184.555H134.534V185.25C134.534 186.53 135.573 187.569 136.854 187.569C138.135 187.569 139.174 186.53 139.174 185.25V182.313C139.175 182.287 139.175 182.261 139.175 182.235C139.175 182.21 139.175 182.184 139.174 182.158V179.221C139.174 177.94 138.135 176.902 136.854 176.902C135.573 176.902 134.534 177.94 134.534 179.221V179.916H105.359C121.768 172.142 133.144 155.421 133.144 136.093C133.144 109.371 111.398 87.6315 84.6728 87.6315C73.4553 87.6315 63.1166 91.4737 54.9003 97.9129C54.59 98.0644 54.3186 98.283 54.1049 98.5498C48.5526 103.092 44.0224 108.842 40.9183 115.395V101.235C40.9183 101.222 40.9182 101.21 40.918 101.197C44.5794 86.4369 51.2149 74.4331 60.6526 65.4989C62.1545 65.2424 63.4717 64.5222 64.446 63.4098C65.5247 62.1743 66.1186 60.538 66.1186 58.8019C66.1186 55.5042 63.7616 52 59.3939 52H17.7274C15.706 52 13.9109 52.7802 12.6752 54.1941C11.5939 55.4296 11 57.0659 11 58.802ZM17.7274 56.6385C15.7885 56.6385 15.6394 58.2947 15.6394 58.8019C15.6394 59.3092 15.7885 60.9654 17.7274 60.9654H59.3939C61.33 60.9654 61.4819 59.3092 61.4819 58.8019C61.4819 58.2947 61.3301 56.6385 59.3939 56.6385H17.7274ZM54.0562 65.604H23.0613C29.8558 73.0545 35.0378 82.1466 38.5378 92.7556C42.0787 82.1348 47.2749 73.0426 54.0562 65.604ZM84.7771 179.916C108.898 179.86 128.505 160.223 128.505 136.093C128.505 111.929 108.842 92.27 84.6728 92.27C74.7485 92.27 65.5853 95.5964 58.2363 101.195V106.504C65.4938 100.054 74.8563 96.4422 84.6735 96.4422C106.541 96.4422 124.332 114.229 124.332 136.093C124.332 157.957 106.541 175.744 84.6735 175.744C74.8542 175.744 65.4932 172.132 58.2363 165.681V170.992C65.5799 176.586 74.735 179.911 84.6509 179.916L84.6744 179.916H84.7771ZM58.2363 159.117C64.9511 166.747 74.5373 171.105 84.6735 171.105C103.982 171.105 119.693 155.399 119.693 136.093C119.693 116.787 103.982 101.081 84.6735 101.081C74.5373 101.081 64.9511 105.439 58.2363 113.068V118.547H66.0182C66.5802 112.567 71.4807 109.447 76.3247 109.447C81.1687 109.447 86.0693 112.567 86.6313 118.547H94.5673V117.465C94.5673 116.184 95.606 115.146 96.887 115.146C98.168 115.146 99.2067 116.184 99.2067 117.465V120.797C99.2073 120.82 99.2077 120.843 99.2077 120.866C99.2077 120.889 99.2073 120.912 99.2067 120.935V124.267C99.2067 125.548 98.168 126.586 96.887 126.586C95.606 126.586 94.5673 125.548 94.5673 124.267V123.185H86.6848V133.773H94.5673V132.691C94.5673 131.41 95.606 130.372 96.887 130.372C98.168 130.372 99.2067 131.41 99.2067 132.691V136.024C99.2073 136.047 99.2077 136.07 99.2077 136.093C99.2077 136.116 99.2073 136.139 99.2067 136.162V139.493C99.2067 140.774 98.168 141.812 96.887 141.812C95.606 141.812 94.5673 140.774 94.5673 139.493V138.412H86.6848V148.999H94.5673V147.918C94.5673 146.637 95.606 145.599 96.887 145.599C98.168 145.599 99.2067 146.637 99.2067 147.918V151.25C99.2073 151.273 99.2077 151.296 99.2077 151.319C99.2077 151.342 99.2073 151.365 99.2067 151.388V154.643C99.2067 155.924 98.168 156.962 96.887 156.962C95.606 156.962 94.5673 155.924 94.5673 154.643V153.638H86.6313C86.0693 159.618 81.1687 162.738 76.3247 162.738C73.6562 162.738 71.1474 161.828 69.2671 160.176C67.9127 158.988 66.3259 156.923 66.018 153.638H58.2363V159.117ZM81.9526 118.547C81.4384 115.475 78.8709 114.084 76.3247 114.084C73.7786 114.084 71.2111 115.475 70.6969 118.547H81.9526ZM82.0454 123.185V133.773H70.6041V123.185H82.0454ZM65.9647 123.185H58.2363V133.773H65.9647V123.185ZM53.5969 120.866V105.272C45.7629 113.195 40.9183 124.088 40.9183 136.093C40.9183 148.098 45.7629 158.991 53.5969 166.914V151.319V136.093V120.866ZM58.2363 148.999H65.9647V138.412H58.2363V148.999ZM70.6969 153.638C71.2111 156.71 73.7786 158.101 76.3247 158.101C78.8709 158.101 81.4384 156.71 81.9526 153.638H70.6969ZM82.0454 148.999H70.6041V138.412H82.0454V148.999Z" fill="#FF4284"/>
<path d="M16.4676 65.5009L17.155 64.7746L16.934 64.5655L16.6341 64.5148L16.4676 65.5009ZM36.2657 101.769L37.2392 101.541L37.2388 101.539L36.2657 101.769ZM36.2789 101.823H37.2789V101.695L37.2468 101.571L36.2789 101.823ZM54.1062 173.638L54.8862 173.012L54.8205 172.93L54.7394 172.863L54.1062 173.638ZM54.8984 174.272L55.5153 173.485L55.4324 173.42L55.3379 173.374L54.8984 174.272ZM84.6728 184.555V185.555H84.6739L84.6728 184.555ZM84.7825 184.555V183.555H84.7814L84.7825 184.555ZM134.534 184.555H135.534V183.555H134.534V184.555ZM139.174 182.313L138.174 182.28L138.174 182.296V182.313H139.174ZM139.174 182.158H138.174V182.174L138.174 182.191L139.174 182.158ZM134.534 179.916V180.916H135.534V179.916H134.534ZM105.359 179.916L104.931 179.012L105.359 180.916V179.916ZM54.9003 97.9129L55.339 98.8116L55.4339 98.7652L55.5171 98.7L54.9003 97.9129ZM54.1049 98.5498L54.7381 99.3238L54.8196 99.2571L54.8854 99.1749L54.1049 98.5498ZM40.9183 115.395H39.9183L41.8221 115.823L40.9183 115.395ZM40.918 101.197L39.9474 100.956L39.916 101.083L39.9181 101.213L40.918 101.197ZM60.6526 65.4989L60.4842 64.5132L60.1853 64.5642L59.9651 64.7727L60.6526 65.4989ZM64.446 63.4098L65.1983 64.0687L65.1993 64.0675L64.446 63.4098ZM12.6752 54.1941L13.4277 54.8527L13.4281 54.8522L12.6752 54.1941ZM23.0613 65.604V64.604H20.796L22.3224 66.2778L23.0613 65.604ZM54.0562 65.604L54.7952 66.2777L56.321 64.604H54.0562V65.604ZM38.5378 92.7556L37.5881 93.0689L38.5328 95.9323L39.4864 93.0719L38.5378 92.7556ZM84.7771 179.916V180.916H84.7795L84.7771 179.916ZM58.2363 101.195L57.6303 100.399L57.2363 100.699V101.195H58.2363ZM58.2363 106.504H57.2363V108.731L58.9006 107.251L58.2363 106.504ZM58.2363 165.681L58.9007 164.934L57.2363 163.454V165.681H58.2363ZM58.2363 170.992H57.2363V171.487L57.6303 171.787L58.2363 170.992ZM84.6509 179.916L84.6504 180.916L84.6558 180.916L84.6509 179.916ZM84.6744 179.916V178.916L84.6696 178.916L84.6744 179.916ZM58.2363 159.117H57.2363V159.494L57.4856 159.777L58.2363 159.117ZM58.2363 113.068L57.4857 112.407L57.2363 112.69V113.068H58.2363ZM58.2363 118.547H57.2363V119.547H58.2363V118.547ZM66.0182 118.547V119.547H66.9286L67.0138 118.64L66.0182 118.547ZM86.6313 118.547L85.6357 118.64L85.7209 119.547H86.6313V118.547ZM94.5673 118.547V119.547H95.5673V118.547H94.5673ZM99.2067 120.797H98.2067V120.812L98.2071 120.826L99.2067 120.797ZM99.2067 120.935L98.2071 120.906L98.2067 120.92V120.935H99.2067ZM94.5673 123.185H95.5673V122.185H94.5673V123.185ZM86.6848 123.185V122.185H85.6848V123.185H86.6848ZM86.6848 133.773H85.6848V134.773H86.6848V133.773ZM94.5673 133.773V134.773H95.5673V133.773H94.5673ZM99.2067 136.024H98.2067V136.038L98.2071 136.053L99.2067 136.024ZM99.2067 136.162L98.2071 136.132L98.2067 136.147V136.162H99.2067ZM94.5673 138.412H95.5673V137.412H94.5673V138.412ZM86.6848 138.412V137.412H85.6848V138.412H86.6848ZM86.6848 148.999H85.6848V149.999H86.6848V148.999ZM94.5673 148.999V149.999H95.5673V148.999H94.5673ZM99.2067 151.25H98.2067V151.264L98.2071 151.279L99.2067 151.25ZM99.2067 151.388L98.2071 151.358L98.2067 151.373V151.388H99.2067ZM94.5673 153.638H95.5673V152.638H94.5673V153.638ZM86.6313 153.638V152.638H85.7209L85.6357 153.544L86.6313 153.638ZM69.2671 160.176L69.9272 159.425L69.9265 159.424L69.2671 160.176ZM66.018 153.638L67.0136 153.545L66.9286 152.638H66.018V153.638ZM58.2363 153.638V152.638H57.2363V153.638H58.2363ZM81.9526 118.547V119.547H83.1338L82.9388 118.382L81.9526 118.547ZM70.6969 118.547L69.7107 118.382L69.5156 119.547H70.6969V118.547ZM82.0454 133.773V134.773H83.0454V133.773H82.0454ZM82.0454 123.185H83.0454V122.185H82.0454V123.185ZM70.6041 133.773H69.6041V134.773H70.6041V133.773ZM70.6041 123.185V122.185H69.6041V123.185H70.6041ZM58.2363 123.185V122.185H57.2363V123.185H58.2363ZM65.9647 123.185H66.9647V122.185H65.9647V123.185ZM58.2363 133.773H57.2363V134.773H58.2363V133.773ZM65.9647 133.773V134.773H66.9647V133.773H65.9647ZM53.5969 105.272H54.5969V102.839L52.8858 104.569L53.5969 105.272ZM53.5969 166.914L52.8858 167.617L54.5969 169.348V166.914H53.5969ZM65.9647 148.999V149.999H66.9647V148.999H65.9647ZM58.2363 148.999H57.2363V149.999H58.2363V148.999ZM65.9647 138.412H66.9647V137.412H65.9647V138.412ZM58.2363 138.412V137.412H57.2363V138.412H58.2363ZM70.6969 153.638V152.638H69.5156L69.7107 153.803L70.6969 153.638ZM81.9526 153.638L82.9388 153.803L83.1339 152.638H81.9526V153.638ZM70.6041 148.999H69.6041V149.999H70.6041V148.999ZM82.0454 148.999V149.999H83.0454V148.999H82.0454ZM70.6041 138.412V137.412H69.6041V138.412H70.6041ZM82.0454 138.412H83.0454V137.412H82.0454V138.412ZM16.6341 64.5148C13.6503 64.0111 12 61.3845 12 58.802H10C10 62.1502 12.1613 65.7881 16.3011 66.4869L16.6341 64.5148ZM37.2388 101.539C33.647 86.3835 26.9044 74.0024 17.155 64.7746L15.7802 66.2272C25.2017 75.1446 31.7753 87.1587 35.2927 102L37.2388 101.539ZM37.2468 101.571C37.2442 101.561 37.2417 101.551 37.2392 101.541L35.2922 101.998C35.2982 102.023 35.3045 102.049 35.3111 102.074L37.2468 101.571ZM37.2789 136.093V101.823H35.2789V136.093H37.2789ZM37.2789 136.093V136.093H35.2789V136.093H37.2789ZM54.7394 172.863C44.0875 164.151 37.2789 150.903 37.2789 136.093H35.2789C35.2789 151.53 42.378 165.336 53.4731 174.412L54.7394 172.863ZM55.3379 173.374C55.1625 173.288 55.0081 173.164 54.8862 173.012L53.3262 174.263C53.6305 174.642 54.0166 174.954 54.4589 175.17L55.3379 173.374ZM84.6728 183.555C73.6868 183.555 63.5628 179.792 55.5153 173.485L54.2815 175.059C62.6672 181.632 73.2221 185.555 84.6728 185.555V183.555ZM84.7814 183.555L84.6717 183.555L84.6739 185.555L84.7836 185.555L84.7814 183.555ZM134.534 183.555H84.7825V185.555H134.534V183.555ZM135.534 185.25V184.555H133.534V185.25H135.534ZM136.854 186.569C136.125 186.569 135.534 185.978 135.534 185.25H133.534C133.534 187.083 135.021 188.569 136.854 188.569V186.569ZM138.174 185.25C138.174 185.978 137.583 186.569 136.854 186.569V188.569C138.687 188.569 140.174 187.083 140.174 185.25H138.174ZM138.174 182.313V185.25H140.174V182.313H138.174ZM138.175 182.235C138.175 182.25 138.175 182.265 138.174 182.28L140.173 182.345C140.175 182.309 140.175 182.272 140.175 182.235H138.175ZM138.174 182.191C138.175 182.206 138.175 182.221 138.175 182.235H140.175C140.175 182.199 140.175 182.162 140.173 182.125L138.174 182.191ZM138.174 179.221V182.158H140.174V179.221H138.174ZM136.854 177.902C137.583 177.902 138.174 178.493 138.174 179.221H140.174C140.174 177.388 138.687 175.902 136.854 175.902V177.902ZM135.534 179.221C135.534 178.493 136.125 177.902 136.854 177.902V175.902C135.021 175.902 133.534 177.388 133.534 179.221H135.534ZM135.534 179.916V179.221H133.534V179.916H135.534ZM105.359 180.916H134.534V178.916H105.359V180.916ZM132.144 136.093C132.144 155.019 121.005 171.397 104.931 179.012L105.787 180.82C122.531 172.887 134.144 155.823 134.144 136.093H132.144ZM84.6728 88.6315C110.846 88.6315 132.144 109.924 132.144 136.093H134.144C134.144 108.819 111.951 86.6315 84.6728 86.6315V88.6315ZM55.5171 98.7C63.5644 92.3933 73.6876 88.6315 84.6728 88.6315V86.6315C73.223 86.6315 62.6688 90.5541 54.2834 97.1258L55.5171 98.7ZM54.8854 99.1749C55.0077 99.0222 55.1628 98.8976 55.339 98.8116L54.4616 97.0143C54.0173 97.2312 53.6295 97.5437 53.3244 97.9247L54.8854 99.1749ZM41.8221 115.823C44.862 109.405 49.2992 103.773 54.7381 99.3238L53.4717 97.7758C47.806 102.41 43.1828 108.278 40.0146 114.967L41.8221 115.823ZM39.9183 101.235V115.395H41.9183V101.235H39.9183ZM39.9181 101.213C39.9183 101.22 39.9183 101.227 39.9183 101.235H41.9183C41.9183 101.217 41.9182 101.199 41.9179 101.181L39.9181 101.213ZM59.9651 64.7727C50.3663 73.8594 43.6469 86.0428 39.9474 100.956L41.8886 101.438C45.512 86.831 52.0635 75.0068 61.34 66.2251L59.9651 64.7727ZM63.6938 62.7509C62.8779 63.6824 61.7706 64.2934 60.4842 64.5132L60.8209 66.4846C62.5383 66.1913 64.0655 65.362 65.1983 64.0687L63.6938 62.7509ZM65.1186 58.8019C65.1186 60.3116 64.6024 61.7101 63.6927 62.7521L65.1993 64.0675C66.4469 62.6385 67.1186 60.7645 67.1186 58.8019H65.1186ZM59.3939 53C63.0942 53 65.1186 55.9339 65.1186 58.8019H67.1186C67.1186 55.0745 64.429 51 59.3939 51V53ZM17.7274 53H59.3939V51H17.7274V53ZM13.4281 54.8522C14.4584 53.6734 15.97 53 17.7274 53V51C15.442 51 13.3635 51.887 11.9222 53.536L13.4281 54.8522ZM12 58.802C12 57.2924 12.516 55.8944 13.4277 54.8527L11.9227 53.5355C10.6718 54.9649 10 56.8394 10 58.802H12ZM16.6394 58.8019C16.6394 58.6135 16.6729 58.2852 16.8192 58.0354C16.8835 57.9255 16.965 57.8385 17.0779 57.7742C17.1914 57.7096 17.3884 57.6385 17.7274 57.6385V55.6385C16.4074 55.6385 15.5547 56.237 15.0934 57.0246C14.6805 57.7297 14.6394 58.4832 14.6394 58.8019H16.6394ZM17.7274 59.9654C17.3884 59.9654 17.1914 59.8943 17.0779 59.8297C16.965 59.7654 16.8835 59.6784 16.8192 59.5685C16.6729 59.3187 16.6394 58.9904 16.6394 58.8019H14.6394C14.6394 59.1207 14.6805 59.8742 15.0934 60.5793C15.5547 61.3669 16.4074 61.9654 17.7274 61.9654V59.9654ZM59.3939 59.9654H17.7274V61.9654H59.3939V59.9654ZM60.4819 58.8019C60.4819 58.9891 60.4481 59.3178 60.3013 59.5681C60.2367 59.6782 60.155 59.7654 60.042 59.8298C59.9286 59.8944 59.7319 59.9654 59.3939 59.9654V61.9654C60.713 61.9654 61.5652 61.3665 62.0266 60.5797C62.4397 59.8751 62.4819 59.122 62.4819 58.8019H60.4819ZM59.3939 57.6385C59.7319 57.6385 59.9286 57.7095 60.042 57.7741C60.155 57.8385 60.2367 57.9257 60.3013 58.0358C60.4481 58.2861 60.4819 58.6147 60.4819 58.8019H62.4819C62.4819 58.4819 62.4398 57.7288 62.0266 57.0242C61.5652 56.2373 60.713 55.6385 59.3939 55.6385V57.6385ZM17.7274 57.6385H59.3939V55.6385H17.7274V57.6385ZM23.0613 66.604H54.0562V64.604H23.0613V66.604ZM39.4874 92.4423C35.9482 81.7142 30.6993 72.4955 23.8002 64.9302L22.3224 66.2778C29.0122 73.6136 34.1274 82.579 37.5881 93.0689L39.4874 92.4423ZM53.3172 64.9303C46.4318 72.4832 41.1692 81.7011 37.5891 92.4393L39.4864 93.0719C42.9882 82.5686 48.1181 73.6021 54.7952 66.2777L53.3172 64.9303ZM127.505 136.093C127.505 159.671 108.345 178.861 84.7748 178.916L84.7795 180.916C109.452 180.858 129.505 160.774 129.505 136.093H127.505ZM84.6728 93.27C108.29 93.27 127.505 112.481 127.505 136.093H129.505C129.505 111.376 109.394 91.27 84.6728 91.27V93.27ZM58.8423 101.99C66.0238 96.5195 74.9757 93.27 84.6728 93.27V91.27C74.5213 91.27 65.1468 94.6734 57.6303 100.399L58.8423 101.99ZM59.2363 106.504V101.195H57.2363V106.504H59.2363ZM58.9006 107.251C65.9767 100.962 75.1034 97.4422 84.6735 97.4422V95.4422C74.6092 95.4422 65.0109 99.1451 57.572 105.757L58.9006 107.251ZM84.6735 97.4422C105.989 97.4422 123.332 114.782 123.332 136.093H125.332C125.332 113.677 107.094 95.4422 84.6735 95.4422V97.4422ZM123.332 136.093C123.332 157.404 105.989 174.744 84.6735 174.744V176.744C107.094 176.744 125.332 158.509 125.332 136.093H123.332ZM84.6735 174.744C75.1013 174.744 65.9762 171.223 58.9007 164.934L57.5719 166.429C65.0102 173.041 74.6071 176.744 84.6735 176.744V174.744ZM59.2363 170.992V165.681H57.2363V170.992H59.2363ZM84.6514 178.916C74.9625 178.912 66.0185 175.663 58.8423 170.196L57.6303 171.787C65.1412 177.509 74.5075 180.911 84.6504 180.916L84.6514 178.916ZM84.6696 178.916L84.6461 178.916L84.6558 180.916L84.6793 180.916L84.6696 178.916ZM84.7771 178.916H84.6744V180.916H84.7771V178.916ZM57.4856 159.777C64.3889 167.621 74.2478 172.105 84.6735 172.105V170.105C74.8268 170.105 65.5134 165.872 58.987 158.456L57.4856 159.777ZM84.6735 172.105C104.534 172.105 120.693 155.951 120.693 136.093H118.693C118.693 154.846 103.43 170.105 84.6735 170.105V172.105ZM120.693 136.093C120.693 116.234 104.534 100.081 84.6735 100.081V102.081C103.43 102.081 118.693 117.339 118.693 136.093H120.693ZM84.6735 100.081C74.2478 100.081 64.3889 104.564 57.4857 112.407L58.9869 113.729C65.5133 106.314 74.8267 102.081 84.6735 102.081V100.081ZM59.2363 118.547V113.068H57.2363V118.547H59.2363ZM66.0182 117.547H58.2363V119.547H66.0182V117.547ZM76.3247 108.447C71.0795 108.447 65.6429 111.853 65.0226 118.453L67.0138 118.64C67.5174 113.281 71.882 110.447 76.3247 110.447V108.447ZM87.6269 118.453C87.0066 111.853 81.57 108.447 76.3247 108.447V110.447C80.7675 110.447 85.132 113.281 85.6357 118.64L87.6269 118.453ZM94.5673 117.547H86.6313V119.547H94.5673V117.547ZM93.5673 117.465V118.547H95.5673V117.465H93.5673ZM96.887 114.146C95.0539 114.146 93.5673 115.632 93.5673 117.465H95.5673C95.5673 116.737 96.1581 116.146 96.887 116.146V114.146ZM100.207 117.465C100.207 115.632 98.7201 114.146 96.887 114.146V116.146C97.6159 116.146 98.2067 116.737 98.2067 117.465H100.207ZM100.207 120.797V117.465H98.2067V120.797H100.207ZM100.208 120.866C100.208 120.833 100.207 120.801 100.206 120.768L98.2071 120.826C98.2075 120.84 98.2077 120.853 98.2077 120.866H100.208ZM100.206 120.964C100.207 120.932 100.208 120.899 100.208 120.866H98.2077C98.2077 120.88 98.2075 120.893 98.2071 120.906L100.206 120.964ZM100.207 124.267V120.935H98.2067V124.267H100.207ZM96.887 127.586C98.7201 127.586 100.207 126.1 100.207 124.267H98.2067C98.2067 124.995 97.6159 125.586 96.887 125.586V127.586ZM93.5673 124.267C93.5673 126.1 95.0539 127.586 96.887 127.586V125.586C96.1581 125.586 95.5673 124.995 95.5673 124.267H93.5673ZM93.5673 123.185V124.267H95.5673V123.185H93.5673ZM86.6848 124.185H94.5673V122.185H86.6848V124.185ZM87.6848 133.773V123.185H85.6848V133.773H87.6848ZM94.5673 132.773H86.6848V134.773H94.5673V132.773ZM93.5673 132.691V133.773H95.5673V132.691H93.5673ZM96.887 129.372C95.0539 129.372 93.5673 130.858 93.5673 132.691H95.5673C95.5673 131.963 96.1581 131.372 96.887 131.372V129.372ZM100.207 132.691C100.207 130.858 98.7201 129.372 96.887 129.372V131.372C97.6159 131.372 98.2067 131.963 98.2067 132.691H100.207ZM100.207 136.024V132.691H98.2067V136.024H100.207ZM100.208 136.093C100.208 136.06 100.207 136.027 100.206 135.994L98.2071 136.053C98.2075 136.066 98.2077 136.079 98.2077 136.093H100.208ZM100.206 136.191C100.207 136.158 100.208 136.125 100.208 136.093H98.2077C98.2077 136.106 98.2075 136.119 98.2071 136.132L100.206 136.191ZM100.207 139.493V136.162H98.2067V139.493H100.207ZM96.887 142.812C98.7201 142.812 100.207 141.326 100.207 139.493H98.2067C98.2067 140.221 97.6159 140.812 96.887 140.812V142.812ZM93.5673 139.493C93.5673 141.326 95.0539 142.812 96.887 142.812V140.812C96.1581 140.812 95.5673 140.221 95.5673 139.493H93.5673ZM93.5673 138.412V139.493H95.5673V138.412H93.5673ZM86.6848 139.412H94.5673V137.412H86.6848V139.412ZM87.6848 148.999V138.412H85.6848V148.999H87.6848ZM94.5673 147.999H86.6848V149.999H94.5673V147.999ZM93.5673 147.918V148.999H95.5673V147.918H93.5673ZM96.887 144.599C95.0539 144.599 93.5673 146.085 93.5673 147.918H95.5673C95.5673 147.19 96.1581 146.599 96.887 146.599V144.599ZM100.207 147.918C100.207 146.085 98.7201 144.599 96.887 144.599V146.599C97.6159 146.599 98.2067 147.19 98.2067 147.918H100.207ZM100.207 151.25V147.918H98.2067V151.25H100.207ZM100.208 151.319C100.208 151.286 100.207 151.253 100.206 151.22L98.2071 151.279C98.2075 151.292 98.2077 151.305 98.2077 151.319H100.208ZM100.206 151.417C100.207 151.384 100.208 151.351 100.208 151.319H98.2077C98.2077 151.332 98.2075 151.345 98.2071 151.358L100.206 151.417ZM100.207 154.643V151.388H98.2067V154.643H100.207ZM96.887 157.962C98.7201 157.962 100.207 156.476 100.207 154.643H98.2067C98.2067 155.371 97.6159 155.962 96.887 155.962V157.962ZM93.5673 154.643C93.5673 156.476 95.0539 157.962 96.887 157.962V155.962C96.1581 155.962 95.5673 155.371 95.5673 154.643H93.5673ZM93.5673 153.638V154.643H95.5673V153.638H93.5673ZM86.6313 154.638H94.5673V152.638H86.6313V154.638ZM76.3247 163.738C81.5699 163.738 87.0066 160.332 87.6269 153.732L85.6357 153.544C85.132 158.903 80.7675 161.738 76.3247 161.738V163.738ZM68.6071 160.927C70.6829 162.751 73.4312 163.738 76.3247 163.738V161.738C73.8811 161.738 71.6119 160.905 69.9272 159.425L68.6071 160.927ZM65.0223 153.731C65.3592 157.325 67.1064 159.611 68.6078 160.928L69.9265 159.424C68.7189 158.365 67.2926 156.521 67.0136 153.545L65.0223 153.731ZM58.2363 154.638H66.018V152.638H58.2363V154.638ZM59.2363 159.117V153.638H57.2363V159.117H59.2363ZM76.3247 115.084C78.5329 115.084 80.5553 116.257 80.9663 118.712L82.9388 118.382C82.3215 114.693 79.209 113.084 76.3247 113.084V115.084ZM71.6832 118.712C72.0942 116.257 74.1166 115.084 76.3247 115.084V113.084C73.4405 113.084 70.328 114.693 69.7107 118.382L71.6832 118.712ZM81.9526 117.547H70.6969V119.547H81.9526V117.547ZM83.0454 133.773V123.185H81.0454V133.773H83.0454ZM70.6041 134.773H82.0454V132.773H70.6041V134.773ZM69.6041 123.185V133.773H71.6041V123.185H69.6041ZM82.0454 122.185H70.6041V124.185H82.0454V122.185ZM58.2363 124.185H65.9647V122.185H58.2363V124.185ZM59.2363 133.773V123.185H57.2363V133.773H59.2363ZM65.9647 132.773H58.2363V134.773H65.9647V132.773ZM64.9647 123.185V133.773H66.9647V123.185H64.9647ZM52.5969 105.272V120.866H54.5969V105.272H52.5969ZM41.9183 136.093C41.9183 124.363 46.6511 113.719 54.308 105.975L52.8858 104.569C44.8748 112.671 39.9183 123.814 39.9183 136.093H41.9183ZM54.308 166.211C46.6511 158.467 41.9183 147.824 41.9183 136.093H39.9183C39.9183 148.373 44.8748 159.515 52.8858 167.617L54.308 166.211ZM52.5969 151.319V166.914H54.5969V151.319H52.5969ZM52.5969 136.093V151.319H54.5969V136.093H52.5969ZM52.5969 120.866V136.093H54.5969V120.866H52.5969ZM65.9647 147.999H58.2363V149.999H65.9647V147.999ZM64.9647 138.412V148.999H66.9647V138.412H64.9647ZM58.2363 139.412H65.9647V137.412H58.2363V139.412ZM59.2363 148.999V138.412H57.2363V148.999H59.2363ZM76.3247 157.101C74.1166 157.101 72.0942 155.928 71.6832 153.473L69.7107 153.803C70.328 157.491 73.4405 159.101 76.3247 159.101V157.101ZM80.9663 153.473C80.5553 155.928 78.5329 157.101 76.3247 157.101V159.101C79.2089 159.101 82.3214 157.491 82.9388 153.803L80.9663 153.473ZM70.6969 154.638H81.9526V152.638H70.6969V154.638ZM70.6041 149.999H82.0454V147.999H70.6041V149.999ZM69.6041 138.412V148.999H71.6041V138.412H69.6041ZM82.0454 137.412H70.6041V139.412H82.0454V137.412ZM83.0454 148.999V138.412H81.0454V148.999H83.0454Z" fill="#292B3C" mask="url(#path-1-inside-1)"/>
<path d="M543.539 117.995C543.101 117.557 543.003 116.859 543.344 116.31C548.209 108.421 550.517 100.402 550.201 92.4716C550.179 91.9093 550.503 91.3893 551.02 91.1644C551.536 90.9389 552.137 91.0511 552.536 91.4501L570.117 109.031C570.651 109.565 570.651 110.432 570.117 110.966C569.583 111.501 568.716 111.501 568.181 110.966L552.925 95.7093C552.585 103.088 550.152 110.485 545.672 117.747C545.275 118.39 544.433 118.59 543.789 118.193C543.696 118.135 543.613 118.069 543.539 117.995Z" fill="#6AD2FF"/>
<path d="M543.542 117.997C543.466 117.922 543.398 117.836 543.341 117.742C542.947 117.096 543.15 116.255 543.795 115.861C552.196 110.727 560.745 108.295 569.203 108.631C569.959 108.662 570.546 109.296 570.517 110.053C570.487 110.808 569.85 111.396 569.096 111.366C561.186 111.052 553.154 113.35 545.221 118.196C544.672 118.532 543.978 118.434 543.542 117.997Z" fill="#6AD2FF"/>
<path d="M568.085 110.87L550.699 93.4835C548.875 91.6599 549.354 89.2143 550.73 87.8382C551.455 87.1138 552.385 86.6789 553.352 86.6145C554.457 86.5402 555.532 86.9636 556.375 87.8071L573.762 105.193C575.584 107.016 575.105 109.461 573.729 110.837C573.005 111.562 572.074 111.997 571.109 112.062C570.002 112.135 568.929 111.713 568.085 110.87ZM554.44 89.7426C553.631 88.9335 552.878 89.5624 552.666 89.7741C552.454 89.9857 551.825 90.739 552.635 91.5481L570.021 108.934C570.828 109.742 571.583 109.114 571.795 108.903C572.006 108.691 572.634 107.937 571.826 107.129L554.44 89.7426Z" fill="#6AD2FF"/>
<path d="M528.999 171.052C517.865 159.918 517.877 141.788 529.027 130.637C540.177 119.487 558.308 119.475 569.442 130.609C580.593 141.761 580.596 159.906 569.446 171.056C558.296 182.206 540.151 182.204 528.999 171.052ZM567.506 132.545C557.439 122.477 541.046 122.49 530.963 132.573C520.88 142.656 520.867 159.049 530.934 169.117C541.019 179.202 557.427 179.203 567.51 169.12C577.593 159.037 577.591 142.63 567.506 132.545Z" fill="#6AD2FF"/>
<path d="M521.192 154.86C520.658 154.326 520.658 153.459 521.192 152.925L551.314 122.802C551.849 122.268 552.716 122.268 553.25 122.803C553.785 123.337 553.785 124.204 553.25 124.738L523.128 154.86C522.594 155.395 521.727 155.395 521.192 154.86Z" fill="#6AD2FF"/>
<path d="M529.027 132.573C528.493 132.038 528.493 131.172 529.027 130.637L543.572 116.092C544.107 115.558 544.973 115.558 545.508 116.092C546.042 116.627 546.043 117.494 545.508 118.028L530.963 132.573C530.429 133.107 529.562 133.107 529.027 132.573Z" fill="#6AD2FF"/>
<path d="M534.619 158.465C533.506 157.352 532.838 155.925 532.743 154.451C532.666 153.271 532.922 151.517 534.577 149.861L548.252 136.187C551.062 133.376 554.708 134.081 556.856 136.229C559.004 138.377 559.708 142.022 556.898 144.833L543.223 158.507C540.413 161.318 536.767 160.613 534.619 158.465ZM554.921 138.164C553.733 136.976 551.808 136.502 550.188 138.123L536.513 151.797C534.893 153.418 535.366 155.342 536.554 156.53C537.742 157.718 539.667 158.192 541.287 156.571L554.962 142.897C556.582 141.276 556.109 139.352 554.921 138.164Z" fill="#6AD2FF"/>
<path d="M553.35 156.895L536.254 139.799C535.719 139.265 535.719 138.398 536.253 137.863C536.788 137.329 537.655 137.329 538.189 137.864L555.285 154.96C555.82 155.494 555.82 156.361 555.285 156.895C554.751 157.43 553.884 157.43 553.35 156.895Z" fill="#6AD2FF"/>
<path d="M551.931 158.314C551.396 157.779 551.396 156.912 551.93 156.378L554.769 153.54C555.303 153.005 556.17 153.005 556.704 153.54C557.239 154.074 557.239 154.941 556.704 155.476L553.866 158.314C553.332 158.848 552.465 158.848 551.931 158.314Z" fill="#6AD2FF"/>
<path d="M546.997 163.248L529.901 146.152C529.366 145.618 529.366 144.751 529.9 144.217C530.435 143.682 531.302 143.682 531.836 144.217L548.932 161.313C549.467 161.848 549.467 162.714 548.932 163.249C548.398 163.783 547.531 163.783 546.997 163.248Z" fill="#6AD2FF"/>
<path d="M545.609 164.635C545.074 164.101 545.074 163.234 545.609 162.699L548.415 159.893C548.949 159.359 549.816 159.359 550.35 159.894C550.885 160.428 550.885 161.295 550.35 161.829L547.544 164.635C547.01 165.17 546.143 165.17 545.609 164.635Z" fill="#6AD2FF"/>
<path d="M559.703 150.542L542.607 133.446C542.073 132.911 542.073 132.044 542.607 131.51C543.141 130.975 544.008 130.976 544.543 131.51L561.639 148.606C562.173 149.141 562.173 150.007 561.639 150.542C561.104 151.076 560.238 151.076 559.703 150.542Z" fill="#6AD2FF"/>
<path d="M558.284 151.96C557.749 151.426 557.749 150.559 558.283 150.025L561.122 147.186C561.656 146.652 562.523 146.652 563.057 147.187C563.592 147.721 563.592 148.588 563.057 149.122L560.219 151.96C559.685 152.495 558.818 152.495 558.284 151.96Z" fill="#6AD2FF"/>
<path d="M532.676 167.376C527.757 162.457 525.286 155.643 525.892 148.677C525.958 147.924 526.622 147.368 527.375 147.433C528.125 147.498 528.686 148.162 528.619 148.915C528.083 155.073 530.266 161.095 534.611 165.44C542.668 173.497 555.777 173.499 563.833 165.443C571.889 157.387 571.887 144.278 563.83 136.221C559.485 131.876 553.463 129.693 547.306 130.229C546.553 130.295 545.888 129.735 545.823 128.984C545.758 128.231 546.315 127.568 547.068 127.502C554.033 126.896 560.848 129.368 565.766 134.286C574.89 143.411 574.892 158.256 565.769 167.379C556.646 176.502 541.801 176.501 532.676 167.376Z" fill="#6AD2FF"/>
<path d="M176.765 125.977C173.44 125.977 170.333 124.687 168.013 122.347C163.182 117.516 163.182 109.65 168.016 104.814L188.055 84.7755C192.892 79.9396 200.758 79.9422 205.592 84.7762C210.386 89.6121 210.386 97.4759 205.595 102.309L185.513 122.352C183.197 124.687 180.09 125.977 176.765 125.977ZM169.661 106.459C165.732 110.387 165.732 116.778 169.661 120.706C171.544 122.606 174.066 123.651 176.765 123.651C179.464 123.651 181.986 122.606 183.866 120.71L203.949 100.667C207.84 96.7415 207.84 90.3465 203.945 86.4166C202.048 84.5218 199.519 83.4762 196.825 83.4762C194.128 83.4762 191.599 84.5218 189.7 86.4206L169.661 106.459V106.459Z" fill="#FFAB09"/>
<path d="M197.87 115.793C197.572 115.793 197.275 115.679 197.048 115.453L174.878 93.3205C174.422 92.8664 174.422 92.13 174.876 91.676C175.33 91.2206 176.066 91.2213 176.52 91.674L198.691 113.807C199.146 114.261 199.146 114.997 198.692 115.451C198.465 115.679 198.167 115.793 197.87 115.793Z" fill="#FFAB09"/>
<path d="M174.148 95.2103C173.851 95.2103 173.553 95.0968 173.326 94.8698C172.872 94.4151 172.872 93.6793 173.326 93.2246L176.465 90.0853C176.919 89.6312 177.656 89.6312 178.11 90.0853C178.564 90.5399 178.564 91.2757 178.11 91.7304L174.971 94.8698C174.744 95.0968 174.446 95.2103 174.148 95.2103Z" fill="#FFAB09"/>
<path d="M191.707 121.955C191.409 121.955 191.113 121.842 190.886 121.615L168.714 99.4835C168.258 99.0295 168.258 98.2931 168.712 97.839C169.166 97.3837 169.902 97.3844 170.356 97.837L192.528 119.969C192.984 120.423 192.984 121.159 192.53 121.613C192.303 121.841 192.005 121.955 191.707 121.955Z" fill="#FFAB09"/>
<path d="M167.984 101.374C167.687 101.374 167.389 101.26 167.162 101.033C166.708 100.579 166.708 99.8421 167.162 99.3881L170.303 96.2487C170.757 95.7947 171.494 95.7941 171.948 96.2494C172.402 96.7034 172.402 97.4399 171.948 97.8939L168.807 101.033C168.58 101.26 168.282 101.374 167.984 101.374Z" fill="#FFAB09"/>
<path d="M204.033 109.63C203.735 109.63 203.439 109.516 203.212 109.29L181.041 87.1579C180.586 86.7039 180.586 85.9674 181.04 85.5134C181.494 85.0581 182.229 85.0587 182.683 85.5114L204.854 107.643C205.309 108.097 205.309 108.834 204.855 109.288C204.628 109.515 204.331 109.63 204.033 109.63Z" fill="#FFAB09"/>
<path d="M180.312 89.0481C180.014 89.0481 179.716 88.9346 179.489 88.7076C179.035 88.2535 179.035 87.5171 179.489 87.0631L182.628 83.923C183.082 83.4677 183.819 83.4683 184.273 83.9224C184.727 84.3764 184.727 85.1128 184.273 85.5668L181.134 88.7069C180.907 88.9346 180.609 89.0481 180.312 89.0481Z" fill="#FFAB09"/>
<path d="M157.016 118.622C156.718 118.622 156.421 118.509 156.194 118.282C155.74 117.827 155.74 117.091 156.194 116.637L193.985 78.8453C194.439 78.39 195.176 78.3906 195.63 78.8446C196.084 79.2993 196.084 80.0351 195.63 80.4891L157.839 118.281C157.612 118.509 157.314 118.622 157.016 118.622Z" fill="#FFAB09"/>
<path d="M194.806 80.8303C194.599 80.8303 194.389 80.7749 194.2 80.6587C193.652 80.3235 193.48 79.6078 193.815 79.0596C197.839 72.4917 199.763 65.8104 199.537 59.2031C199.52 58.7244 199.799 58.2851 200.238 58.0954C200.673 57.9058 201.186 58.004 201.524 58.3438C206.367 63.2258 211.249 68.1078 216.13 72.9504C216.587 73.4024 216.589 74.1389 216.137 74.5949C215.684 75.0509 214.948 75.0529 214.493 74.6009C210.265 70.4079 206.038 66.1856 201.837 61.9586C201.519 68.0925 199.494 74.2404 195.8 80.2748C195.579 80.6327 195.197 80.8303 194.806 80.8303Z" fill="#FFAB09"/>
<path d="M157.868 119.475C157.571 119.475 157.273 119.361 157.046 119.134L155.341 117.428C154.886 116.974 154.886 116.237 155.341 115.783C155.795 115.329 156.532 115.329 156.986 115.784L158.691 117.49C159.145 117.944 159.145 118.68 158.691 119.134C158.464 119.361 158.166 119.475 157.868 119.475Z" fill="#FFAB09"/>
<path d="M194.809 80.8304C194.417 80.8304 194.036 80.6328 193.815 80.2742C193.48 79.7267 193.652 79.011 194.2 78.6758C201.166 74.4114 208.284 72.3757 215.352 72.6134C215.993 72.6354 216.496 73.1736 216.473 73.8159C216.452 74.4441 215.936 74.9389 215.313 74.9389C215.298 74.9389 215.285 74.9382 215.271 74.9382C208.66 74.7105 201.983 76.6374 195.415 80.6588C195.225 80.775 195.016 80.8304 194.809 80.8304Z" fill="#FFAB09"/>
<path d="M361.707 173.977C365.031 173.977 368.138 172.687 370.458 170.347C375.289 165.516 375.289 157.65 370.455 152.814L350.417 132.775C345.581 127.94 337.715 127.942 332.882 132.776C328.088 137.612 328.088 145.476 332.879 150.309L352.96 170.352C355.275 172.687 358.382 173.977 361.707 173.977ZM368.81 154.459C372.738 158.387 372.738 164.778 368.81 168.706C366.927 170.606 364.405 171.651 361.707 171.651C359.008 171.651 356.486 170.606 354.606 168.71L334.525 148.667C330.634 144.741 330.634 138.347 334.529 134.417C336.425 132.522 338.954 131.476 341.649 131.476C344.345 131.476 346.874 132.522 348.772 134.421L368.81 154.459V154.459Z" fill="#FF4284"/>
<path d="M340.604 163.793C340.902 163.793 341.199 163.679 341.426 163.453L363.594 141.32C364.05 140.866 364.05 140.13 363.596 139.676C363.142 139.221 362.406 139.221 361.952 139.674L339.783 161.807C339.328 162.261 339.328 162.997 339.782 163.451C340.009 163.679 340.307 163.793 340.604 163.793Z" fill="#FF4284"/>
<path d="M364.323 143.21C364.621 143.21 364.919 143.097 365.146 142.87C365.6 142.415 365.6 141.679 365.146 141.225L362.007 138.085C361.553 137.631 360.816 137.631 360.362 138.085C359.908 138.54 359.908 139.276 360.362 139.73L363.501 142.87C363.728 143.097 364.026 143.21 364.323 143.21Z" fill="#FF4284"/>
<path d="M346.767 169.955C347.064 169.955 347.361 169.842 347.588 169.615L369.758 147.484C370.213 147.029 370.213 146.293 369.759 145.839C369.305 145.384 368.57 145.384 368.116 145.837L345.945 167.969C345.49 168.423 345.49 169.159 345.944 169.613C346.171 169.841 346.469 169.955 346.767 169.955Z" fill="#FF4284"/>
<path d="M370.487 149.374C370.785 149.374 371.082 149.26 371.309 149.033C371.763 148.579 371.763 147.842 371.309 147.388L368.169 144.249C367.715 143.795 366.978 143.794 366.524 144.249C366.07 144.703 366.07 145.44 366.524 145.894L369.664 149.033C369.891 149.26 370.189 149.374 370.487 149.374Z" fill="#FF4284"/>
<path d="M334.441 157.63C334.739 157.63 335.035 157.516 335.262 157.29L357.431 135.158C357.887 134.704 357.887 133.967 357.433 133.513C356.979 133.058 356.243 133.059 355.789 133.511L333.62 155.643C333.165 156.097 333.165 156.834 333.619 157.288C333.846 157.515 334.143 157.63 334.441 157.63Z" fill="#FF4284"/>
<path d="M358.161 137.048C358.459 137.048 358.757 136.935 358.984 136.708C359.438 136.253 359.438 135.517 358.984 135.063L355.845 131.923C355.391 131.468 354.654 131.468 354.2 131.922C353.746 132.376 353.746 133.113 354.2 133.567L357.339 136.707C357.566 136.935 357.863 137.048 358.161 137.048Z" fill="#FF4284"/>
<path d="M381.454 166.622C381.751 166.622 382.049 166.509 382.276 166.282C382.73 165.827 382.73 165.091 382.276 164.637L344.488 126.845C344.034 126.39 343.297 126.391 342.843 126.845C342.389 127.299 342.389 128.035 342.843 128.489L380.631 166.281C380.858 166.509 381.156 166.622 381.454 166.622Z" fill="#FF4284"/>
<path d="M343.667 128.83C343.874 128.83 344.083 128.775 344.273 128.659C344.82 128.323 344.993 127.608 344.657 127.06C340.634 120.492 338.71 113.81 338.936 107.203C338.953 106.724 338.674 106.285 338.235 106.095C337.8 105.906 337.287 106.004 336.949 106.344C332.106 111.226 327.225 116.108 322.344 120.95C321.888 121.402 321.885 122.139 322.338 122.595C322.79 123.051 323.526 123.053 323.981 122.601C328.209 118.408 332.436 114.186 336.637 109.959C336.955 116.092 338.979 122.24 342.673 128.275C342.894 128.633 343.276 128.83 343.667 128.83Z" fill="#FF4284"/>
<path d="M380.602 167.475C380.9 167.475 381.198 167.361 381.425 167.134L383.13 165.428C383.584 164.974 383.584 164.237 383.13 163.783C382.676 163.329 381.939 163.329 381.485 163.784L379.78 165.49C379.326 165.944 379.326 166.68 379.78 167.134C380.007 167.361 380.304 167.475 380.602 167.475Z" fill="#FF4284"/>
<path d="M343.664 128.83C344.055 128.83 344.437 128.633 344.657 128.274C344.993 127.727 344.82 127.011 344.273 126.676C337.307 122.411 330.19 120.376 323.123 120.613C322.482 120.635 321.979 121.174 322.001 121.816C322.023 122.444 322.538 122.939 323.162 122.939C323.176 122.939 323.19 122.938 323.203 122.938C329.814 122.71 336.49 124.637 343.058 128.659C343.247 128.775 343.457 128.83 343.664 128.83Z" fill="#FF4284"/>
<path d="M307.851 163.738H247.524C246.934 163.738 246.455 163.259 246.455 162.669V122.938C246.455 110.992 256.174 101.273 268.12 101.273C272.875 101.273 277.361 102.752 281.09 105.55C284.723 108.283 287.464 112.155 288.81 116.454C288.882 116.673 288.962 116.948 289.04 117.263C289.879 120.292 291.012 123.245 294.924 123.804C298.56 124.334 301.952 125.912 304.479 128.247C304.48 128.248 304.481 128.249 304.482 128.25C307.386 130.959 308.92 134.396 308.92 138.189V162.669C308.92 163.259 308.441 163.738 307.851 163.738ZM248.594 161.6H306.782V138.189C306.782 135.004 305.483 132.108 303.024 129.814C300.813 127.771 297.828 126.388 294.619 125.92C288.997 125.117 287.645 120.233 286.995 117.886C286.902 117.526 286.839 117.303 286.775 117.11C285.556 113.217 283.083 109.725 279.805 107.259C276.451 104.742 272.41 103.412 268.12 103.412C257.352 103.412 248.594 112.171 248.594 122.938V161.6H248.594Z" fill="#F8774E"/>
<path d="M307.851 153.119H247.524C246.934 153.119 246.455 152.641 246.455 152.05C246.455 151.46 246.934 150.981 247.524 150.981H307.851C308.441 150.981 308.92 151.46 308.92 152.05C308.92 152.641 308.441 153.119 307.851 153.119Z" fill="#F8774E"/>
<path d="M253.475 160.211C252.885 160.211 252.406 159.732 252.406 159.141V152.05C252.406 151.46 252.885 150.981 253.475 150.981C254.065 150.981 254.544 151.46 254.544 152.05V159.141C254.544 159.732 254.065 160.211 253.475 160.211Z" fill="#F8774E"/>
<path d="M257.501 160.211C256.91 160.211 256.432 159.732 256.432 159.141V152.05C256.432 151.46 256.91 150.981 257.501 150.981C258.091 150.981 258.57 151.46 258.57 152.05V159.141C258.57 159.732 258.091 160.211 257.501 160.211Z" fill="#F8774E"/>
<path d="M265.589 160.211C264.999 160.211 264.52 159.732 264.52 159.141V152.05C264.52 151.46 264.999 150.981 265.589 150.981C266.18 150.981 266.658 151.46 266.658 152.05V159.141C266.658 159.732 266.18 160.211 265.589 160.211Z" fill="#F8774E"/>
<path d="M269.617 160.211C269.026 160.211 268.547 159.732 268.547 159.141V152.05C268.547 151.46 269.026 150.981 269.617 150.981C270.207 150.981 270.686 151.46 270.686 152.05V159.141C270.686 159.732 270.207 160.211 269.617 160.211Z" fill="#F8774E"/>
<path d="M273.642 160.211C273.052 160.211 272.573 159.732 272.573 159.141V152.05C272.573 151.46 273.052 150.981 273.642 150.981C274.233 150.981 274.712 151.46 274.712 152.05V159.141C274.712 159.732 274.233 160.211 273.642 160.211Z" fill="#F8774E"/>
<path d="M281.731 160.211C281.141 160.211 280.662 159.732 280.662 159.141V152.05C280.662 151.46 281.141 150.981 281.731 150.981C282.322 150.981 282.801 151.46 282.801 152.05V159.141C282.801 159.732 282.322 160.211 281.731 160.211Z" fill="#F8774E"/>
<path d="M285.758 160.211C285.168 160.211 284.689 159.732 284.689 159.141V152.05C284.689 151.46 285.168 150.981 285.758 150.981C286.349 150.981 286.827 151.46 286.827 152.05V159.141C286.827 159.732 286.349 160.211 285.758 160.211Z" fill="#F8774E"/>
<path d="M293.847 160.211C293.256 160.211 292.777 159.732 292.777 159.141V152.05C292.777 151.46 293.256 150.981 293.847 150.981C294.437 150.981 294.916 151.46 294.916 152.05V159.141C294.916 159.732 294.437 160.211 293.847 160.211Z" fill="#F8774E"/>
<path d="M297.873 160.211C297.282 160.211 296.804 159.732 296.804 159.141V152.05C296.804 151.46 297.282 150.981 297.873 150.981C298.463 150.981 298.942 151.46 298.942 152.05V159.141C298.942 159.732 298.463 160.211 297.873 160.211Z" fill="#F8774E"/>
<path d="M301.9 160.211C301.309 160.211 300.831 159.732 300.831 159.141V152.05C300.831 151.46 301.309 150.981 301.9 150.981C302.49 150.981 302.969 151.46 302.969 152.05V159.141C302.969 159.732 302.49 160.211 301.9 160.211Z" fill="#F8774E"/>
<path d="M252.12 124.756C251.53 124.756 251.051 124.277 251.051 123.687C251.051 114.196 258.771 106.475 268.262 106.475C268.852 106.475 269.331 106.954 269.331 107.544C269.331 108.135 268.852 108.613 268.262 108.613C259.951 108.613 253.189 115.375 253.189 123.687C253.189 124.277 252.71 124.756 252.12 124.756Z" fill="#F8774E"/>
<path d="M251.907 143.89H247.524C246.934 143.89 246.455 143.412 246.455 142.821C246.455 142.231 246.934 141.752 247.524 141.752H251.907C252.497 141.752 252.976 142.231 252.976 142.821C252.976 143.412 252.497 143.89 251.907 143.89Z" fill="#F8774E"/>
<path d="M307.851 143.89H303.468C302.878 143.89 302.399 143.412 302.399 142.821C302.399 142.231 302.878 141.752 303.468 141.752H307.851C308.441 141.752 308.92 142.231 308.92 142.821C308.92 143.412 308.441 143.89 307.851 143.89Z" fill="#F8774E"/>
<path d="M304.786 108.787H304.785C304.565 108.786 304.354 108.698 304.199 108.542L299.813 104.129C299.492 103.805 299.493 103.283 299.815 102.96L323.98 78.7945C324.136 78.6391 324.346 78.5517 324.566 78.5517H324.567C324.787 78.5522 324.998 78.6401 325.153 78.796L329.539 83.2095C329.86 83.5331 329.859 84.0558 329.537 84.378L305.372 108.544C305.216 108.699 305.006 108.787 304.786 108.787ZM301.569 103.547L304.788 106.787L327.783 83.7912L324.564 80.5518L301.569 103.547Z" fill="#6AD2FF"/>
<path d="M322.194 86.9936C321.982 86.9936 321.771 86.9128 321.61 86.7513C321.286 86.4281 321.286 85.904 321.609 85.5809L322.16 85.0292C322.483 84.706 323.007 84.7056 323.33 85.0287C323.654 85.3518 323.654 85.876 323.331 86.1991L322.78 86.7508C322.618 86.9124 322.406 86.9936 322.194 86.9936Z" fill="#6AD2FF"/>
<path d="M318.304 90.8835C318.092 90.8835 317.88 90.8023 317.719 90.6407C317.396 90.3176 317.396 89.7934 317.72 89.4703L318.272 88.9186C318.595 88.5955 319.119 88.596 319.442 88.9191C319.765 89.2422 319.765 89.7664 319.441 90.0895L318.889 90.6412C318.727 90.8028 318.516 90.8835 318.304 90.8835Z" fill="#6AD2FF"/>
<path d="M314.386 94.7731C314.174 94.7731 313.962 94.6918 313.801 94.5303C313.478 94.2071 313.478 93.683 313.802 93.3599L314.354 92.8082C314.677 92.485 315.201 92.4855 315.524 92.8086C315.847 93.1318 315.847 93.6559 315.523 93.979L314.971 94.5307C314.809 94.6923 314.598 94.7731 314.386 94.7731Z" fill="#6AD2FF"/>
<path d="M310.498 98.6629C310.279 98.6629 310.061 98.5764 309.898 98.4053C309.584 98.0741 309.596 97.5505 309.928 97.2354L310.479 96.7113C310.808 96.3962 311.333 96.4086 311.649 96.7407C311.963 97.0719 311.951 97.5956 311.619 97.9106L311.068 98.4348C310.909 98.5873 310.703 98.6629 310.498 98.6629Z" fill="#6AD2FF"/>
<path d="M306.608 102.58C306.396 102.58 306.185 102.499 306.023 102.338C305.699 102.014 305.699 101.49 306.023 101.167L306.574 100.615C306.897 100.292 307.421 100.292 307.744 100.615C308.068 100.938 308.068 101.462 307.745 101.785L307.193 102.337C307.032 102.499 306.82 102.58 306.608 102.58Z" fill="#6AD2FF"/>
<path d="M330.884 82.6903H330.883C330.663 82.6898 330.452 82.6019 330.297 82.446L325.911 78.032C325.59 77.7084 325.59 77.1857 325.913 76.8635L332.34 70.4361C332.663 70.1134 333.186 70.1124 333.509 70.4342L337.924 74.8202C338.079 74.9751 338.167 75.1856 338.168 75.4056C338.168 75.6256 338.08 75.8366 337.925 75.9925L331.47 82.4479C331.314 82.6028 331.104 82.6903 330.884 82.6903ZM327.667 77.4504L330.886 80.6902L336.167 75.4089L332.927 72.1895L327.667 77.4504Z" fill="#6AD2FF"/>
<path d="M332.842 77.2555C332.633 77.2555 332.426 77.1776 332.265 77.0217L331.327 76.1112C330.999 75.7929 330.991 75.2687 331.31 74.9409C331.628 74.612 332.151 74.6054 332.48 74.9233L333.418 75.8337C333.746 76.1521 333.754 76.6763 333.436 77.0041C333.273 77.1714 333.057 77.2555 332.842 77.2555Z" fill="#6AD2FF"/>
<path d="M331.435 77.7246C331.223 77.7246 331.011 77.6438 330.85 77.4817C330.527 77.1586 330.527 76.635 330.85 76.3113L331.788 75.3738C332.111 75.0497 332.636 75.0497 332.959 75.3738C333.282 75.6969 333.282 76.2206 332.959 76.5442L332.021 77.4817C331.859 77.6438 331.647 77.7246 331.435 77.7246Z" fill="#6AD2FF"/>
<path d="M303.683 111.546C303.471 111.546 303.259 111.465 303.098 111.303L297.056 105.261C296.733 104.938 296.733 104.415 297.056 104.091L298.987 102.16C299.311 101.837 299.835 101.837 300.158 102.16L306.2 108.202C306.523 108.525 306.523 109.049 306.2 109.372L304.269 111.303C304.107 111.465 303.895 111.546 303.683 111.546ZM298.813 104.676L303.683 109.548L304.444 108.787L299.573 103.916L298.813 104.676Z" fill="#6AD2FF"/>
<path d="M299.215 114.359C299.003 114.359 298.791 114.279 298.629 114.117L294.242 109.731C294.087 109.576 294 109.365 294 109.146C294 108.926 294.087 108.716 294.242 108.56L297.884 104.919C298.207 104.596 298.732 104.595 299.055 104.919L303.441 109.305C303.764 109.628 303.764 110.152 303.441 110.475L299.8 114.117C299.639 114.278 299.427 114.359 299.215 114.359ZM295.999 109.146L299.215 112.361L301.686 109.89L298.47 106.675L295.999 109.146Z" fill="#6AD2FF"/>
<path d="M329.78 85.4488C329.568 85.4488 329.356 85.368 329.195 85.2064L323.153 79.1644C322.998 79.0095 322.911 78.799 322.911 78.5794C322.911 78.3599 322.998 78.1494 323.153 77.994L325.084 76.0633C325.407 75.7401 325.932 75.7401 326.255 76.0633L332.297 82.1044C332.452 82.2598 332.539 82.4703 332.539 82.6898C332.539 82.9094 332.452 83.1199 332.297 83.2752L330.365 85.2064C330.204 85.368 329.992 85.4488 329.78 85.4488ZM324.909 78.5794L329.78 83.4506L330.54 82.6898L325.67 77.8191L324.909 78.5794Z" fill="#6AD2FF"/>
<path d="M337.34 76.2348C337.121 76.2348 336.911 76.1483 336.756 75.9939L332.341 71.6079C332.184 71.4511 332.095 71.2372 332.097 71.0144C332.099 70.7915 332.19 70.5791 332.351 70.4246C334.549 68.3096 336.868 66.7148 338.714 66.0496C339.012 65.9403 339.348 66.0153 339.576 66.2396L342.114 68.7496C342.344 68.9763 342.42 69.3156 342.311 69.6187C341.646 71.462 340.051 73.7809 337.936 75.9806C337.782 76.1407 337.57 76.232 337.349 76.2343C337.346 76.2348 337.342 76.2348 337.34 76.2348ZM334.118 71.0391L337.317 74.2181C338.791 72.5896 339.955 70.9093 340.559 69.5398L338.797 67.7973C337.416 68.4018 335.762 69.5474 334.118 71.0391Z" fill="#6AD2FF"/>
<path d="M152.661 89H146.907C146.402 89 145.993 88.591 145.993 88.0865C145.993 87.582 146.402 87.173 146.907 87.173H152.661C153.298 87.173 153.812 86.8688 154.108 86.3156C154.417 85.7603 154.407 85.1462 154.088 84.6596L136.587 56.9196L119.093 84.6465C118.757 85.1614 118.735 85.7765 119.028 86.3035C119.347 86.8604 119.866 87.173 120.483 87.173H141.975C142.48 87.173 142.889 87.582 142.889 88.0865C142.889 88.591 142.48 89 141.975 89H120.483C119.201 89 118.091 88.344 117.437 87.2003C116.813 86.0765 116.861 84.7241 117.557 83.6595L135.815 54.7209C136.148 54.1902 137.025 54.1902 137.359 54.7209L155.624 83.6721C156.313 84.7241 156.349 86.0445 155.711 87.1908C155.108 88.3188 153.965 89 152.661 89Z" fill="#F8774E"/>
<path d="M136.586 56.1214C136.344 56.1214 136.112 56.0249 135.94 55.854L132.622 52.5356C130.446 50.3578 130.446 46.8155 132.622 44.6382C133.679 43.5816 135.084 43 136.582 43C136.591 43 136.599 43 136.607 43.0005C138.099 43.0068 139.49 43.5905 140.526 44.6435C141.576 45.6938 142.158 47.0961 142.158 48.5869C142.158 50.0772 141.576 51.4795 140.52 52.5356L137.236 55.8508C137.065 56.0234 136.832 56.1209 136.588 56.1214C136.587 56.1214 136.587 56.1214 136.586 56.1214ZM136.582 44.827C135.572 44.827 134.625 45.2182 133.914 45.9298C132.449 47.3944 132.449 49.7789 133.914 51.244L136.583 53.9132L139.225 51.2466C139.939 50.5329 140.332 49.589 140.332 48.5869C140.332 47.5843 139.939 46.6404 139.228 45.9298C138.532 45.2208 137.601 44.8312 136.6 44.827C136.594 44.827 136.588 44.827 136.582 44.827Z" fill="#F8774E"/>
<path d="M152.966 96.3975C152.706 96.3975 152.448 96.2868 152.267 96.0723L134.762 75.2796C134.437 74.8936 134.486 74.3173 134.872 73.9927C135.257 73.6686 135.835 73.7169 136.159 74.1028L153.664 94.8956C153.989 95.2815 153.94 95.8579 153.554 96.1825C153.383 96.3267 153.173 96.3975 152.966 96.3975Z" fill="#F8774E"/>
<path fill-rule="evenodd" clip-rule="evenodd" d="M227.037 113.917C227.297 114.176 227.574 114.406 227.866 114.607L225.797 116.744L223.972 114.92L226.097 112.87C226.275 113.118 226.474 113.353 226.695 113.573L227.037 113.917ZM221.501 117.302L216.459 122.163L218.537 124.241L223.409 119.21L221.501 117.302ZM208.947 129.405L213.989 124.545L216.15 126.707L211.279 131.736L208.947 129.405ZM206.476 131.789L196.921 141.001L199.658 143.738L208.891 134.203L206.476 131.789ZM189.299 148.35L194.449 143.384L197.269 146.204L192.308 151.328L189.299 148.35ZM234.719 114.555C233.796 115.214 232.724 115.579 231.638 115.648L204.046 144.14C209.588 151.391 209.599 157.861 204.071 163.389C202.225 165.294 199.959 166.778 197.354 167.78C194.284 168.93 192.347 171.532 192.158 174.744C191.778 180.724 189.224 186.356 184.969 190.612C181.432 194.15 177.548 195.928 173.383 195.929C172.102 195.929 170.796 195.76 169.464 195.423C164.867 194.26 160.071 191.133 154.803 185.864C143.221 174.283 141.623 164.133 150.056 155.7C154.312 151.443 159.945 148.89 165.917 148.51C169.137 148.32 171.738 146.384 172.884 143.328C173.862 140.784 175.361 138.461 177.223 136.598C182.779 131.044 189.254 131.065 196.496 136.645L224.996 109.166C225.037 108.018 225.4 106.881 226.084 105.921L225.92 105.764C225.234 105.109 225.211 104.022 225.867 103.337C226.523 102.652 227.611 102.63 228.292 103.285L228.454 103.44L229.516 102.377L229.41 102.276C228.724 101.621 228.7 100.534 229.357 99.8493C230.013 99.1636 231.1 99.1429 231.782 99.7971L231.942 99.9507L233.005 98.8885L232.898 98.7862C232.214 98.1301 232.193 97.0444 232.849 96.3597C233.503 95.676 234.588 95.6524 235.274 96.3095L235.459 96.4871C237.042 95.2897 239.36 95.3929 240.865 96.8128L243.821 99.7653C245.269 101.306 245.377 103.627 244.181 105.21L244.359 105.396C245.015 106.08 244.994 107.166 244.31 107.822C243.977 108.141 243.549 108.3 243.122 108.3C242.671 108.3 242.221 108.123 241.884 107.772L241.774 107.656L240.708 108.715L240.871 108.885C241.527 109.57 241.504 110.656 240.818 111.311C240.487 111.63 240.059 111.788 239.632 111.788C239.181 111.788 238.729 111.611 238.393 111.259L238.273 111.134L237.208 112.191L237.384 112.375C238.038 113.059 238.016 114.145 237.333 114.8C237 115.119 236.572 115.278 236.145 115.278C235.693 115.278 235.242 115.101 234.905 114.749L234.719 114.555ZM229.122 107.625L233.149 103.598C233.169 103.579 233.189 103.559 233.209 103.539L233.215 103.532L237.472 99.2747C237.6 99.1476 237.782 99.0866 237.965 99.0866C238.154 99.0866 238.345 99.1516 238.475 99.2757L241.358 102.154C241.636 102.45 241.653 102.937 241.393 103.197L233.043 111.49C232.058 112.477 230.45 112.476 229.465 111.491L229.122 111.147C228.184 110.209 228.184 108.564 229.122 107.625ZM195.983 152.466L201.63 146.635C205.775 152.257 205.763 156.843 201.626 160.981C200.109 162.545 198.258 163.755 196.134 164.572C191.837 166.184 189 170.004 188.734 174.534C188.407 179.673 186.208 184.521 182.541 188.185C178.778 191.949 174.772 193.224 170.307 192.096C166.38 191.103 161.981 188.19 157.23 183.439C146.976 173.185 145.469 165.142 152.484 158.127C156.148 154.461 160.997 152.262 166.126 151.935C170.664 151.668 174.484 148.832 176.092 144.546C176.894 142.46 178.124 140.549 179.651 139.023C183.79 134.887 188.377 134.878 193.996 139.055L188.167 144.675C184.595 143.802 180.765 144.84 178.137 147.464C176.126 149.476 175.018 152.151 175.018 154.998C175.018 157.844 176.126 160.519 178.137 162.529C180.151 164.543 182.821 165.649 185.662 165.649L185.707 165.649C188.539 165.638 191.183 164.526 193.147 162.529C195.802 159.874 196.859 156.025 195.983 152.466ZM180.565 149.891C181.82 148.635 183.487 147.915 185.21 147.812C185.157 147.976 185.129 148.148 185.128 148.323C185.126 148.785 185.309 149.229 185.636 149.554L191.125 154.987C191.449 155.305 191.882 155.483 192.333 155.483H192.351C192.519 155.482 192.685 155.455 192.843 155.406C192.736 157.138 191.998 158.826 190.71 160.114C189.384 161.462 187.601 162.21 185.694 162.218H185.662C183.739 162.218 181.928 161.467 180.565 160.103C179.201 158.74 178.451 156.927 178.451 154.998C178.451 153.068 179.201 151.254 180.565 149.891ZM170.359 178.429C170.694 178.765 171.134 178.932 171.573 178.932C172.012 178.932 172.452 178.765 172.787 178.43C173.457 177.759 173.457 176.674 172.787 176.004L164.667 167.883C163.997 167.211 162.909 167.212 162.24 167.882C161.57 168.553 161.57 169.638 162.24 170.308L170.359 178.429Z" fill="#6AD2FF"/>
<path d="M227.866 114.607L228.225 114.955L228.636 114.531L228.15 114.196L227.866 114.607ZM227.037 113.917L226.683 114.27L226.684 114.271L227.037 113.917ZM225.797 116.744L225.443 117.098L225.802 117.457L226.156 117.092L225.797 116.744ZM223.972 114.92L223.625 114.56L223.258 114.913L223.618 115.273L223.972 114.92ZM226.097 112.87L226.503 112.579L226.166 112.109L225.75 112.51L226.097 112.87ZM226.695 113.573L227.049 113.22L227.048 113.22L226.695 113.573ZM216.459 122.163L216.112 121.803L215.746 122.156L216.106 122.516L216.459 122.163ZM221.501 117.302L221.855 116.948L221.507 116.601L221.154 116.942L221.501 117.302ZM218.537 124.241L218.184 124.595L218.543 124.954L218.896 124.589L218.537 124.241ZM223.409 119.21L223.768 119.558L224.111 119.204L223.763 118.856L223.409 119.21ZM213.989 124.545L214.342 124.191L213.995 123.844L213.642 124.185L213.989 124.545ZM208.947 129.405L208.6 129.046L208.234 129.399L208.594 129.759L208.947 129.405ZM216.15 126.707L216.509 127.054L216.851 126.701L216.503 126.353L216.15 126.707ZM211.279 131.736L210.926 132.09L211.285 132.449L211.638 132.084L211.279 131.736ZM196.921 141.001L196.574 140.641L196.208 140.994L196.568 141.354L196.921 141.001ZM206.476 131.789L206.829 131.435L206.482 131.088L206.129 131.429L206.476 131.789ZM199.658 143.738L199.304 144.091L199.664 144.45L200.017 144.085L199.658 143.738ZM208.891 134.203L209.25 134.551L209.592 134.197L209.244 133.849L208.891 134.203ZM194.449 143.384L194.803 143.03L194.456 142.683L194.102 143.024L194.449 143.384ZM189.299 148.35L188.952 147.99L188.583 148.345L188.947 148.705L189.299 148.35ZM197.269 146.204L197.629 146.552L197.971 146.198L197.623 145.85L197.269 146.204ZM192.308 151.328L191.956 151.683L192.315 152.039L192.667 151.676L192.308 151.328ZM231.638 115.648L231.606 115.149L231.413 115.161L231.278 115.3L231.638 115.648ZM234.719 114.555L235.08 114.209L234.78 113.896L234.428 114.148L234.719 114.555ZM204.046 144.14L203.687 143.792L203.387 144.102L203.649 144.444L204.046 144.14ZM204.071 163.389L203.717 163.035L203.712 163.041L204.071 163.389ZM197.354 167.78L197.53 168.248L197.534 168.246L197.354 167.78ZM192.158 174.744L192.657 174.775L192.657 174.773L192.158 174.744ZM184.969 190.612L184.615 190.258L184.615 190.258L184.969 190.612ZM173.383 195.929V196.429H173.383L173.383 195.929ZM169.464 195.423L169.341 195.908L169.341 195.908L169.464 195.423ZM154.803 185.864L155.156 185.511L154.803 185.864ZM150.056 155.7L150.41 156.054L150.41 156.054L150.056 155.7ZM165.917 148.51L165.888 148.01L165.886 148.011L165.917 148.51ZM172.884 143.328L172.418 143.148L172.416 143.152L172.884 143.328ZM177.223 136.598L176.87 136.244L176.869 136.244L177.223 136.598ZM196.496 136.645L196.191 137.041L196.533 137.304L196.843 137.005L196.496 136.645ZM224.996 109.166L225.343 109.526L225.489 109.386L225.496 109.184L224.996 109.166ZM226.084 105.921L226.491 106.211L226.742 105.859L226.43 105.56L226.084 105.921ZM225.92 105.764L226.266 105.403L226.265 105.402L225.92 105.764ZM225.867 103.337L226.228 103.683L226.228 103.683L225.867 103.337ZM228.292 103.285L227.946 103.646L227.946 103.646L228.292 103.285ZM228.454 103.44L228.108 103.801L228.461 104.139L228.807 103.793L228.454 103.44ZM229.516 102.377L229.869 102.731L230.231 102.37L229.862 102.016L229.516 102.377ZM229.41 102.276L229.756 101.915L229.755 101.914L229.41 102.276ZM229.357 99.8493L229.718 100.195L229.718 100.195L229.357 99.8493ZM231.782 99.7971L231.436 100.158L231.436 100.158L231.782 99.7971ZM231.942 99.9507L231.597 100.312L231.95 100.65L232.296 100.304L231.942 99.9507ZM233.005 98.8885L233.358 99.2421L233.719 98.881L233.351 98.5276L233.005 98.8885ZM232.898 98.7862L232.552 99.1469L232.552 99.1471L232.898 98.7862ZM232.849 96.3597L233.21 96.7057L233.21 96.7054L232.849 96.3597ZM235.274 96.3095L235.62 95.9486L235.62 95.9485L235.274 96.3095ZM235.459 96.4871L235.113 96.848L235.421 97.1431L235.761 96.8859L235.459 96.4871ZM240.865 96.8128L241.219 96.459L241.214 96.454L241.208 96.449L240.865 96.8128ZM243.821 99.7653L244.185 99.4228L244.18 99.4171L244.174 99.4116L243.821 99.7653ZM244.181 105.21L243.782 104.908L243.525 105.248L243.82 105.556L244.181 105.21ZM244.359 105.396L244.72 105.05L244.72 105.05L244.359 105.396ZM244.31 107.822L244.656 108.183L244.656 108.183L244.31 107.822ZM241.884 107.772L241.524 108.118L241.524 108.118L241.884 107.772ZM241.774 107.656L242.134 107.31L241.782 106.943L241.421 107.302L241.774 107.656ZM240.708 108.715L240.356 108.36L240.008 108.706L240.347 109.061L240.708 108.715ZM240.871 108.885L240.51 109.231L240.51 109.231L240.871 108.885ZM240.818 111.311L240.473 110.95L240.472 110.951L240.818 111.311ZM238.393 111.259L238.031 111.605L238.031 111.605L238.393 111.259ZM238.273 111.134L238.634 110.788L238.282 110.42L237.92 110.779L238.273 111.134ZM237.208 112.191L236.856 111.837L236.507 112.183L236.847 112.537L237.208 112.191ZM237.384 112.375L237.745 112.029L237.745 112.029L237.384 112.375ZM237.333 114.8L236.987 114.439L236.987 114.439L237.333 114.8ZM234.905 114.749L235.266 114.403L235.266 114.403L234.905 114.749ZM233.149 103.598L232.805 103.235L232.796 103.244L233.149 103.598ZM229.122 107.625L228.768 107.271L228.768 107.272L229.122 107.625ZM233.209 103.539L233.57 103.885L233.57 103.884L233.209 103.539ZM233.215 103.532L232.861 103.179L232.853 103.187L233.215 103.532ZM237.472 99.2747L237.12 98.9198L237.119 98.9212L237.472 99.2747ZM238.475 99.2757L238.829 98.9218L238.82 98.914L238.475 99.2757ZM241.358 102.154L241.722 101.812L241.717 101.806L241.711 101.801L241.358 102.154ZM241.393 103.197L241.746 103.551L241.747 103.55L241.393 103.197ZM233.043 111.49L232.691 111.135L232.689 111.137L233.043 111.49ZM229.465 111.491L229.111 111.844L229.111 111.844L229.465 111.491ZM229.122 111.147L229.476 110.794L229.476 110.793L229.122 111.147ZM201.63 146.635L202.033 146.338L201.682 145.862L201.271 146.287L201.63 146.635ZM195.983 152.466L195.624 152.118L195.431 152.317L195.497 152.586L195.983 152.466ZM201.626 160.981L201.272 160.627L201.267 160.633L201.626 160.981ZM196.134 164.572L196.31 165.04L196.314 165.039L196.134 164.572ZM188.734 174.534L189.233 174.566L189.233 174.563L188.734 174.534ZM182.541 188.185L182.188 187.832L182.188 187.832L182.541 188.185ZM170.307 192.096L170.185 192.581L170.185 192.581L170.307 192.096ZM157.23 183.439L157.584 183.085L157.584 183.085L157.23 183.439ZM152.484 158.127L152.837 158.48L152.837 158.48L152.484 158.127ZM166.126 151.935L166.097 151.436L166.094 151.436L166.126 151.935ZM176.092 144.546L175.625 144.367L175.624 144.371L176.092 144.546ZM179.651 139.023L179.297 138.67L179.651 139.023ZM193.996 139.055L194.343 139.415L194.768 139.006L194.294 138.654L193.996 139.055ZM188.167 144.675L188.048 145.161L188.316 145.227L188.514 145.035L188.167 144.675ZM178.137 147.464L177.784 147.11L177.784 147.111L178.137 147.464ZM178.137 162.529L178.491 162.176L178.491 162.176L178.137 162.529ZM185.662 165.649L185.662 165.149H185.662V165.649ZM185.707 165.649L185.707 166.149L185.709 166.149L185.707 165.649ZM193.147 162.529L192.794 162.176L192.791 162.179L193.147 162.529ZM185.21 147.812L185.686 147.965L185.909 147.27L185.18 147.313L185.21 147.812ZM180.565 149.891L180.918 150.244L180.565 149.891ZM185.128 148.323L184.628 148.319L184.628 148.321L185.128 148.323ZM185.636 149.554L185.284 149.908L185.284 149.909L185.636 149.554ZM191.125 154.987L190.774 155.342L190.775 155.343L191.125 154.987ZM192.351 155.483V155.983L192.356 155.983L192.351 155.483ZM192.843 155.406L193.342 155.437L193.386 154.714L192.694 154.929L192.843 155.406ZM190.71 160.114L190.357 159.76L190.354 159.763L190.71 160.114ZM185.694 162.218V162.718L185.696 162.718L185.694 162.218ZM180.565 160.103L180.918 159.749L180.918 159.749L180.565 160.103ZM170.359 178.429L170.713 178.076L170.713 178.076L170.359 178.429ZM172.787 178.43L173.14 178.784L173.141 178.783L172.787 178.43ZM172.787 176.004L172.433 176.357L172.433 176.357L172.787 176.004ZM164.667 167.883L164.313 168.236L164.313 168.236L164.667 167.883ZM162.24 167.882L161.886 167.528L161.886 167.529L162.24 167.882ZM162.24 170.308L162.593 169.955L162.593 169.955L162.24 170.308ZM228.15 114.196C227.883 114.012 227.629 113.801 227.391 113.563L226.684 114.271C226.965 114.551 227.266 114.801 227.582 115.019L228.15 114.196ZM226.156 117.092L228.225 114.955L227.507 114.26L225.437 116.397L226.156 117.092ZM223.618 115.273L225.443 117.098L226.15 116.391L224.325 114.566L223.618 115.273ZM225.75 112.51L223.625 114.56L224.319 115.28L226.444 113.23L225.75 112.51ZM227.048 113.22C226.847 113.019 226.665 112.804 226.503 112.579L225.691 113.162C225.884 113.431 226.101 113.687 226.341 113.927L227.048 113.22ZM227.391 113.564L227.049 113.22L226.34 113.927L226.683 114.27L227.391 113.564ZM216.807 122.523L221.848 117.662L221.154 116.942L216.112 121.803L216.807 122.523ZM218.891 123.888L216.813 121.809L216.106 122.516L218.184 124.595L218.891 123.888ZM223.05 118.862L218.178 123.893L218.896 124.589L223.768 119.558L223.05 118.862ZM221.147 117.655L223.055 119.563L223.763 118.856L221.855 116.948L221.147 117.655ZM213.642 124.185L208.6 129.046L209.294 129.765L214.336 124.905L213.642 124.185ZM216.503 126.353L214.342 124.191L213.635 124.898L215.796 127.06L216.503 126.353ZM211.638 132.084L216.509 127.054L215.791 126.359L210.92 131.389L211.638 132.084ZM208.594 129.759L210.926 132.09L211.633 131.383L209.301 129.052L208.594 129.759ZM197.268 141.361L206.823 132.149L206.129 131.429L196.574 140.641L197.268 141.361ZM200.011 143.384L197.275 140.647L196.568 141.354L199.304 144.091L200.011 143.384ZM208.531 133.855L199.299 143.39L200.017 144.085L209.25 134.551L208.531 133.855ZM206.122 132.142L208.537 134.557L209.244 133.849L206.829 131.435L206.122 132.142ZM194.102 143.024L188.952 147.99L189.646 148.71L194.796 143.744L194.102 143.024ZM197.623 145.85L194.803 143.03L194.096 143.738L196.916 146.558L197.623 145.85ZM192.667 151.676L197.629 146.552L196.91 145.856L191.948 150.98L192.667 151.676ZM188.947 148.705L191.956 151.683L192.659 150.973L189.651 147.994L188.947 148.705ZM231.669 116.147C232.846 116.072 234.008 115.677 235.009 114.961L234.428 114.148C233.583 114.751 232.602 115.086 231.606 115.149L231.669 116.147ZM204.405 144.488L231.997 115.996L231.278 115.3L203.687 143.792L204.405 144.488ZM204.425 163.742C207.261 160.906 208.714 157.785 208.71 154.41C208.705 151.048 207.254 147.514 204.443 143.837L203.649 144.444C206.38 148.018 207.705 151.343 207.71 154.411C207.714 157.466 206.409 160.344 203.717 163.035L204.425 163.742ZM197.534 168.246C200.203 167.219 202.531 165.696 204.43 163.737L203.712 163.041C201.919 164.891 199.715 166.336 197.175 167.313L197.534 168.246ZM192.657 174.773C192.835 171.763 194.641 169.33 197.53 168.248L197.179 167.311C193.928 168.53 191.86 171.301 191.659 174.714L192.657 174.773ZM185.322 190.965C189.664 186.624 192.269 180.878 192.657 174.775L191.659 174.712C191.287 180.57 188.785 186.088 184.615 190.258L185.322 190.965ZM173.383 196.429C177.707 196.428 181.711 194.577 185.322 190.965L184.615 190.258C181.152 193.722 177.39 195.428 173.383 195.429L173.383 196.429ZM169.341 195.908C170.71 196.254 172.058 196.429 173.383 196.429V195.429C172.146 195.429 170.881 195.266 169.587 194.939L169.341 195.908ZM154.449 186.218C159.748 191.517 164.621 194.713 169.341 195.908L169.587 194.939C165.114 193.807 160.394 190.749 155.156 185.511L154.449 186.218ZM149.703 155.347C145.394 159.655 143.608 164.455 144.43 169.679C145.247 174.869 148.625 180.394 154.449 186.218L155.156 185.511C149.399 179.753 146.187 174.413 145.418 169.524C144.654 164.67 146.285 160.179 150.41 156.054L149.703 155.347ZM165.886 148.011C159.791 148.399 154.044 151.004 149.703 155.347L150.41 156.054C154.58 151.882 160.099 149.381 165.949 149.009L165.886 148.011ZM172.416 143.152C171.338 146.026 168.907 147.833 165.888 148.01L165.947 149.009C169.367 148.808 172.138 146.741 173.353 143.503L172.416 143.152ZM176.869 136.244C174.957 138.158 173.419 140.541 172.418 143.148L173.351 143.507C174.304 141.027 175.766 138.763 177.577 136.951L176.869 136.244ZM196.801 136.249C193.128 133.419 189.594 131.955 186.228 131.946C182.849 131.937 179.72 133.395 176.87 136.244L177.577 136.952C180.282 134.247 183.168 132.938 186.226 132.946C189.297 132.954 192.621 134.291 196.191 137.041L196.801 136.249ZM224.649 108.806L196.149 136.285L196.843 137.005L225.343 109.526L224.649 108.806ZM225.677 105.631C224.933 106.675 224.541 107.908 224.496 109.148L225.496 109.184C225.534 108.128 225.867 107.087 226.491 106.211L225.677 105.631ZM225.574 106.125L225.738 106.282L226.43 105.56L226.266 105.403L225.574 106.125ZM225.506 102.991C224.658 103.876 224.689 105.279 225.575 106.125L226.265 105.402C225.78 104.938 225.763 104.168 226.228 103.683L225.506 102.991ZM228.639 102.925C227.758 102.078 226.353 102.106 225.506 102.992L226.228 103.683C226.693 103.197 227.464 103.182 227.946 103.646L228.639 102.925ZM228.799 103.078L228.638 102.924L227.946 103.646L228.108 103.801L228.799 103.078ZM229.162 102.024L228.1 103.086L228.807 103.793L229.869 102.731L229.162 102.024ZM229.064 102.637L229.17 102.738L229.862 102.016L229.756 101.915L229.064 102.637ZM228.996 99.5034C228.148 100.388 228.179 101.791 229.064 102.637L229.755 101.914C229.269 101.45 229.253 100.68 229.718 100.195L228.996 99.5034ZM232.128 99.4363C231.247 98.5912 229.843 98.6178 228.995 99.5036L229.718 100.195C230.182 99.7094 230.953 99.6947 231.436 100.158L232.128 99.4363ZM232.288 99.5896L232.128 99.436L231.436 100.158L231.597 100.312L232.288 99.5896ZM232.651 98.5349L231.589 99.5971L232.296 100.304L233.358 99.2421L232.651 98.5349ZM232.552 99.1471L232.659 99.2494L233.351 98.5276L233.244 98.4253L232.552 99.1471ZM232.488 96.0138C231.641 96.8972 231.668 98.2992 232.552 99.1469L233.244 98.4254C232.76 97.9609 232.744 97.1916 233.21 96.7057L232.488 96.0138ZM235.62 95.9485C234.735 95.1006 233.333 95.1303 232.487 96.0141L233.21 96.7054C233.673 96.2217 234.442 96.2041 234.928 96.6705L235.62 95.9485ZM235.805 96.1263L235.62 95.9486L234.928 96.6703L235.113 96.848L235.805 96.1263ZM241.208 96.449C239.526 94.8625 236.936 94.743 235.158 96.0884L235.761 96.8859C237.148 95.8364 239.193 95.9234 240.522 97.1765L241.208 96.449ZM244.174 99.4116L241.219 96.459L240.512 97.1665L243.467 100.119L244.174 99.4116ZM244.579 105.511C245.926 103.729 245.796 101.136 244.185 99.4228L243.456 100.108C244.742 101.475 244.827 103.524 243.782 104.908L244.579 105.511ZM244.72 105.05L244.541 104.863L243.82 105.556L243.998 105.742L244.72 105.05ZM244.656 108.183C245.539 107.335 245.567 105.933 244.72 105.05L243.998 105.742C244.464 106.228 244.448 106.997 243.964 107.461L244.656 108.183ZM243.122 108.8C243.673 108.8 244.226 108.595 244.656 108.183L243.964 107.461C243.728 107.688 243.425 107.8 243.122 107.8V108.8ZM241.524 108.118C241.958 108.571 242.539 108.8 243.122 108.8V107.8C242.802 107.8 242.484 107.675 242.245 107.426L241.524 108.118ZM241.413 108.003L241.524 108.118L242.245 107.426L242.134 107.31L241.413 108.003ZM241.061 109.069L242.126 108.011L241.421 107.302L240.356 108.36L241.061 109.069ZM241.232 108.539L241.069 108.369L240.347 109.061L240.51 109.231L241.232 108.539ZM241.163 111.673C242.049 110.827 242.079 109.423 241.232 108.539L240.51 109.231C240.975 109.716 240.958 110.486 240.473 110.95L241.163 111.673ZM239.632 112.288C240.183 112.288 240.736 112.083 241.165 111.672L240.472 110.951C240.238 111.176 239.936 111.288 239.632 111.288V112.288ZM238.031 111.605C238.467 112.059 239.05 112.288 239.632 112.288V111.288C239.311 111.288 238.992 111.163 238.754 110.913L238.031 111.605ZM237.911 111.48L238.031 111.605L238.754 110.913L238.634 110.788L237.911 111.48ZM237.56 112.546L238.625 111.489L237.92 110.779L236.856 111.837L237.56 112.546ZM237.745 112.029L237.569 111.845L236.847 112.537L237.023 112.721L237.745 112.029ZM237.679 115.161C238.562 114.315 238.59 112.912 237.745 112.029L237.023 112.72C237.487 113.205 237.471 113.976 236.987 114.439L237.679 115.161ZM236.145 115.778C236.696 115.778 237.249 115.573 237.679 115.161L236.987 114.439C236.75 114.666 236.448 114.778 236.145 114.778V115.778ZM234.544 115.095C234.979 115.549 235.563 115.778 236.145 115.778V114.778C235.824 114.778 235.505 114.652 235.266 114.403L234.544 115.095ZM234.358 114.9L234.544 115.095L235.266 114.403L235.08 114.209L234.358 114.9ZM232.796 103.244L228.768 107.271L229.476 107.979L233.503 103.951L232.796 103.244ZM232.847 103.193C232.834 103.207 232.82 103.221 232.805 103.235L233.493 103.961C233.519 103.936 233.545 103.911 233.57 103.885L232.847 103.193ZM232.853 103.187L232.847 103.194L233.57 103.884L233.577 103.877L232.853 103.187ZM237.119 98.9212L232.861 103.179L233.568 103.886L237.826 99.6283L237.119 98.9212ZM237.965 98.5866C237.677 98.5866 237.36 98.6821 237.12 98.9198L237.824 99.6296C237.841 99.6132 237.886 99.5866 237.965 99.5866V98.5866ZM238.82 98.914C238.581 98.6852 238.258 98.5866 237.965 98.5866V99.5866C238.05 99.5866 238.11 99.6179 238.13 99.6374L238.82 98.914ZM241.711 101.801L238.829 98.9219L238.122 99.6295L241.005 102.508L241.711 101.801ZM241.747 103.55C242.23 103.067 242.152 102.269 241.722 101.812L240.994 102.497C241.043 102.55 241.075 102.627 241.078 102.706C241.08 102.787 241.054 102.829 241.04 102.843L241.747 103.55ZM233.395 111.845L241.746 103.551L241.041 102.842L232.691 111.135L233.395 111.845ZM229.111 111.844C230.292 113.025 232.216 113.026 233.397 111.843L232.689 111.137C231.899 111.928 230.609 111.927 229.818 111.137L229.111 111.844ZM228.768 111.5L229.111 111.844L229.819 111.138L229.476 110.794L228.768 111.5ZM228.768 107.272C227.635 108.406 227.635 110.367 228.768 111.501L229.476 110.793C228.733 110.051 228.733 108.722 229.476 107.978L228.768 107.272ZM201.271 146.287L195.624 152.118L196.342 152.814L201.989 146.982L201.271 146.287ZM201.979 161.334C204.116 159.197 205.232 156.896 205.234 154.365C205.236 151.85 204.139 149.195 202.033 146.338L201.228 146.931C203.266 149.697 204.236 152.146 204.234 154.364C204.232 156.566 203.273 158.626 201.272 160.627L201.979 161.334ZM196.314 165.039C198.503 164.197 200.415 162.948 201.985 161.329L201.267 160.633C199.802 162.143 198.014 163.313 195.955 164.105L196.314 165.039ZM189.233 174.563C189.487 170.234 192.195 166.583 196.31 165.04L195.959 164.104C191.479 165.784 188.513 169.775 188.235 174.505L189.233 174.563ZM182.895 188.539C186.647 184.789 188.898 179.827 189.233 174.566L188.235 174.502C187.916 179.518 185.769 184.252 182.188 187.832L182.895 188.539ZM170.185 192.581C174.849 193.76 179.029 192.404 182.895 188.539L182.188 187.832C178.526 191.493 174.695 192.689 170.43 191.612L170.185 192.581ZM156.877 183.792C161.653 188.57 166.13 191.556 170.185 192.581L170.43 191.612C166.63 190.651 162.308 187.81 157.584 183.085L156.877 183.792ZM152.13 157.773C148.532 161.372 147.072 165.297 147.89 169.661C148.699 173.978 151.725 178.641 156.877 183.792L157.584 183.085C152.482 177.983 149.627 173.497 148.873 169.476C148.128 165.502 149.421 161.897 152.837 158.48L152.13 157.773ZM166.094 151.436C160.843 151.771 155.88 154.022 152.13 157.773L152.837 158.48C156.417 154.9 161.152 152.753 166.158 152.434L166.094 151.436ZM175.624 144.371C174.085 148.473 170.435 151.181 166.097 151.436L166.156 152.434C170.893 152.155 174.884 149.19 176.56 144.722L175.624 144.371ZM179.297 138.67C177.719 140.247 176.452 142.218 175.625 144.367L176.559 144.726C177.337 142.702 178.529 140.852 180.004 139.377L179.297 138.67ZM194.294 138.654C191.439 136.531 188.784 135.424 186.269 135.421C183.737 135.418 181.435 136.533 179.297 138.67L180.004 139.377C182.006 137.377 184.067 136.419 186.268 136.421C188.486 136.424 190.934 137.401 193.698 139.457L194.294 138.654ZM188.514 145.035L194.343 139.415L193.649 138.695L187.82 144.316L188.514 145.035ZM178.491 147.818C180.993 145.319 184.644 144.329 188.048 145.161L188.286 144.19C184.547 143.275 180.537 144.361 177.784 147.11L178.491 147.818ZM175.518 154.998C175.518 152.283 176.573 149.736 178.491 147.818L177.784 147.111C175.678 149.216 174.518 152.018 174.518 154.998H175.518ZM178.491 162.176C176.573 160.259 175.518 157.711 175.518 154.998H174.518C174.518 157.976 175.678 160.778 177.784 162.883L178.491 162.176ZM185.662 165.149C182.954 165.149 180.411 164.096 178.491 162.176L177.784 162.883C179.891 164.99 182.688 166.149 185.662 166.149V165.149ZM185.707 165.149L185.662 165.149L185.662 166.149L185.707 166.149L185.707 165.149ZM192.791 162.179C190.921 164.08 188.405 165.138 185.705 165.149L185.709 166.149C188.673 166.137 191.445 164.973 193.504 162.88L192.791 162.179ZM195.497 152.586C196.332 155.974 195.325 159.644 192.794 162.176L193.501 162.883C196.279 160.104 197.387 156.076 196.468 152.347L195.497 152.586ZM185.18 147.313C183.339 147.423 181.556 148.192 180.211 149.537L180.918 150.244C182.085 149.078 183.635 148.407 185.24 148.311L185.18 147.313ZM185.628 148.328C185.629 148.203 185.649 148.081 185.686 147.965L184.734 147.66C184.666 147.871 184.63 148.093 184.628 148.319L185.628 148.328ZM185.989 149.199C185.757 148.969 185.626 148.654 185.628 148.325L184.628 148.321C184.625 148.917 184.861 149.489 185.284 149.908L185.989 149.199ZM191.477 154.632L185.988 149.198L185.284 149.909L190.774 155.342L191.477 154.632ZM192.333 154.983C192.014 154.983 191.706 154.857 191.476 154.631L190.775 155.343C191.191 155.753 191.75 155.983 192.333 155.983V154.983ZM192.351 154.983H192.333V155.983H192.351V154.983ZM192.694 154.929C192.582 154.963 192.465 154.982 192.346 154.983L192.356 155.983C192.574 155.981 192.787 155.947 192.991 155.884L192.694 154.929ZM191.064 160.467C192.439 159.092 193.227 157.289 193.342 155.437L192.344 155.375C192.244 156.986 191.558 158.56 190.357 159.76L191.064 160.467ZM185.696 162.718C187.735 162.71 189.646 161.909 191.067 160.464L190.354 159.763C189.122 161.016 187.467 161.711 185.692 161.718L185.696 162.718ZM185.662 162.718H185.694V161.718H185.662V162.718ZM180.211 160.456C181.668 161.914 183.606 162.718 185.662 162.718V161.718C183.872 161.718 182.188 161.02 180.918 159.749L180.211 160.456ZM177.951 154.998C177.951 157.059 178.754 159 180.211 160.457L180.918 159.749C179.649 158.481 178.951 156.794 178.951 154.998H177.951ZM180.211 149.537C178.754 150.994 177.951 152.935 177.951 154.998H178.951C178.951 153.2 179.649 151.514 180.918 150.244L180.211 149.537ZM171.573 178.432C171.261 178.432 170.951 178.314 170.713 178.076L170.005 178.782C170.438 179.216 171.007 179.432 171.573 179.432V178.432ZM172.433 178.076C172.196 178.314 171.885 178.432 171.573 178.432V179.432C172.139 179.432 172.708 179.216 173.14 178.784L172.433 178.076ZM172.433 176.357C172.908 176.832 172.908 177.601 172.433 178.077L173.141 178.783C174.005 177.917 174.006 176.515 173.14 175.65L172.433 176.357ZM164.313 168.236L172.433 176.357L173.14 175.65L165.021 167.529L164.313 168.236ZM162.593 168.235C163.068 167.76 163.839 167.76 164.313 168.236L165.021 167.53C164.156 166.662 162.751 166.663 161.886 167.528L162.593 168.235ZM162.593 169.955C162.119 169.48 162.118 168.711 162.593 168.235L161.886 167.529C161.021 168.395 161.021 169.797 161.886 170.662L162.593 169.955ZM170.713 178.076L162.593 169.955L161.886 170.662L170.006 178.783L170.713 178.076Z" fill="#292B3C"/>
<path d="M91.4807 54.7381C91.136 55.1209 90.5045 55.1588 90.1276 54.8194L86.7824 51.807C86.4055 51.4675 86.3773 50.8356 86.722 50.4528C87.0667 50.07 87.6981 50.0321 88.075 50.3716L91.4202 53.384C91.7972 53.7234 91.8254 54.3554 91.4807 54.7381Z" fill="white"/>
<path d="M91.5068 51.2961L88.0598 55.1238C87.7151 55.5066 87.0837 55.5445 86.7067 55.2051C86.3298 54.8656 86.3016 54.2337 86.6463 53.8509L90.0933 50.0232C90.438 49.6404 91.0694 49.6025 91.4464 49.9419C91.8233 50.2813 91.8515 50.9133 91.5068 51.2961Z" fill="white"/>
<path d="M111.952 43.2799C109.927 45.5287 106.5 45.7346 104.285 43.7404C102.071 41.7463 101.918 38.3158 103.943 36.067C105.968 33.8182 109.396 33.6123 111.61 35.6065C113.824 37.6007 113.977 41.0311 111.952 43.2799ZM105.827 37.7642C104.75 38.9603 104.831 40.7658 106.009 41.8266C107.186 42.8873 108.991 42.7789 110.068 41.5828C111.145 40.3866 111.064 38.5811 109.886 37.5204C108.709 36.4596 106.905 36.568 105.827 37.7642Z" fill="white"/>
<path d="M11.6721 42.2799C9.64695 44.5287 6.21924 44.7346 4.00481 42.7404C1.79039 40.7463 1.63733 37.3158 3.66244 35.067C5.68755 32.8182 9.11526 32.6123 11.3297 34.6065C13.5441 36.6006 13.6972 40.0311 11.6721 42.2799ZM5.54705 36.7641C4.46987 37.9603 4.55043 39.7658 5.72831 40.8266C6.9062 41.8873 8.71026 41.7789 9.78744 40.5828C10.8646 39.3866 10.7841 37.5811 9.60619 36.5203C8.4283 35.4596 6.62424 35.568 5.54705 36.7641Z" fill="white" stroke="#131520"/>
<path d="M536.481 54.7379C536.136 55.1207 535.505 55.1586 535.128 54.8192L531.782 51.8067C531.405 51.4673 531.377 50.8354 531.722 50.4526C532.067 50.0698 532.698 50.0319 533.075 50.3713L536.42 53.3838C536.797 53.7232 536.825 54.3552 536.481 54.7379Z" fill="white"/>
<path d="M536.507 51.2958L533.06 55.1236C532.715 55.5063 532.084 55.5443 531.707 55.2048C531.33 54.8654 531.302 54.2335 531.646 53.8507L535.093 50.023C535.438 49.6402 536.069 49.6023 536.446 49.9417C536.823 50.2811 536.851 50.9131 536.507 51.2958Z" fill="white"/>
<path d="M549.672 41.2798C547.647 43.5286 544.219 43.7345 542.005 41.7403C539.79 39.7462 539.637 36.3157 541.662 34.0669C543.688 31.8181 547.115 31.6122 549.33 33.6064C551.544 35.6006 551.697 39.031 549.672 41.2798ZM543.547 35.7641C542.47 36.9602 542.55 38.7658 543.728 39.8265C544.906 40.8872 546.71 40.7788 547.787 39.5827C548.865 38.3865 548.784 36.581 547.606 35.5203C546.428 34.4595 544.624 34.5679 543.547 35.7641Z" fill="white"/>
<path d="M235.962 161.883C233.937 164.132 230.509 164.338 228.295 162.343C226.08 160.349 225.927 156.919 227.952 154.67C229.978 152.421 233.405 152.215 235.62 154.21C237.834 156.204 237.987 159.634 235.962 161.883ZM229.837 156.367C228.76 157.563 228.84 159.369 230.018 160.43C231.196 161.49 233 161.382 234.077 160.186C235.155 158.99 235.074 157.184 233.896 156.123C232.718 155.063 230.914 155.171 229.837 156.367Z" fill="white"/>
<path d="M261.143 92.5745C260.14 93.6878 258.443 93.7898 257.347 92.8025C256.251 91.8152 256.175 90.1168 257.177 89.0035C258.18 87.8902 259.877 87.7882 260.973 88.7755C262.07 89.7628 262.145 91.4612 261.143 92.5745ZM258.111 89.8437C257.577 90.4359 257.617 91.3298 258.2 91.855C258.783 92.3801 259.677 92.3265 260.21 91.7343C260.743 91.1421 260.703 90.2482 260.12 89.723C259.537 89.1979 258.644 89.2515 258.111 89.8437Z" fill="white"/>
<path d="M296.764 91.1671C296.477 91.2304 296.21 91.0626 296.147 90.78L295.275 86.8229C295.212 86.5403 295.384 86.2757 295.671 86.2124C295.958 86.1491 296.225 86.3169 296.288 86.5995L297.16 90.5566C297.223 90.8392 297.051 91.1038 296.764 91.1671Z" fill="white"/>
<path d="M298.523 88.7047L294.133 89.6728C293.846 89.7361 293.579 89.5684 293.516 89.2857C293.454 89.0031 293.626 88.7385 293.913 88.6752L298.303 87.7071C298.59 87.6438 298.857 87.8116 298.919 88.0942C298.982 88.3768 298.81 88.6414 298.523 88.7047Z" fill="white"/>
<path d="M434.025 19.5358C433.406 20.4386 432.253 20.6631 431.364 20.0537L418.917 11.5225C418.028 10.9131 417.821 9.75667 418.44 8.85379C419.059 7.95091 420.212 7.72647 421.101 8.33584L433.548 16.8671C434.437 17.4764 434.644 18.6329 434.025 19.5358Z" fill="white"/>
<path d="M432.535 8.36631L423.07 22.1751C422.451 23.078 421.298 23.3024 420.409 22.693C419.52 22.0837 419.314 20.9272 419.932 20.0244L429.397 6.21558C430.016 5.3127 431.169 5.08825 432.058 5.69763C432.947 6.307 433.154 7.46343 432.535 8.36631Z" fill="white"/>
<path d="M450.098 33.0833C449.344 33.2497 448.655 32.8173 448.491 32.0743L447.126 25.8826C446.962 25.1396 447.405 24.4576 448.159 24.2912C448.914 24.1248 449.603 24.5573 449.766 25.3003L451.132 31.4919C451.296 32.2349 450.853 32.9169 450.098 33.0833Z" fill="white"/>
<path d="M452.936 29.2145L445.894 30.7676C445.139 30.9339 444.451 30.5015 444.287 29.7585C444.123 29.0155 444.566 28.3335 445.32 28.1671L452.363 26.614C453.117 26.4476 453.806 26.8801 453.97 27.6231C454.134 28.3661 453.691 29.0481 452.936 29.2145Z" fill="white"/>
<path d="M417.727 103.648C415.768 103.648 414.053 103.174 412.634 102.544C411.104 101.863 410.415 100.071 411.093 98.5396C411.772 97.0051 413.584 96.324 415.09 96.9981L415.095 97.0003C416.3 97.5355 419.923 99.1444 425.835 93.0983C427.003 91.9034 428.927 91.8843 430.117 93.0547C431.313 94.227 431.334 96.1481 430.162 97.3447C425.469 102.141 421.215 103.648 417.727 103.648Z" fill="#FFAB09"/>
<path d="M428.057 117.991C428.561 119.121 429.668 119.792 430.826 119.792C431.24 119.792 431.657 119.708 432.057 119.529C433.584 118.848 434.273 117.055 433.595 115.524C433.069 114.347 431.48 110.764 437.588 104.769C438.784 103.597 438.805 101.676 437.633 100.479C436.468 99.2841 434.548 99.265 433.351 100.435C425.814 107.827 426.314 114.061 428.057 117.991Z" fill="#FFAB09"/>
<path fill-rule="evenodd" clip-rule="evenodd" d="M503.884 38.7865C505.559 39.4221 507.224 39.7495 508.791 39.7495C511.16 39.7495 513.302 39.0024 514.913 37.4417C516.972 35.2593 517.629 31.983 516.802 28.4089C517.101 28.1477 517.396 27.8795 517.678 27.5973C520.395 24.8767 522.325 21.6283 523.118 18.4513C524.033 14.7971 523.337 11.4791 521.212 9.35237C519.056 7.18911 515.713 6.47325 512.05 7.39115C508.899 8.18017 505.685 10.0978 503 12.7871C502.683 13.1041 502.387 13.4141 502.106 13.7242C498.523 12.815 495.257 13.4681 493.1 15.621C490.933 17.7895 490.227 21.1423 491.159 24.8192C491.321 25.4597 491.53 26.1036 491.783 26.746L468.072 49.4106C451.835 37.9233 433.383 40.8009 411.765 58.1706C411.094 58.7105 410.683 59.5117 410.635 60.3722C410.589 61.2326 410.909 62.0739 411.518 62.6835L415.56 66.7296C417.136 68.3076 418.005 70.4186 418.005 72.6725C418.005 74.9263 417.136 77.0373 415.56 78.6153L408.895 85.2915C405.626 88.566 400.293 88.566 397.024 85.2915L392.078 80.3362C390.933 79.1884 389.093 79.1466 387.9 80.2334C376.801 90.3112 366.317 99.8317 366.007 112.559C365.792 121.359 370.366 130.702 380.326 141.667C380.472 141.892 380.651 142.102 380.862 142.288C380.907 142.328 380.953 142.367 381 142.404C381.469 142.911 381.95 143.422 382.441 143.936L379.211 147.172C378.028 148.357 378.028 150.276 379.211 151.462C379.802 152.055 380.578 152.351 381.354 152.351C382.129 152.351 382.905 152.055 383.496 151.462L386.726 148.227C387.238 148.718 387.747 149.198 388.252 149.667C388.288 149.713 388.326 149.758 388.365 149.802C388.553 150.018 388.766 150.2 388.994 150.348C399.696 160.098 408.851 164.693 417.466 164.693C417.661 164.693 417.859 164.691 418.054 164.686C430.764 164.374 440.274 153.877 450.337 142.761C451.422 141.562 451.377 139.721 450.236 138.577L445.286 133.622C443.71 132.044 442.841 129.933 442.841 127.679C442.841 125.425 443.71 123.314 445.286 121.736L451.951 115.06C455.102 111.904 460.667 111.904 463.819 115.06L467.857 119.104C468.466 119.716 469.308 120.038 470.17 119.989C471.033 119.94 471.833 119.526 472.369 118.848C489.335 97.4956 492.176 79.1132 481.01 62.7415L503.884 38.7865ZM388.908 141.877C389.524 142.493 390.135 143.092 390.74 143.674L406.898 129.466L401.188 123.804L386.989 139.918C387.569 140.523 388.166 141.133 388.781 141.75C388.795 141.763 388.809 141.776 388.822 141.789C388.83 141.797 388.838 141.805 388.846 141.813C388.867 141.834 388.888 141.855 388.908 141.877ZM498.501 35.6464C497.863 35.1318 497.239 34.571 496.634 33.9652C496.036 33.3657 495.475 32.7414 494.956 32.0987L442.925 81.8327L448.761 87.7345L474.876 60.3634C474.95 60.2868 475.027 60.2144 475.107 60.1462L498.501 35.6464ZM497.382 19.9127C497.726 19.5696 498.318 19.4006 499.052 19.4006C499.886 19.4006 500.906 19.6218 501.949 20.0572C503.229 20.6007 504.707 20.1931 505.542 19.0801C506.06 18.3852 506.582 17.7773 507.281 17.0788C509.177 15.1821 511.448 13.7956 513.522 13.2766C515.042 12.8934 516.322 13.0293 516.927 13.6406C517.504 14.2171 517.619 15.466 517.243 16.9796C516.718 19.0749 515.316 21.381 513.393 23.3074C513.015 23.6844 512.602 24.0252 512.199 24.3574L512.085 24.4517L511.341 25.0718C510.37 25.9096 510.029 27.2699 510.492 28.4665C511.295 30.5479 511.302 32.4359 510.607 33.1779C509.32 34.425 504.906 33.6726 500.919 29.6752C498.979 27.7314 497.559 25.4184 497.031 23.3265C496.638 21.7764 496.766 20.531 497.382 19.9127ZM450.991 94.1814C450.95 94.2234 450.909 94.2641 450.867 94.3034C450.365 94.773 449.744 95.0397 449.107 95.1045C449.026 95.1129 448.944 95.1179 448.862 95.1197L448.827 95.1202L448.799 95.1203C448.047 95.1203 447.293 94.8399 446.705 94.279L446.703 94.2776C446.684 94.2593 446.665 94.2406 446.646 94.2215L436.448 83.9085C436.305 83.7639 436.178 83.6064 436.068 83.4388L436.046 83.4032L436.028 83.3754C435.964 83.272 435.906 83.165 435.855 83.055C435.838 83.0179 435.821 82.9805 435.806 82.9427C435.647 82.5627 435.566 82.1507 435.571 81.7313C435.581 80.9179 435.919 80.1428 436.507 79.5803L463.565 53.6803C450.542 45.1021 435.988 47.4048 418.228 60.8198L419.845 62.4379C425.48 68.0812 425.48 77.2637 419.845 82.9053L413.181 89.5814C407.546 95.2212 398.38 95.2212 392.738 89.5814L389.834 86.6692C380.22 95.4442 372.293 103.27 372.063 112.708C371.903 119.236 375.458 126.704 382.889 135.402L398.769 117.381C399.349 116.724 400.151 116.378 400.963 116.357C401.023 116.355 401.084 116.356 401.145 116.358C401.881 116.382 402.61 116.673 403.173 117.232L413.472 127.444C413.914 127.883 414.193 128.424 414.308 128.993C414.443 129.658 414.353 130.356 414.045 130.967C413.875 131.304 413.64 131.615 413.339 131.879L395.256 147.781C403.981 155.246 411.523 158.846 417.908 158.621C427.334 158.39 435.147 150.452 443.909 140.824L441.001 137.913C438.281 135.188 436.781 131.554 436.781 127.679C436.781 123.803 438.281 120.17 441.001 117.446L447.665 110.77C450.385 108.046 454.017 106.546 457.885 106.546C461.753 106.546 465.384 108.046 468.104 110.77L469.708 112.376C482.765 94.868 485.025 80.3767 476.714 67.2402L450.991 94.1814Z" fill="#FFAB09"/>
<path fill-rule="evenodd" clip-rule="evenodd" d="M458.973 152.835C458.455 153.353 458.164 154.012 458.1 154.688C458.085 154.842 458.082 154.997 458.091 155.151C458.097 155.26 458.109 155.368 458.126 155.476L459.821 166.634L447.665 178.822C446.482 180.008 446.482 181.927 447.668 183.112C448.26 183.704 449.032 184 449.808 184C450.583 184 451.359 183.702 451.95 183.11L542.113 92.7129C542.795 92.0301 543.111 91.0652 542.965 90.1124L541.05 77.505C540.961 76.8764 540.675 76.2702 540.192 75.7866C539.01 74.5987 537.09 74.5987 535.907 75.7866L458.973 152.835ZM536.746 89.5098L465.14 161.302L464.34 156.039L535.956 84.3171L536.746 89.5098Z" fill="#FFAB09"/>
<path d="M417.727 103.648C415.768 103.648 414.053 103.174 412.634 102.544C411.104 101.863 410.415 100.071 411.093 98.5396C411.772 97.0051 413.584 96.324 415.09 96.9981L415.095 97.0003C416.3 97.5355 419.923 99.1444 425.835 93.0983C427.003 91.9034 428.927 91.8843 430.117 93.0547C431.313 94.227 431.334 96.1481 430.162 97.3447C425.469 102.141 421.215 103.648 417.727 103.648Z" stroke="#292B3C" stroke-width="3"/>
<path d="M428.057 117.991C428.561 119.121 429.668 119.792 430.826 119.792C431.24 119.792 431.657 119.708 432.057 119.529C433.584 118.848 434.273 117.055 433.595 115.524C433.069 114.347 431.48 110.764 437.588 104.769C438.784 103.597 438.805 101.676 437.633 100.479C436.468 99.2841 434.548 99.265 433.351 100.435C425.814 107.827 426.314 114.061 428.057 117.991Z" stroke="#292B3C" stroke-width="3"/>
<path fill-rule="evenodd" clip-rule="evenodd" d="M503.884 38.7865C505.559 39.4221 507.224 39.7495 508.791 39.7495C511.16 39.7495 513.302 39.0024 514.913 37.4417C516.972 35.2593 517.629 31.983 516.802 28.4089C517.101 28.1477 517.396 27.8795 517.678 27.5973C520.395 24.8767 522.325 21.6283 523.118 18.4513C524.033 14.7971 523.337 11.4791 521.212 9.35237C519.056 7.18911 515.713 6.47325 512.05 7.39115C508.899 8.18017 505.685 10.0978 503 12.7871C502.683 13.1041 502.387 13.4141 502.106 13.7242C498.523 12.815 495.257 13.4681 493.1 15.621C490.933 17.7895 490.227 21.1423 491.159 24.8192C491.321 25.4597 491.53 26.1036 491.783 26.746L468.072 49.4106C451.835 37.9233 433.383 40.8009 411.765 58.1706C411.094 58.7105 410.683 59.5117 410.635 60.3722C410.589 61.2326 410.909 62.0739 411.518 62.6835L415.56 66.7296C417.136 68.3076 418.005 70.4186 418.005 72.6725C418.005 74.9263 417.136 77.0373 415.56 78.6153L408.895 85.2915C405.626 88.566 400.293 88.566 397.024 85.2915L392.078 80.3362C390.933 79.1884 389.093 79.1466 387.9 80.2334C376.801 90.3112 366.317 99.8317 366.007 112.559C365.792 121.359 370.366 130.702 380.326 141.667C380.472 141.892 380.651 142.102 380.862 142.288C380.907 142.328 380.953 142.367 381 142.404C381.469 142.911 381.95 143.422 382.441 143.936L379.211 147.172C378.028 148.357 378.028 150.276 379.211 151.462C379.802 152.055 380.578 152.351 381.354 152.351C382.129 152.351 382.905 152.055 383.496 151.462L386.726 148.227C387.238 148.718 387.747 149.198 388.252 149.667C388.288 149.713 388.326 149.758 388.365 149.802C388.553 150.018 388.766 150.2 388.994 150.348C399.696 160.098 408.851 164.693 417.466 164.693C417.661 164.693 417.859 164.691 418.054 164.686C430.764 164.374 440.274 153.877 450.337 142.761C451.422 141.562 451.377 139.721 450.236 138.577L445.286 133.622C443.71 132.044 442.841 129.933 442.841 127.679C442.841 125.425 443.71 123.314 445.286 121.736L451.951 115.06C455.102 111.904 460.667 111.904 463.819 115.06L467.857 119.104C468.466 119.716 469.308 120.038 470.17 119.989C471.033 119.94 471.833 119.526 472.369 118.848C489.335 97.4956 492.176 79.1132 481.01 62.7415L503.884 38.7865ZM388.908 141.877C389.524 142.493 390.135 143.092 390.74 143.674L406.898 129.466L401.188 123.804L386.989 139.918C387.569 140.523 388.166 141.133 388.781 141.75C388.795 141.763 388.809 141.776 388.822 141.789C388.83 141.797 388.838 141.805 388.846 141.813C388.867 141.834 388.888 141.855 388.908 141.877ZM498.501 35.6464C497.863 35.1318 497.239 34.571 496.634 33.9652C496.036 33.3657 495.475 32.7414 494.956 32.0987L442.925 81.8327L448.761 87.7345L474.876 60.3634C474.95 60.2868 475.027 60.2144 475.107 60.1462L498.501 35.6464ZM497.382 19.9127C497.726 19.5696 498.318 19.4006 499.052 19.4006C499.886 19.4006 500.906 19.6218 501.949 20.0572C503.229 20.6007 504.707 20.1931 505.542 19.0801C506.06 18.3852 506.582 17.7773 507.281 17.0788C509.177 15.1821 511.448 13.7956 513.522 13.2766C515.042 12.8934 516.322 13.0293 516.927 13.6406C517.504 14.2171 517.619 15.466 517.243 16.9796C516.718 19.0749 515.316 21.381 513.393 23.3074C513.015 23.6844 512.602 24.0252 512.199 24.3574L512.085 24.4517L511.341 25.0718C510.37 25.9096 510.029 27.2699 510.492 28.4665C511.295 30.5479 511.302 32.4359 510.607 33.1779C509.32 34.425 504.906 33.6726 500.919 29.6752C498.979 27.7314 497.559 25.4184 497.031 23.3265C496.638 21.7764 496.766 20.531 497.382 19.9127ZM450.991 94.1814C450.95 94.2234 450.909 94.2641 450.867 94.3034C450.365 94.773 449.744 95.0397 449.107 95.1045C449.026 95.1129 448.944 95.1179 448.862 95.1197L448.827 95.1202L448.799 95.1203C448.047 95.1203 447.293 94.8399 446.705 94.279L446.703 94.2776C446.684 94.2593 446.665 94.2406 446.646 94.2215L436.448 83.9085C436.305 83.7639 436.178 83.6064 436.068 83.4388L436.046 83.4032L436.028 83.3754C435.964 83.272 435.906 83.165 435.855 83.055C435.838 83.0179 435.821 82.9805 435.806 82.9427C435.647 82.5627 435.566 82.1507 435.571 81.7313C435.581 80.9179 435.919 80.1428 436.507 79.5803L463.565 53.6803C450.542 45.1021 435.988 47.4048 418.228 60.8198L419.845 62.4379C425.48 68.0812 425.48 77.2637 419.845 82.9053L413.181 89.5814C407.546 95.2212 398.38 95.2212 392.738 89.5814L389.834 86.6692C380.22 95.4442 372.293 103.27 372.063 112.708C371.903 119.236 375.458 126.704 382.889 135.402L398.769 117.381C399.349 116.724 400.151 116.378 400.963 116.357C401.023 116.355 401.084 116.356 401.145 116.358C401.881 116.382 402.61 116.673 403.173 117.232L413.472 127.444C413.914 127.883 414.193 128.424 414.308 128.993C414.443 129.658 414.353 130.356 414.045 130.967C413.875 131.304 413.64 131.615 413.339 131.879L395.256 147.781C403.981 155.246 411.523 158.846 417.908 158.621C427.334 158.39 435.147 150.452 443.909 140.824L441.001 137.913C438.281 135.188 436.781 131.554 436.781 127.679C436.781 123.803 438.281 120.17 441.001 117.446L447.665 110.77C450.385 108.046 454.017 106.546 457.885 106.546C461.753 106.546 465.384 108.046 468.104 110.77L469.708 112.376C482.765 94.868 485.025 80.3767 476.714 67.2402L450.991 94.1814Z" stroke="#292B3C" stroke-width="3"/>
<path fill-rule="evenodd" clip-rule="evenodd" d="M458.973 152.835C458.455 153.353 458.164 154.012 458.1 154.688C458.085 154.842 458.082 154.997 458.091 155.151C458.097 155.26 458.109 155.368 458.126 155.476L459.821 166.634L447.665 178.822C446.482 180.008 446.482 181.927 447.668 183.112C448.26 183.704 449.032 184 449.808 184C450.583 184 451.359 183.702 451.95 183.11L542.113 92.7129C542.795 92.0301 543.111 91.0652 542.965 90.1124L541.05 77.505C540.961 76.8764 540.675 76.2702 540.192 75.7866C539.01 74.5987 537.09 74.5987 535.907 75.7866L458.973 152.835ZM536.746 89.5098L465.14 161.302L464.34 156.039L535.956 84.3171L536.746 89.5098Z" stroke="#292B3C" stroke-width="3"/>
</svg>
