<?xml version="1.0" encoding="utf-8"?>
<!-- Generator: Adobe Illustrator 22.0.0, SVG Export Plug-In . SVG Version: 6.00 Build 0)  -->
<svg version="1.1" id="Layer_1" xmlns="http://www.w3.org/2000/svg" xmlns:xlink="http://www.w3.org/1999/xlink" x="0px" y="0px"
	 viewBox="0 0 469 153" style="enable-background:new 0 0 469 153;" xml:space="preserve">
<style type="text/css">
	.st0{fill:#FF4284;}
	.st1{fill:#FFFFFF;filter:url(#Adobe_OpacityMaskFilter);}
	.st2{mask:url(#path-1-inside-1_1_);fill:#292B3C;}
	.st3{fill:#6AD2FF;}
	.st4{fill:#FFAB09;}
	.st5{fill:#F8774E;}
	.st6{fill:#292B3C;}
	.st7{fill:#FFFFFF;}
	.st8{fill:#FFFFFF;stroke:#131520;}
	.st9{fill:none;stroke:#292B3C;stroke-width:3;}
</style>
<path class="st0" d="M13.1,44.2c0,2.3,1.5,4.8,4.3,5.3c7.5,7.1,12.8,16.7,15.5,28.5c0,0,0,0,0,0v26.9l0,0c0,11.9,5.5,22.5,14,29.5
	c0.2,0.2,0.4,0.4,0.6,0.5c6.5,5.1,14.6,8.1,23.4,8.1H71h39.1v0.5c0,1,0.8,1.8,1.8,1.8c1,0,1.8-0.8,1.8-1.8v-2.3c0,0,0,0,0-0.1
	c0,0,0,0,0-0.1v-2.3c0-1-0.8-1.8-1.8-1.8c-1,0-1.8,0.8-1.8,1.8v0.5H87.2c12.9-6.1,21.8-19.2,21.8-34.4c0-21-17.1-38-38.1-38
	c-8.8,0-16.9,3-23.4,8.1c-0.2,0.1-0.5,0.3-0.6,0.5C42.6,79,39,83.5,36.6,88.7V77.5c0,0,0,0,0,0c2.9-11.6,8.1-21,15.5-28
	c1.2-0.2,2.2-0.8,3-1.6c0.8-1,1.3-2.3,1.3-3.6c0-2.6-1.9-5.3-5.3-5.3H18.4c-1.6,0-3,0.6-4,1.7C13.6,41.6,13.1,42.9,13.1,44.2z
	 M18.4,42.5c-1.5,0-1.6,1.3-1.6,1.7c0,0.4,0.1,1.7,1.6,1.7h32.7c1.5,0,1.6-1.3,1.6-1.7c0-0.4-0.1-1.7-1.6-1.7H18.4z M46.9,49.6H22.6
	c5.3,5.8,9.4,13,12.1,21.3C37.5,62.5,41.6,55.4,46.9,49.6z M71,139.3c18.9,0,34.3-15.5,34.3-34.4c0-19-15.4-34.4-34.4-34.4
	c-7.8,0-15,2.6-20.8,7v4.2c5.7-5.1,13-7.9,20.8-7.9c17.2,0,31.1,14,31.1,31.1S88.1,136,70.9,136c-7.7,0-15.1-2.8-20.8-7.9v4.2
	C56,136.7,63.1,139.3,71,139.3L71,139.3L71,139.3z M50.2,123c5.3,6,12.8,9.4,20.8,9.4c15.2,0,27.5-12.3,27.5-27.5
	S86.1,77.4,70.9,77.4c-8,0-15.5,3.4-20.8,9.4v4.3h6.1c0.4-4.7,4.3-7.1,8.1-7.1c3.8,0,7.6,2.4,8.1,7.1h6.2v-0.8c0-1,0.8-1.8,1.8-1.8
	c1,0,1.8,0.8,1.8,1.8v2.6c0,0,0,0,0,0.1c0,0,0,0,0,0.1v2.6c0,1-0.8,1.8-1.8,1.8c-1,0-1.8-0.8-1.8-1.8v-0.8h-6.2v8.3h6.2v-0.8
	c0-1,0.8-1.8,1.8-1.8c1,0,1.8,0.8,1.8,1.8v2.6c0,0,0,0,0,0.1s0,0,0,0.1v2.6c0,1-0.8,1.8-1.8,1.8c-1,0-1.8-0.8-1.8-1.8v-0.8h-6.2v8.3
	h6.2v-0.8c0-1,0.8-1.8,1.8-1.8c1,0,1.8,0.8,1.8,1.8v2.6c0,0,0,0,0,0.1s0,0,0,0.1v2.6c0,1-0.8,1.8-1.8,1.8c-1,0-1.8-0.8-1.8-1.8v-0.8
	h-6.2c-0.4,4.7-4.3,7.1-8.1,7.1c-2.1,0-4.1-0.7-5.5-2c-1.1-0.9-2.3-2.6-2.6-5.1h-6.1V123z M68.8,91.1c-0.4-2.4-2.4-3.5-4.4-3.5
	c-2,0-4,1.1-4.4,3.5H68.8z M68.9,94.8v8.3h-9v-8.3H68.9z M56.3,94.8h-6.1v8.3h6.1V94.8z M46.5,93V80.7c-6.1,6.2-10,14.8-10,24.2
	s3.8,18,10,24.2v-12.2v-12V93z M50.2,115h6.1v-8.3h-6.1V115z M60,118.7c0.4,2.4,2.4,3.5,4.4,3.5c2,0,4-1.1,4.4-3.5H60z M68.9,115h-9
	v-8.3h9V115z"/>
<defs>
	<filter id="Adobe_OpacityMaskFilter" filterUnits="userSpaceOnUse" x="12.3" y="38.1" width="102.2" height="108">
		<feColorMatrix  type="matrix" values="1 0 0 0 0  0 1 0 0 0  0 0 1 0 0  0 0 0 1 0"/>
	</filter>
</defs>
<mask maskUnits="userSpaceOnUse" x="12.3" y="38.1" width="102.2" height="108" id="path-1-inside-1_1_">
	<path class="st1" d="M13.1,44.2c0,2.3,1.5,4.8,4.3,5.3c7.5,7.1,12.8,16.7,15.5,28.5c0,0,0,0,0,0v26.9l0,0c0,11.9,5.5,22.5,14,29.5
		c0.2,0.2,0.4,0.4,0.6,0.5c6.5,5.1,14.6,8.1,23.4,8.1H71h39.1v0.5c0,1,0.8,1.8,1.8,1.8c1,0,1.8-0.8,1.8-1.8v-2.3c0,0,0,0,0-0.1
		c0,0,0,0,0-0.1v-2.3c0-1-0.8-1.8-1.8-1.8c-1,0-1.8,0.8-1.8,1.8v0.5H87.2c12.9-6.1,21.8-19.2,21.8-34.4c0-21-17.1-38-38.1-38
		c-8.8,0-16.9,3-23.4,8.1c-0.2,0.1-0.5,0.3-0.6,0.5C42.6,79,39,83.5,36.6,88.7V77.5c0,0,0,0,0,0c2.9-11.6,8.1-21,15.5-28
		c1.2-0.2,2.2-0.8,3-1.6c0.8-1,1.3-2.3,1.3-3.6c0-2.6-1.9-5.3-5.3-5.3H18.4c-1.6,0-3,0.6-4,1.7C13.6,41.6,13.1,42.9,13.1,44.2z
		 M18.4,42.5c-1.5,0-1.6,1.3-1.6,1.7c0,0.4,0.1,1.7,1.6,1.7h32.7c1.5,0,1.6-1.3,1.6-1.7c0-0.4-0.1-1.7-1.6-1.7H18.4z M46.9,49.6
		H22.6c5.3,5.8,9.4,13,12.1,21.3C37.5,62.5,41.6,55.4,46.9,49.6z M71,139.3c18.9,0,34.3-15.5,34.3-34.4c0-19-15.4-34.4-34.4-34.4
		c-7.8,0-15,2.6-20.8,7v4.2c5.7-5.1,13-7.9,20.8-7.9c17.2,0,31.1,14,31.1,31.1S88.1,136,70.9,136c-7.7,0-15.1-2.8-20.8-7.9v4.2
		C56,136.7,63.1,139.3,71,139.3L71,139.3L71,139.3z M50.2,123c5.3,6,12.8,9.4,20.8,9.4c15.2,0,27.5-12.3,27.5-27.5
		S86.1,77.4,70.9,77.4c-8,0-15.5,3.4-20.8,9.4v4.3h6.1c0.4-4.7,4.3-7.1,8.1-7.1c3.8,0,7.6,2.4,8.1,7.1h6.2v-0.8c0-1,0.8-1.8,1.8-1.8
		c1,0,1.8,0.8,1.8,1.8v2.6c0,0,0,0,0,0.1c0,0,0,0,0,0.1v2.6c0,1-0.8,1.8-1.8,1.8c-1,0-1.8-0.8-1.8-1.8v-0.8h-6.2v8.3h6.2v-0.8
		c0-1,0.8-1.8,1.8-1.8c1,0,1.8,0.8,1.8,1.8v2.6c0,0,0,0,0,0.1s0,0,0,0.1v2.6c0,1-0.8,1.8-1.8,1.8c-1,0-1.8-0.8-1.8-1.8v-0.8h-6.2
		v8.3h6.2v-0.8c0-1,0.8-1.8,1.8-1.8c1,0,1.8,0.8,1.8,1.8v2.6c0,0,0,0,0,0.1s0,0,0,0.1v2.6c0,1-0.8,1.8-1.8,1.8c-1,0-1.8-0.8-1.8-1.8
		v-0.8h-6.2c-0.4,4.7-4.3,7.1-8.1,7.1c-2.1,0-4.1-0.7-5.5-2c-1.1-0.9-2.3-2.6-2.6-5.1h-6.1V123z M68.8,91.1
		c-0.4-2.4-2.4-3.5-4.4-3.5c-2,0-4,1.1-4.4,3.5H68.8z M68.9,94.8v8.3h-9v-8.3H68.9z M56.3,94.8h-6.1v8.3h6.1V94.8z M46.5,93V80.7
		c-6.1,6.2-10,14.8-10,24.2s3.8,18,10,24.2v-12.2v-12V93z M50.2,115h6.1v-8.3h-6.1V115z M60,118.7c0.4,2.4,2.4,3.5,4.4,3.5
		c2,0,4-1.1,4.4-3.5H60z M68.9,115h-9v-8.3h9V115z"/>
</mask>
<path class="st2" d="M17.4,49.5l0.5-0.6l-0.2-0.2l-0.2,0L17.4,49.5z M32.9,78l0.8-0.2l0,0L32.9,78z M32.9,78h0.8v-0.1l0-0.1L32.9,78
	z M46.9,134.4l0.6-0.5l-0.1-0.1l-0.1-0.1L46.9,134.4z M47.6,134.9l0.5-0.6l-0.1-0.1l-0.1,0L47.6,134.9z M70.9,143v0.8h0L70.9,143z
	 M71,143v-0.8h0L71,143z M110.1,143h0.8v-0.8h-0.8V143z M113.7,141.2l-0.8,0v0v0H113.7z M113.7,141.1h-0.8v0v0L113.7,141.1z
	 M110.1,139.3v0.8h0.8v-0.8H110.1z M87.2,139.3l-0.3-0.7l0.3,1.5V139.3z M47.6,74.9l0.3,0.7l0.1,0l0.1-0.1L47.6,74.9z M46.9,75.4
	l0.5,0.6l0.1-0.1l0.1-0.1L46.9,75.4z M36.6,88.7h-0.8l1.5,0.3L36.6,88.7z M36.6,77.5l-0.8-0.2l0,0.1l0,0.1L36.6,77.5z M52.1,49.5
	L52,48.7l-0.2,0l-0.2,0.2L52.1,49.5z M55.1,47.8l0.6,0.5l0,0L55.1,47.8z M14.4,40.6l0.6,0.5l0,0L14.4,40.6z M22.6,49.6v-0.8h-1.8
	l1.2,1.3L22.6,49.6z M46.9,49.6l0.6,0.5l1.2-1.3h-1.8V49.6z M34.7,70.9L34,71.1l0.7,2.2l0.7-2.2L34.7,70.9z M71,139.3v0.8h0
	L71,139.3z M50.2,77.5l-0.5-0.6l-0.3,0.2v0.4H50.2z M50.2,81.7h-0.8v1.7l1.3-1.2L50.2,81.7z M50.2,128.1l0.5-0.6l-1.3-1.2v1.7H50.2z
	 M50.2,132.3h-0.8v0.4l0.3,0.2L50.2,132.3z M70.9,139.3l0,0.8h0L70.9,139.3z M70.9,139.3v-0.8h0L70.9,139.3z M50.2,123h-0.8v0.3
	l0.2,0.2L50.2,123z M50.2,86.8l-0.6-0.5l-0.2,0.2v0.3H50.2z M50.2,91.1h-0.8v0.8h0.8V91.1z M56.3,91.1v0.8H57l0.1-0.7L56.3,91.1z
	 M72.5,91.1l-0.8,0.1l0.1,0.7h0.7V91.1z M78.7,91.1v0.8h0.8v-0.8H78.7z M82.3,92.9h-0.8v0l0,0L82.3,92.9z M82.3,93l-0.8,0l0,0v0
	H82.3z M78.7,94.8h0.8V94h-0.8V94.8z M72.5,94.8V94h-0.8v0.8H72.5z M72.5,103.1h-0.8v0.8h0.8V103.1z M78.7,103.1v0.8h0.8v-0.8H78.7z
	 M82.3,104.9h-0.8v0l0,0L82.3,104.9z M82.3,105l-0.8,0l0,0v0H82.3z M78.7,106.7h0.8v-0.8h-0.8V106.7z M72.5,106.7v-0.8h-0.8v0.8
	H72.5z M72.5,115h-0.8v0.8h0.8V115z M78.7,115v0.8h0.8V115H78.7z M82.3,116.8h-0.8v0l0,0L82.3,116.8z M82.3,116.9l-0.8,0l0,0v0H82.3
	z M78.7,118.7h0.8v-0.8h-0.8V118.7z M72.5,118.7v-0.8h-0.7l-0.1,0.7L72.5,118.7z M58.8,123.8l0.5-0.6l0,0L58.8,123.8z M56.3,118.7
	l0.8-0.1l-0.1-0.7h-0.7V118.7z M50.2,118.7v-0.8h-0.8v0.8H50.2z M68.8,91.1v0.8h0.9L69.6,91L68.8,91.1z M60,91.1L59.2,91L59,91.9H60
	V91.1z M68.9,103.1v0.8h0.8v-0.8H68.9z M68.9,94.8h0.8V94h-0.8V94.8z M59.9,103.1h-0.8v0.8h0.8V103.1z M59.9,94.8V94h-0.8v0.8H59.9z
	 M50.2,94.8V94h-0.8v0.8H50.2z M56.3,94.8H57V94h-0.8V94.8z M50.2,103.1h-0.8v0.8h0.8V103.1z M56.3,103.1v0.8H57v-0.8H56.3z
	 M46.5,80.7h0.8v-1.9L46,80.2L46.5,80.7z M46.5,129.1l-0.6,0.6l1.3,1.4v-1.9H46.5z M56.3,115v0.8H57V115H56.3z M50.2,115h-0.8v0.8
	h0.8V115z M56.3,106.7H57v-0.8h-0.8V106.7z M50.2,106.7v-0.8h-0.8v0.8H50.2z M60,118.7v-0.8H59l0.2,0.9L60,118.7z M68.8,118.7
	l0.8,0.1l0.2-0.9h-0.9V118.7z M59.9,115h-0.8v0.8h0.8V115z M68.9,115v0.8h0.8V115H68.9z M59.9,106.7v-0.8h-0.8v0.8H59.9z
	 M68.9,106.7h0.8v-0.8h-0.8V106.7z M17.5,48.7c-2.3-0.4-3.6-2.5-3.6-4.5h-1.6c0,2.6,1.7,5.5,4.9,6L17.5,48.7z M33.7,77.8
	c-2.8-11.9-8.1-21.6-15.8-28.9l-1.1,1.1c7.4,7,12.6,16.4,15.3,28.1L33.7,77.8z M33.7,77.8C33.7,77.8,33.7,77.8,33.7,77.8l-1.5,0.3
	c0,0,0,0,0,0.1L33.7,77.8z M33.7,104.9V78h-1.6v26.9H33.7z M33.7,104.9L33.7,104.9h-1.6l0,0H33.7z M47.4,133.8
	c-8.4-6.8-13.7-17.2-13.7-28.9h-1.6c0,12.1,5.6,23,14.3,30.1L47.4,133.8z M47.9,134.2c-0.1-0.1-0.3-0.2-0.4-0.3l-1.2,1
	c0.2,0.3,0.5,0.5,0.9,0.7L47.9,134.2z M70.9,142.2c-8.6,0-16.6-3-22.9-7.9l-1,1.2c6.6,5.2,14.9,8.2,23.9,8.2V142.2z M71,142.2
	L71,142.2l-0.1,1.6H71L71,142.2z M110.1,142.2H71v1.6h39.1V142.2z M110.9,143.5V143h-1.6v0.5H110.9z M111.9,144.5c-0.6,0-1-0.5-1-1
	h-1.6c0,1.4,1.2,2.6,2.6,2.6V144.5z M112.9,143.5c0,0.6-0.5,1-1,1v1.6c1.4,0,2.6-1.2,2.6-2.6H112.9z M112.9,141.2v2.3h1.6v-2.3
	H112.9z M112.9,141.1C112.9,141.1,112.9,141.2,112.9,141.1l1.6,0.1c0,0,0-0.1,0-0.1H112.9z M112.9,141.1
	C112.9,141.1,112.9,141.1,112.9,141.1l1.6,0c0,0,0-0.1,0-0.1L112.9,141.1z M112.9,138.8v2.3h1.6v-2.3H112.9z M111.9,137.7
	c0.6,0,1,0.5,1,1h1.6c0-1.4-1.2-2.6-2.6-2.6V137.7z M110.9,138.8c0-0.6,0.5-1,1-1v-1.6c-1.4,0-2.6,1.2-2.6,2.6H110.9z M110.9,139.3
	v-0.5h-1.6v0.5H110.9z M87.2,140.1h22.9v-1.6H87.2V140.1z M108.2,104.9c0,14.9-8.7,27.7-21.4,33.7l0.7,1.4
	c13.1-6.2,22.3-19.6,22.3-35.1H108.2z M70.9,67.6c20.5,0,37.3,16.7,37.3,37.3h1.6c0-21.4-17.4-38.8-38.8-38.8V67.6z M48.1,75.6
	c6.3-5,14.3-7.9,22.9-7.9v-1.6c-9,0-17.3,3.1-23.9,8.2L48.1,75.6z M47.6,75.9c0.1-0.1,0.2-0.2,0.4-0.3l-0.7-1.4
	c-0.3,0.2-0.7,0.4-0.9,0.7L47.6,75.9z M37.3,89c2.4-5,5.9-9.5,10.1-13l-1-1.2c-4.4,3.6-8.1,8.2-10.6,13.5L37.3,89z M35.8,77.5v11.1
	h1.6V77.5H35.8z M35.8,77.5C35.8,77.5,35.8,77.5,35.8,77.5l1.6,0c0,0,0,0,0,0L35.8,77.5z M51.5,48.9C44,56.1,38.7,65.6,35.8,77.3
	l1.5,0.4c2.8-11.5,8-20.7,15.3-27.6L51.5,48.9z M54.5,47.3c-0.6,0.7-1.5,1.2-2.5,1.4l0.3,1.5c1.3-0.2,2.5-0.9,3.4-1.9L54.5,47.3z
	 M55.6,44.2c0,1.2-0.4,2.3-1.1,3.1l1.2,1c1-1.1,1.5-2.6,1.5-4.1H55.6z M51.1,39.7c2.9,0,4.5,2.3,4.5,4.6h1.6c0-2.9-2.1-6.1-6.1-6.1
	V39.7z M18.4,39.7h32.7v-1.6H18.4V39.7z M15,41.1c0.8-0.9,2-1.5,3.4-1.5v-1.6c-1.8,0-3.4,0.7-4.6,2L15,41.1z M13.9,44.2
	c0-1.2,0.4-2.3,1.1-3.1l-1.2-1c-1,1.1-1.5,2.6-1.5,4.1H13.9z M17.5,44.2c0-0.1,0-0.4,0.1-0.6c0.1-0.1,0.1-0.2,0.2-0.2
	c0.1-0.1,0.2-0.1,0.5-0.1v-1.6c-1,0-1.7,0.5-2.1,1.1C16,43.4,16,44,16,44.2H17.5z M18.4,45.1c-0.3,0-0.4-0.1-0.5-0.1
	c-0.1-0.1-0.2-0.1-0.2-0.2c-0.1-0.2-0.1-0.5-0.1-0.6H16c0,0.3,0,0.8,0.4,1.4c0.4,0.6,1,1.1,2.1,1.1V45.1z M51.1,45.1H18.4v1.6h32.7
	V45.1z M51.9,44.2c0,0.1,0,0.4-0.1,0.6c-0.1,0.1-0.1,0.2-0.2,0.2c-0.1,0.1-0.2,0.1-0.5,0.1v1.6c1,0,1.7-0.5,2.1-1.1
	c0.3-0.6,0.4-1.1,0.4-1.4H51.9z M51.1,43.3c0.3,0,0.4,0.1,0.5,0.1c0.1,0.1,0.2,0.1,0.2,0.2c0.1,0.2,0.1,0.5,0.1,0.6h1.6
	c0-0.3,0-0.8-0.4-1.4c-0.4-0.6-1-1.1-2.1-1.1V43.3z M18.4,43.3h32.7v-1.6H18.4V43.3z M22.6,50.4h24.3v-1.6H22.6V50.4z M35.5,70.6
	C32.7,62.2,28.6,55,23.2,49L22,50.1c5.3,5.8,9.3,12.8,12,21L35.5,70.6z M46.3,49C40.9,55,36.8,62.2,34,70.6l1.5,0.5
	c2.7-8.2,6.8-15.3,12-21L46.3,49z M104.6,104.9c0,18.5-15,33.6-33.5,33.6l0,1.6c19.4,0,35.1-15.8,35.1-35.2H104.6z M70.9,71.3
	c18.5,0,33.6,15.1,33.6,33.6h1.6c0-19.4-15.8-35.2-35.2-35.2V71.3z M50.7,78.1c5.6-4.3,12.7-6.8,20.3-6.8v-1.6
	c-8,0-15.3,2.7-21.2,7.2L50.7,78.1z M51,81.7v-4.2h-1.6v4.2H51z M50.7,82.3c5.6-4.9,12.7-7.7,20.2-7.7V73c-7.9,0-15.4,2.9-21.3,8.1
	L50.7,82.3z M70.9,74.6c16.7,0,30.3,13.6,30.3,30.3h1.6c0-17.6-14.3-31.9-31.9-31.9V74.6z M101.3,104.9c0,16.7-13.6,30.3-30.3,30.3
	v1.6c17.6,0,31.9-14.3,31.9-31.9H101.3z M70.9,135.3c-7.5,0-14.7-2.8-20.2-7.7l-1,1.2c5.8,5.2,13.4,8.1,21.3,8.1V135.3z M51,132.3
	v-4.2h-1.6v4.2H51z M70.9,138.5c-7.6,0-14.6-2.6-20.3-6.8l-1,1.2c5.9,4.5,13.2,7.2,21.2,7.2L70.9,138.5z M70.9,138.5L70.9,138.5
	l0,1.6h0L70.9,138.5z M71,138.5L71,138.5l-0.1,1.6H71V138.5z M49.6,123.5c5.4,6.2,13.2,9.7,21.3,9.7v-1.6c-7.7,0-15-3.3-20.2-9.1
	L49.6,123.5z M70.9,133.2c15.6,0,28.3-12.7,28.3-28.3h-1.6c0,14.7-12,26.7-26.7,26.7V133.2z M99.2,104.9c0-15.6-12.7-28.3-28.3-28.3
	v1.6c14.7,0,26.7,12,26.7,26.7H99.2z M70.9,76.6c-8.2,0-15.9,3.5-21.3,9.7l1.2,1c5.1-5.8,12.4-9.1,20.2-9.1V76.6z M51,91.1v-4.3
	h-1.6v4.3H51z M56.3,90.3h-6.1v1.6h6.1V90.3z M64.4,83.2c-4.1,0-8.4,2.7-8.9,7.9l1.6,0.1c0.4-4.2,3.8-6.4,7.3-6.4V83.2z M73.3,91.1
	c-0.5-5.2-4.8-7.9-8.9-7.9v1.6c3.5,0,6.9,2.2,7.3,6.4L73.3,91.1z M78.7,90.3h-6.2v1.6h6.2V90.3z M77.9,90.3v0.8h1.6v-0.8H77.9z
	 M80.5,87.7c-1.4,0-2.6,1.2-2.6,2.6h1.6c0-0.6,0.5-1,1-1V87.7z M83.1,90.3c0-1.4-1.2-2.6-2.6-2.6v1.6c0.6,0,1,0.5,1,1H83.1z
	 M83.1,92.9v-2.6h-1.6v2.6H83.1z M83.1,93C83.1,92.9,83.1,92.9,83.1,93l-1.6,0c0,0,0,0,0,0H83.1z M83.1,93C83.1,93,83.1,93,83.1,93
	L81.6,93c0,0,0,0,0,0L83.1,93z M83.1,95.6V93h-1.6v2.6H83.1z M80.5,98.2c1.4,0,2.6-1.2,2.6-2.6h-1.6c0,0.6-0.5,1-1,1V98.2z
	 M77.9,95.6c0,1.4,1.2,2.6,2.6,2.6v-1.6c-0.6,0-1-0.5-1-1H77.9z M77.9,94.8v0.8h1.6v-0.8H77.9z M72.5,95.6h6.2V94h-6.2V95.6z
	 M73.3,103.1v-8.3h-1.6v8.3H73.3z M78.7,102.3h-6.2v1.6h6.2V102.3z M77.9,102.2v0.8h1.6v-0.8H77.9z M80.5,99.6
	c-1.4,0-2.6,1.2-2.6,2.6h1.6c0-0.6,0.5-1,1-1V99.6z M83.1,102.2c0-1.4-1.2-2.6-2.6-2.6v1.6c0.6,0,1,0.5,1,1H83.1z M83.1,104.9v-2.6
	h-1.6v2.6H83.1z M83.1,104.9C83.1,104.9,83.1,104.9,83.1,104.9l-1.6,0c0,0,0,0,0,0H83.1z M83.1,105C83.1,105,83.1,104.9,83.1,105
	l-1.6-0.1c0,0,0,0,0,0L83.1,105z M83.1,107.6V105h-1.6v2.6H83.1z M80.5,110.2c1.4,0,2.6-1.2,2.6-2.6h-1.6c0,0.6-0.5,1-1,1V110.2z
	 M77.9,107.6c0,1.4,1.2,2.6,2.6,2.6v-1.6c-0.6,0-1-0.5-1-1H77.9z M77.9,106.7v0.8h1.6v-0.8H77.9z M72.5,107.5h6.2v-1.6h-6.2V107.5z
	 M73.3,115v-8.3h-1.6v8.3H73.3z M78.7,114.3h-6.2v1.6h6.2V114.3z M77.9,114.2v0.8h1.6v-0.8H77.9z M80.5,111.6
	c-1.4,0-2.6,1.2-2.6,2.6h1.6c0-0.6,0.5-1,1-1V111.6z M83.1,114.2c0-1.4-1.2-2.6-2.6-2.6v1.6c0.6,0,1,0.5,1,1H83.1z M83.1,116.8v-2.6
	h-1.6v2.6H83.1z M83.1,116.9C83.1,116.8,83.1,116.8,83.1,116.9l-1.6,0c0,0,0,0,0,0H83.1z M83.1,116.9
	C83.1,116.9,83.1,116.9,83.1,116.9l-1.6-0.1c0,0,0,0,0,0L83.1,116.9z M83.1,119.5v-2.6h-1.6v2.6H83.1z M80.5,122.1
	c1.4,0,2.6-1.2,2.6-2.6h-1.6c0,0.6-0.5,1-1,1V122.1z M77.9,119.5c0,1.4,1.2,2.6,2.6,2.6v-1.6c-0.6,0-1-0.5-1-1H77.9z M77.9,118.7
	v0.8h1.6v-0.8H77.9z M72.5,119.5h6.2v-1.6h-6.2V119.5z M64.4,126.6c4.1,0,8.4-2.7,8.9-7.9l-1.6-0.1c-0.4,4.2-3.8,6.4-7.3,6.4V126.6z
	 M58.3,124.4c1.6,1.4,3.8,2.2,6.1,2.2V125c-1.9,0-3.7-0.7-5-1.8L58.3,124.4z M55.5,118.8c0.3,2.8,1.6,4.6,2.8,5.6l1-1.2
	c-0.9-0.8-2.1-2.3-2.3-4.6L55.5,118.8z M50.2,119.5h6.1v-1.6h-6.1V119.5z M51,123v-4.3h-1.6v4.3H51z M64.4,88.4
	c1.7,0,3.3,0.9,3.6,2.8l1.5-0.3c-0.5-2.9-2.9-4.2-5.2-4.2V88.4z M60.7,91.3c0.3-1.9,1.9-2.8,3.6-2.8v-1.6c-2.3,0-4.7,1.3-5.2,4.2
	L60.7,91.3z M68.8,90.3H60v1.6h8.8V90.3z M69.7,103.1v-8.3h-1.6v8.3H69.7z M59.9,103.9h9v-1.6h-9V103.9z M59.1,94.8v8.3h1.6v-8.3
	H59.1z M68.9,94h-9v1.6h9V94z M50.2,95.6h6.1V94h-6.1V95.6z M51,103.1v-8.3h-1.6v8.3H51z M56.3,102.3h-6.1v1.6h6.1V102.3z
	 M55.5,94.8v8.3H57v-8.3H55.5z M45.8,80.7V93h1.6V80.7H45.8z M37.4,104.9c0-9.2,3.7-17.6,9.7-23.6L46,80.2
	c-6.3,6.4-10.2,15.1-10.2,24.7H37.4z M47.1,128.6c-6-6.1-9.7-14.4-9.7-23.6h-1.6c0,9.6,3.9,18.4,10.2,24.7L47.1,128.6z M45.8,116.9
	v12.2h1.6v-12.2H45.8z M45.8,104.9v12h1.6v-12H45.8z M45.8,93v12h1.6V93H45.8z M56.3,114.3h-6.1v1.6h6.1V114.3z M55.5,106.7v8.3H57
	v-8.3H55.5z M50.2,107.5h6.1v-1.6h-6.1V107.5z M51,115v-8.3h-1.6v8.3H51z M64.4,121.4c-1.7,0-3.3-0.9-3.6-2.8l-1.5,0.3
	c0.5,2.9,2.9,4.2,5.2,4.2V121.4z M68,118.6c-0.3,1.9-1.9,2.8-3.6,2.8v1.6c2.3,0,4.7-1.3,5.2-4.2L68,118.6z M60,119.5h8.8v-1.6H60
	V119.5z M59.9,115.8h9v-1.6h-9V115.8z M59.1,106.7v8.3h1.6v-8.3H59.1z M68.9,105.9h-9v1.6h9V105.9z M69.7,115v-8.3h-1.6v8.3H69.7z"
	/>
<path class="st3" d="M431.2,90.7c-0.3-0.3-0.4-0.9-0.2-1.3c3.8-6.2,5.6-12.5,5.4-18.7c0-0.4,0.2-0.8,0.6-1c0.4-0.2,0.9-0.1,1.2,0.2
	L452,83.7c0.4,0.4,0.4,1.1,0,1.5c-0.4,0.4-1.1,0.4-1.5,0l-12-12c-0.3,5.8-2.2,11.6-5.7,17.3c-0.3,0.5-1,0.7-1.5,0.4
	C431.3,90.8,431.2,90.8,431.2,90.7z"/>
<path class="st3" d="M431.2,90.7c-0.1-0.1-0.1-0.1-0.2-0.2c-0.3-0.5-0.1-1.2,0.4-1.5c6.6-4,13.3-5.9,19.9-5.7c0.6,0,1.1,0.5,1,1.1
	c0,0.6-0.5,1.1-1.1,1c-6.2-0.2-12.5,1.6-18.7,5.4C432.1,91.1,431.5,91,431.2,90.7z"/>
<path class="st3" d="M450.4,85.1l-13.6-13.6c-1.4-1.4-1.1-3.4,0-4.4c0.6-0.6,1.3-0.9,2.1-1c0.9-0.1,1.7,0.3,2.4,0.9l13.6,13.6
	c1.4,1.4,1.1,3.4,0,4.4c-0.6,0.6-1.3,0.9-2.1,1C451.9,86.1,451.1,85.8,450.4,85.1z M439.7,68.5c-0.6-0.6-1.2-0.1-1.4,0
	c-0.2,0.2-0.7,0.8,0,1.4L452,83.6c0.6,0.6,1.2,0.1,1.4,0c0.2-0.2,0.7-0.8,0-1.4L439.7,68.5z"/>
<path class="st3" d="M419.8,132.4c-8.7-8.7-8.7-23,0-31.7c8.8-8.8,23-8.8,31.7,0c8.8,8.8,8.8,23,0,31.8
	C442.8,141.1,428.5,141.1,419.8,132.4z M450,102.1c-7.9-7.9-20.8-7.9-28.7,0c-7.9,7.9-7.9,20.8,0,28.7c7.9,7.9,20.8,7.9,28.7,0
	C457.9,122.9,457.9,110,450,102.1z"/>
<path class="st3" d="M413.6,119.6c-0.4-0.4-0.4-1.1,0-1.5l23.6-23.6c0.4-0.4,1.1-0.4,1.5,0c0.4,0.4,0.4,1.1,0,1.5l-23.6,23.6
	C414.7,120.1,414,120.1,413.6,119.6z"/>
<path class="st3" d="M419.8,102.1c-0.4-0.4-0.4-1.1,0-1.5l11.4-11.4c0.4-0.4,1.1-0.4,1.5,0c0.4,0.4,0.4,1.1,0,1.5l-11.4,11.4
	C420.9,102.6,420.2,102.6,419.8,102.1z"/>
<path class="st3" d="M424.2,122.5c-0.9-0.9-1.4-2-1.5-3.2c-0.1-0.9,0.1-2.3,1.4-3.6l10.7-10.7c2.2-2.2,5.1-1.7,6.8,0
	c1.7,1.7,2.2,4.5,0,6.8l-10.7,10.7C428.7,124.7,425.9,124.2,424.2,122.5z M440.1,106.5c-0.9-0.9-2.4-1.3-3.7,0l-10.7,10.7
	c-1.3,1.3-0.9,2.8,0,3.7c0.9,0.9,2.4,1.3,3.7,0l10.7-10.7C441.4,109,441,107.5,440.1,106.5z"/>
<path class="st3" d="M438.9,121.2l-13.4-13.4c-0.4-0.4-0.4-1.1,0-1.5c0.4-0.4,1.1-0.4,1.5,0l13.4,13.4c0.4,0.4,0.4,1.1,0,1.5
	C440,121.7,439.3,121.7,438.9,121.2z"/>
<path class="st3" d="M437.8,122.4c-0.4-0.4-0.4-1.1,0-1.5l2.2-2.2c0.4-0.4,1.1-0.4,1.5,0c0.4,0.4,0.4,1.1,0,1.5l-2.2,2.2
	C438.9,122.8,438.2,122.8,437.8,122.4z"/>
<path class="st3" d="M433.9,126.2l-13.4-13.4c-0.4-0.4-0.4-1.1,0-1.5c0.4-0.4,1.1-0.4,1.5,0l13.4,13.4c0.4,0.4,0.4,1.1,0,1.5
	C435,126.6,434.3,126.6,433.9,126.2z"/>
<path class="st3" d="M432.8,127.3c-0.4-0.4-0.4-1.1,0-1.5l2.2-2.2c0.4-0.4,1.1-0.4,1.5,0c0.4,0.4,0.4,1.1,0,1.5l-2.2,2.2
	C433.9,127.7,433.2,127.7,432.8,127.3z"/>
<path class="st3" d="M443.9,116.3l-13.4-13.4c-0.4-0.4-0.4-1.1,0-1.5c0.4-0.4,1.1-0.4,1.5,0l13.4,13.4c0.4,0.4,0.4,1.1,0,1.5
	C445,116.7,444.3,116.7,443.9,116.3z"/>
<path class="st3" d="M442.7,117.4c-0.4-0.4-0.4-1.1,0-1.5l2.2-2.2c0.4-0.4,1.1-0.4,1.5,0c0.4,0.4,0.4,1.1,0,1.5l-2.2,2.2
	C443.8,117.8,443.2,117.8,442.7,117.4z"/>
<path class="st3" d="M422.6,129.5c-3.9-3.9-5.8-9.2-5.3-14.7c0.1-0.6,0.6-1,1.2-1c0.6,0.1,1,0.6,1,1.2c-0.4,4.8,1.3,9.6,4.7,13
	c6.3,6.3,16.6,6.3,22.9,0c6.3-6.3,6.3-16.6,0-22.9c-3.4-3.4-8.1-5.1-13-4.7c-0.6,0.1-1.1-0.4-1.2-1c-0.1-0.6,0.4-1.1,1-1.2
	c5.5-0.5,10.8,1.5,14.7,5.3c7.2,7.2,7.2,18.8,0,26C441.5,136.6,429.8,136.6,422.6,129.5z"/>
<path class="st4" d="M143.2,97c-2.6,0-5-1-6.9-2.8c-3.8-3.8-3.8-10,0-13.8l15.7-15.7c3.8-3.8,10-3.8,13.8,0c3.8,3.8,3.8,10,0,13.8
	l-15.8,15.7C148.3,96,145.8,97,143.2,97z M137.7,81.6c-3.1,3.1-3.1,8.1,0,11.2c1.5,1.5,3.5,2.3,5.6,2.3c2.1,0,4.1-0.8,5.6-2.3
	l15.8-15.7c3.1-3.1,3.1-8.1,0-11.2c-1.5-1.5-3.5-2.3-5.6-2.3c-2.1,0-4.1,0.8-5.6,2.3L137.7,81.6L137.7,81.6z"/>
<path class="st4" d="M159.8,89c-0.2,0-0.5-0.1-0.6-0.3l-17.4-17.4c-0.4-0.4-0.4-0.9,0-1.3c0.4-0.4,0.9-0.4,1.3,0l17.4,17.4
	c0.4,0.4,0.4,0.9,0,1.3C160.3,88.9,160,89,159.8,89z"/>
<path class="st4" d="M141.2,72.8c-0.2,0-0.5-0.1-0.6-0.3c-0.4-0.4-0.4-0.9,0-1.3l2.5-2.5c0.4-0.4,0.9-0.4,1.3,0
	c0.4,0.4,0.4,0.9,0,1.3l-2.5,2.5C141.6,72.7,141.4,72.8,141.2,72.8z"/>
<path class="st4" d="M155,93.8c-0.2,0-0.5-0.1-0.6-0.3l-17.4-17.4c-0.4-0.4-0.4-0.9,0-1.3c0.4-0.4,0.9-0.4,1.3,0l17.4,17.4
	c0.4,0.4,0.4,0.9,0,1.3C155.4,93.7,155.2,93.8,155,93.8z"/>
<path class="st4" d="M136.3,77.7c-0.2,0-0.5-0.1-0.6-0.3c-0.4-0.4-0.4-0.9,0-1.3l2.5-2.5c0.4-0.4,0.9-0.4,1.3,0
	c0.4,0.4,0.4,0.9,0,1.3l-2.5,2.5C136.8,77.6,136.6,77.7,136.3,77.7z"/>
<path class="st4" d="M164.6,84.1c-0.2,0-0.5-0.1-0.6-0.3l-17.4-17.4c-0.4-0.4-0.4-0.9,0-1.3c0.4-0.4,0.9-0.4,1.3,0l17.4,17.4
	c0.4,0.4,0.4,0.9,0,1.3C165.1,84,164.9,84.1,164.6,84.1z"/>
<path class="st4" d="M146,68c-0.2,0-0.5-0.1-0.6-0.3c-0.4-0.4-0.4-0.9,0-1.3l2.5-2.5c0.4-0.4,0.9-0.4,1.3,0c0.4,0.4,0.4,0.9,0,1.3
	l-2.5,2.5C146.5,67.9,146.3,68,146,68z"/>
<path class="st4" d="M127.7,91.2c-0.2,0-0.5-0.1-0.6-0.3c-0.4-0.4-0.4-0.9,0-1.3L156.8,60c0.4-0.4,0.9-0.4,1.3,0
	c0.4,0.4,0.4,0.9,0,1.3l-29.7,29.7C128.2,91.1,128,91.2,127.7,91.2z"/>
<path class="st4" d="M157.4,61.5c-0.2,0-0.3,0-0.5-0.1c-0.4-0.3-0.6-0.8-0.3-1.3c3.2-5.2,4.7-10.4,4.5-15.6c0-0.4,0.2-0.7,0.6-0.9
	c0.3-0.1,0.7-0.1,1,0.2c3.8,3.8,7.6,7.7,11.5,11.5c0.4,0.4,0.4,0.9,0,1.3c-0.4,0.4-0.9,0.4-1.3,0c-3.3-3.3-6.6-6.6-9.9-9.9
	c-0.2,4.8-1.8,9.6-4.7,14.4C158,61.4,157.7,61.5,157.4,61.5z"/>
<path class="st4" d="M128.4,91.9c-0.2,0-0.5-0.1-0.6-0.3l-1.3-1.3c-0.4-0.4-0.4-0.9,0-1.3c0.4-0.4,0.9-0.4,1.3,0l1.3,1.3
	c0.4,0.4,0.4,0.9,0,1.3C128.9,91.8,128.6,91.9,128.4,91.9z"/>
<path class="st4" d="M157.4,61.5c-0.3,0-0.6-0.2-0.8-0.4c-0.3-0.4-0.1-1,0.3-1.3c5.5-3.3,11.1-4.9,16.6-4.8c0.5,0,0.9,0.4,0.9,0.9
	c0,0.5-0.4,0.9-0.9,0.9c0,0,0,0,0,0c-5.2-0.2-10.4,1.3-15.6,4.5C157.7,61.5,157.6,61.5,157.4,61.5z"/>
<path class="st0" d="M288.4,134.6c2.6,0,5-1,6.9-2.8c3.8-3.8,3.8-10,0-13.8l-15.7-15.7c-3.8-3.8-10-3.8-13.8,0
	c-3.8,3.8-3.8,10,0,13.8l15.8,15.7C283.4,133.6,285.8,134.6,288.4,134.6z M294,119.3c3.1,3.1,3.1,8.1,0,11.2
	c-1.5,1.5-3.5,2.3-5.6,2.3c-2.1,0-4.1-0.8-5.6-2.3l-15.8-15.7c-3.1-3.1-3.1-8.1,0-11.2c1.5-1.5,3.5-2.3,5.6-2.3
	c2.1,0,4.1,0.8,5.6,2.3L294,119.3L294,119.3z"/>
<path class="st0" d="M271.9,126.7c0.2,0,0.5-0.1,0.6-0.3l17.4-17.4c0.4-0.4,0.4-0.9,0-1.3c-0.4-0.4-0.9-0.4-1.3,0l-17.4,17.4
	c-0.4,0.4-0.4,0.9,0,1.3C271.4,126.6,271.6,126.7,271.9,126.7z"/>
<path class="st0" d="M290.5,110.5c0.2,0,0.5-0.1,0.6-0.3c0.4-0.4,0.4-0.9,0-1.3l-2.5-2.5c-0.4-0.4-0.9-0.4-1.3,0
	c-0.4,0.4-0.4,0.9,0,1.3l2.5,2.5C290,110.4,290.2,110.5,290.5,110.5z"/>
<path class="st0" d="M276.7,131.5c0.2,0,0.5-0.1,0.6-0.3l17.4-17.4c0.4-0.4,0.4-0.9,0-1.3c-0.4-0.4-0.9-0.4-1.3,0L276,129.9
	c-0.4,0.4-0.4,0.9,0,1.3C276.2,131.4,276.5,131.5,276.7,131.5z"/>
<path class="st0" d="M295.3,115.3c0.2,0,0.5-0.1,0.6-0.3c0.4-0.4,0.4-0.9,0-1.3l-2.5-2.5c-0.4-0.4-0.9-0.4-1.3,0
	c-0.4,0.4-0.4,0.9,0,1.3l2.5,2.5C294.8,115.2,295.1,115.3,295.3,115.3z"/>
<path class="st0" d="M267,121.8c0.2,0,0.5-0.1,0.6-0.3l17.4-17.4c0.4-0.4,0.4-0.9,0-1.3c-0.4-0.4-0.9-0.4-1.3,0l-17.4,17.4
	c-0.4,0.4-0.4,0.9,0,1.3C266.5,121.7,266.8,121.8,267,121.8z"/>
<path class="st0" d="M285.6,105.7c0.2,0,0.5-0.1,0.6-0.3c0.4-0.4,0.4-0.9,0-1.3l-2.5-2.5c-0.4-0.4-0.9-0.4-1.3,0
	c-0.4,0.4-0.4,0.9,0,1.3l2.5,2.5C285.2,105.6,285.4,105.7,285.6,105.7z"/>
<path class="st0" d="M303.9,128.9c0.2,0,0.5-0.1,0.6-0.3c0.4-0.4,0.4-0.9,0-1.3l-29.7-29.7c-0.4-0.4-0.9-0.4-1.3,0
	c-0.4,0.4-0.4,0.9,0,1.3l29.7,29.7C303.5,128.8,303.7,128.9,303.9,128.9z"/>
<path class="st0" d="M274.3,99.2c0.2,0,0.3,0,0.5-0.1c0.4-0.3,0.6-0.8,0.3-1.3c-3.2-5.2-4.7-10.4-4.5-15.6c0-0.4-0.2-0.7-0.6-0.9
	c-0.3-0.1-0.7-0.1-1,0.2c-3.8,3.8-7.6,7.7-11.5,11.5c-0.4,0.4-0.4,0.9,0,1.3c0.4,0.4,0.9,0.4,1.3,0c3.3-3.3,6.6-6.6,9.9-9.9
	c0.2,4.8,1.8,9.6,4.7,14.4C273.7,99.1,274,99.2,274.3,99.2z"/>
<path class="st0" d="M303.3,129.5c0.2,0,0.5-0.1,0.6-0.3l1.3-1.3c0.4-0.4,0.4-0.9,0-1.3c-0.4-0.4-0.9-0.4-1.3,0l-1.3,1.3
	c-0.4,0.4-0.4,0.9,0,1.3C302.8,129.5,303,129.5,303.3,129.5z"/>
<path class="st0" d="M274.3,99.2c0.3,0,0.6-0.2,0.8-0.4c0.3-0.4,0.1-1-0.3-1.3c-5.5-3.3-11.1-4.9-16.6-4.8c-0.5,0-0.9,0.4-0.9,0.9
	c0,0.5,0.4,0.9,0.9,0.9c0,0,0,0,0,0c5.2-0.2,10.4,1.3,15.6,4.5C273.9,99.2,274.1,99.2,274.3,99.2z"/>
<path class="st5" d="M246.1,126.6h-47.4c-0.5,0-0.8-0.4-0.8-0.8V94.6c0-9.4,7.6-17,17-17c3.7,0,7.3,1.2,10.2,3.4
	c2.9,2.1,5,5.2,6.1,8.6c0.1,0.2,0.1,0.4,0.2,0.6c0.7,2.4,1.5,4.7,4.6,5.1c2.9,0.4,5.5,1.7,7.5,3.5c0,0,0,0,0,0
	c2.3,2.1,3.5,4.8,3.5,7.8v19.2C247,126.2,246.6,126.6,246.1,126.6z M199.6,124.9h45.7v-18.4c0-2.5-1-4.8-3-6.6
	c-1.7-1.6-4.1-2.7-6.6-3.1c-4.4-0.6-5.5-4.5-6-6.3c-0.1-0.3-0.1-0.5-0.2-0.6c-1-3.1-2.9-5.8-5.5-7.7c-2.6-2-5.8-3-9.2-3
	c-8.5,0-15.3,6.9-15.3,15.3V124.9L199.6,124.9z"/>
<path class="st5" d="M246.1,118.3h-47.4c-0.5,0-0.8-0.4-0.8-0.8c0-0.5,0.4-0.8,0.8-0.8h47.4c0.5,0,0.8,0.4,0.8,0.8
	C247,117.9,246.6,118.3,246.1,118.3z"/>
<path class="st5" d="M203.5,123.8c-0.5,0-0.8-0.4-0.8-0.8v-5.6c0-0.5,0.4-0.8,0.8-0.8c0.5,0,0.8,0.4,0.8,0.8v5.6
	C204.3,123.5,203.9,123.8,203.5,123.8z"/>
<path class="st5" d="M206.6,123.8c-0.5,0-0.8-0.4-0.8-0.8v-5.6c0-0.5,0.4-0.8,0.8-0.8c0.5,0,0.8,0.4,0.8,0.8v5.6
	C207.5,123.5,207.1,123.8,206.6,123.8z"/>
<path class="st5" d="M213,123.8c-0.5,0-0.8-0.4-0.8-0.8v-5.6c0-0.5,0.4-0.8,0.8-0.8c0.5,0,0.8,0.4,0.8,0.8v5.6
	C213.8,123.5,213.4,123.8,213,123.8z"/>
<path class="st5" d="M216.1,123.8c-0.5,0-0.8-0.4-0.8-0.8v-5.6c0-0.5,0.4-0.8,0.8-0.8c0.5,0,0.8,0.4,0.8,0.8v5.6
	C217,123.5,216.6,123.8,216.1,123.8z"/>
<path class="st5" d="M219.3,123.8c-0.5,0-0.8-0.4-0.8-0.8v-5.6c0-0.5,0.4-0.8,0.8-0.8c0.5,0,0.8,0.4,0.8,0.8v5.6
	C220.1,123.5,219.8,123.8,219.3,123.8z"/>
<path class="st5" d="M225.6,123.8c-0.5,0-0.8-0.4-0.8-0.8v-5.6c0-0.5,0.4-0.8,0.8-0.8c0.5,0,0.8,0.4,0.8,0.8v5.6
	C226.5,123.5,226.1,123.8,225.6,123.8z"/>
<path class="st5" d="M228.8,123.8c-0.5,0-0.8-0.4-0.8-0.8v-5.6c0-0.5,0.4-0.8,0.8-0.8c0.5,0,0.8,0.4,0.8,0.8v5.6
	C229.6,123.5,229.3,123.8,228.8,123.8z"/>
<path class="st5" d="M235.1,123.8c-0.5,0-0.8-0.4-0.8-0.8v-5.6c0-0.5,0.4-0.8,0.8-0.8c0.5,0,0.8,0.4,0.8,0.8v5.6
	C236,123.5,235.6,123.8,235.1,123.8z"/>
<path class="st5" d="M238.3,123.8c-0.5,0-0.8-0.4-0.8-0.8v-5.6c0-0.5,0.4-0.8,0.8-0.8c0.5,0,0.8,0.4,0.8,0.8v5.6
	C239.1,123.5,238.8,123.8,238.3,123.8z"/>
<path class="st5" d="M241.5,123.8c-0.5,0-0.8-0.4-0.8-0.8v-5.6c0-0.5,0.4-0.8,0.8-0.8c0.5,0,0.8,0.4,0.8,0.8v5.6
	C242.3,123.5,241.9,123.8,241.5,123.8z"/>
<path class="st5" d="M202.4,96c-0.5,0-0.8-0.4-0.8-0.8c0-7.5,6.1-13.5,13.5-13.5c0.5,0,0.8,0.4,0.8,0.8c0,0.5-0.4,0.8-0.8,0.8
	c-6.5,0-11.8,5.3-11.8,11.8C203.2,95.6,202.9,96,202.4,96z"/>
<path class="st5" d="M202.2,111h-3.4c-0.5,0-0.8-0.4-0.8-0.8c0-0.5,0.4-0.8,0.8-0.8h3.4c0.5,0,0.8,0.4,0.8,0.8
	C203.1,110.7,202.7,111,202.2,111z"/>
<path class="st5" d="M246.1,111h-3.4c-0.5,0-0.8-0.4-0.8-0.8c0-0.5,0.4-0.8,0.8-0.8h3.4c0.5,0,0.8,0.4,0.8,0.8
	C247,110.7,246.6,111,246.1,111z"/>
<path class="st3" d="M243.7,83.5L243.7,83.5c-0.2,0-0.3-0.1-0.5-0.2l-3.4-3.5c-0.3-0.3-0.3-0.7,0-0.9l19-19c0.1-0.1,0.3-0.2,0.5-0.2
	h0c0.2,0,0.3,0.1,0.5,0.2l3.4,3.5c0.3,0.3,0.3,0.7,0,0.9l-19,19C244.1,83.4,243.9,83.5,243.7,83.5z M241.2,79.4l2.5,2.5l18.1-18.1
	l-2.5-2.5L241.2,79.4z"/>
<path class="st3" d="M257.4,66.4c-0.2,0-0.3-0.1-0.5-0.2c-0.3-0.3-0.3-0.7,0-0.9l0.4-0.4c0.3-0.3,0.7-0.3,0.9,0
	c0.3,0.3,0.3,0.7,0,0.9l-0.4,0.4C257.7,66.3,257.6,66.4,257.4,66.4z"/>
<path class="st3" d="M254.3,69.4c-0.2,0-0.3-0.1-0.5-0.2c-0.3-0.3-0.3-0.7,0-0.9l0.4-0.4c0.3-0.3,0.7-0.3,0.9,0
	c0.3,0.3,0.3,0.7,0,0.9l-0.4,0.4C254.7,69.4,254.5,69.4,254.3,69.4z"/>
<path class="st3" d="M251.3,72.5c-0.2,0-0.3-0.1-0.5-0.2c-0.3-0.3-0.3-0.7,0-0.9l0.4-0.4c0.3-0.3,0.7-0.3,0.9,0
	c0.3,0.3,0.3,0.7,0,0.9l-0.4,0.4C251.6,72.4,251.4,72.5,251.3,72.5z"/>
<path class="st3" d="M248.2,75.5c-0.2,0-0.3-0.1-0.5-0.2c-0.2-0.3-0.2-0.7,0-0.9l0.4-0.4c0.3-0.2,0.7-0.2,0.9,0
	c0.2,0.3,0.2,0.7,0,0.9l-0.4,0.4C248.5,75.5,248.4,75.5,248.2,75.5z"/>
<path class="st3" d="M245.2,78.6c-0.2,0-0.3-0.1-0.5-0.2c-0.3-0.3-0.3-0.7,0-0.9l0.4-0.4c0.3-0.3,0.7-0.3,0.9,0
	c0.3,0.3,0.3,0.7,0,0.9l-0.4,0.4C245.5,78.5,245.3,78.6,245.2,78.6z"/>
<path class="st3" d="M264.2,63L264.2,63c-0.2,0-0.3-0.1-0.5-0.2l-3.4-3.5c-0.3-0.3-0.3-0.7,0-0.9l5-5c0.3-0.3,0.7-0.3,0.9,0l3.5,3.4
	c0.1,0.1,0.2,0.3,0.2,0.5c0,0.2-0.1,0.3-0.2,0.5l-5.1,5.1C264.6,62.9,264.4,63,264.2,63z M261.7,58.9l2.5,2.5l4.1-4.1l-2.5-2.5
	L261.7,58.9z"/>
<path class="st3" d="M265.8,58.7c-0.2,0-0.3-0.1-0.5-0.2l-0.7-0.7c-0.3-0.2-0.3-0.7,0-0.9c0.2-0.3,0.7-0.3,0.9,0l0.7,0.7
	c0.3,0.2,0.3,0.7,0,0.9C266.1,58.7,265.9,58.7,265.8,58.7z"/>
<path class="st3" d="M264.7,59.1c-0.2,0-0.3-0.1-0.5-0.2c-0.3-0.3-0.3-0.7,0-0.9l0.7-0.7c0.3-0.3,0.7-0.3,0.9,0
	c0.3,0.3,0.3,0.7,0,0.9l-0.7,0.7C265,59,264.8,59.1,264.7,59.1z"/>
<path class="st3" d="M242.9,85.6c-0.2,0-0.3-0.1-0.5-0.2l-4.7-4.7c-0.3-0.3-0.3-0.7,0-0.9l1.5-1.5c0.3-0.3,0.7-0.3,0.9,0l4.7,4.7
	c0.3,0.3,0.3,0.7,0,0.9l-1.5,1.5C243.2,85.6,243,85.6,242.9,85.6z M239,80.2l3.8,3.8l0.6-0.6l-3.8-3.8L239,80.2z"/>
<path class="st3" d="M239.4,87.8c-0.2,0-0.3-0.1-0.5-0.2l-3.4-3.4c-0.1-0.1-0.2-0.3-0.2-0.5c0-0.2,0.1-0.3,0.2-0.5l2.9-2.9
	c0.3-0.3,0.7-0.3,0.9,0l3.4,3.4c0.3,0.3,0.3,0.7,0,0.9l-2.9,2.9C239.7,87.8,239.5,87.8,239.4,87.8z M236.8,83.8l2.5,2.5l1.9-1.9
	l-2.5-2.5L236.8,83.8z"/>
<path class="st3" d="M263.4,65.2c-0.2,0-0.3-0.1-0.5-0.2l-4.7-4.7c-0.1-0.1-0.2-0.3-0.2-0.5c0-0.2,0.1-0.3,0.2-0.5l1.5-1.5
	c0.3-0.3,0.7-0.3,0.9,0l4.7,4.7c0.1,0.1,0.2,0.3,0.2,0.5c0,0.2-0.1,0.3-0.2,0.5l-1.5,1.5C263.7,65.1,263.5,65.2,263.4,65.2z
	 M259.5,59.8l3.8,3.8L264,63l-3.8-3.8L259.5,59.8z"/>
<path class="st3" d="M269.3,57.9c-0.2,0-0.3-0.1-0.5-0.2l-3.5-3.4c-0.1-0.1-0.2-0.3-0.2-0.5c0-0.2,0.1-0.3,0.2-0.5
	c1.7-1.7,3.5-2.9,5-3.4c0.2-0.1,0.5,0,0.7,0.1l2,2c0.2,0.2,0.2,0.4,0.2,0.7c-0.5,1.4-1.8,3.3-3.4,5
	C269.6,57.8,269.5,57.9,269.3,57.9C269.3,57.9,269.3,57.9,269.3,57.9z M266.8,53.8l2.5,2.5c1.2-1.3,2.1-2.6,2.5-3.7l-1.4-1.4
	C269.4,51.8,268.1,52.7,266.8,53.8z"/>
<path class="st5" d="M124.3,67.9h-4.5c-0.4,0-0.7-0.3-0.7-0.7c0-0.4,0.3-0.7,0.7-0.7h4.5c0.5,0,0.9-0.2,1.1-0.7
	c0.2-0.4,0.2-0.9,0-1.3l-13.7-21.8L98,64.5c-0.3,0.4-0.3,0.9-0.1,1.3c0.3,0.4,0.7,0.7,1.1,0.7h16.9c0.4,0,0.7,0.3,0.7,0.7
	c0,0.4-0.3,0.7-0.7,0.7H99.1c-1,0-1.9-0.5-2.4-1.4c-0.5-0.9-0.5-1.9,0.1-2.8L111.1,41c0.3-0.4,0.9-0.4,1.2,0l14.3,22.7
	c0.5,0.8,0.6,1.9,0.1,2.8C126.2,67.4,125.3,67.9,124.3,67.9z"/>
<path class="st5" d="M111.7,42.1c-0.2,0-0.4-0.1-0.5-0.2l-2.6-2.6c-1.7-1.7-1.7-4.5,0-6.2c0.8-0.8,1.9-1.3,3.1-1.3c0,0,0,0,0,0
	c1.2,0,2.3,0.5,3.1,1.3c0.8,0.8,1.3,1.9,1.3,3.1c0,1.2-0.5,2.3-1.3,3.1l-2.6,2.6C112.1,42.1,111.9,42.1,111.7,42.1
	C111.7,42.1,111.7,42.1,111.7,42.1z M111.7,33.3c-0.8,0-1.5,0.3-2.1,0.9c-1.2,1.1-1.2,3,0,4.2l2.1,2.1l2.1-2.1
	c0.6-0.6,0.9-1.3,0.9-2.1c0-0.8-0.3-1.5-0.9-2.1C113.2,33.6,112.5,33.3,111.7,33.3C111.7,33.3,111.7,33.3,111.7,33.3z"/>
<path class="st5" d="M124.6,73.7c-0.2,0-0.4-0.1-0.5-0.3l-13.7-16.3c-0.3-0.3-0.2-0.8,0.1-1c0.3-0.3,0.8-0.2,1,0.1l13.7,16.3
	c0.3,0.3,0.2,0.8-0.1,1C124.9,73.7,124.7,73.7,124.6,73.7z"/>
<path class="st3" d="M182.7,87.5c0.2,0.2,0.4,0.4,0.7,0.5l-1.6,1.7l-1.4-1.4l1.7-1.6c0.1,0.2,0.3,0.4,0.5,0.6L182.7,87.5z
	 M178.4,90.2l-4,3.8l1.6,1.6l3.8-3.9L178.4,90.2z M168.5,99.7l4-3.8l1.7,1.7l-3.8,3.9L168.5,99.7z M166.6,101.5l-7.5,7.2l2.1,2.1
	l7.2-7.5L166.6,101.5z M153.1,114.5l4-3.9l2.2,2.2l-3.9,4L153.1,114.5z M188.7,88c-0.7,0.5-1.6,0.8-2.4,0.9l-21.7,22.4
	c4.4,5.7,4.4,10.8,0,15.1c-1.4,1.5-3.2,2.7-5.3,3.4c-2.4,0.9-3.9,2.9-4.1,5.5c-0.3,4.7-2.3,9.1-5.6,12.5c-2.8,2.8-5.8,4.2-9.1,4.2
	c-1,0-2-0.1-3.1-0.4c-3.6-0.9-7.4-3.4-11.5-7.5c-9.1-9.1-10.3-17.1-3.7-23.7c3.3-3.3,7.8-5.3,12.5-5.6c2.5-0.1,4.6-1.7,5.5-4.1
	c0.8-2,1.9-3.8,3.4-5.3c4.4-4.4,9.4-4.3,15.1,0l22.4-21.6c0-0.9,0.3-1.8,0.9-2.5l-0.1-0.1c-0.5-0.5-0.6-1.4,0-1.9
	c0.5-0.5,1.4-0.6,1.9,0l0.1,0.1l0.8-0.8l-0.1-0.1c-0.5-0.5-0.6-1.4,0-1.9c0.5-0.5,1.4-0.6,1.9,0l0.1,0.1l0.8-0.8l-0.1-0.1
	c-0.5-0.5-0.6-1.4,0-1.9c0.5-0.5,1.4-0.6,1.9,0l0.1,0.1c1.2-0.9,3.1-0.9,4.2,0.3l2.3,2.3c1.1,1.2,1.2,3,0.3,4.3l0.1,0.1
	c0.5,0.5,0.5,1.4,0,1.9c-0.3,0.3-0.6,0.4-0.9,0.4c-0.4,0-0.7-0.1-1-0.4l-0.1-0.1l-0.8,0.8l0.1,0.1c0.5,0.5,0.5,1.4,0,1.9
	c-0.3,0.3-0.6,0.4-0.9,0.4c-0.4,0-0.7-0.1-1-0.4l-0.1-0.1l-0.8,0.8l0.1,0.1c0.5,0.5,0.5,1.4,0,1.9c-0.3,0.3-0.6,0.4-0.9,0.4
	c-0.4,0-0.7-0.1-1-0.4L188.7,88z M184.3,82.6l3.2-3.2c0,0,0,0,0,0l0,0l3.3-3.3c0.1-0.1,0.2-0.1,0.4-0.1c0.1,0,0.3,0.1,0.4,0.1
	l2.3,2.3c0.2,0.2,0.2,0.6,0,0.8l-6.6,6.5c-0.8,0.8-2,0.8-2.8,0l-0.3-0.3C183.6,84.6,183.6,83.3,184.3,82.6z M158.3,117.8l4.4-4.6
	c3.3,4.4,3.2,8,0,11.3c-1.2,1.2-2.6,2.2-4.3,2.8c-3.4,1.3-5.6,4.3-5.8,7.8c-0.3,4-2,7.8-4.9,10.7c-3,3-6.1,4-9.6,3.1
	c-3.1-0.8-6.5-3.1-10.3-6.8c-8-8-9.2-14.4-3.7-19.9c2.9-2.9,6.7-4.6,10.7-4.9c3.6-0.2,6.6-2.4,7.8-5.8c0.6-1.6,1.6-3.1,2.8-4.3
	c3.2-3.2,6.9-3.3,11.3,0l-4.6,4.4c-2.8-0.7-5.8,0.1-7.9,2.2c-1.6,1.6-2.4,3.7-2.4,5.9c0,2.2,0.9,4.3,2.4,5.9
	c1.6,1.6,3.7,2.4,5.9,2.4h0c2.2,0,4.3-0.9,5.8-2.4C158.2,123.6,159,120.6,158.3,117.8z M146.2,115.7c1-1,2.3-1.6,3.6-1.6
	c0,0.1-0.1,0.3-0.1,0.4c0,0.4,0.1,0.7,0.4,1l4.3,4.3c0.3,0.2,0.6,0.4,0.9,0.4h0c0.1,0,0.3,0,0.4-0.1c-0.1,1.4-0.7,2.7-1.7,3.7
	c-1,1.1-2.4,1.6-3.9,1.7h0c-1.5,0-2.9-0.6-4-1.7c-1.1-1.1-1.7-2.5-1.7-4C144.6,118.2,145.1,116.8,146.2,115.7z M138.2,138.1
	c0.3,0.3,0.6,0.4,1,0.4c0.3,0,0.7-0.1,1-0.4c0.5-0.5,0.5-1.4,0-1.9l-6.4-6.4c-0.5-0.5-1.4-0.5-1.9,0c-0.5,0.5-0.5,1.4,0,1.9
	L138.2,138.1z"/>
<path class="st6" d="M183.4,88l0.3,0.3L184,88l-0.4-0.3L183.4,88z M182.7,87.5l-0.3,0.3l0,0L182.7,87.5z M181.7,89.7l-0.3,0.3
	l0.3,0.3L182,90L181.7,89.7z M180.3,88.3L180,88l-0.3,0.3l0.3,0.3L180.3,88.3z M182,86.7l0.3-0.2l-0.3-0.4l-0.3,0.3L182,86.7z
	 M182.4,87.2l0.3-0.3h0L182.4,87.2z M174.4,94l-0.3-0.3l-0.3,0.3l0.3,0.3L174.4,94z M178.4,90.2l0.3-0.3l-0.3-0.3l-0.3,0.3
	L178.4,90.2z M176,95.6l-0.3,0.3l0.3,0.3l0.3-0.3L176,95.6z M179.9,91.7l0.3,0.3l0.3-0.3l-0.3-0.3L179.9,91.7z M172.5,95.8l0.3-0.3
	l-0.3-0.3l-0.3,0.3L172.5,95.8z M168.5,99.7l-0.3-0.3l-0.3,0.3l0.3,0.3L168.5,99.7z M174.2,97.5l0.3,0.3l0.3-0.3l-0.3-0.3
	L174.2,97.5z M170.3,101.5l-0.3,0.3l0.3,0.3l0.3-0.3L170.3,101.5z M159.1,108.8l-0.3-0.3l-0.3,0.3l0.3,0.3L159.1,108.8z
	 M166.6,101.5l0.3-0.3l-0.3-0.3l-0.3,0.3L166.6,101.5z M161.2,110.9l-0.3,0.3l0.3,0.3l0.3-0.3L161.2,110.9z M168.5,103.4l0.3,0.3
	l0.3-0.3l-0.3-0.3L168.5,103.4z M157.1,110.6l0.3-0.3l-0.3-0.3l-0.3,0.3L157.1,110.6z M153.1,114.5l-0.3-0.3l-0.3,0.3l0.3,0.3
	L153.1,114.5z M159.3,112.8l0.3,0.3l0.3-0.3l-0.3-0.3L159.3,112.8z M155.4,116.9l-0.3,0.3l0.3,0.3l0.3-0.3L155.4,116.9z M186.3,88.9
	l0-0.4l-0.2,0l-0.1,0.1L186.3,88.9z M188.7,88l0.3-0.3l-0.2-0.2l-0.3,0.2L188.7,88z M164.7,111.2l-0.3-0.3l-0.2,0.2l0.2,0.3
	L164.7,111.2z M164.7,126.3l-0.3-0.3l0,0L164.7,126.3z M159.4,129.8l0.1,0.4l0,0L159.4,129.8z M155.3,135.3l0.4,0v0L155.3,135.3z
	 M149.7,147.7l-0.3-0.3l0,0L149.7,147.7z M140.6,151.9v0.4l0,0V151.9z M137.5,151.5l-0.1,0.4l0,0L137.5,151.5z M126,144l0.3-0.3
	L126,144z M122.3,120.3l0.3,0.3l0,0L122.3,120.3z M134.7,114.7l0-0.4l0,0L134.7,114.7z M140.2,110.6l-0.4-0.1l0,0L140.2,110.6z
	 M143.6,105.3l-0.3-0.3h0L143.6,105.3z M158.7,105.3l-0.2,0.3l0.3,0.2l0.2-0.2L158.7,105.3z M181.1,83.8l0.3,0.3l0.1-0.1l0-0.2
	L181.1,83.8z M182,81.2l0.3,0.2l0.2-0.3l-0.2-0.2L182,81.2z M181.8,81.1l0.3-0.3l0,0L181.8,81.1z M181.8,79.2l0.3,0.3l0,0
	L181.8,79.2z M183.7,79.2l-0.3,0.3l0,0L183.7,79.2z M183.8,79.3l-0.3,0.3l0.3,0.3l0.3-0.3L183.8,79.3z M184.6,78.4l0.3,0.3l0.3-0.3
	l-0.3-0.3L184.6,78.4z M184.6,78.4l0.3-0.3l0,0L184.6,78.4z M184.5,76.5l0.3,0.3l0,0L184.5,76.5z M186.4,76.4l-0.3,0.3l0,0
	L186.4,76.4z M186.6,76.5l-0.3,0.3l0.3,0.3l0.3-0.3L186.6,76.5z M187.4,75.7l0.3,0.3l0.3-0.3l-0.3-0.3L187.4,75.7z M187.3,75.6
	l-0.3,0.3v0L187.3,75.6z M187.3,73.7l0.3,0.3v0L187.3,73.7z M189.2,73.7l0.3-0.3v0L189.2,73.7z M189.3,73.8l-0.3,0.3l0.2,0.2
	l0.3-0.2L189.3,73.8z M193.6,74.1l0.3-0.3l0,0l0,0L193.6,74.1z M195.9,76.4l0.3-0.3l0,0l0,0L195.9,76.4z M196.2,80.7l-0.3-0.2
	l-0.2,0.3l0.2,0.2L196.2,80.7z M196.3,80.8l0.3-0.3l0,0L196.3,80.8z M196.3,82.7l0.3,0.3l0,0L196.3,82.7z M194.4,82.7l-0.3,0.3l0,0
	L194.4,82.7z M194.3,82.6l0.3-0.3l-0.3-0.3l-0.3,0.3L194.3,82.6z M193.4,83.4l-0.3-0.3l-0.3,0.3l0.3,0.3L193.4,83.4z M193.6,83.5
	l-0.3,0.3l0,0L193.6,83.5z M193.5,85.5l-0.3-0.3l0,0L193.5,85.5z M191.6,85.4l-0.3,0.3l0,0L191.6,85.4z M191.5,85.3l0.3-0.3
	l-0.3-0.3l-0.3,0.3L191.5,85.3z M190.7,86.1l-0.3-0.3l-0.3,0.3l0.3,0.3L190.7,86.1z M190.8,86.3l0.3-0.3l0,0L190.8,86.3z
	 M190.8,88.2l-0.3-0.3l0,0L190.8,88.2z M188.9,88.2l0.3-0.3l0,0L188.9,88.2z M187.5,79.4l-0.3-0.3l0,0L187.5,79.4z M184.3,82.6
	l-0.3-0.3v0L184.3,82.6z M187.5,79.4l0.3,0.3v0L187.5,79.4z M187.6,79.3l-0.3-0.3l0,0L187.6,79.3z M190.9,76l-0.3-0.3l0,0L190.9,76z
	 M191.7,76l0.3-0.3l0,0L191.7,76z M193.9,78.3l0.3-0.3l0,0l0,0L193.9,78.3z M194,79.1l0.3,0.3l0,0L194,79.1z M187.4,85.6l-0.3-0.3
	l0,0L187.4,85.6z M184.6,85.6l-0.3,0.3l0,0L184.6,85.6z M184.3,85.3l0.3-0.3v0L184.3,85.3z M162.8,113.2l0.3-0.2l-0.3-0.4l-0.3,0.3
	L162.8,113.2z M158.3,117.8l-0.3-0.3l-0.2,0.2l0.1,0.2L158.3,117.8z M162.8,124.4l-0.3-0.3l0,0L162.8,124.4z M158.4,127.3l0.1,0.4
	l0,0L158.4,127.3z M152.6,135.1l0.4,0v0L152.6,135.1z M147.8,145.8l-0.3-0.3l0,0L147.8,145.8z M138.2,148.9l-0.1,0.4l0,0
	L138.2,148.9z M127.9,142.1l0.3-0.3l0,0L127.9,142.1z M124.2,122.2l0.3,0.3l0,0L124.2,122.2z M134.9,117.3l0-0.4h0L134.9,117.3z
	 M142.7,111.5l-0.4-0.1l0,0L142.7,111.5z M145.5,107.2l-0.3-0.3L145.5,107.2z M156.8,107.2l0.3,0.3l0.3-0.3l-0.4-0.3L156.8,107.2z
	 M152.2,111.6l-0.1,0.4l0.2,0.1l0.2-0.2L152.2,111.6z M144.3,113.8l-0.3-0.3v0L144.3,113.8z M144.3,125.7l0.3-0.3l0,0L144.3,125.7z
	 M150.2,128.1v-0.4l0,0V128.1z M150.3,128.1v0.4h0L150.3,128.1z M156.1,125.7l-0.3-0.3l0,0L156.1,125.7z M149.9,114.1l0.4,0.1
	l0.2-0.5l-0.6,0L149.9,114.1z M146.2,115.7l0.3,0.3L146.2,115.7z M149.8,114.5l-0.4,0v0L149.8,114.5z M150.2,115.5l-0.3,0.3v0
	L150.2,115.5z M154.5,119.7l-0.3,0.3l0,0L154.5,119.7z M155.5,120.1v0.4h0L155.5,120.1z M155.9,120.1l0.4,0l0-0.6l-0.5,0.2
	L155.9,120.1z M154.2,123.8l-0.3-0.3l0,0L154.2,123.8z M150.2,125.4v0.4h0L150.2,125.4z M146.2,123.8l0.3-0.3l0,0L146.2,123.8z
	 M138.2,138.1l0.3-0.3l0,0L138.2,138.1z M140.1,138.1l0.3,0.3l0,0L140.1,138.1z M140.1,136.2l-0.3,0.3l0,0L140.1,136.2z
	 M133.7,129.9l-0.3,0.3l0,0L133.7,129.9z M131.8,129.9l-0.3-0.3v0L131.8,129.9z M131.8,131.8l0.3-0.3l0,0L131.8,131.8z M183.6,87.7
	c-0.2-0.1-0.4-0.3-0.6-0.5l-0.6,0.6c0.2,0.2,0.5,0.4,0.7,0.6L183.6,87.7z M182,90l1.6-1.7l-0.6-0.5l-1.6,1.7L182,90z M180,88.6
	l1.4,1.4l0.6-0.6l-1.4-1.4L180,88.6z M181.7,86.4L180,88l0.5,0.6l1.7-1.6L181.7,86.4z M182.7,87c-0.2-0.2-0.3-0.3-0.4-0.5l-0.6,0.5
	c0.2,0.2,0.3,0.4,0.5,0.6L182.7,87z M183,87.2l-0.3-0.3l-0.6,0.6l0.3,0.3L183,87.2z M174.7,94.3l4-3.8l-0.5-0.6l-4,3.8L174.7,94.3z
	 M176.3,95.3l-1.6-1.6l-0.6,0.6l1.6,1.6L176.3,95.3z M179.6,91.4l-3.8,3.9l0.6,0.5l3.8-3.9L179.6,91.4z M178.1,90.4l1.5,1.5l0.6-0.6
	l-1.5-1.5L178.1,90.4z M172.2,95.6l-4,3.8l0.5,0.6l4-3.8L172.2,95.6z M174.4,97.3l-1.7-1.7l-0.6,0.6l1.7,1.7L174.4,97.3z
	 M170.6,101.8l3.8-3.9l-0.6-0.5l-3.8,3.9L170.6,101.8z M168.2,99.9l1.8,1.8l0.6-0.6l-1.8-1.8L168.2,99.9z M159.3,109l7.5-7.2
	l-0.5-0.6l-7.5,7.2L159.3,109z M161.5,110.6l-2.1-2.1l-0.6,0.6l2.1,2.1L161.5,110.6z M168.2,103.2l-7.2,7.5l0.6,0.5l7.2-7.5
	L168.2,103.2z M166.3,101.8l1.9,1.9l0.6-0.6l-1.9-1.9L166.3,101.8z M156.8,110.3l-4,3.9l0.5,0.6l4-3.9L156.8,110.3z M159.6,112.6
	l-2.2-2.2l-0.6,0.6l2.2,2.2L159.6,112.6z M155.7,117.1l3.9-4l-0.6-0.5l-3.9,4L155.7,117.1z M152.8,114.8l2.4,2.3l0.6-0.6l-2.4-2.3
	L152.8,114.8z M186.3,89.2c0.9-0.1,1.8-0.4,2.6-0.9l-0.5-0.6c-0.7,0.5-1.4,0.7-2.2,0.8L186.3,89.2z M164.9,111.5l21.7-22.4l-0.6-0.5
	L164.4,111L164.9,111.5z M164.9,126.6c2.2-2.2,3.4-4.7,3.4-7.3c0-2.6-1.1-5.4-3.3-8.3l-0.6,0.5c2.1,2.8,3.2,5.4,3.2,7.8
	c0,2.4-1,4.7-3.1,6.8L164.9,126.6z M159.5,130.1c2.1-0.8,3.9-2,5.4-3.5l-0.6-0.5c-1.4,1.5-3.1,2.6-5.1,3.4L159.5,130.1z
	 M155.7,135.3c0.1-2.4,1.6-4.3,3.8-5.1l-0.3-0.7c-2.6,1-4.2,3.1-4.3,5.8L155.7,135.3z M150,148c3.4-3.4,5.5-7.9,5.8-12.7l-0.8,0
	c-0.3,4.6-2.3,8.9-5.5,12.2L150,148z M140.6,152.3c3.4,0,6.5-1.5,9.4-4.3l-0.6-0.6c-2.7,2.7-5.7,4.1-8.8,4.1V152.3z M137.4,151.9
	c1.1,0.3,2.1,0.4,3.2,0.4v-0.8c-1,0-2-0.1-3-0.4L137.4,151.9z M125.7,144.3c4.2,4.2,8,6.7,11.7,7.6l0.2-0.8
	c-3.5-0.9-7.2-3.3-11.3-7.4L125.7,144.3z M122,120c-3.4,3.4-4.8,7.2-4.1,11.3c0.6,4.1,3.3,8.4,7.9,13l0.6-0.6
	c-4.5-4.5-7-8.7-7.6-12.6c-0.6-3.8,0.7-7.3,3.9-10.6L122,120z M134.7,114.3c-4.8,0.3-9.3,2.3-12.7,5.8l0.6,0.6
	c3.3-3.3,7.6-5.2,12.2-5.5L134.7,114.3z M139.8,110.4c-0.8,2.3-2.8,3.7-5.1,3.8l0,0.8c2.7-0.2,4.9-1.8,5.8-4.3L139.8,110.4z
	 M143.3,105c-1.5,1.5-2.7,3.4-3.5,5.4l0.7,0.3c0.7-1.9,1.9-3.7,3.3-5.1L143.3,105z M159,105c-2.9-2.2-5.7-3.4-8.3-3.4
	c-2.7,0-5.1,1.1-7.3,3.4l0.6,0.6c2.1-2.1,4.4-3.2,6.8-3.1c2.4,0,5,1.1,7.8,3.2L159,105z M180.8,83.5l-22.4,21.6l0.5,0.6l22.4-21.6
	L180.8,83.5z M181.6,81c-0.6,0.8-0.9,1.8-0.9,2.8l0.8,0c0-0.8,0.3-1.6,0.8-2.3L181.6,81z M181.6,81.4l0.1,0.1l0.5-0.6l-0.1-0.1
	L181.6,81.4z M181.5,78.9c-0.7,0.7-0.6,1.8,0.1,2.5l0.5-0.6c-0.4-0.4-0.4-1,0-1.3L181.5,78.9z M184,78.9c-0.7-0.7-1.8-0.6-2.5,0.1
	l0.6,0.5c0.4-0.4,1-0.4,1.3,0L184,78.9z M184.1,79l-0.1-0.1l-0.5,0.6l0.1,0.1L184.1,79z M184.4,78.2l-0.8,0.8l0.6,0.6l0.8-0.8
	L184.4,78.2z M184.3,78.6L184.3,78.6l0.6-0.5l-0.1-0.1L184.3,78.6z M184.2,76.2c-0.7,0.7-0.6,1.8,0.1,2.5l0.5-0.6
	c-0.4-0.4-0.4-1,0-1.3L184.2,76.2z M186.7,76.1c-0.7-0.7-1.8-0.6-2.5,0.1l0.6,0.5c0.4-0.4,1-0.4,1.3,0L186.7,76.1z M186.8,76.3
	l-0.1-0.1l-0.5,0.6l0.1,0.1L186.8,76.3z M187.1,75.4l-0.8,0.8l0.6,0.6l0.8-0.8L187.1,75.4z M187,75.9L187,75.9l0.6-0.5l-0.1-0.1
	L187,75.9z M187,73.4c-0.7,0.7-0.6,1.8,0.1,2.5l0.5-0.6c-0.4-0.4-0.4-1,0-1.4L187,73.4z M189.4,73.4c-0.7-0.7-1.8-0.6-2.5,0.1
	l0.6,0.5c0.4-0.4,1-0.4,1.3,0L189.4,73.4z M189.6,73.5l-0.1-0.1l-0.5,0.6l0.1,0.1L189.6,73.5z M193.8,73.8c-1.3-1.2-3.4-1.3-4.7-0.3
	l0.5,0.6c1.1-0.8,2.7-0.8,3.7,0.2L193.8,73.8z M196.2,76.1l-2.3-2.3l-0.6,0.6l2.3,2.3L196.2,76.1z M196.5,80.9
	c1.1-1.4,1-3.4-0.3-4.8l-0.6,0.5c1,1.1,1.1,2.7,0.3,3.8L196.5,80.9z M196.6,80.5l-0.1-0.1l-0.6,0.5l0.1,0.1L196.6,80.5z M196.5,83
	c0.7-0.7,0.7-1.8,0.1-2.5l-0.6,0.5c0.4,0.4,0.4,1,0,1.3L196.5,83z M195.3,83.5c0.4,0,0.9-0.2,1.2-0.5l-0.5-0.6
	c-0.2,0.2-0.4,0.3-0.7,0.3V83.5z M194.1,82.9c0.3,0.4,0.8,0.5,1.3,0.5v-0.8c-0.3,0-0.5-0.1-0.7-0.3L194.1,82.9z M194,82.9L194,82.9
	l0.7-0.5l-0.1-0.1L194,82.9z M193.7,83.7l0.8-0.8l-0.6-0.6l-0.8,0.8L193.7,83.7z M193.8,83.3l-0.1-0.1l-0.6,0.5l0.1,0.1L193.8,83.3z
	 M193.8,85.7c0.7-0.7,0.7-1.8,0.1-2.5l-0.6,0.5c0.4,0.4,0.4,1,0,1.3L193.8,85.7z M192.6,86.2c0.4,0,0.9-0.2,1.2-0.5l-0.5-0.6
	c-0.2,0.2-0.4,0.3-0.7,0.3V86.2z M191.3,85.7c0.3,0.4,0.8,0.5,1.3,0.5v-0.8c-0.3,0-0.5-0.1-0.7-0.3L191.3,85.7z M191.2,85.6
	L191.2,85.6l0.7-0.4l-0.1-0.1L191.2,85.6z M191,86.4l0.8-0.8l-0.6-0.6l-0.8,0.8L191,86.4z M191.1,86l-0.1-0.1l-0.6,0.5l0.1,0.1
	L191.1,86z M191.1,88.5c0.7-0.7,0.7-1.8,0.1-2.5l-0.6,0.5c0.4,0.4,0.4,1,0,1.3L191.1,88.5z M189.9,89c0.4,0,0.9-0.2,1.2-0.5
	l-0.5-0.6c-0.2,0.2-0.4,0.3-0.7,0.3V89z M188.6,88.4c0.3,0.4,0.8,0.5,1.3,0.5v-0.8c-0.3,0-0.5-0.1-0.7-0.3L188.6,88.4z M188.4,88.3
	l0.1,0.2l0.6-0.5l-0.1-0.2L188.4,88.3z M187.2,79.1l-3.2,3.2l0.6,0.6l3.2-3.2L187.2,79.1z M187.3,79.1
	C187.3,79.1,187.2,79.1,187.3,79.1l0.5,0.6c0,0,0,0,0.1-0.1L187.3,79.1z M187.3,79.1L187.3,79.1l0.6,0.5l0,0L187.3,79.1z
	 M190.6,75.7l-3.3,3.3l0.6,0.6l3.3-3.3L190.6,75.7z M191.3,75.5c-0.2,0-0.5,0.1-0.7,0.3l0.6,0.6c0,0,0,0,0.1,0V75.5z M192,75.7
	c-0.2-0.2-0.4-0.3-0.7-0.3v0.8c0.1,0,0.1,0,0.1,0L192,75.7z M194.2,78l-2.3-2.3l-0.6,0.6l2.3,2.3L194.2,78z M194.2,79.4
	c0.4-0.4,0.3-1,0-1.4l-0.6,0.5c0,0,0.1,0.1,0.1,0.2c0,0.1,0,0.1,0,0.1L194.2,79.4z M187.7,85.9l6.6-6.5l-0.6-0.6l-6.6,6.5
	L187.7,85.9z M184.3,85.9c0.9,0.9,2.4,0.9,3.4,0l-0.6-0.6c-0.6,0.6-1.6,0.6-2.3,0L184.3,85.9z M184.1,85.6l0.3,0.3l0.6-0.6l-0.3-0.3
	L184.1,85.6z M184.1,82.3c-0.9,0.9-0.9,2.4,0,3.3l0.6-0.6c-0.6-0.6-0.6-1.6,0-2.2L184.1,82.3z M162.5,112.9l-4.4,4.6l0.6,0.5
	l4.4-4.6L162.5,112.9z M163,124.7c1.7-1.7,2.6-3.5,2.6-5.5c0-2-0.9-4.1-2.5-6.3l-0.6,0.5c1.6,2.2,2.4,4.1,2.4,5.8
	c0,1.7-0.8,3.3-2.3,4.9L163,124.7z M158.6,127.6c1.7-0.7,3.2-1.6,4.5-2.9l-0.6-0.5c-1.2,1.2-2.6,2.1-4.2,2.7L158.6,127.6z
	 M153,135.1c0.2-3.4,2.3-6.3,5.6-7.5l-0.3-0.7c-3.5,1.3-5.8,4.5-6.1,8.2L153,135.1z M148,146.1c2.9-2.9,4.7-6.8,5-11l-0.8-0.1
	c-0.3,3.9-1.9,7.7-4.7,10.5L148,146.1z M138.1,149.3c3.7,0.9,6.9-0.1,10-3.2l-0.6-0.6c-2.9,2.9-5.9,3.8-9.2,3L138.1,149.3z
	 M127.6,142.4c3.7,3.8,7.3,6.1,10.4,6.9l0.2-0.8c-3-0.8-6.4-3-10.1-6.7L127.6,142.4z M123.9,121.9c-2.8,2.8-4,5.9-3.3,9.3
	c0.6,3.4,3,7,7.1,11.1l0.6-0.6c-4-4-6.2-7.5-6.8-10.7c-0.6-3.1,0.4-5.9,3.1-8.6L123.9,121.9z M134.9,117c-4.1,0.3-8,2-11,5l0.6,0.6
	c2.8-2.8,6.5-4.5,10.5-4.7L134.9,117z M142.3,111.4c-1.2,3.2-4.1,5.3-7.5,5.5l0,0.8c3.7-0.2,6.9-2.5,8.2-6.1L142.3,111.4z
	 M145.2,106.9c-1.2,1.2-2.2,2.8-2.9,4.5l0.7,0.3c0.6-1.6,1.5-3,2.7-4.2L145.2,106.9z M157,106.9c-2.2-1.7-4.3-2.5-6.3-2.5
	c-2,0-3.8,0.9-5.5,2.6l0.6,0.6c1.6-1.6,3.2-2.3,4.9-2.3c1.7,0,3.7,0.8,5.8,2.4L157,106.9z M152.5,111.9l4.6-4.4l-0.5-0.6l-4.6,4.4
	L152.5,111.9z M144.6,114.1c2-2,4.8-2.7,7.5-2.1l0.2-0.8c-2.9-0.7-6.1,0.1-8.2,2.3L144.6,114.1z M142.3,119.7c0-2.1,0.8-4.1,2.3-5.6
	l-0.6-0.6c-1.7,1.7-2.6,3.9-2.6,6.2H142.3z M144.6,125.4c-1.5-1.5-2.3-3.5-2.3-5.6h-0.8c0,2.3,0.9,4.5,2.6,6.2L144.6,125.4z
	 M150.2,127.7c-2.1,0-4.1-0.8-5.6-2.3l-0.6,0.6c1.7,1.7,3.8,2.6,6.2,2.6V127.7z M150.3,127.7L150.3,127.7l0,0.8h0V127.7z
	 M155.8,125.4c-1.5,1.5-3.4,2.3-5.6,2.3l0,0.8c2.3,0,4.5-0.9,6.1-2.6L155.8,125.4z M157.9,117.9c0.7,2.7-0.1,5.5-2.1,7.5l0.6,0.6
	c2.2-2.2,3.1-5.3,2.3-8.3L157.9,117.9z M149.8,113.7c-1.4,0.1-2.8,0.7-3.9,1.7l0.6,0.6c0.9-0.9,2.1-1.4,3.4-1.5L149.8,113.7z
	 M150.2,114.5c0-0.1,0-0.2,0-0.3l-0.7-0.2c-0.1,0.2-0.1,0.3-0.1,0.5L150.2,114.5z M150.5,115.2c-0.2-0.2-0.3-0.4-0.3-0.7l-0.8,0
	c0,0.5,0.2,0.9,0.5,1.2L150.5,115.2z M154.8,119.5l-4.3-4.3l-0.6,0.6l4.3,4.3L154.8,119.5z M155.5,119.7c-0.3,0-0.5-0.1-0.7-0.3
	l-0.6,0.6c0.3,0.3,0.8,0.5,1.2,0.5V119.7z M155.5,119.7L155.5,119.7l0,0.8h0V119.7z M155.7,119.7c-0.1,0-0.2,0-0.3,0l0,0.8
	c0.2,0,0.3,0,0.5-0.1L155.7,119.7z M154.5,124c1.1-1.1,1.7-2.5,1.8-3.9l-0.8,0c-0.1,1.3-0.6,2.5-1.6,3.4L154.5,124z M150.2,125.8
	c1.6,0,3.1-0.6,4.2-1.8l-0.6-0.6c-1,1-2.3,1.5-3.7,1.5L150.2,125.8z M150.2,125.8L150.2,125.8l0-0.8h0V125.8z M145.9,124
	c1.1,1.1,2.7,1.8,4.3,1.8V125c-1.4,0-2.7-0.5-3.7-1.5L145.9,124z M144.2,119.7c0,1.6,0.6,3.1,1.8,4.3l0.6-0.6c-1-1-1.5-2.3-1.5-3.7
	H144.2z M145.9,115.5c-1.1,1.1-1.8,2.7-1.8,4.3h0.8c0-1.4,0.5-2.7,1.5-3.7L145.9,115.5z M139.2,138.1c-0.2,0-0.5-0.1-0.7-0.3
	l-0.6,0.6c0.3,0.3,0.8,0.5,1.2,0.5V138.1z M139.8,137.9c-0.2,0.2-0.4,0.3-0.7,0.3v0.8c0.4,0,0.9-0.2,1.2-0.5L139.8,137.9z
	 M139.8,136.5c0.4,0.4,0.4,1,0,1.4l0.6,0.6c0.7-0.7,0.7-1.8,0-2.5L139.8,136.5z M133.5,130.1l6.4,6.4l0.6-0.6l-6.4-6.4L133.5,130.1z
	 M132.1,130.1c0.4-0.4,1-0.4,1.4,0l0.6-0.6c-0.7-0.7-1.8-0.7-2.5,0L132.1,130.1z M132.1,131.5c-0.4-0.4-0.4-1,0-1.4l-0.6-0.6
	c-0.7,0.7-0.7,1.8,0,2.5L132.1,131.5z M138.5,137.9l-6.4-6.4l-0.6,0.6l6.4,6.4L138.5,137.9z"/>
<path class="st7" d="M76.3,41c-0.3,0.3-0.8,0.3-1.1,0.1l-2.6-2.4c-0.3-0.3-0.3-0.8,0-1.1s0.8-0.3,1.1-0.1l2.6,2.4
	C76.5,40.2,76.6,40.7,76.3,41z"/>
<path class="st7" d="M76.3,38.3l-2.7,3c-0.3,0.3-0.8,0.3-1.1,0.1c-0.3-0.3-0.3-0.8,0-1.1l2.7-3c0.3-0.3,0.8-0.3,1.1-0.1
	C76.6,37.5,76.6,38,76.3,38.3z"/>
<path class="st7" d="M92.4,32c-1.6,1.8-4.3,1.9-6,0.4c-1.7-1.6-1.9-4.3-0.3-6c1.6-1.8,4.3-1.9,6-0.4C93.8,27.6,93.9,30.3,92.4,32z
	 M87.5,27.7c-0.8,0.9-0.8,2.4,0.1,3.2c0.9,0.8,2.3,0.7,3.2-0.2c0.8-0.9,0.8-2.4-0.1-3.2C89.8,26.7,88.4,26.8,87.5,27.7z"/>
<path class="st8" d="M13.6,31.3c-1.6,1.8-4.3,1.9-6,0.4c-1.7-1.6-1.9-4.3-0.3-6c1.6-1.8,4.3-1.9,6-0.4
	C15.1,26.8,15.2,29.5,13.6,31.3z M8.8,26.9C8,27.9,8,29.3,9,30.1c0.9,0.8,2.3,0.7,3.2-0.2c0.8-0.9,0.8-2.4-0.1-3.2
	C11.1,25.9,9.7,26,8.8,26.9z"/>
<path class="st7" d="M425.6,41c-0.3,0.3-0.8,0.3-1.1,0.1l-2.6-2.4c-0.3-0.3-0.3-0.8,0-1.1c0.3-0.3,0.8-0.3,1.1-0.1l2.6,2.4
	C425.9,40.2,425.9,40.7,425.6,41z"/>
<path class="st7" d="M425.6,38.3l-2.7,3c-0.3,0.3-0.8,0.3-1.1,0.1c-0.3-0.3-0.3-0.8,0-1.1l2.7-3c0.3-0.3,0.8-0.3,1.1-0.1
	C425.9,37.5,425.9,38,425.6,38.3z"/>
<path class="st7" d="M436,30.5c-1.6,1.8-4.3,1.9-6,0.4c-1.7-1.6-1.9-4.3-0.3-6c1.6-1.8,4.3-1.9,6-0.4C437.5,26,437.6,28.7,436,30.5z
	 M431.2,26.1c-0.8,0.9-0.8,2.4,0.1,3.2c0.9,0.8,2.3,0.7,3.2-0.2c0.8-0.9,0.8-2.4-0.1-3.2C433.4,25.1,432,25.2,431.2,26.1z"/>
<path class="st7" d="M189.7,125.2c-1.6,1.8-4.3,1.9-6,0.4c-1.7-1.6-1.9-4.3-0.3-6c1.6-1.8,4.3-1.9,6-0.4
	C191.2,120.7,191.3,123.4,189.7,125.2z M184.9,120.8c-0.8,0.9-0.8,2.4,0.1,3.2c0.9,0.8,2.3,0.7,3.2-0.2c0.8-0.9,0.8-2.4-0.1-3.2
	C187.2,119.8,185.7,119.9,184.9,120.8z"/>
<path class="st7" d="M209.5,70.7c-0.8,0.9-2.1,1-3,0.2c-0.9-0.8-0.9-2.1-0.1-3c0.8-0.9,2.1-1,3-0.2
	C210.2,68.5,210.3,69.9,209.5,70.7z M207.1,68.6c-0.4,0.5-0.4,1.2,0.1,1.6c0.5,0.4,1.2,0.4,1.6-0.1c0.4-0.5,0.4-1.2-0.1-1.6
	C208.2,68.1,207.5,68.1,207.1,68.6z"/>
<path class="st7" d="M237.4,69.6c-0.2,0-0.4-0.1-0.5-0.3l-0.7-3.1c0-0.2,0.1-0.4,0.3-0.5c0.2,0,0.4,0.1,0.5,0.3l0.7,3.1
	C237.8,69.4,237.7,69.6,237.4,69.6z"/>
<path class="st7" d="M238.8,67.7l-3.4,0.8c-0.2,0-0.4-0.1-0.5-0.3c0-0.2,0.1-0.4,0.3-0.5l3.4-0.8c0.2,0,0.4,0.1,0.5,0.3
	C239.2,67.4,239,67.7,238.8,67.7z"/>
<path class="st7" d="M345.2,13.4c-0.5,0.7-1.4,0.9-2.1,0.4l-9.8-6.7c-0.7-0.5-0.9-1.4-0.4-2.1s1.4-0.9,2.1-0.4l9.8,6.7
	C345.5,11.8,345.7,12.7,345.2,13.4z"/>
<path class="st7" d="M344,4.6l-7.4,10.8c-0.5,0.7-1.4,0.9-2.1,0.4c-0.7-0.5-0.9-1.4-0.4-2.1l7.4-10.8c0.5-0.7,1.4-0.9,2.1-0.4
	C344.3,3,344.5,3.9,344,4.6z"/>
<path class="st7" d="M357.8,24c-0.6,0.1-1.1-0.2-1.3-0.8l-1.1-4.9c-0.1-0.6,0.2-1.1,0.8-1.2c0.6-0.1,1.1,0.2,1.3,0.8l1.1,4.9
	C358.8,23.4,358.4,23.9,357.8,24z"/>
<path class="st7" d="M360,21l-5.5,1.2c-0.6,0.1-1.1-0.2-1.3-0.8c-0.1-0.6,0.2-1.1,0.8-1.2l5.5-1.2c0.6-0.1,1.1,0.2,1.3,0.8
	C361,20.3,360.6,20.9,360,21z"/>
<path class="st4" d="M332.4,79.4c-1.5,0-2.9-0.4-4-0.9c-1.2-0.5-1.7-1.9-1.2-3.1c0.5-1.2,2-1.7,3.1-1.2l0,0c0.9,0.4,3.8,1.7,8.4-3.1
	c0.9-0.9,2.4-1,3.4,0c0.9,0.9,1,2.4,0,3.4C338.5,78.3,335.1,79.4,332.4,79.4z"/>
<path class="st4" d="M340.5,90.7c0.4,0.9,1.3,1.4,2.2,1.4c0.3,0,0.7-0.1,1-0.2c1.2-0.5,1.7-1.9,1.2-3.1c-0.4-0.9-1.7-3.7,3.1-8.4
	c0.9-0.9,1-2.4,0-3.4c-0.9-0.9-2.4-1-3.4,0C338.7,82.7,339.1,87.6,340.5,90.7z"/>
<path class="st4" d="M400,28.5c1.3,0.5,2.6,0.8,3.9,0.8c1.9,0,3.5-0.6,4.8-1.8c1.6-1.7,2.1-4.3,1.5-7.1c0.2-0.2,0.5-0.4,0.7-0.6
	c2.1-2.1,3.6-4.7,4.3-7.2c0.7-2.9,0.2-5.5-1.5-7.1c-1.7-1.7-4.3-2.3-7.2-1.5c-2.5,0.6-5,2.1-7.1,4.2c-0.2,0.2-0.5,0.5-0.7,0.7
	c-2.8-0.7-5.4-0.2-7.1,1.5c-1.7,1.7-2.3,4.3-1.5,7.2c0.1,0.5,0.3,1,0.5,1.5l-18.6,17.8c-12.7-9-27.2-6.8-44.2,6.9
	c-0.5,0.4-0.8,1.1-0.9,1.7c0,0.7,0.2,1.3,0.7,1.8l3.2,3.2c1.2,1.2,1.9,2.9,1.9,4.7c0,1.8-0.7,3.4-1.9,4.7l-5.2,5.2
	c-2.6,2.6-6.8,2.6-9.3,0l-3.9-3.9c-0.9-0.9-2.3-0.9-3.3-0.1c-8.7,7.9-16.9,15.4-17.2,25.4c-0.2,6.9,3.4,14.2,11.2,22.9
	c0.1,0.2,0.3,0.3,0.4,0.5c0,0,0.1,0.1,0.1,0.1c0.4,0.4,0.7,0.8,1.1,1.2l-2.5,2.5c-0.9,0.9-0.9,2.4,0,3.4c0.5,0.5,1.1,0.7,1.7,0.7
	c0.6,0,1.2-0.2,1.7-0.7l2.5-2.5c0.4,0.4,0.8,0.8,1.2,1.1c0,0,0.1,0.1,0.1,0.1c0.1,0.2,0.3,0.3,0.5,0.4c8.4,7.7,15.6,11.3,22.4,11.3
	c0.2,0,0.3,0,0.5,0c10-0.2,17.4-8.5,25.3-17.2c0.9-0.9,0.8-2.4-0.1-3.3L354,103c-1.2-1.2-1.9-2.9-1.9-4.7c0-1.8,0.7-3.4,1.9-4.7
	l5.2-5.2c2.5-2.5,6.8-2.5,9.3,0l3.2,3.2c0.5,0.5,1.1,0.7,1.8,0.7c0.7,0,1.3-0.4,1.7-0.9c13.3-16.8,15.5-31.2,6.8-44L400,28.5z
	 M309.8,109.4c0.5,0.5,1,1,1.4,1.4l12.7-11.2l-4.5-4.4l-11.1,12.7C308.7,108.4,309.2,108.9,309.8,109.4
	C309.7,109.4,309.7,109.4,309.8,109.4C309.7,109.4,309.7,109.4,309.8,109.4C309.7,109.4,309.8,109.4,309.8,109.4z M395.8,26.1
	c-0.5-0.4-1-0.8-1.5-1.3c-0.5-0.5-0.9-1-1.3-1.5l-40.8,39l4.6,4.6l20.5-21.5c0.1-0.1,0.1-0.1,0.2-0.2L395.8,26.1z M394.9,13.7
	c0.3-0.3,0.7-0.4,1.3-0.4c0.7,0,1.5,0.2,2.3,0.5c1,0.4,2.2,0.1,2.8-0.8c0.4-0.5,0.8-1,1.4-1.6c1.5-1.5,3.3-2.6,4.9-3
	c1.2-0.3,2.2-0.2,2.7,0.3c0.5,0.5,0.5,1.4,0.2,2.6c-0.4,1.6-1.5,3.5-3,5c-0.3,0.3-0.6,0.6-0.9,0.8l-0.1,0.1l-0.6,0.5
	c-0.8,0.7-1,1.7-0.7,2.7c0.6,1.6,0.6,3.1,0.1,3.7c-1,1-4.5,0.4-7.6-2.7c-1.5-1.5-2.6-3.3-3.1-5C394.3,15.2,394.4,14.2,394.9,13.7z
	 M358.5,72C358.5,72,358.4,72.1,358.5,72c-0.5,0.5-1,0.7-1.5,0.7c-0.1,0-0.1,0-0.2,0l0,0l0,0c-0.6,0-1.2-0.2-1.6-0.7l0,0
	c0,0,0,0,0,0l-8-8.1c-0.1-0.1-0.2-0.2-0.3-0.4l0,0l0,0c-0.1-0.1-0.1-0.2-0.1-0.3c0,0,0-0.1,0-0.1c-0.1-0.3-0.2-0.6-0.2-1
	c0-0.6,0.3-1.2,0.7-1.7l21.2-20.3c-10.2-6.7-21.6-4.9-35.6,5.6l1.3,1.3c4.4,4.4,4.4,11.6,0,16.1l-5.2,5.2c-4.4,4.4-11.6,4.4-16,0
	l-2.3-2.3c-7.5,6.9-13.8,13-14,20.4c-0.1,5.1,2.7,11,8.5,17.8l12.5-14.1c0.5-0.5,1.1-0.8,1.7-0.8c0,0,0.1,0,0.1,0
	c0.6,0,1.2,0.2,1.6,0.7l8.1,8c0.3,0.3,0.6,0.8,0.7,1.2c0.1,0.5,0,1.1-0.2,1.5c-0.1,0.3-0.3,0.5-0.6,0.7l-14.2,12.5
	c6.8,5.9,12.8,8.7,17.8,8.5c7.4-0.2,13.5-6.4,20.4-14l-2.3-2.3c-2.1-2.1-3.3-5-3.3-8c0-3,1.2-5.9,3.3-8l5.2-5.2c2.1-2.1,5-3.3,8-3.3
	s5.9,1.2,8,3.3l1.3,1.3c10.3-13.7,12-25.1,5.5-35.4L358.5,72z"/>
<path class="st4" d="M364.8,118.1c-0.4,0.4-0.6,0.9-0.7,1.5c0,0.1,0,0.2,0,0.4c0,0.1,0,0.2,0,0.3l1.3,8.8l-9.5,9.6
	c-0.9,0.9-0.9,2.4,0,3.4c0.5,0.5,1.1,0.7,1.7,0.7c0.6,0,1.2-0.2,1.7-0.7l70.8-71c0.5-0.5,0.8-1.3,0.7-2l-1.5-9.9
	c-0.1-0.5-0.3-1-0.7-1.3c-0.9-0.9-2.4-0.9-3.4,0L364.8,118.1z M425.8,68.3l-56.2,56.4l-0.6-4.1l56.2-56.3L425.8,68.3z"/>
<path class="st9" d="M332.4,79.4c-1.5,0-2.9-0.4-4-0.9c-1.2-0.5-1.7-1.9-1.2-3.1c0.5-1.2,2-1.7,3.1-1.2l0,0c0.9,0.4,3.8,1.7,8.4-3.1
	c0.9-0.9,2.4-1,3.4,0c0.9,0.9,1,2.4,0,3.4C338.5,78.3,335.1,79.4,332.4,79.4z"/>
<path class="st9" d="M340.5,90.7c0.4,0.9,1.3,1.4,2.2,1.4c0.3,0,0.7-0.1,1-0.2c1.2-0.5,1.7-1.9,1.2-3.1c-0.4-0.9-1.7-3.7,3.1-8.4
	c0.9-0.9,1-2.4,0-3.4c-0.9-0.9-2.4-1-3.4,0C338.7,82.7,339.1,87.6,340.5,90.7z"/>
<path class="st9" d="M400,28.5c1.3,0.5,2.6,0.8,3.9,0.8c1.9,0,3.5-0.6,4.8-1.8c1.6-1.7,2.1-4.3,1.5-7.1c0.2-0.2,0.5-0.4,0.7-0.6
	c2.1-2.1,3.6-4.7,4.3-7.2c0.7-2.9,0.2-5.5-1.5-7.1c-1.7-1.7-4.3-2.3-7.2-1.5c-2.5,0.6-5,2.1-7.1,4.2c-0.2,0.2-0.5,0.5-0.7,0.7
	c-2.8-0.7-5.4-0.2-7.1,1.5c-1.7,1.7-2.3,4.3-1.5,7.2c0.1,0.5,0.3,1,0.5,1.5l-18.6,17.8c-12.7-9-27.2-6.8-44.2,6.9
	c-0.5,0.4-0.8,1.1-0.9,1.7c0,0.7,0.2,1.3,0.7,1.8l3.2,3.2c1.2,1.2,1.9,2.9,1.9,4.7c0,1.8-0.7,3.4-1.9,4.7l-5.2,5.2
	c-2.6,2.6-6.8,2.6-9.3,0l-3.9-3.9c-0.9-0.9-2.3-0.9-3.3-0.1c-8.7,7.9-16.9,15.4-17.2,25.4c-0.2,6.9,3.4,14.2,11.2,22.9
	c0.1,0.2,0.3,0.3,0.4,0.5c0,0,0.1,0.1,0.1,0.1c0.4,0.4,0.7,0.8,1.1,1.2l-2.5,2.5c-0.9,0.9-0.9,2.4,0,3.4c0.5,0.5,1.1,0.7,1.7,0.7
	c0.6,0,1.2-0.2,1.7-0.7l2.5-2.5c0.4,0.4,0.8,0.8,1.2,1.1c0,0,0.1,0.1,0.1,0.1c0.1,0.2,0.3,0.3,0.5,0.4c8.4,7.7,15.6,11.3,22.4,11.3
	c0.2,0,0.3,0,0.5,0c10-0.2,17.4-8.5,25.3-17.2c0.9-0.9,0.8-2.4-0.1-3.3L354,103c-1.2-1.2-1.9-2.9-1.9-4.7c0-1.8,0.7-3.4,1.9-4.7
	l5.2-5.2c2.5-2.5,6.8-2.5,9.3,0l3.2,3.2c0.5,0.5,1.1,0.7,1.8,0.7c0.7,0,1.3-0.4,1.7-0.9c13.3-16.8,15.5-31.2,6.8-44L400,28.5z
	 M309.8,109.4c0.5,0.5,1,1,1.4,1.4l12.7-11.2l-4.5-4.4l-11.1,12.7C308.7,108.4,309.2,108.9,309.8,109.4
	C309.7,109.4,309.7,109.4,309.8,109.4C309.7,109.4,309.7,109.4,309.8,109.4C309.7,109.4,309.8,109.4,309.8,109.4z M395.8,26.1
	c-0.5-0.4-1-0.8-1.5-1.3c-0.5-0.5-0.9-1-1.3-1.5l-40.8,39l4.6,4.6l20.5-21.5c0.1-0.1,0.1-0.1,0.2-0.2L395.8,26.1z M394.9,13.7
	c0.3-0.3,0.7-0.4,1.3-0.4c0.7,0,1.5,0.2,2.3,0.5c1,0.4,2.2,0.1,2.8-0.8c0.4-0.5,0.8-1,1.4-1.6c1.5-1.5,3.3-2.6,4.9-3
	c1.2-0.3,2.2-0.2,2.7,0.3c0.5,0.5,0.5,1.4,0.2,2.6c-0.4,1.6-1.5,3.5-3,5c-0.3,0.3-0.6,0.6-0.9,0.8l-0.1,0.1l-0.6,0.5
	c-0.8,0.7-1,1.7-0.7,2.7c0.6,1.6,0.6,3.1,0.1,3.7c-1,1-4.5,0.4-7.6-2.7c-1.5-1.5-2.6-3.3-3.1-5C394.3,15.2,394.4,14.2,394.9,13.7z
	 M358.5,72C358.5,72,358.4,72.1,358.5,72c-0.5,0.5-1,0.7-1.5,0.7c-0.1,0-0.1,0-0.2,0l0,0l0,0c-0.6,0-1.2-0.2-1.6-0.7l0,0
	c0,0,0,0,0,0l-8-8.1c-0.1-0.1-0.2-0.2-0.3-0.4l0,0l0,0c-0.1-0.1-0.1-0.2-0.1-0.3c0,0,0-0.1,0-0.1c-0.1-0.3-0.2-0.6-0.2-1
	c0-0.6,0.3-1.2,0.7-1.7l21.2-20.3c-10.2-6.7-21.6-4.9-35.6,5.6l1.3,1.3c4.4,4.4,4.4,11.6,0,16.1l-5.2,5.2c-4.4,4.4-11.6,4.4-16,0
	l-2.3-2.3c-7.5,6.9-13.8,13-14,20.4c-0.1,5.1,2.7,11,8.5,17.8l12.5-14.1c0.5-0.5,1.1-0.8,1.7-0.8c0,0,0.1,0,0.1,0
	c0.6,0,1.2,0.2,1.6,0.7l8.1,8c0.3,0.3,0.6,0.8,0.7,1.2c0.1,0.5,0,1.1-0.2,1.5c-0.1,0.3-0.3,0.5-0.6,0.7l-14.2,12.5
	c6.8,5.9,12.8,8.7,17.8,8.5c7.4-0.2,13.5-6.4,20.4-14l-2.3-2.3c-2.1-2.1-3.3-5-3.3-8c0-3,1.2-5.9,3.3-8l5.2-5.2c2.1-2.1,5-3.3,8-3.3
	s5.9,1.2,8,3.3l1.3,1.3c10.3-13.7,12-25.1,5.5-35.4L358.5,72z"/>
<path class="st9" d="M364.8,118.1c-0.4,0.4-0.6,0.9-0.7,1.5c0,0.1,0,0.2,0,0.4c0,0.1,0,0.2,0,0.3l1.3,8.8l-9.5,9.6
	c-0.9,0.9-0.9,2.4,0,3.4c0.5,0.5,1.1,0.7,1.7,0.7c0.6,0,1.2-0.2,1.7-0.7l70.8-71c0.5-0.5,0.8-1.3,0.7-2l-1.5-9.9
	c-0.1-0.5-0.3-1-0.7-1.3c-0.9-0.9-2.4-0.9-3.4,0L364.8,118.1z M425.8,68.3l-56.2,56.4l-0.6-4.1l56.2-56.3L425.8,68.3z"/>
</svg>
