<svg width="586" height="167" viewBox="0 0 586 167" fill="none" xmlns="http://www.w3.org/2000/svg">
<mask id="path-1-inside-1" fill="white">
<path fill-rule="evenodd" clip-rule="evenodd" d="M12 58.802C12 61.7674 13.9058 64.8996 17.4676 65.5009C27.0531 74.5735 33.7112 86.7711 37.2657 101.769C37.2699 101.787 37.2743 101.805 37.2789 101.823V136.093V136.093C37.2789 151.216 44.2328 164.744 55.1062 173.638C55.3193 173.903 55.5896 174.121 55.8984 174.272C64.115 180.712 74.4544 184.555 85.6728 184.555L85.7825 184.555H135.534V185.25C135.534 186.53 136.573 187.569 137.854 187.569C139.135 187.569 140.174 186.53 140.174 185.25V182.313C140.175 182.287 140.175 182.261 140.175 182.235C140.175 182.21 140.175 182.184 140.174 182.158V179.221C140.174 177.94 139.135 176.902 137.854 176.902C136.573 176.902 135.534 177.94 135.534 179.221V179.916H106.359C122.768 172.142 134.144 155.421 134.144 136.093C134.144 109.371 112.398 87.6315 85.6728 87.6315C74.4553 87.6315 64.1166 91.4737 55.9003 97.9129C55.59 98.0644 55.3186 98.283 55.1049 98.5498C49.5526 103.092 45.0224 108.842 41.9183 115.395V101.235C41.9183 101.222 41.9182 101.21 41.918 101.197C45.5794 86.4369 52.2149 74.4331 61.6526 65.4989C63.1545 65.2424 64.4717 64.5222 65.446 63.4098C66.5247 62.1743 67.1186 60.538 67.1186 58.8019C67.1186 55.5042 64.7616 52 60.3939 52H18.7274C16.706 52 14.9109 52.7802 13.6752 54.1941C12.5939 55.4296 12 57.0659 12 58.802ZM18.7274 56.6385C16.7885 56.6385 16.6394 58.2947 16.6394 58.8019C16.6394 59.3092 16.7885 60.9654 18.7274 60.9654H60.3939C62.33 60.9654 62.4819 59.3092 62.4819 58.8019C62.4819 58.2947 62.3301 56.6385 60.3939 56.6385H18.7274ZM55.0562 65.604H24.0613C30.8558 73.0545 36.0378 82.1466 39.5378 92.7556C43.0787 82.1348 48.2749 73.0426 55.0562 65.604ZM85.7771 179.916C109.898 179.86 129.505 160.223 129.505 136.093C129.505 111.929 109.842 92.27 85.6728 92.27C75.7485 92.27 66.5853 95.5964 59.2363 101.195V106.504C66.4938 100.054 75.8563 96.4422 85.6735 96.4422C107.541 96.4422 125.332 114.229 125.332 136.093C125.332 157.957 107.541 175.744 85.6735 175.744C75.8542 175.744 66.4932 172.132 59.2363 165.681V170.992C66.5799 176.586 75.735 179.911 85.6509 179.916L85.6744 179.916H85.7771ZM59.2363 159.117C65.9511 166.747 75.5373 171.105 85.6735 171.105C104.982 171.105 120.693 155.399 120.693 136.093C120.693 116.787 104.982 101.081 85.6735 101.081C75.5373 101.081 65.9511 105.439 59.2363 113.068V118.547H67.0182C67.5802 112.567 72.4807 109.447 77.3247 109.447C82.1687 109.447 87.0693 112.567 87.6313 118.547H95.5673V117.465C95.5673 116.184 96.606 115.146 97.887 115.146C99.168 115.146 100.207 116.184 100.207 117.465V120.797C100.207 120.82 100.208 120.843 100.208 120.866C100.208 120.889 100.207 120.912 100.207 120.935V124.267C100.207 125.548 99.168 126.586 97.887 126.586C96.606 126.586 95.5673 125.548 95.5673 124.267V123.185H87.6848V133.773H95.5673V132.691C95.5673 131.41 96.606 130.372 97.887 130.372C99.168 130.372 100.207 131.41 100.207 132.691V136.024C100.207 136.047 100.208 136.07 100.208 136.093C100.208 136.116 100.207 136.139 100.207 136.162V139.493C100.207 140.774 99.168 141.812 97.887 141.812C96.606 141.812 95.5673 140.774 95.5673 139.493V138.412H87.6848V148.999H95.5673V147.918C95.5673 146.637 96.606 145.599 97.887 145.599C99.168 145.599 100.207 146.637 100.207 147.918V151.25C100.207 151.273 100.208 151.296 100.208 151.319C100.208 151.342 100.207 151.365 100.207 151.388V154.643C100.207 155.924 99.168 156.962 97.887 156.962C96.606 156.962 95.5673 155.924 95.5673 154.643V153.638H87.6313C87.0693 159.618 82.1687 162.738 77.3247 162.738C74.6562 162.738 72.1474 161.828 70.2671 160.176C68.9127 158.988 67.3259 156.923 67.018 153.638H59.2363V159.117ZM82.9526 118.547C82.4384 115.475 79.8709 114.084 77.3247 114.084C74.7786 114.084 72.2111 115.475 71.6969 118.547H82.9526ZM83.0454 123.185V133.773H71.6041V123.185H83.0454ZM66.9647 123.185H59.2363V133.773H66.9647V123.185ZM54.5969 120.866V105.272C46.7629 113.195 41.9183 124.088 41.9183 136.093C41.9183 148.098 46.7629 158.991 54.5969 166.914V151.319V136.093V120.866ZM59.2363 148.999H66.9647V138.412H59.2363V148.999ZM71.6969 153.638C72.2111 156.71 74.7786 158.101 77.3247 158.101C79.8709 158.101 82.4384 156.71 82.9526 153.638H71.6969ZM83.0454 148.999H71.6041V138.412H83.0454V148.999Z"/>
</mask>
<path fill-rule="evenodd" clip-rule="evenodd" d="M12 58.802C12 61.7674 13.9058 64.8996 17.4676 65.5009C27.0531 74.5735 33.7112 86.7711 37.2657 101.769C37.2699 101.787 37.2743 101.805 37.2789 101.823V136.093V136.093C37.2789 151.216 44.2328 164.744 55.1062 173.638C55.3193 173.903 55.5896 174.121 55.8984 174.272C64.115 180.712 74.4544 184.555 85.6728 184.555L85.7825 184.555H135.534V185.25C135.534 186.53 136.573 187.569 137.854 187.569C139.135 187.569 140.174 186.53 140.174 185.25V182.313C140.175 182.287 140.175 182.261 140.175 182.235C140.175 182.21 140.175 182.184 140.174 182.158V179.221C140.174 177.94 139.135 176.902 137.854 176.902C136.573 176.902 135.534 177.94 135.534 179.221V179.916H106.359C122.768 172.142 134.144 155.421 134.144 136.093C134.144 109.371 112.398 87.6315 85.6728 87.6315C74.4553 87.6315 64.1166 91.4737 55.9003 97.9129C55.59 98.0644 55.3186 98.283 55.1049 98.5498C49.5526 103.092 45.0224 108.842 41.9183 115.395V101.235C41.9183 101.222 41.9182 101.21 41.918 101.197C45.5794 86.4369 52.2149 74.4331 61.6526 65.4989C63.1545 65.2424 64.4717 64.5222 65.446 63.4098C66.5247 62.1743 67.1186 60.538 67.1186 58.8019C67.1186 55.5042 64.7616 52 60.3939 52H18.7274C16.706 52 14.9109 52.7802 13.6752 54.1941C12.5939 55.4296 12 57.0659 12 58.802ZM18.7274 56.6385C16.7885 56.6385 16.6394 58.2947 16.6394 58.8019C16.6394 59.3092 16.7885 60.9654 18.7274 60.9654H60.3939C62.33 60.9654 62.4819 59.3092 62.4819 58.8019C62.4819 58.2947 62.3301 56.6385 60.3939 56.6385H18.7274ZM55.0562 65.604H24.0613C30.8558 73.0545 36.0378 82.1466 39.5378 92.7556C43.0787 82.1348 48.2749 73.0426 55.0562 65.604ZM85.7771 179.916C109.898 179.86 129.505 160.223 129.505 136.093C129.505 111.929 109.842 92.27 85.6728 92.27C75.7485 92.27 66.5853 95.5964 59.2363 101.195V106.504C66.4938 100.054 75.8563 96.4422 85.6735 96.4422C107.541 96.4422 125.332 114.229 125.332 136.093C125.332 157.957 107.541 175.744 85.6735 175.744C75.8542 175.744 66.4932 172.132 59.2363 165.681V170.992C66.5799 176.586 75.735 179.911 85.6509 179.916L85.6744 179.916H85.7771ZM59.2363 159.117C65.9511 166.747 75.5373 171.105 85.6735 171.105C104.982 171.105 120.693 155.399 120.693 136.093C120.693 116.787 104.982 101.081 85.6735 101.081C75.5373 101.081 65.9511 105.439 59.2363 113.068V118.547H67.0182C67.5802 112.567 72.4807 109.447 77.3247 109.447C82.1687 109.447 87.0693 112.567 87.6313 118.547H95.5673V117.465C95.5673 116.184 96.606 115.146 97.887 115.146C99.168 115.146 100.207 116.184 100.207 117.465V120.797C100.207 120.82 100.208 120.843 100.208 120.866C100.208 120.889 100.207 120.912 100.207 120.935V124.267C100.207 125.548 99.168 126.586 97.887 126.586C96.606 126.586 95.5673 125.548 95.5673 124.267V123.185H87.6848V133.773H95.5673V132.691C95.5673 131.41 96.606 130.372 97.887 130.372C99.168 130.372 100.207 131.41 100.207 132.691V136.024C100.207 136.047 100.208 136.07 100.208 136.093C100.208 136.116 100.207 136.139 100.207 136.162V139.493C100.207 140.774 99.168 141.812 97.887 141.812C96.606 141.812 95.5673 140.774 95.5673 139.493V138.412H87.6848V148.999H95.5673V147.918C95.5673 146.637 96.606 145.599 97.887 145.599C99.168 145.599 100.207 146.637 100.207 147.918V151.25C100.207 151.273 100.208 151.296 100.208 151.319C100.208 151.342 100.207 151.365 100.207 151.388V154.643C100.207 155.924 99.168 156.962 97.887 156.962C96.606 156.962 95.5673 155.924 95.5673 154.643V153.638H87.6313C87.0693 159.618 82.1687 162.738 77.3247 162.738C74.6562 162.738 72.1474 161.828 70.2671 160.176C68.9127 158.988 67.3259 156.923 67.018 153.638H59.2363V159.117ZM82.9526 118.547C82.4384 115.475 79.8709 114.084 77.3247 114.084C74.7786 114.084 72.2111 115.475 71.6969 118.547H82.9526ZM83.0454 123.185V133.773H71.6041V123.185H83.0454ZM66.9647 123.185H59.2363V133.773H66.9647V123.185ZM54.5969 120.866V105.272C46.7629 113.195 41.9183 124.088 41.9183 136.093C41.9183 148.098 46.7629 158.991 54.5969 166.914V151.319V136.093V120.866ZM59.2363 148.999H66.9647V138.412H59.2363V148.999ZM71.6969 153.638C72.2111 156.71 74.7786 158.101 77.3247 158.101C79.8709 158.101 82.4384 156.71 82.9526 153.638H71.6969ZM83.0454 148.999H71.6041V138.412H83.0454V148.999Z" fill="#FF4284"/>
<path d="M17.4676 65.5009L18.155 64.7746L17.934 64.5655L17.6341 64.5148L17.4676 65.5009ZM37.2657 101.769L38.2392 101.541L38.2388 101.539L37.2657 101.769ZM37.2789 101.823H38.2789V101.695L38.2468 101.571L37.2789 101.823ZM55.1062 173.638L55.8862 173.012L55.8205 172.93L55.7394 172.863L55.1062 173.638ZM55.8984 174.272L56.5153 173.485L56.4324 173.42L56.3379 173.374L55.8984 174.272ZM85.6728 184.555V185.555H85.6739L85.6728 184.555ZM85.7825 184.555V183.555H85.7814L85.7825 184.555ZM135.534 184.555H136.534V183.555H135.534V184.555ZM140.174 182.313L139.174 182.28L139.174 182.296V182.313H140.174ZM140.174 182.158H139.174V182.174L139.174 182.191L140.174 182.158ZM135.534 179.916V180.916H136.534V179.916H135.534ZM106.359 179.916L105.931 179.012L106.359 180.916V179.916ZM55.9003 97.9129L56.339 98.8116L56.4339 98.7652L56.5171 98.7L55.9003 97.9129ZM55.1049 98.5498L55.7381 99.3238L55.8196 99.2571L55.8854 99.1749L55.1049 98.5498ZM41.9183 115.395H40.9183L42.8221 115.823L41.9183 115.395ZM41.918 101.197L40.9474 100.956L40.916 101.083L40.9181 101.213L41.918 101.197ZM61.6526 65.4989L61.4842 64.5132L61.1853 64.5642L60.9651 64.7727L61.6526 65.4989ZM65.446 63.4098L66.1983 64.0687L66.1993 64.0675L65.446 63.4098ZM13.6752 54.1941L14.4277 54.8527L14.4281 54.8522L13.6752 54.1941ZM24.0613 65.604V64.604H21.796L23.3224 66.2778L24.0613 65.604ZM55.0562 65.604L55.7952 66.2777L57.321 64.604H55.0562V65.604ZM39.5378 92.7556L38.5881 93.0689L39.5328 95.9323L40.4864 93.0719L39.5378 92.7556ZM85.7771 179.916V180.916H85.7795L85.7771 179.916ZM59.2363 101.195L58.6303 100.399L58.2363 100.699V101.195H59.2363ZM59.2363 106.504H58.2363V108.731L59.9006 107.251L59.2363 106.504ZM59.2363 165.681L59.9007 164.934L58.2363 163.454V165.681H59.2363ZM59.2363 170.992H58.2363V171.487L58.6303 171.787L59.2363 170.992ZM85.6509 179.916L85.6504 180.916L85.6558 180.916L85.6509 179.916ZM85.6744 179.916V178.916L85.6696 178.916L85.6744 179.916ZM59.2363 159.117H58.2363V159.494L58.4856 159.777L59.2363 159.117ZM59.2363 113.068L58.4857 112.407L58.2363 112.69V113.068H59.2363ZM59.2363 118.547H58.2363V119.547H59.2363V118.547ZM67.0182 118.547V119.547H67.9286L68.0138 118.64L67.0182 118.547ZM87.6313 118.547L86.6357 118.64L86.7209 119.547H87.6313V118.547ZM95.5673 118.547V119.547H96.5673V118.547H95.5673ZM100.207 120.797H99.2067V120.812L99.2071 120.826L100.207 120.797ZM100.207 120.935L99.2071 120.906L99.2067 120.92V120.935H100.207ZM95.5673 123.185H96.5673V122.185H95.5673V123.185ZM87.6848 123.185V122.185H86.6848V123.185H87.6848ZM87.6848 133.773H86.6848V134.773H87.6848V133.773ZM95.5673 133.773V134.773H96.5673V133.773H95.5673ZM100.207 136.024H99.2067V136.038L99.2071 136.053L100.207 136.024ZM100.207 136.162L99.2071 136.132L99.2067 136.147V136.162H100.207ZM95.5673 138.412H96.5673V137.412H95.5673V138.412ZM87.6848 138.412V137.412H86.6848V138.412H87.6848ZM87.6848 148.999H86.6848V149.999H87.6848V148.999ZM95.5673 148.999V149.999H96.5673V148.999H95.5673ZM100.207 151.25H99.2067V151.264L99.2071 151.279L100.207 151.25ZM100.207 151.388L99.2071 151.358L99.2067 151.373V151.388H100.207ZM95.5673 153.638H96.5673V152.638H95.5673V153.638ZM87.6313 153.638V152.638H86.7209L86.6357 153.544L87.6313 153.638ZM70.2671 160.176L70.9272 159.425L70.9265 159.424L70.2671 160.176ZM67.018 153.638L68.0136 153.545L67.9286 152.638H67.018V153.638ZM59.2363 153.638V152.638H58.2363V153.638H59.2363ZM82.9526 118.547V119.547H84.1338L83.9388 118.382L82.9526 118.547ZM71.6969 118.547L70.7107 118.382L70.5156 119.547H71.6969V118.547ZM83.0454 133.773V134.773H84.0454V133.773H83.0454ZM83.0454 123.185H84.0454V122.185H83.0454V123.185ZM71.6041 133.773H70.6041V134.773H71.6041V133.773ZM71.6041 123.185V122.185H70.6041V123.185H71.6041ZM59.2363 123.185V122.185H58.2363V123.185H59.2363ZM66.9647 123.185H67.9647V122.185H66.9647V123.185ZM59.2363 133.773H58.2363V134.773H59.2363V133.773ZM66.9647 133.773V134.773H67.9647V133.773H66.9647ZM54.5969 105.272H55.5969V102.839L53.8858 104.569L54.5969 105.272ZM54.5969 166.914L53.8858 167.617L55.5969 169.348V166.914H54.5969ZM66.9647 148.999V149.999H67.9647V148.999H66.9647ZM59.2363 148.999H58.2363V149.999H59.2363V148.999ZM66.9647 138.412H67.9647V137.412H66.9647V138.412ZM59.2363 138.412V137.412H58.2363V138.412H59.2363ZM71.6969 153.638V152.638H70.5156L70.7107 153.803L71.6969 153.638ZM82.9526 153.638L83.9388 153.803L84.1339 152.638H82.9526V153.638ZM71.6041 148.999H70.6041V149.999H71.6041V148.999ZM83.0454 148.999V149.999H84.0454V148.999H83.0454ZM71.6041 138.412V137.412H70.6041V138.412H71.6041ZM83.0454 138.412H84.0454V137.412H83.0454V138.412ZM17.6341 64.5148C14.6503 64.0111 13 61.3845 13 58.802H11C11 62.1502 13.1613 65.7881 17.3011 66.4869L17.6341 64.5148ZM38.2388 101.539C34.647 86.3835 27.9044 74.0024 18.155 64.7746L16.7802 66.2272C26.2017 75.1446 32.7753 87.1587 36.2927 102L38.2388 101.539ZM38.2468 101.571C38.2442 101.561 38.2417 101.551 38.2392 101.541L36.2922 101.998C36.2982 102.023 36.3045 102.049 36.3111 102.074L38.2468 101.571ZM38.2789 136.093V101.823H36.2789V136.093H38.2789ZM38.2789 136.093V136.093H36.2789V136.093H38.2789ZM55.7394 172.863C45.0875 164.151 38.2789 150.903 38.2789 136.093H36.2789C36.2789 151.53 43.378 165.336 54.4731 174.412L55.7394 172.863ZM56.3379 173.374C56.1625 173.288 56.0081 173.164 55.8862 173.012L54.3262 174.263C54.6305 174.642 55.0166 174.954 55.4589 175.17L56.3379 173.374ZM85.6728 183.555C74.6868 183.555 64.5628 179.792 56.5153 173.485L55.2815 175.059C63.6672 181.632 74.2221 185.555 85.6728 185.555V183.555ZM85.7814 183.555L85.6717 183.555L85.6739 185.555L85.7836 185.555L85.7814 183.555ZM135.534 183.555H85.7825V185.555H135.534V183.555ZM136.534 185.25V184.555H134.534V185.25H136.534ZM137.854 186.569C137.125 186.569 136.534 185.978 136.534 185.25H134.534C134.534 187.083 136.021 188.569 137.854 188.569V186.569ZM139.174 185.25C139.174 185.978 138.583 186.569 137.854 186.569V188.569C139.687 188.569 141.174 187.083 141.174 185.25H139.174ZM139.174 182.313V185.25H141.174V182.313H139.174ZM139.175 182.235C139.175 182.25 139.175 182.265 139.174 182.28L141.173 182.345C141.175 182.309 141.175 182.272 141.175 182.235H139.175ZM139.174 182.191C139.175 182.206 139.175 182.221 139.175 182.235H141.175C141.175 182.199 141.175 182.162 141.173 182.125L139.174 182.191ZM139.174 179.221V182.158H141.174V179.221H139.174ZM137.854 177.902C138.583 177.902 139.174 178.493 139.174 179.221H141.174C141.174 177.388 139.687 175.902 137.854 175.902V177.902ZM136.534 179.221C136.534 178.493 137.125 177.902 137.854 177.902V175.902C136.021 175.902 134.534 177.388 134.534 179.221H136.534ZM136.534 179.916V179.221H134.534V179.916H136.534ZM106.359 180.916H135.534V178.916H106.359V180.916ZM133.144 136.093C133.144 155.019 122.005 171.397 105.931 179.012L106.787 180.82C123.531 172.887 135.144 155.823 135.144 136.093H133.144ZM85.6728 88.6315C111.846 88.6315 133.144 109.924 133.144 136.093H135.144C135.144 108.819 112.951 86.6315 85.6728 86.6315V88.6315ZM56.5171 98.7C64.5644 92.3933 74.6876 88.6315 85.6728 88.6315V86.6315C74.223 86.6315 63.6688 90.5541 55.2834 97.1258L56.5171 98.7ZM55.8854 99.1749C56.0077 99.0222 56.1628 98.8976 56.339 98.8116L55.4616 97.0143C55.0173 97.2312 54.6295 97.5437 54.3244 97.9247L55.8854 99.1749ZM42.8221 115.823C45.862 109.405 50.2992 103.773 55.7381 99.3238L54.4717 97.7758C48.806 102.41 44.1828 108.278 41.0146 114.967L42.8221 115.823ZM40.9183 101.235V115.395H42.9183V101.235H40.9183ZM40.9181 101.213C40.9183 101.22 40.9183 101.227 40.9183 101.235H42.9183C42.9183 101.217 42.9182 101.199 42.9179 101.181L40.9181 101.213ZM60.9651 64.7727C51.3663 73.8594 44.6469 86.0428 40.9474 100.956L42.8886 101.438C46.512 86.831 53.0635 75.0068 62.34 66.2251L60.9651 64.7727ZM64.6938 62.7509C63.8779 63.6824 62.7706 64.2934 61.4842 64.5132L61.8209 66.4846C63.5383 66.1913 65.0655 65.362 66.1983 64.0687L64.6938 62.7509ZM66.1186 58.8019C66.1186 60.3116 65.6024 61.7101 64.6927 62.7521L66.1993 64.0675C67.4469 62.6385 68.1186 60.7645 68.1186 58.8019H66.1186ZM60.3939 53C64.0942 53 66.1186 55.9339 66.1186 58.8019H68.1186C68.1186 55.0745 65.429 51 60.3939 51V53ZM18.7274 53H60.3939V51H18.7274V53ZM14.4281 54.8522C15.4584 53.6734 16.97 53 18.7274 53V51C16.442 51 14.3635 51.887 12.9222 53.536L14.4281 54.8522ZM13 58.802C13 57.2924 13.516 55.8944 14.4277 54.8527L12.9227 53.5355C11.6718 54.9649 11 56.8394 11 58.802H13ZM17.6394 58.8019C17.6394 58.6135 17.6729 58.2852 17.8192 58.0354C17.8835 57.9255 17.965 57.8385 18.0779 57.7742C18.1914 57.7096 18.3884 57.6385 18.7274 57.6385V55.6385C17.4074 55.6385 16.5547 56.237 16.0934 57.0246C15.6805 57.7297 15.6394 58.4832 15.6394 58.8019H17.6394ZM18.7274 59.9654C18.3884 59.9654 18.1914 59.8943 18.0779 59.8297C17.965 59.7654 17.8835 59.6784 17.8192 59.5685C17.6729 59.3187 17.6394 58.9904 17.6394 58.8019H15.6394C15.6394 59.1207 15.6805 59.8742 16.0934 60.5793C16.5547 61.3669 17.4074 61.9654 18.7274 61.9654V59.9654ZM60.3939 59.9654H18.7274V61.9654H60.3939V59.9654ZM61.4819 58.8019C61.4819 58.9891 61.4481 59.3178 61.3013 59.5681C61.2367 59.6782 61.155 59.7654 61.042 59.8298C60.9286 59.8944 60.7319 59.9654 60.3939 59.9654V61.9654C61.713 61.9654 62.5652 61.3665 63.0266 60.5797C63.4397 59.8751 63.4819 59.122 63.4819 58.8019H61.4819ZM60.3939 57.6385C60.7319 57.6385 60.9286 57.7095 61.042 57.7741C61.155 57.8385 61.2367 57.9257 61.3013 58.0358C61.4481 58.2861 61.4819 58.6147 61.4819 58.8019H63.4819C63.4819 58.4819 63.4398 57.7288 63.0266 57.0242C62.5652 56.2373 61.713 55.6385 60.3939 55.6385V57.6385ZM18.7274 57.6385H60.3939V55.6385H18.7274V57.6385ZM24.0613 66.604H55.0562V64.604H24.0613V66.604ZM40.4874 92.4423C36.9482 81.7142 31.6993 72.4955 24.8002 64.9302L23.3224 66.2778C30.0122 73.6136 35.1274 82.579 38.5881 93.0689L40.4874 92.4423ZM54.3172 64.9303C47.4318 72.4832 42.1692 81.7011 38.5891 92.4393L40.4864 93.0719C43.9882 82.5686 49.1181 73.6021 55.7952 66.2777L54.3172 64.9303ZM128.505 136.093C128.505 159.671 109.345 178.861 85.7748 178.916L85.7795 180.916C110.452 180.858 130.505 160.774 130.505 136.093H128.505ZM85.6728 93.27C109.29 93.27 128.505 112.481 128.505 136.093H130.505C130.505 111.376 110.394 91.27 85.6728 91.27V93.27ZM59.8423 101.99C67.0238 96.5195 75.9757 93.27 85.6728 93.27V91.27C75.5213 91.27 66.1468 94.6734 58.6303 100.399L59.8423 101.99ZM60.2363 106.504V101.195H58.2363V106.504H60.2363ZM59.9006 107.251C66.9767 100.962 76.1034 97.4422 85.6735 97.4422V95.4422C75.6092 95.4422 66.0109 99.1451 58.572 105.757L59.9006 107.251ZM85.6735 97.4422C106.989 97.4422 124.332 114.782 124.332 136.093H126.332C126.332 113.677 108.094 95.4422 85.6735 95.4422V97.4422ZM124.332 136.093C124.332 157.404 106.989 174.744 85.6735 174.744V176.744C108.094 176.744 126.332 158.509 126.332 136.093H124.332ZM85.6735 174.744C76.1013 174.744 66.9762 171.223 59.9007 164.934L58.5719 166.429C66.0102 173.041 75.6071 176.744 85.6735 176.744V174.744ZM60.2363 170.992V165.681H58.2363V170.992H60.2363ZM85.6514 178.916C75.9625 178.912 67.0185 175.663 59.8423 170.196L58.6303 171.787C66.1412 177.509 75.5075 180.911 85.6504 180.916L85.6514 178.916ZM85.6696 178.916L85.6461 178.916L85.6558 180.916L85.6793 180.916L85.6696 178.916ZM85.7771 178.916H85.6744V180.916H85.7771V178.916ZM58.4856 159.777C65.3889 167.621 75.2478 172.105 85.6735 172.105V170.105C75.8268 170.105 66.5134 165.872 59.987 158.456L58.4856 159.777ZM85.6735 172.105C105.534 172.105 121.693 155.951 121.693 136.093H119.693C119.693 154.846 104.43 170.105 85.6735 170.105V172.105ZM121.693 136.093C121.693 116.234 105.534 100.081 85.6735 100.081V102.081C104.43 102.081 119.693 117.339 119.693 136.093H121.693ZM85.6735 100.081C75.2478 100.081 65.3889 104.564 58.4857 112.407L59.9869 113.729C66.5133 106.314 75.8267 102.081 85.6735 102.081V100.081ZM60.2363 118.547V113.068H58.2363V118.547H60.2363ZM67.0182 117.547H59.2363V119.547H67.0182V117.547ZM77.3247 108.447C72.0795 108.447 66.6429 111.853 66.0226 118.453L68.0138 118.64C68.5174 113.281 72.882 110.447 77.3247 110.447V108.447ZM88.6269 118.453C88.0066 111.853 82.57 108.447 77.3247 108.447V110.447C81.7675 110.447 86.132 113.281 86.6357 118.64L88.6269 118.453ZM95.5673 117.547H87.6313V119.547H95.5673V117.547ZM94.5673 117.465V118.547H96.5673V117.465H94.5673ZM97.887 114.146C96.0539 114.146 94.5673 115.632 94.5673 117.465H96.5673C96.5673 116.737 97.1581 116.146 97.887 116.146V114.146ZM101.207 117.465C101.207 115.632 99.7201 114.146 97.887 114.146V116.146C98.6159 116.146 99.2067 116.737 99.2067 117.465H101.207ZM101.207 120.797V117.465H99.2067V120.797H101.207ZM101.208 120.866C101.208 120.833 101.207 120.801 101.206 120.768L99.2071 120.826C99.2075 120.84 99.2077 120.853 99.2077 120.866H101.208ZM101.206 120.964C101.207 120.932 101.208 120.899 101.208 120.866H99.2077C99.2077 120.88 99.2075 120.893 99.2071 120.906L101.206 120.964ZM101.207 124.267V120.935H99.2067V124.267H101.207ZM97.887 127.586C99.7201 127.586 101.207 126.1 101.207 124.267H99.2067C99.2067 124.995 98.6159 125.586 97.887 125.586V127.586ZM94.5673 124.267C94.5673 126.1 96.0539 127.586 97.887 127.586V125.586C97.1581 125.586 96.5673 124.995 96.5673 124.267H94.5673ZM94.5673 123.185V124.267H96.5673V123.185H94.5673ZM87.6848 124.185H95.5673V122.185H87.6848V124.185ZM88.6848 133.773V123.185H86.6848V133.773H88.6848ZM95.5673 132.773H87.6848V134.773H95.5673V132.773ZM94.5673 132.691V133.773H96.5673V132.691H94.5673ZM97.887 129.372C96.0539 129.372 94.5673 130.858 94.5673 132.691H96.5673C96.5673 131.963 97.1581 131.372 97.887 131.372V129.372ZM101.207 132.691C101.207 130.858 99.7201 129.372 97.887 129.372V131.372C98.6159 131.372 99.2067 131.963 99.2067 132.691H101.207ZM101.207 136.024V132.691H99.2067V136.024H101.207ZM101.208 136.093C101.208 136.06 101.207 136.027 101.206 135.994L99.2071 136.053C99.2075 136.066 99.2077 136.079 99.2077 136.093H101.208ZM101.206 136.191C101.207 136.158 101.208 136.125 101.208 136.093H99.2077C99.2077 136.106 99.2075 136.119 99.2071 136.132L101.206 136.191ZM101.207 139.493V136.162H99.2067V139.493H101.207ZM97.887 142.812C99.7201 142.812 101.207 141.326 101.207 139.493H99.2067C99.2067 140.221 98.6159 140.812 97.887 140.812V142.812ZM94.5673 139.493C94.5673 141.326 96.0539 142.812 97.887 142.812V140.812C97.1581 140.812 96.5673 140.221 96.5673 139.493H94.5673ZM94.5673 138.412V139.493H96.5673V138.412H94.5673ZM87.6848 139.412H95.5673V137.412H87.6848V139.412ZM88.6848 148.999V138.412H86.6848V148.999H88.6848ZM95.5673 147.999H87.6848V149.999H95.5673V147.999ZM94.5673 147.918V148.999H96.5673V147.918H94.5673ZM97.887 144.599C96.0539 144.599 94.5673 146.085 94.5673 147.918H96.5673C96.5673 147.19 97.1581 146.599 97.887 146.599V144.599ZM101.207 147.918C101.207 146.085 99.7201 144.599 97.887 144.599V146.599C98.6159 146.599 99.2067 147.19 99.2067 147.918H101.207ZM101.207 151.25V147.918H99.2067V151.25H101.207ZM101.208 151.319C101.208 151.286 101.207 151.253 101.206 151.22L99.2071 151.279C99.2075 151.292 99.2077 151.305 99.2077 151.319H101.208ZM101.206 151.417C101.207 151.384 101.208 151.351 101.208 151.319H99.2077C99.2077 151.332 99.2075 151.345 99.2071 151.358L101.206 151.417ZM101.207 154.643V151.388H99.2067V154.643H101.207ZM97.887 157.962C99.7201 157.962 101.207 156.476 101.207 154.643H99.2067C99.2067 155.371 98.6159 155.962 97.887 155.962V157.962ZM94.5673 154.643C94.5673 156.476 96.0539 157.962 97.887 157.962V155.962C97.1581 155.962 96.5673 155.371 96.5673 154.643H94.5673ZM94.5673 153.638V154.643H96.5673V153.638H94.5673ZM87.6313 154.638H95.5673V152.638H87.6313V154.638ZM77.3247 163.738C82.5699 163.738 88.0066 160.332 88.6269 153.732L86.6357 153.544C86.132 158.903 81.7675 161.738 77.3247 161.738V163.738ZM69.6071 160.927C71.6829 162.751 74.4312 163.738 77.3247 163.738V161.738C74.8811 161.738 72.6119 160.905 70.9272 159.425L69.6071 160.927ZM66.0223 153.731C66.3592 157.325 68.1064 159.611 69.6078 160.928L70.9265 159.424C69.7189 158.365 68.2926 156.521 68.0136 153.545L66.0223 153.731ZM59.2363 154.638H67.018V152.638H59.2363V154.638ZM60.2363 159.117V153.638H58.2363V159.117H60.2363ZM77.3247 115.084C79.5329 115.084 81.5553 116.257 81.9663 118.712L83.9388 118.382C83.3215 114.693 80.209 113.084 77.3247 113.084V115.084ZM72.6832 118.712C73.0942 116.257 75.1166 115.084 77.3247 115.084V113.084C74.4405 113.084 71.328 114.693 70.7107 118.382L72.6832 118.712ZM82.9526 117.547H71.6969V119.547H82.9526V117.547ZM84.0454 133.773V123.185H82.0454V133.773H84.0454ZM71.6041 134.773H83.0454V132.773H71.6041V134.773ZM70.6041 123.185V133.773H72.6041V123.185H70.6041ZM83.0454 122.185H71.6041V124.185H83.0454V122.185ZM59.2363 124.185H66.9647V122.185H59.2363V124.185ZM60.2363 133.773V123.185H58.2363V133.773H60.2363ZM66.9647 132.773H59.2363V134.773H66.9647V132.773ZM65.9647 123.185V133.773H67.9647V123.185H65.9647ZM53.5969 105.272V120.866H55.5969V105.272H53.5969ZM42.9183 136.093C42.9183 124.363 47.6511 113.719 55.308 105.975L53.8858 104.569C45.8748 112.671 40.9183 123.814 40.9183 136.093H42.9183ZM55.308 166.211C47.6511 158.467 42.9183 147.824 42.9183 136.093H40.9183C40.9183 148.373 45.8748 159.515 53.8858 167.617L55.308 166.211ZM53.5969 151.319V166.914H55.5969V151.319H53.5969ZM53.5969 136.093V151.319H55.5969V136.093H53.5969ZM53.5969 120.866V136.093H55.5969V120.866H53.5969ZM66.9647 147.999H59.2363V149.999H66.9647V147.999ZM65.9647 138.412V148.999H67.9647V138.412H65.9647ZM59.2363 139.412H66.9647V137.412H59.2363V139.412ZM60.2363 148.999V138.412H58.2363V148.999H60.2363ZM77.3247 157.101C75.1166 157.101 73.0942 155.928 72.6832 153.473L70.7107 153.803C71.328 157.491 74.4405 159.101 77.3247 159.101V157.101ZM81.9663 153.473C81.5553 155.928 79.5329 157.101 77.3247 157.101V159.101C80.2089 159.101 83.3214 157.491 83.9388 153.803L81.9663 153.473ZM71.6969 154.638H82.9526V152.638H71.6969V154.638ZM71.6041 149.999H83.0454V147.999H71.6041V149.999ZM70.6041 138.412V148.999H72.6041V138.412H70.6041ZM83.0454 137.412H71.6041V139.412H83.0454V137.412ZM84.0454 148.999V138.412H82.0454V148.999H84.0454Z" fill="#292B3C" mask="url(#path-1-inside-1)"/>
<path d="M544.539 117.995C544.101 117.557 544.003 116.859 544.344 116.31C549.209 108.421 551.517 100.402 551.201 92.4716C551.179 91.9093 551.503 91.3893 552.02 91.1644C552.536 90.9389 553.137 91.0511 553.536 91.4501L571.117 109.031C571.651 109.565 571.651 110.432 571.117 110.966C570.583 111.501 569.716 111.501 569.181 110.966L553.925 95.7093C553.585 103.088 551.152 110.485 546.672 117.747C546.275 118.39 545.433 118.59 544.789 118.193C544.696 118.135 544.613 118.069 544.539 117.995Z" fill="#6AD2FF"/>
<path d="M544.542 117.997C544.466 117.922 544.398 117.836 544.341 117.742C543.947 117.096 544.15 116.255 544.795 115.861C553.196 110.727 561.745 108.295 570.203 108.631C570.959 108.662 571.546 109.296 571.517 110.053C571.487 110.808 570.85 111.396 570.096 111.366C562.186 111.052 554.154 113.35 546.221 118.196C545.672 118.532 544.978 118.434 544.542 117.997Z" fill="#6AD2FF"/>
<path d="M569.085 110.87L551.699 93.4835C549.875 91.6599 550.354 89.2143 551.73 87.8382C552.455 87.1138 553.385 86.6789 554.352 86.6145C555.457 86.5402 556.532 86.9636 557.375 87.8071L574.762 105.193C576.584 107.016 576.105 109.461 574.729 110.837C574.005 111.562 573.074 111.997 572.109 112.062C571.002 112.135 569.929 111.713 569.085 110.87ZM555.44 89.7426C554.631 88.9335 553.878 89.5624 553.666 89.7741C553.454 89.9857 552.825 90.739 553.635 91.5481L571.021 108.934C571.828 109.742 572.583 109.114 572.795 108.903C573.006 108.691 573.634 107.937 572.826 107.129L555.44 89.7426Z" fill="#6AD2FF"/>
<path d="M529.999 171.052C518.865 159.918 518.877 141.788 530.027 130.637C541.177 119.487 559.308 119.475 570.442 130.609C581.593 141.761 581.596 159.906 570.446 171.056C559.296 182.206 541.151 182.204 529.999 171.052ZM568.506 132.545C558.439 122.477 542.046 122.49 531.963 132.573C521.88 142.656 521.867 159.049 531.934 169.117C542.019 179.202 558.427 179.203 568.51 169.12C578.593 159.037 578.591 142.63 568.506 132.545Z" fill="#6AD2FF"/>
<path d="M522.192 154.86C521.658 154.326 521.658 153.459 522.192 152.925L552.314 122.802C552.849 122.268 553.716 122.268 554.25 122.803C554.785 123.337 554.785 124.204 554.25 124.738L524.128 154.86C523.594 155.395 522.727 155.395 522.192 154.86Z" fill="#6AD2FF"/>
<path d="M530.027 132.573C529.493 132.038 529.493 131.172 530.027 130.637L544.572 116.092C545.107 115.558 545.973 115.558 546.508 116.092C547.042 116.627 547.043 117.494 546.508 118.028L531.963 132.573C531.429 133.107 530.562 133.107 530.027 132.573Z" fill="#6AD2FF"/>
<path d="M535.619 158.465C534.506 157.352 533.838 155.925 533.743 154.451C533.666 153.271 533.922 151.517 535.577 149.861L549.252 136.187C552.062 133.376 555.708 134.081 557.856 136.229C560.004 138.377 560.708 142.022 557.898 144.833L544.223 158.507C541.413 161.318 537.767 160.613 535.619 158.465ZM555.921 138.164C554.733 136.976 552.808 136.502 551.188 138.123L537.513 151.797C535.893 153.418 536.366 155.342 537.554 156.53C538.742 157.718 540.667 158.192 542.287 156.571L555.962 142.897C557.582 141.276 557.109 139.352 555.921 138.164Z" fill="#6AD2FF"/>
<path d="M554.35 156.895L537.254 139.799C536.719 139.265 536.719 138.398 537.253 137.863C537.788 137.329 538.655 137.329 539.189 137.864L556.285 154.96C556.82 155.494 556.82 156.361 556.285 156.895C555.751 157.43 554.884 157.43 554.35 156.895Z" fill="#6AD2FF"/>
<path d="M552.931 158.314C552.396 157.779 552.396 156.912 552.93 156.378L555.769 153.54C556.303 153.005 557.17 153.005 557.704 153.54C558.239 154.074 558.239 154.941 557.704 155.476L554.866 158.314C554.332 158.848 553.465 158.848 552.931 158.314Z" fill="#6AD2FF"/>
<path d="M547.997 163.248L530.901 146.152C530.366 145.618 530.366 144.751 530.9 144.217C531.435 143.682 532.302 143.682 532.836 144.217L549.932 161.313C550.467 161.848 550.467 162.714 549.932 163.249C549.398 163.783 548.531 163.783 547.997 163.248Z" fill="#6AD2FF"/>
<path d="M546.609 164.635C546.074 164.101 546.074 163.234 546.609 162.699L549.415 159.893C549.949 159.359 550.816 159.359 551.35 159.894C551.885 160.428 551.885 161.295 551.35 161.829L548.544 164.635C548.01 165.17 547.143 165.17 546.609 164.635Z" fill="#6AD2FF"/>
<path d="M560.703 150.542L543.607 133.446C543.073 132.911 543.073 132.044 543.607 131.51C544.141 130.975 545.008 130.976 545.543 131.51L562.639 148.606C563.173 149.141 563.173 150.007 562.639 150.542C562.104 151.076 561.238 151.076 560.703 150.542Z" fill="#6AD2FF"/>
<path d="M559.284 151.96C558.749 151.426 558.749 150.559 559.283 150.025L562.122 147.186C562.656 146.652 563.523 146.652 564.057 147.187C564.592 147.721 564.592 148.588 564.057 149.122L561.219 151.96C560.685 152.495 559.818 152.495 559.284 151.96Z" fill="#6AD2FF"/>
<path d="M533.676 167.376C528.757 162.457 526.286 155.643 526.892 148.677C526.958 147.924 527.622 147.368 528.375 147.433C529.125 147.498 529.686 148.162 529.619 148.915C529.083 155.073 531.266 161.095 535.611 165.44C543.668 173.497 556.777 173.499 564.833 165.443C572.889 157.387 572.887 144.278 564.83 136.221C560.485 131.876 554.463 129.693 548.306 130.229C547.553 130.295 546.888 129.735 546.823 128.984C546.758 128.231 547.315 127.568 548.068 127.502C555.033 126.896 561.848 129.368 566.766 134.286C575.89 143.411 575.892 158.256 566.769 167.379C557.646 176.502 542.801 176.501 533.676 167.376Z" fill="#6AD2FF"/>
<path d="M177.765 125.977C174.44 125.977 171.333 124.687 169.013 122.347C164.182 117.516 164.182 109.65 169.016 104.814L189.055 84.7755C193.892 79.9396 201.758 79.9422 206.592 84.7762C211.386 89.6121 211.386 97.4759 206.595 102.309L186.513 122.352C184.197 124.687 181.09 125.977 177.765 125.977ZM170.661 106.459C166.732 110.387 166.732 116.778 170.661 120.706C172.544 122.606 175.066 123.651 177.765 123.651C180.464 123.651 182.986 122.606 184.866 120.71L204.949 100.667C208.84 96.7415 208.84 90.3465 204.945 86.4166C203.048 84.5218 200.519 83.4762 197.825 83.4762C195.128 83.4762 192.599 84.5218 190.7 86.4206L170.661 106.459V106.459Z" fill="#FFAB09"/>
<path d="M198.87 115.793C198.572 115.793 198.275 115.679 198.048 115.453L175.878 93.3205C175.422 92.8664 175.422 92.13 175.876 91.676C176.33 91.2206 177.066 91.2213 177.52 91.674L199.691 113.807C200.146 114.261 200.146 114.997 199.692 115.451C199.465 115.679 199.167 115.793 198.87 115.793Z" fill="#FFAB09"/>
<path d="M175.148 95.2103C174.851 95.2103 174.553 95.0968 174.326 94.8698C173.872 94.4151 173.872 93.6793 174.326 93.2246L177.465 90.0853C177.919 89.6312 178.656 89.6312 179.11 90.0853C179.564 90.5399 179.564 91.2757 179.11 91.7304L175.971 94.8698C175.744 95.0968 175.446 95.2103 175.148 95.2103Z" fill="#FFAB09"/>
<path d="M192.707 121.955C192.409 121.955 192.113 121.842 191.886 121.615L169.714 99.4835C169.258 99.0295 169.258 98.2931 169.712 97.839C170.166 97.3837 170.902 97.3844 171.356 97.837L193.528 119.969C193.984 120.423 193.984 121.159 193.53 121.613C193.303 121.841 193.005 121.955 192.707 121.955Z" fill="#FFAB09"/>
<path d="M168.984 101.374C168.687 101.374 168.389 101.26 168.162 101.033C167.708 100.579 167.708 99.8421 168.162 99.3881L171.303 96.2487C171.757 95.7947 172.494 95.7941 172.948 96.2494C173.402 96.7034 173.402 97.4399 172.948 97.8939L169.807 101.033C169.58 101.26 169.282 101.374 168.984 101.374Z" fill="#FFAB09"/>
<path d="M205.033 109.63C204.735 109.63 204.439 109.516 204.212 109.29L182.041 87.1579C181.586 86.7039 181.586 85.9674 182.04 85.5134C182.494 85.0581 183.229 85.0587 183.683 85.5114L205.854 107.643C206.309 108.097 206.309 108.834 205.855 109.288C205.628 109.515 205.331 109.63 205.033 109.63Z" fill="#FFAB09"/>
<path d="M181.312 89.0481C181.014 89.0481 180.716 88.9346 180.489 88.7076C180.035 88.2535 180.035 87.5171 180.489 87.0631L183.628 83.923C184.082 83.4677 184.819 83.4683 185.273 83.9224C185.727 84.3764 185.727 85.1128 185.273 85.5668L182.134 88.7069C181.907 88.9346 181.609 89.0481 181.312 89.0481Z" fill="#FFAB09"/>
<path d="M158.016 118.622C157.718 118.622 157.421 118.509 157.194 118.282C156.74 117.827 156.74 117.091 157.194 116.637L194.985 78.8453C195.439 78.39 196.176 78.3906 196.63 78.8446C197.084 79.2993 197.084 80.0351 196.63 80.4891L158.839 118.281C158.612 118.509 158.314 118.622 158.016 118.622Z" fill="#FFAB09"/>
<path d="M195.806 80.8303C195.599 80.8303 195.389 80.7749 195.2 80.6587C194.652 80.3235 194.48 79.6078 194.815 79.0596C198.839 72.4917 200.763 65.8104 200.537 59.2031C200.52 58.7244 200.799 58.2851 201.238 58.0954C201.673 57.9058 202.186 58.004 202.524 58.3438C207.367 63.2258 212.249 68.1078 217.13 72.9504C217.587 73.4024 217.589 74.1389 217.137 74.5949C216.684 75.0509 215.948 75.0529 215.493 74.6009C211.265 70.4079 207.038 66.1856 202.837 61.9586C202.519 68.0925 200.494 74.2404 196.8 80.2748C196.579 80.6327 196.197 80.8303 195.806 80.8303Z" fill="#FFAB09"/>
<path d="M158.868 119.475C158.571 119.475 158.273 119.361 158.046 119.134L156.341 117.428C155.886 116.974 155.886 116.237 156.341 115.783C156.795 115.329 157.532 115.329 157.986 115.784L159.691 117.49C160.145 117.944 160.145 118.68 159.691 119.134C159.464 119.361 159.166 119.475 158.868 119.475Z" fill="#FFAB09"/>
<path d="M195.809 80.8304C195.417 80.8304 195.036 80.6328 194.815 80.2742C194.48 79.7267 194.652 79.011 195.2 78.6758C202.166 74.4114 209.284 72.3757 216.352 72.6134C216.993 72.6354 217.496 73.1736 217.473 73.8159C217.452 74.4441 216.936 74.9389 216.313 74.9389C216.298 74.9389 216.285 74.9382 216.271 74.9382C209.66 74.7105 202.983 76.6374 196.415 80.6588C196.225 80.775 196.016 80.8304 195.809 80.8304Z" fill="#FFAB09"/>
<path d="M362.707 173.977C366.031 173.977 369.138 172.687 371.458 170.347C376.289 165.516 376.289 157.65 371.455 152.814L351.417 132.775C346.581 127.94 338.715 127.942 333.882 132.776C329.088 137.612 329.088 145.476 333.879 150.309L353.96 170.352C356.275 172.687 359.382 173.977 362.707 173.977ZM369.81 154.459C373.738 158.387 373.738 164.778 369.81 168.706C367.927 170.606 365.405 171.651 362.707 171.651C360.008 171.651 357.486 170.606 355.606 168.71L335.525 148.667C331.634 144.741 331.634 138.347 335.529 134.417C337.425 132.522 339.954 131.476 342.649 131.476C345.345 131.476 347.874 132.522 349.772 134.421L369.81 154.459V154.459Z" fill="#FF4284"/>
<path d="M341.604 163.793C341.902 163.793 342.199 163.679 342.426 163.453L364.594 141.32C365.05 140.866 365.05 140.13 364.596 139.676C364.142 139.221 363.406 139.221 362.952 139.674L340.783 161.807C340.328 162.261 340.328 162.997 340.782 163.451C341.009 163.679 341.307 163.793 341.604 163.793Z" fill="#FF4284"/>
<path d="M365.323 143.21C365.621 143.21 365.919 143.097 366.146 142.87C366.6 142.415 366.6 141.679 366.146 141.225L363.007 138.085C362.553 137.631 361.816 137.631 361.362 138.085C360.908 138.54 360.908 139.276 361.362 139.73L364.501 142.87C364.728 143.097 365.026 143.21 365.323 143.21Z" fill="#FF4284"/>
<path d="M347.767 169.955C348.064 169.955 348.361 169.842 348.588 169.615L370.758 147.484C371.213 147.029 371.213 146.293 370.759 145.839C370.305 145.384 369.57 145.384 369.116 145.837L346.945 167.969C346.49 168.423 346.49 169.159 346.944 169.613C347.171 169.841 347.469 169.955 347.767 169.955Z" fill="#FF4284"/>
<path d="M371.487 149.374C371.785 149.374 372.082 149.26 372.309 149.033C372.763 148.579 372.763 147.842 372.309 147.388L369.169 144.249C368.715 143.795 367.978 143.794 367.524 144.249C367.07 144.703 367.07 145.44 367.524 145.894L370.664 149.033C370.891 149.26 371.189 149.374 371.487 149.374Z" fill="#FF4284"/>
<path d="M335.441 157.63C335.739 157.63 336.035 157.516 336.262 157.29L358.431 135.158C358.887 134.704 358.887 133.967 358.433 133.513C357.979 133.058 357.243 133.059 356.789 133.511L334.62 155.643C334.165 156.097 334.165 156.834 334.619 157.288C334.846 157.515 335.143 157.63 335.441 157.63Z" fill="#FF4284"/>
<path d="M359.161 137.048C359.459 137.048 359.757 136.935 359.984 136.708C360.438 136.253 360.438 135.517 359.984 135.063L356.845 131.923C356.391 131.468 355.654 131.468 355.2 131.922C354.746 132.376 354.746 133.113 355.2 133.567L358.339 136.707C358.566 136.935 358.863 137.048 359.161 137.048Z" fill="#FF4284"/>
<path d="M382.454 166.622C382.751 166.622 383.049 166.509 383.276 166.282C383.73 165.827 383.73 165.091 383.276 164.637L345.488 126.845C345.034 126.39 344.297 126.391 343.843 126.845C343.389 127.299 343.389 128.035 343.843 128.489L381.631 166.281C381.858 166.509 382.156 166.622 382.454 166.622Z" fill="#FF4284"/>
<path d="M344.667 128.83C344.874 128.83 345.083 128.775 345.273 128.659C345.82 128.323 345.993 127.608 345.657 127.06C341.634 120.492 339.71 113.81 339.936 107.203C339.953 106.724 339.674 106.285 339.235 106.095C338.8 105.906 338.287 106.004 337.949 106.344C333.106 111.226 328.225 116.108 323.344 120.95C322.888 121.402 322.885 122.139 323.338 122.595C323.79 123.051 324.526 123.053 324.981 122.601C329.209 118.408 333.436 114.186 337.637 109.959C337.955 116.092 339.979 122.24 343.673 128.275C343.894 128.633 344.276 128.83 344.667 128.83Z" fill="#FF4284"/>
<path d="M381.602 167.475C381.9 167.475 382.198 167.361 382.425 167.134L384.13 165.428C384.584 164.974 384.584 164.237 384.13 163.783C383.676 163.329 382.939 163.329 382.485 163.784L380.78 165.49C380.326 165.944 380.326 166.68 380.78 167.134C381.007 167.361 381.304 167.475 381.602 167.475Z" fill="#FF4284"/>
<path d="M344.664 128.83C345.055 128.83 345.437 128.633 345.657 128.274C345.993 127.727 345.82 127.011 345.273 126.676C338.307 122.411 331.19 120.376 324.123 120.613C323.482 120.635 322.979 121.174 323.001 121.816C323.023 122.444 323.538 122.939 324.162 122.939C324.176 122.939 324.19 122.938 324.203 122.938C330.814 122.71 337.49 124.637 344.058 128.659C344.247 128.775 344.457 128.83 344.664 128.83Z" fill="#FF4284"/>
<path d="M308.851 163.738H248.524C247.934 163.738 247.455 163.259 247.455 162.669V122.938C247.455 110.992 257.174 101.273 269.12 101.273C273.875 101.273 278.361 102.752 282.09 105.55C285.723 108.283 288.464 112.155 289.81 116.454C289.882 116.673 289.962 116.948 290.04 117.263C290.879 120.292 292.012 123.245 295.924 123.804C299.56 124.334 302.952 125.912 305.479 128.247C305.48 128.248 305.481 128.249 305.482 128.25C308.386 130.959 309.92 134.396 309.92 138.189V162.669C309.92 163.259 309.441 163.738 308.851 163.738ZM249.594 161.6H307.782V138.189C307.782 135.004 306.483 132.108 304.024 129.814C301.813 127.771 298.828 126.388 295.619 125.92C289.997 125.117 288.645 120.233 287.995 117.886C287.902 117.526 287.839 117.303 287.775 117.11C286.556 113.217 284.083 109.725 280.805 107.259C277.451 104.742 273.41 103.412 269.12 103.412C258.352 103.412 249.594 112.171 249.594 122.938V161.6H249.594Z" fill="#F8774E"/>
<path d="M308.851 153.119H248.524C247.934 153.119 247.455 152.641 247.455 152.05C247.455 151.46 247.934 150.981 248.524 150.981H308.851C309.441 150.981 309.92 151.46 309.92 152.05C309.92 152.641 309.441 153.119 308.851 153.119Z" fill="#F8774E"/>
<path d="M254.475 160.211C253.885 160.211 253.406 159.732 253.406 159.141V152.05C253.406 151.46 253.885 150.981 254.475 150.981C255.065 150.981 255.544 151.46 255.544 152.05V159.141C255.544 159.732 255.065 160.211 254.475 160.211Z" fill="#F8774E"/>
<path d="M258.501 160.211C257.91 160.211 257.432 159.732 257.432 159.141V152.05C257.432 151.46 257.91 150.981 258.501 150.981C259.091 150.981 259.57 151.46 259.57 152.05V159.141C259.57 159.732 259.091 160.211 258.501 160.211Z" fill="#F8774E"/>
<path d="M266.589 160.211C265.999 160.211 265.52 159.732 265.52 159.141V152.05C265.52 151.46 265.999 150.981 266.589 150.981C267.18 150.981 267.658 151.46 267.658 152.05V159.141C267.658 159.732 267.18 160.211 266.589 160.211Z" fill="#F8774E"/>
<path d="M270.617 160.211C270.026 160.211 269.547 159.732 269.547 159.141V152.05C269.547 151.46 270.026 150.981 270.617 150.981C271.207 150.981 271.686 151.46 271.686 152.05V159.141C271.686 159.732 271.207 160.211 270.617 160.211Z" fill="#F8774E"/>
<path d="M274.642 160.211C274.052 160.211 273.573 159.732 273.573 159.141V152.05C273.573 151.46 274.052 150.981 274.642 150.981C275.233 150.981 275.712 151.46 275.712 152.05V159.141C275.712 159.732 275.233 160.211 274.642 160.211Z" fill="#F8774E"/>
<path d="M282.731 160.211C282.141 160.211 281.662 159.732 281.662 159.141V152.05C281.662 151.46 282.141 150.981 282.731 150.981C283.322 150.981 283.801 151.46 283.801 152.05V159.141C283.801 159.732 283.322 160.211 282.731 160.211Z" fill="#F8774E"/>
<path d="M286.758 160.211C286.168 160.211 285.689 159.732 285.689 159.141V152.05C285.689 151.46 286.168 150.981 286.758 150.981C287.349 150.981 287.827 151.46 287.827 152.05V159.141C287.827 159.732 287.349 160.211 286.758 160.211Z" fill="#F8774E"/>
<path d="M294.847 160.211C294.256 160.211 293.777 159.732 293.777 159.141V152.05C293.777 151.46 294.256 150.981 294.847 150.981C295.437 150.981 295.916 151.46 295.916 152.05V159.141C295.916 159.732 295.437 160.211 294.847 160.211Z" fill="#F8774E"/>
<path d="M298.873 160.211C298.282 160.211 297.804 159.732 297.804 159.141V152.05C297.804 151.46 298.282 150.981 298.873 150.981C299.463 150.981 299.942 151.46 299.942 152.05V159.141C299.942 159.732 299.463 160.211 298.873 160.211Z" fill="#F8774E"/>
<path d="M302.9 160.211C302.309 160.211 301.831 159.732 301.831 159.141V152.05C301.831 151.46 302.309 150.981 302.9 150.981C303.49 150.981 303.969 151.46 303.969 152.05V159.141C303.969 159.732 303.49 160.211 302.9 160.211Z" fill="#F8774E"/>
<path d="M253.12 124.756C252.53 124.756 252.051 124.277 252.051 123.687C252.051 114.196 259.771 106.475 269.262 106.475C269.852 106.475 270.331 106.954 270.331 107.544C270.331 108.135 269.852 108.613 269.262 108.613C260.951 108.613 254.189 115.375 254.189 123.687C254.189 124.277 253.71 124.756 253.12 124.756Z" fill="#F8774E"/>
<path d="M252.907 143.89H248.524C247.934 143.89 247.455 143.412 247.455 142.821C247.455 142.231 247.934 141.752 248.524 141.752H252.907C253.497 141.752 253.976 142.231 253.976 142.821C253.976 143.412 253.497 143.89 252.907 143.89Z" fill="#F8774E"/>
<path d="M308.851 143.89H304.468C303.878 143.89 303.399 143.412 303.399 142.821C303.399 142.231 303.878 141.752 304.468 141.752H308.851C309.441 141.752 309.92 142.231 309.92 142.821C309.92 143.412 309.441 143.89 308.851 143.89Z" fill="#F8774E"/>
<path d="M305.786 108.787H305.785C305.565 108.786 305.354 108.698 305.199 108.542L300.813 104.129C300.492 103.805 300.493 103.283 300.815 102.96L324.98 78.7945C325.136 78.6391 325.346 78.5517 325.566 78.5517H325.567C325.787 78.5522 325.998 78.6401 326.153 78.796L330.539 83.2095C330.86 83.5331 330.859 84.0558 330.537 84.378L306.372 108.544C306.216 108.699 306.006 108.787 305.786 108.787ZM302.569 103.547L305.788 106.787L328.783 83.7912L325.564 80.5518L302.569 103.547Z" fill="#6AD2FF"/>
<path d="M323.194 86.9936C322.982 86.9936 322.771 86.9128 322.61 86.7513C322.286 86.4281 322.286 85.904 322.609 85.5809L323.16 85.0292C323.483 84.706 324.007 84.7056 324.33 85.0287C324.654 85.3518 324.654 85.876 324.331 86.1991L323.78 86.7508C323.618 86.9124 323.406 86.9936 323.194 86.9936Z" fill="#6AD2FF"/>
<path d="M319.304 90.8835C319.092 90.8835 318.88 90.8023 318.719 90.6407C318.396 90.3176 318.396 89.7934 318.72 89.4703L319.272 88.9186C319.595 88.5955 320.119 88.596 320.442 88.9191C320.765 89.2422 320.765 89.7664 320.441 90.0895L319.889 90.6412C319.727 90.8028 319.516 90.8835 319.304 90.8835Z" fill="#6AD2FF"/>
<path d="M315.386 94.7731C315.174 94.7731 314.962 94.6918 314.801 94.5303C314.478 94.2071 314.478 93.683 314.802 93.3599L315.354 92.8082C315.677 92.485 316.201 92.4855 316.524 92.8086C316.847 93.1318 316.847 93.6559 316.523 93.979L315.971 94.5307C315.809 94.6923 315.598 94.7731 315.386 94.7731Z" fill="#6AD2FF"/>
<path d="M311.498 98.6629C311.279 98.6629 311.061 98.5764 310.898 98.4053C310.584 98.0741 310.596 97.5505 310.928 97.2354L311.479 96.7113C311.808 96.3962 312.333 96.4086 312.649 96.7407C312.963 97.0719 312.951 97.5956 312.619 97.9106L312.068 98.4348C311.909 98.5873 311.703 98.6629 311.498 98.6629Z" fill="#6AD2FF"/>
<path d="M307.608 102.58C307.396 102.58 307.185 102.499 307.023 102.338C306.699 102.014 306.699 101.49 307.023 101.167L307.574 100.615C307.897 100.292 308.421 100.292 308.744 100.615C309.068 100.938 309.068 101.462 308.745 101.785L308.193 102.337C308.032 102.499 307.82 102.58 307.608 102.58Z" fill="#6AD2FF"/>
<path d="M331.884 82.6903H331.883C331.663 82.6898 331.452 82.6019 331.297 82.446L326.911 78.032C326.59 77.7084 326.59 77.1857 326.913 76.8635L333.34 70.4361C333.663 70.1134 334.186 70.1124 334.509 70.4342L338.924 74.8202C339.079 74.9751 339.167 75.1856 339.168 75.4056C339.168 75.6256 339.08 75.8366 338.925 75.9925L332.47 82.4479C332.314 82.6028 332.104 82.6903 331.884 82.6903ZM328.667 77.4504L331.886 80.6902L337.167 75.4089L333.927 72.1895L328.667 77.4504Z" fill="#6AD2FF"/>
<path d="M333.842 77.2555C333.633 77.2555 333.426 77.1776 333.265 77.0217L332.327 76.1112C331.999 75.7929 331.991 75.2687 332.31 74.9409C332.628 74.612 333.151 74.6054 333.48 74.9233L334.418 75.8337C334.746 76.1521 334.754 76.6763 334.436 77.0041C334.273 77.1714 334.057 77.2555 333.842 77.2555Z" fill="#6AD2FF"/>
<path d="M332.435 77.7246C332.223 77.7246 332.011 77.6438 331.85 77.4817C331.527 77.1586 331.527 76.635 331.85 76.3113L332.788 75.3738C333.111 75.0497 333.636 75.0497 333.959 75.3738C334.282 75.6969 334.282 76.2206 333.959 76.5442L333.021 77.4817C332.859 77.6438 332.647 77.7246 332.435 77.7246Z" fill="#6AD2FF"/>
<path d="M304.683 111.546C304.471 111.546 304.259 111.465 304.098 111.303L298.056 105.261C297.733 104.938 297.733 104.415 298.056 104.091L299.987 102.16C300.311 101.837 300.835 101.837 301.158 102.16L307.2 108.202C307.523 108.525 307.523 109.049 307.2 109.372L305.269 111.303C305.107 111.465 304.895 111.546 304.683 111.546ZM299.813 104.676L304.683 109.548L305.444 108.787L300.573 103.916L299.813 104.676Z" fill="#6AD2FF"/>
<path d="M300.215 114.359C300.003 114.359 299.791 114.279 299.629 114.117L295.242 109.731C295.087 109.576 295 109.365 295 109.146C295 108.926 295.087 108.716 295.242 108.56L298.884 104.919C299.207 104.596 299.732 104.595 300.055 104.919L304.441 109.305C304.764 109.628 304.764 110.152 304.441 110.475L300.8 114.117C300.639 114.278 300.427 114.359 300.215 114.359ZM296.999 109.146L300.215 112.361L302.686 109.89L299.47 106.675L296.999 109.146Z" fill="#6AD2FF"/>
<path d="M330.78 85.4488C330.568 85.4488 330.356 85.368 330.195 85.2064L324.153 79.1644C323.998 79.0095 323.911 78.799 323.911 78.5794C323.911 78.3599 323.998 78.1494 324.153 77.994L326.084 76.0633C326.407 75.7401 326.932 75.7401 327.255 76.0633L333.297 82.1044C333.452 82.2598 333.539 82.4703 333.539 82.6898C333.539 82.9094 333.452 83.1199 333.297 83.2752L331.365 85.2064C331.204 85.368 330.992 85.4488 330.78 85.4488ZM325.909 78.5794L330.78 83.4506L331.54 82.6898L326.67 77.8191L325.909 78.5794Z" fill="#6AD2FF"/>
<path d="M338.34 76.2348C338.121 76.2348 337.911 76.1483 337.756 75.9939L333.341 71.6079C333.184 71.4511 333.095 71.2372 333.097 71.0144C333.099 70.7915 333.19 70.5791 333.351 70.4246C335.549 68.3096 337.868 66.7148 339.714 66.0496C340.012 65.9403 340.348 66.0153 340.576 66.2396L343.114 68.7496C343.344 68.9763 343.42 69.3156 343.311 69.6187C342.646 71.462 341.051 73.7809 338.936 75.9806C338.782 76.1407 338.57 76.232 338.349 76.2343C338.346 76.2348 338.342 76.2348 338.34 76.2348ZM335.118 71.0391L338.317 74.2181C339.791 72.5896 340.955 70.9093 341.559 69.5398L339.797 67.7973C338.416 68.4018 336.762 69.5474 335.118 71.0391Z" fill="#6AD2FF"/>
<path d="M153.661 89H147.907C147.402 89 146.993 88.591 146.993 88.0865C146.993 87.582 147.402 87.173 147.907 87.173H153.661C154.298 87.173 154.812 86.8688 155.108 86.3156C155.417 85.7603 155.407 85.1462 155.088 84.6596L137.587 56.9196L120.093 84.6465C119.757 85.1614 119.735 85.7765 120.028 86.3035C120.347 86.8604 120.866 87.173 121.483 87.173H142.975C143.48 87.173 143.889 87.582 143.889 88.0865C143.889 88.591 143.48 89 142.975 89H121.483C120.201 89 119.091 88.344 118.437 87.2003C117.813 86.0765 117.861 84.7241 118.557 83.6595L136.815 54.7209C137.148 54.1902 138.025 54.1902 138.359 54.7209L156.624 83.6721C157.313 84.7241 157.349 86.0445 156.711 87.1908C156.108 88.3188 154.965 89 153.661 89Z" fill="#F8774E"/>
<path d="M137.586 56.1214C137.344 56.1214 137.112 56.0249 136.94 55.854L133.622 52.5356C131.446 50.3578 131.446 46.8155 133.622 44.6382C134.679 43.5816 136.084 43 137.582 43C137.591 43 137.599 43 137.607 43.0005C139.099 43.0068 140.49 43.5905 141.526 44.6435C142.576 45.6938 143.158 47.0961 143.158 48.5869C143.158 50.0772 142.576 51.4795 141.52 52.5356L138.236 55.8508C138.065 56.0234 137.832 56.1209 137.588 56.1214C137.587 56.1214 137.587 56.1214 137.586 56.1214ZM137.582 44.827C136.572 44.827 135.625 45.2182 134.914 45.9298C133.449 47.3944 133.449 49.7789 134.914 51.244L137.583 53.9132L140.225 51.2466C140.939 50.5329 141.332 49.589 141.332 48.5869C141.332 47.5843 140.939 46.6404 140.228 45.9298C139.532 45.2208 138.601 44.8312 137.6 44.827C137.594 44.827 137.588 44.827 137.582 44.827Z" fill="#F8774E"/>
<path d="M153.966 96.3975C153.706 96.3975 153.448 96.2868 153.267 96.0723L135.762 75.2796C135.437 74.8936 135.486 74.3173 135.872 73.9927C136.257 73.6686 136.835 73.7169 137.159 74.1028L154.664 94.8956C154.989 95.2815 154.94 95.8579 154.554 96.1825C154.383 96.3267 154.173 96.3975 153.966 96.3975Z" fill="#F8774E"/>
<path fill-rule="evenodd" clip-rule="evenodd" d="M228.037 113.917C228.297 114.176 228.574 114.406 228.866 114.607L226.797 116.744L224.972 114.92L227.097 112.87C227.275 113.118 227.474 113.353 227.695 113.573L228.037 113.917ZM222.501 117.302L217.459 122.163L219.537 124.241L224.409 119.21L222.501 117.302ZM209.947 129.405L214.989 124.545L217.15 126.707L212.279 131.736L209.947 129.405ZM207.476 131.789L197.921 141.001L200.658 143.738L209.891 134.203L207.476 131.789ZM190.299 148.35L195.449 143.384L198.269 146.204L193.308 151.328L190.299 148.35ZM235.719 114.555C234.796 115.214 233.724 115.579 232.638 115.648L205.046 144.14C210.588 151.391 210.599 157.861 205.071 163.389C203.225 165.294 200.959 166.778 198.354 167.78C195.284 168.93 193.347 171.532 193.158 174.744C192.778 180.724 190.224 186.356 185.969 190.612C182.432 194.15 178.548 195.928 174.383 195.929C173.102 195.929 171.796 195.76 170.464 195.423C165.867 194.26 161.071 191.133 155.803 185.864C144.221 174.283 142.623 164.133 151.056 155.7C155.312 151.443 160.945 148.89 166.917 148.51C170.137 148.32 172.738 146.384 173.884 143.328C174.862 140.784 176.361 138.461 178.223 136.598C183.779 131.044 190.254 131.065 197.496 136.645L225.996 109.166C226.037 108.018 226.4 106.881 227.084 105.921L226.92 105.764C226.234 105.109 226.211 104.022 226.867 103.337C227.523 102.652 228.611 102.63 229.292 103.285L229.454 103.44L230.516 102.377L230.41 102.276C229.724 101.621 229.7 100.534 230.357 99.8493C231.013 99.1636 232.1 99.1429 232.782 99.7971L232.942 99.9507L234.005 98.8885L233.898 98.7862C233.214 98.1301 233.193 97.0444 233.849 96.3597C234.503 95.676 235.588 95.6524 236.274 96.3095L236.459 96.4871C238.042 95.2897 240.36 95.3929 241.865 96.8128L244.821 99.7653C246.269 101.306 246.377 103.627 245.181 105.21L245.359 105.396C246.015 106.08 245.994 107.166 245.31 107.822C244.977 108.141 244.549 108.3 244.122 108.3C243.671 108.3 243.221 108.123 242.884 107.772L242.774 107.656L241.708 108.715L241.871 108.885C242.527 109.57 242.504 110.656 241.818 111.311C241.487 111.63 241.059 111.788 240.632 111.788C240.181 111.788 239.729 111.611 239.393 111.259L239.273 111.134L238.208 112.191L238.384 112.375C239.038 113.059 239.016 114.145 238.333 114.8C238 115.119 237.572 115.278 237.145 115.278C236.693 115.278 236.242 115.101 235.905 114.749L235.719 114.555ZM230.122 107.625L234.149 103.598C234.169 103.579 234.189 103.559 234.209 103.539L234.215 103.532L238.472 99.2747C238.6 99.1476 238.782 99.0866 238.965 99.0866C239.154 99.0866 239.345 99.1516 239.475 99.2757L242.358 102.154C242.636 102.45 242.653 102.937 242.393 103.197L234.043 111.49C233.058 112.477 231.45 112.476 230.465 111.491L230.122 111.147C229.184 110.209 229.184 108.564 230.122 107.625ZM196.983 152.466L202.63 146.635C206.775 152.257 206.763 156.843 202.626 160.981C201.109 162.545 199.258 163.755 197.134 164.572C192.837 166.184 190 170.004 189.734 174.534C189.407 179.673 187.208 184.521 183.541 188.185C179.778 191.949 175.772 193.224 171.307 192.096C167.38 191.103 162.981 188.19 158.23 183.439C147.976 173.185 146.469 165.142 153.484 158.127C157.148 154.461 161.997 152.262 167.126 151.935C171.664 151.668 175.484 148.832 177.092 144.546C177.894 142.46 179.124 140.549 180.651 139.023C184.79 134.887 189.377 134.878 194.996 139.055L189.167 144.675C185.595 143.802 181.765 144.84 179.137 147.464C177.126 149.476 176.018 152.151 176.018 154.998C176.018 157.844 177.126 160.519 179.137 162.529C181.151 164.543 183.821 165.649 186.662 165.649L186.707 165.649C189.539 165.638 192.183 164.526 194.147 162.529C196.802 159.874 197.859 156.025 196.983 152.466ZM181.565 149.891C182.82 148.635 184.487 147.915 186.21 147.812C186.157 147.976 186.129 148.148 186.128 148.323C186.126 148.785 186.309 149.229 186.636 149.554L192.125 154.987C192.449 155.305 192.882 155.483 193.333 155.483H193.351C193.519 155.482 193.685 155.455 193.843 155.406C193.736 157.138 192.998 158.826 191.71 160.114C190.384 161.462 188.601 162.21 186.694 162.218H186.662C184.739 162.218 182.928 161.467 181.565 160.103C180.201 158.74 179.451 156.927 179.451 154.998C179.451 153.068 180.201 151.254 181.565 149.891ZM171.359 178.429C171.694 178.765 172.134 178.932 172.573 178.932C173.012 178.932 173.452 178.765 173.787 178.43C174.457 177.759 174.457 176.674 173.787 176.004L165.667 167.883C164.997 167.211 163.909 167.212 163.24 167.882C162.57 168.553 162.57 169.638 163.24 170.308L171.359 178.429Z" fill="#6AD2FF"/>
<path d="M228.866 114.607L229.225 114.955L229.636 114.531L229.15 114.196L228.866 114.607ZM228.037 113.917L227.683 114.27L227.684 114.271L228.037 113.917ZM226.797 116.744L226.443 117.098L226.802 117.457L227.156 117.092L226.797 116.744ZM224.972 114.92L224.625 114.56L224.258 114.913L224.618 115.273L224.972 114.92ZM227.097 112.87L227.503 112.579L227.166 112.109L226.75 112.51L227.097 112.87ZM227.695 113.573L228.049 113.22L228.048 113.22L227.695 113.573ZM217.459 122.163L217.112 121.803L216.746 122.156L217.106 122.516L217.459 122.163ZM222.501 117.302L222.855 116.948L222.507 116.601L222.154 116.942L222.501 117.302ZM219.537 124.241L219.184 124.595L219.543 124.954L219.896 124.589L219.537 124.241ZM224.409 119.21L224.768 119.558L225.111 119.204L224.763 118.856L224.409 119.21ZM214.989 124.545L215.342 124.191L214.995 123.844L214.642 124.185L214.989 124.545ZM209.947 129.405L209.6 129.046L209.234 129.399L209.594 129.759L209.947 129.405ZM217.15 126.707L217.509 127.054L217.851 126.701L217.503 126.353L217.15 126.707ZM212.279 131.736L211.926 132.09L212.285 132.449L212.638 132.084L212.279 131.736ZM197.921 141.001L197.574 140.641L197.208 140.994L197.568 141.354L197.921 141.001ZM207.476 131.789L207.829 131.435L207.482 131.088L207.129 131.429L207.476 131.789ZM200.658 143.738L200.304 144.091L200.664 144.45L201.017 144.085L200.658 143.738ZM209.891 134.203L210.25 134.551L210.592 134.197L210.244 133.849L209.891 134.203ZM195.449 143.384L195.803 143.03L195.456 142.683L195.102 143.024L195.449 143.384ZM190.299 148.35L189.952 147.99L189.583 148.345L189.947 148.705L190.299 148.35ZM198.269 146.204L198.629 146.552L198.971 146.198L198.623 145.85L198.269 146.204ZM193.308 151.328L192.956 151.683L193.315 152.039L193.667 151.676L193.308 151.328ZM232.638 115.648L232.606 115.149L232.413 115.161L232.278 115.3L232.638 115.648ZM235.719 114.555L236.08 114.209L235.78 113.896L235.428 114.148L235.719 114.555ZM205.046 144.14L204.687 143.792L204.387 144.102L204.649 144.444L205.046 144.14ZM205.071 163.389L204.717 163.035L204.712 163.041L205.071 163.389ZM198.354 167.78L198.53 168.248L198.534 168.246L198.354 167.78ZM193.158 174.744L193.657 174.775L193.657 174.773L193.158 174.744ZM185.969 190.612L185.615 190.258L185.615 190.258L185.969 190.612ZM174.383 195.929V196.429H174.383L174.383 195.929ZM170.464 195.423L170.341 195.908L170.341 195.908L170.464 195.423ZM155.803 185.864L156.156 185.511L155.803 185.864ZM151.056 155.7L151.41 156.054L151.41 156.054L151.056 155.7ZM166.917 148.51L166.888 148.01L166.886 148.011L166.917 148.51ZM173.884 143.328L173.418 143.148L173.416 143.152L173.884 143.328ZM178.223 136.598L177.87 136.244L177.869 136.244L178.223 136.598ZM197.496 136.645L197.191 137.041L197.533 137.304L197.843 137.005L197.496 136.645ZM225.996 109.166L226.343 109.526L226.489 109.386L226.496 109.184L225.996 109.166ZM227.084 105.921L227.491 106.211L227.742 105.859L227.43 105.56L227.084 105.921ZM226.92 105.764L227.266 105.403L227.265 105.402L226.92 105.764ZM226.867 103.337L227.228 103.683L227.228 103.683L226.867 103.337ZM229.292 103.285L228.946 103.646L228.946 103.646L229.292 103.285ZM229.454 103.44L229.108 103.801L229.461 104.139L229.807 103.793L229.454 103.44ZM230.516 102.377L230.869 102.731L231.231 102.37L230.862 102.016L230.516 102.377ZM230.41 102.276L230.756 101.915L230.755 101.914L230.41 102.276ZM230.357 99.8493L230.718 100.195L230.718 100.195L230.357 99.8493ZM232.782 99.7971L232.436 100.158L232.436 100.158L232.782 99.7971ZM232.942 99.9507L232.597 100.312L232.95 100.65L233.296 100.304L232.942 99.9507ZM234.005 98.8885L234.358 99.2421L234.719 98.881L234.351 98.5276L234.005 98.8885ZM233.898 98.7862L233.552 99.1469L233.552 99.1471L233.898 98.7862ZM233.849 96.3597L234.21 96.7057L234.21 96.7054L233.849 96.3597ZM236.274 96.3095L236.62 95.9486L236.62 95.9485L236.274 96.3095ZM236.459 96.4871L236.113 96.848L236.421 97.1431L236.761 96.8859L236.459 96.4871ZM241.865 96.8128L242.219 96.459L242.214 96.454L242.208 96.449L241.865 96.8128ZM244.821 99.7653L245.185 99.4228L245.18 99.4171L245.174 99.4116L244.821 99.7653ZM245.181 105.21L244.782 104.908L244.525 105.248L244.82 105.556L245.181 105.21ZM245.359 105.396L245.72 105.05L245.72 105.05L245.359 105.396ZM245.31 107.822L245.656 108.183L245.656 108.183L245.31 107.822ZM242.884 107.772L242.524 108.118L242.524 108.118L242.884 107.772ZM242.774 107.656L243.134 107.31L242.782 106.943L242.421 107.302L242.774 107.656ZM241.708 108.715L241.356 108.36L241.008 108.706L241.347 109.061L241.708 108.715ZM241.871 108.885L241.51 109.231L241.51 109.231L241.871 108.885ZM241.818 111.311L241.473 110.95L241.472 110.951L241.818 111.311ZM239.393 111.259L239.031 111.605L239.031 111.605L239.393 111.259ZM239.273 111.134L239.634 110.788L239.282 110.42L238.92 110.779L239.273 111.134ZM238.208 112.191L237.856 111.837L237.507 112.183L237.847 112.537L238.208 112.191ZM238.384 112.375L238.745 112.029L238.745 112.029L238.384 112.375ZM238.333 114.8L237.987 114.439L237.987 114.439L238.333 114.8ZM235.905 114.749L236.266 114.403L236.266 114.403L235.905 114.749ZM234.149 103.598L233.805 103.235L233.796 103.244L234.149 103.598ZM230.122 107.625L229.768 107.271L229.768 107.272L230.122 107.625ZM234.209 103.539L234.57 103.885L234.57 103.884L234.209 103.539ZM234.215 103.532L233.861 103.179L233.853 103.187L234.215 103.532ZM238.472 99.2747L238.12 98.9198L238.119 98.9212L238.472 99.2747ZM239.475 99.2757L239.829 98.9218L239.82 98.914L239.475 99.2757ZM242.358 102.154L242.722 101.812L242.717 101.806L242.711 101.801L242.358 102.154ZM242.393 103.197L242.746 103.551L242.747 103.55L242.393 103.197ZM234.043 111.49L233.691 111.135L233.689 111.137L234.043 111.49ZM230.465 111.491L230.111 111.844L230.111 111.844L230.465 111.491ZM230.122 111.147L230.476 110.794L230.476 110.793L230.122 111.147ZM202.63 146.635L203.033 146.338L202.682 145.862L202.271 146.287L202.63 146.635ZM196.983 152.466L196.624 152.118L196.431 152.317L196.497 152.586L196.983 152.466ZM202.626 160.981L202.272 160.627L202.267 160.633L202.626 160.981ZM197.134 164.572L197.31 165.04L197.314 165.039L197.134 164.572ZM189.734 174.534L190.233 174.566L190.233 174.563L189.734 174.534ZM183.541 188.185L183.188 187.832L183.188 187.832L183.541 188.185ZM171.307 192.096L171.185 192.581L171.185 192.581L171.307 192.096ZM158.23 183.439L158.584 183.085L158.584 183.085L158.23 183.439ZM153.484 158.127L153.837 158.48L153.837 158.48L153.484 158.127ZM167.126 151.935L167.097 151.436L167.094 151.436L167.126 151.935ZM177.092 144.546L176.625 144.367L176.624 144.371L177.092 144.546ZM180.651 139.023L180.297 138.67L180.651 139.023ZM194.996 139.055L195.343 139.415L195.768 139.006L195.294 138.654L194.996 139.055ZM189.167 144.675L189.048 145.161L189.316 145.227L189.514 145.035L189.167 144.675ZM179.137 147.464L178.784 147.11L178.784 147.111L179.137 147.464ZM179.137 162.529L179.491 162.176L179.491 162.176L179.137 162.529ZM186.662 165.649L186.662 165.149H186.662V165.649ZM186.707 165.649L186.707 166.149L186.709 166.149L186.707 165.649ZM194.147 162.529L193.794 162.176L193.791 162.179L194.147 162.529ZM186.21 147.812L186.686 147.965L186.909 147.27L186.18 147.313L186.21 147.812ZM181.565 149.891L181.918 150.244L181.565 149.891ZM186.128 148.323L185.628 148.319L185.628 148.321L186.128 148.323ZM186.636 149.554L186.284 149.908L186.284 149.909L186.636 149.554ZM192.125 154.987L191.774 155.342L191.775 155.343L192.125 154.987ZM193.351 155.483V155.983L193.356 155.983L193.351 155.483ZM193.843 155.406L194.342 155.437L194.386 154.714L193.694 154.929L193.843 155.406ZM191.71 160.114L191.357 159.76L191.354 159.763L191.71 160.114ZM186.694 162.218V162.718L186.696 162.718L186.694 162.218ZM181.565 160.103L181.918 159.749L181.918 159.749L181.565 160.103ZM171.359 178.429L171.713 178.076L171.713 178.076L171.359 178.429ZM173.787 178.43L174.14 178.784L174.141 178.783L173.787 178.43ZM173.787 176.004L173.433 176.357L173.433 176.357L173.787 176.004ZM165.667 167.883L165.313 168.236L165.313 168.236L165.667 167.883ZM163.24 167.882L162.886 167.528L162.886 167.529L163.24 167.882ZM163.24 170.308L163.593 169.955L163.593 169.955L163.24 170.308ZM229.15 114.196C228.883 114.012 228.629 113.801 228.391 113.563L227.684 114.271C227.965 114.551 228.266 114.801 228.582 115.019L229.15 114.196ZM227.156 117.092L229.225 114.955L228.507 114.26L226.437 116.397L227.156 117.092ZM224.618 115.273L226.443 117.098L227.15 116.391L225.325 114.566L224.618 115.273ZM226.75 112.51L224.625 114.56L225.319 115.28L227.444 113.23L226.75 112.51ZM228.048 113.22C227.847 113.019 227.665 112.804 227.503 112.579L226.691 113.162C226.884 113.431 227.101 113.687 227.341 113.927L228.048 113.22ZM228.391 113.564L228.049 113.22L227.34 113.927L227.683 114.27L228.391 113.564ZM217.807 122.523L222.848 117.662L222.154 116.942L217.112 121.803L217.807 122.523ZM219.891 123.888L217.813 121.809L217.106 122.516L219.184 124.595L219.891 123.888ZM224.05 118.862L219.178 123.893L219.896 124.589L224.768 119.558L224.05 118.862ZM222.147 117.655L224.055 119.563L224.763 118.856L222.855 116.948L222.147 117.655ZM214.642 124.185L209.6 129.046L210.294 129.765L215.336 124.905L214.642 124.185ZM217.503 126.353L215.342 124.191L214.635 124.898L216.796 127.06L217.503 126.353ZM212.638 132.084L217.509 127.054L216.791 126.359L211.92 131.389L212.638 132.084ZM209.594 129.759L211.926 132.09L212.633 131.383L210.301 129.052L209.594 129.759ZM198.268 141.361L207.823 132.149L207.129 131.429L197.574 140.641L198.268 141.361ZM201.011 143.384L198.275 140.647L197.568 141.354L200.304 144.091L201.011 143.384ZM209.531 133.855L200.299 143.39L201.017 144.085L210.25 134.551L209.531 133.855ZM207.122 132.142L209.537 134.557L210.244 133.849L207.829 131.435L207.122 132.142ZM195.102 143.024L189.952 147.99L190.646 148.71L195.796 143.744L195.102 143.024ZM198.623 145.85L195.803 143.03L195.096 143.738L197.916 146.558L198.623 145.85ZM193.667 151.676L198.629 146.552L197.91 145.856L192.948 150.98L193.667 151.676ZM189.947 148.705L192.956 151.683L193.659 150.973L190.651 147.994L189.947 148.705ZM232.669 116.147C233.846 116.072 235.008 115.677 236.009 114.961L235.428 114.148C234.583 114.751 233.602 115.086 232.606 115.149L232.669 116.147ZM205.405 144.488L232.997 115.996L232.278 115.3L204.687 143.792L205.405 144.488ZM205.425 163.742C208.261 160.906 209.714 157.785 209.71 154.41C209.705 151.048 208.254 147.514 205.443 143.837L204.649 144.444C207.38 148.018 208.705 151.343 208.71 154.411C208.714 157.466 207.409 160.344 204.717 163.035L205.425 163.742ZM198.534 168.246C201.203 167.219 203.531 165.696 205.43 163.737L204.712 163.041C202.919 164.891 200.715 166.336 198.175 167.313L198.534 168.246ZM193.657 174.773C193.835 171.763 195.641 169.33 198.53 168.248L198.179 167.311C194.928 168.53 192.86 171.301 192.659 174.714L193.657 174.773ZM186.322 190.965C190.664 186.624 193.269 180.878 193.657 174.775L192.659 174.712C192.287 180.57 189.785 186.088 185.615 190.258L186.322 190.965ZM174.383 196.429C178.707 196.428 182.711 194.577 186.322 190.965L185.615 190.258C182.152 193.722 178.39 195.428 174.383 195.429L174.383 196.429ZM170.341 195.908C171.71 196.254 173.058 196.429 174.383 196.429V195.429C173.146 195.429 171.881 195.266 170.587 194.939L170.341 195.908ZM155.449 186.218C160.748 191.517 165.621 194.713 170.341 195.908L170.587 194.939C166.114 193.807 161.394 190.749 156.156 185.511L155.449 186.218ZM150.703 155.347C146.394 159.655 144.608 164.455 145.43 169.679C146.247 174.869 149.625 180.394 155.449 186.218L156.156 185.511C150.399 179.753 147.187 174.413 146.418 169.524C145.654 164.67 147.285 160.179 151.41 156.054L150.703 155.347ZM166.886 148.011C160.791 148.399 155.044 151.004 150.703 155.347L151.41 156.054C155.58 151.882 161.099 149.381 166.949 149.009L166.886 148.011ZM173.416 143.152C172.338 146.026 169.907 147.833 166.888 148.01L166.947 149.009C170.367 148.808 173.138 146.741 174.353 143.503L173.416 143.152ZM177.869 136.244C175.957 138.158 174.419 140.541 173.418 143.148L174.351 143.507C175.304 141.027 176.766 138.763 178.577 136.951L177.869 136.244ZM197.801 136.249C194.128 133.419 190.594 131.955 187.228 131.946C183.849 131.937 180.72 133.395 177.87 136.244L178.577 136.952C181.282 134.247 184.168 132.938 187.226 132.946C190.297 132.954 193.621 134.291 197.191 137.041L197.801 136.249ZM225.649 108.806L197.149 136.285L197.843 137.005L226.343 109.526L225.649 108.806ZM226.677 105.631C225.933 106.675 225.541 107.908 225.496 109.148L226.496 109.184C226.534 108.128 226.867 107.087 227.491 106.211L226.677 105.631ZM226.574 106.125L226.738 106.282L227.43 105.56L227.266 105.403L226.574 106.125ZM226.506 102.991C225.658 103.876 225.689 105.279 226.575 106.125L227.265 105.402C226.78 104.938 226.763 104.168 227.228 103.683L226.506 102.991ZM229.639 102.925C228.758 102.078 227.353 102.106 226.506 102.992L227.228 103.683C227.693 103.197 228.464 103.182 228.946 103.646L229.639 102.925ZM229.799 103.078L229.638 102.924L228.946 103.646L229.108 103.801L229.799 103.078ZM230.162 102.024L229.1 103.086L229.807 103.793L230.869 102.731L230.162 102.024ZM230.064 102.637L230.17 102.738L230.862 102.016L230.756 101.915L230.064 102.637ZM229.996 99.5034C229.148 100.388 229.179 101.791 230.064 102.637L230.755 101.914C230.269 101.45 230.253 100.68 230.718 100.195L229.996 99.5034ZM233.128 99.4363C232.247 98.5912 230.843 98.6178 229.995 99.5036L230.718 100.195C231.182 99.7094 231.953 99.6947 232.436 100.158L233.128 99.4363ZM233.288 99.5896L233.128 99.436L232.436 100.158L232.597 100.312L233.288 99.5896ZM233.651 98.5349L232.589 99.5971L233.296 100.304L234.358 99.2421L233.651 98.5349ZM233.552 99.1471L233.659 99.2494L234.351 98.5276L234.244 98.4253L233.552 99.1471ZM233.488 96.0138C232.641 96.8972 232.668 98.2992 233.552 99.1469L234.244 98.4254C233.76 97.9609 233.744 97.1916 234.21 96.7057L233.488 96.0138ZM236.62 95.9485C235.735 95.1006 234.333 95.1303 233.487 96.0141L234.21 96.7054C234.673 96.2217 235.442 96.2041 235.928 96.6705L236.62 95.9485ZM236.805 96.1263L236.62 95.9486L235.928 96.6703L236.113 96.848L236.805 96.1263ZM242.208 96.449C240.526 94.8625 237.936 94.743 236.158 96.0884L236.761 96.8859C238.148 95.8364 240.193 95.9234 241.522 97.1765L242.208 96.449ZM245.174 99.4116L242.219 96.459L241.512 97.1665L244.467 100.119L245.174 99.4116ZM245.579 105.511C246.926 103.729 246.796 101.136 245.185 99.4228L244.456 100.108C245.742 101.475 245.827 103.524 244.782 104.908L245.579 105.511ZM245.72 105.05L245.541 104.863L244.82 105.556L244.998 105.742L245.72 105.05ZM245.656 108.183C246.539 107.335 246.567 105.933 245.72 105.05L244.998 105.742C245.464 106.228 245.448 106.997 244.964 107.461L245.656 108.183ZM244.122 108.8C244.673 108.8 245.226 108.595 245.656 108.183L244.964 107.461C244.728 107.688 244.425 107.8 244.122 107.8V108.8ZM242.524 108.118C242.958 108.571 243.539 108.8 244.122 108.8V107.8C243.802 107.8 243.484 107.675 243.245 107.426L242.524 108.118ZM242.413 108.003L242.524 108.118L243.245 107.426L243.134 107.31L242.413 108.003ZM242.061 109.069L243.126 108.011L242.421 107.302L241.356 108.36L242.061 109.069ZM242.232 108.539L242.069 108.369L241.347 109.061L241.51 109.231L242.232 108.539ZM242.163 111.673C243.049 110.827 243.079 109.423 242.232 108.539L241.51 109.231C241.975 109.716 241.958 110.486 241.473 110.95L242.163 111.673ZM240.632 112.288C241.183 112.288 241.736 112.083 242.165 111.672L241.472 110.951C241.238 111.176 240.936 111.288 240.632 111.288V112.288ZM239.031 111.605C239.467 112.059 240.05 112.288 240.632 112.288V111.288C240.311 111.288 239.992 111.163 239.754 110.913L239.031 111.605ZM238.911 111.48L239.031 111.605L239.754 110.913L239.634 110.788L238.911 111.48ZM238.56 112.546L239.625 111.489L238.92 110.779L237.856 111.837L238.56 112.546ZM238.745 112.029L238.569 111.845L237.847 112.537L238.023 112.721L238.745 112.029ZM238.679 115.161C239.562 114.315 239.59 112.912 238.745 112.029L238.023 112.72C238.487 113.205 238.471 113.976 237.987 114.439L238.679 115.161ZM237.145 115.778C237.696 115.778 238.249 115.573 238.679 115.161L237.987 114.439C237.75 114.666 237.448 114.778 237.145 114.778V115.778ZM235.544 115.095C235.979 115.549 236.563 115.778 237.145 115.778V114.778C236.824 114.778 236.505 114.652 236.266 114.403L235.544 115.095ZM235.358 114.9L235.544 115.095L236.266 114.403L236.08 114.209L235.358 114.9ZM233.796 103.244L229.768 107.271L230.476 107.979L234.503 103.951L233.796 103.244ZM233.847 103.193C233.834 103.207 233.82 103.221 233.805 103.235L234.493 103.961C234.519 103.936 234.545 103.911 234.57 103.885L233.847 103.193ZM233.853 103.187L233.847 103.194L234.57 103.884L234.577 103.877L233.853 103.187ZM238.119 98.9212L233.861 103.179L234.568 103.886L238.826 99.6283L238.119 98.9212ZM238.965 98.5866C238.677 98.5866 238.36 98.6821 238.12 98.9198L238.824 99.6296C238.841 99.6132 238.886 99.5866 238.965 99.5866V98.5866ZM239.82 98.914C239.581 98.6852 239.258 98.5866 238.965 98.5866V99.5866C239.05 99.5866 239.11 99.6179 239.13 99.6374L239.82 98.914ZM242.711 101.801L239.829 98.9219L239.122 99.6295L242.005 102.508L242.711 101.801ZM242.747 103.55C243.23 103.067 243.152 102.269 242.722 101.812L241.994 102.497C242.043 102.55 242.075 102.627 242.078 102.706C242.08 102.787 242.054 102.829 242.04 102.843L242.747 103.55ZM234.395 111.845L242.746 103.551L242.041 102.842L233.691 111.135L234.395 111.845ZM230.111 111.844C231.292 113.025 233.216 113.026 234.397 111.843L233.689 111.137C232.899 111.928 231.609 111.927 230.818 111.137L230.111 111.844ZM229.768 111.5L230.111 111.844L230.819 111.138L230.476 110.794L229.768 111.5ZM229.768 107.272C228.635 108.406 228.635 110.367 229.768 111.501L230.476 110.793C229.733 110.051 229.733 108.722 230.476 107.978L229.768 107.272ZM202.271 146.287L196.624 152.118L197.342 152.814L202.989 146.982L202.271 146.287ZM202.979 161.334C205.116 159.197 206.232 156.896 206.234 154.365C206.236 151.85 205.139 149.195 203.033 146.338L202.228 146.931C204.266 149.697 205.236 152.146 205.234 154.364C205.232 156.566 204.273 158.626 202.272 160.627L202.979 161.334ZM197.314 165.039C199.503 164.197 201.415 162.948 202.985 161.329L202.267 160.633C200.802 162.143 199.014 163.313 196.955 164.105L197.314 165.039ZM190.233 174.563C190.487 170.234 193.195 166.583 197.31 165.04L196.959 164.104C192.479 165.784 189.513 169.775 189.235 174.505L190.233 174.563ZM183.895 188.539C187.647 184.789 189.898 179.827 190.233 174.566L189.235 174.502C188.916 179.518 186.769 184.252 183.188 187.832L183.895 188.539ZM171.185 192.581C175.849 193.76 180.029 192.404 183.895 188.539L183.188 187.832C179.526 191.493 175.695 192.689 171.43 191.612L171.185 192.581ZM157.877 183.792C162.653 188.57 167.13 191.556 171.185 192.581L171.43 191.612C167.63 190.651 163.308 187.81 158.584 183.085L157.877 183.792ZM153.13 157.773C149.532 161.372 148.072 165.297 148.89 169.661C149.699 173.978 152.725 178.641 157.877 183.792L158.584 183.085C153.482 177.983 150.627 173.497 149.873 169.476C149.128 165.502 150.421 161.897 153.837 158.48L153.13 157.773ZM167.094 151.436C161.843 151.771 156.88 154.022 153.13 157.773L153.837 158.48C157.417 154.9 162.152 152.753 167.158 152.434L167.094 151.436ZM176.624 144.371C175.085 148.473 171.435 151.181 167.097 151.436L167.156 152.434C171.893 152.155 175.884 149.19 177.56 144.722L176.624 144.371ZM180.297 138.67C178.719 140.247 177.452 142.218 176.625 144.367L177.559 144.726C178.337 142.702 179.529 140.852 181.004 139.377L180.297 138.67ZM195.294 138.654C192.439 136.531 189.784 135.424 187.269 135.421C184.737 135.418 182.435 136.533 180.297 138.67L181.004 139.377C183.006 137.377 185.067 136.419 187.268 136.421C189.486 136.424 191.934 137.401 194.698 139.457L195.294 138.654ZM189.514 145.035L195.343 139.415L194.649 138.695L188.82 144.316L189.514 145.035ZM179.491 147.818C181.993 145.319 185.644 144.329 189.048 145.161L189.286 144.19C185.547 143.275 181.537 144.361 178.784 147.11L179.491 147.818ZM176.518 154.998C176.518 152.283 177.573 149.736 179.491 147.818L178.784 147.111C176.678 149.216 175.518 152.018 175.518 154.998H176.518ZM179.491 162.176C177.573 160.259 176.518 157.711 176.518 154.998H175.518C175.518 157.976 176.678 160.778 178.784 162.883L179.491 162.176ZM186.662 165.149C183.954 165.149 181.411 164.096 179.491 162.176L178.784 162.883C180.891 164.99 183.688 166.149 186.662 166.149V165.149ZM186.707 165.149L186.662 165.149L186.662 166.149L186.707 166.149L186.707 165.149ZM193.791 162.179C191.921 164.08 189.405 165.138 186.705 165.149L186.709 166.149C189.673 166.137 192.445 164.973 194.504 162.88L193.791 162.179ZM196.497 152.586C197.332 155.974 196.325 159.644 193.794 162.176L194.501 162.883C197.279 160.104 198.387 156.076 197.468 152.347L196.497 152.586ZM186.18 147.313C184.339 147.423 182.556 148.192 181.211 149.537L181.918 150.244C183.085 149.078 184.635 148.407 186.24 148.311L186.18 147.313ZM186.628 148.328C186.629 148.203 186.649 148.081 186.686 147.965L185.734 147.66C185.666 147.871 185.63 148.093 185.628 148.319L186.628 148.328ZM186.989 149.199C186.757 148.969 186.626 148.654 186.628 148.325L185.628 148.321C185.625 148.917 185.861 149.489 186.284 149.908L186.989 149.199ZM192.477 154.632L186.988 149.198L186.284 149.909L191.774 155.342L192.477 154.632ZM193.333 154.983C193.014 154.983 192.706 154.857 192.476 154.631L191.775 155.343C192.191 155.753 192.75 155.983 193.333 155.983V154.983ZM193.351 154.983H193.333V155.983H193.351V154.983ZM193.694 154.929C193.582 154.963 193.465 154.982 193.346 154.983L193.356 155.983C193.574 155.981 193.787 155.947 193.991 155.884L193.694 154.929ZM192.064 160.467C193.439 159.092 194.227 157.289 194.342 155.437L193.344 155.375C193.244 156.986 192.558 158.56 191.357 159.76L192.064 160.467ZM186.696 162.718C188.735 162.71 190.646 161.909 192.067 160.464L191.354 159.763C190.122 161.016 188.467 161.711 186.692 161.718L186.696 162.718ZM186.662 162.718H186.694V161.718H186.662V162.718ZM181.211 160.456C182.668 161.914 184.606 162.718 186.662 162.718V161.718C184.872 161.718 183.188 161.02 181.918 159.749L181.211 160.456ZM178.951 154.998C178.951 157.059 179.754 159 181.211 160.457L181.918 159.749C180.649 158.481 179.951 156.794 179.951 154.998H178.951ZM181.211 149.537C179.754 150.994 178.951 152.935 178.951 154.998H179.951C179.951 153.2 180.649 151.514 181.918 150.244L181.211 149.537ZM172.573 178.432C172.261 178.432 171.951 178.314 171.713 178.076L171.005 178.782C171.438 179.216 172.007 179.432 172.573 179.432V178.432ZM173.433 178.076C173.196 178.314 172.885 178.432 172.573 178.432V179.432C173.139 179.432 173.708 179.216 174.14 178.784L173.433 178.076ZM173.433 176.357C173.908 176.832 173.908 177.601 173.433 178.077L174.141 178.783C175.005 177.917 175.006 176.515 174.14 175.65L173.433 176.357ZM165.313 168.236L173.433 176.357L174.14 175.65L166.021 167.529L165.313 168.236ZM163.593 168.235C164.068 167.76 164.839 167.76 165.313 168.236L166.021 167.53C165.156 166.662 163.751 166.663 162.886 167.528L163.593 168.235ZM163.593 169.955C163.119 169.48 163.118 168.711 163.593 168.235L162.886 167.529C162.021 168.395 162.021 169.797 162.886 170.662L163.593 169.955ZM171.713 178.076L163.593 169.955L162.886 170.662L171.006 178.783L171.713 178.076Z" fill="#292B3C"/>
<path d="M92.4807 54.7381C92.136 55.1209 91.5045 55.1588 91.1276 54.8194L87.7824 51.807C87.4055 51.4675 87.3773 50.8356 87.722 50.4528C88.0667 50.07 88.6981 50.0321 89.075 50.3716L92.4202 53.384C92.7972 53.7234 92.8254 54.3554 92.4807 54.7381Z" fill="white"/>
<path d="M92.5068 51.2961L89.0598 55.1238C88.7151 55.5066 88.0837 55.5445 87.7067 55.2051C87.3298 54.8656 87.3016 54.2337 87.6463 53.8509L91.0933 50.0232C91.438 49.6404 92.0694 49.6025 92.4464 49.9419C92.8233 50.2813 92.8515 50.9133 92.5068 51.2961Z" fill="white"/>
<path d="M112.952 43.2799C110.927 45.5287 107.5 45.7346 105.285 43.7404C103.071 41.7463 102.918 38.3158 104.943 36.067C106.968 33.8182 110.396 33.6123 112.61 35.6065C114.824 37.6007 114.977 41.0311 112.952 43.2799ZM106.827 37.7642C105.75 38.9603 105.831 40.7658 107.009 41.8266C108.186 42.8873 109.991 42.7789 111.068 41.5828C112.145 40.3866 112.064 38.5811 110.886 37.5204C109.709 36.4596 107.905 36.568 106.827 37.7642Z" fill="white"/>
<path d="M12.6721 42.2799C10.6469 44.5287 7.21924 44.7346 5.00481 42.7404C2.79039 40.7463 2.63733 37.3158 4.66244 35.067C6.68755 32.8182 10.1153 32.6123 12.3297 34.6065C14.5441 36.6006 14.6972 40.0311 12.6721 42.2799ZM6.54705 36.7641C5.46987 37.9603 5.55043 39.7658 6.72831 40.8266C7.9062 41.8873 9.71026 41.7789 10.7874 40.5828C11.8646 39.3866 11.7841 37.5811 10.6062 36.5203C9.4283 35.4596 7.62424 35.568 6.54705 36.7641Z" fill="white" stroke="#131520"/>
<path d="M537.481 54.7379C537.136 55.1207 536.505 55.1586 536.128 54.8192L532.782 51.8067C532.405 51.4673 532.377 50.8354 532.722 50.4526C533.067 50.0698 533.698 50.0319 534.075 50.3713L537.42 53.3838C537.797 53.7232 537.825 54.3552 537.481 54.7379Z" fill="white"/>
<path d="M537.507 51.2958L534.06 55.1236C533.715 55.5063 533.084 55.5443 532.707 55.2048C532.33 54.8654 532.302 54.2335 532.646 53.8507L536.093 50.023C536.438 49.6402 537.069 49.6023 537.446 49.9417C537.823 50.2811 537.851 50.9131 537.507 51.2958Z" fill="white"/>
<path d="M550.672 41.2798C548.647 43.5286 545.219 43.7345 543.005 41.7403C540.79 39.7462 540.637 36.3157 542.662 34.0669C544.688 31.8181 548.115 31.6122 550.33 33.6064C552.544 35.6006 552.697 39.031 550.672 41.2798ZM544.547 35.7641C543.47 36.9602 543.55 38.7658 544.728 39.8265C545.906 40.8872 547.71 40.7788 548.787 39.5827C549.865 38.3865 549.784 36.581 548.606 35.5203C547.428 34.4595 545.624 34.5679 544.547 35.7641Z" fill="white"/>
<path d="M236.962 161.883C234.937 164.132 231.509 164.338 229.295 162.343C227.08 160.349 226.927 156.919 228.952 154.67C230.978 152.421 234.405 152.215 236.62 154.21C238.834 156.204 238.987 159.634 236.962 161.883ZM230.837 156.367C229.76 157.563 229.84 159.369 231.018 160.43C232.196 161.49 234 161.382 235.077 160.186C236.155 158.99 236.074 157.184 234.896 156.123C233.718 155.063 231.914 155.171 230.837 156.367Z" fill="white"/>
<path d="M262.143 92.5745C261.14 93.6878 259.443 93.7898 258.347 92.8025C257.251 91.8152 257.175 90.1168 258.177 89.0035C259.18 87.8902 260.877 87.7882 261.973 88.7755C263.07 89.7628 263.145 91.4612 262.143 92.5745ZM259.111 89.8437C258.577 90.4359 258.617 91.3298 259.2 91.855C259.783 92.3801 260.677 92.3265 261.21 91.7343C261.743 91.1421 261.703 90.2482 261.12 89.723C260.537 89.1979 259.644 89.2515 259.111 89.8437Z" fill="white"/>
<path d="M297.764 91.1671C297.477 91.2304 297.21 91.0626 297.147 90.78L296.275 86.8229C296.212 86.5403 296.384 86.2757 296.671 86.2124C296.958 86.1491 297.225 86.3169 297.288 86.5995L298.16 90.5566C298.223 90.8392 298.051 91.1038 297.764 91.1671Z" fill="white"/>
<path d="M299.523 88.7047L295.133 89.6728C294.846 89.7361 294.579 89.5684 294.516 89.2857C294.454 89.0031 294.626 88.7385 294.913 88.6752L299.303 87.7071C299.59 87.6438 299.857 87.8116 299.919 88.0942C299.982 88.3768 299.81 88.6414 299.523 88.7047Z" fill="white"/>
<path d="M435.025 19.5358C434.406 20.4386 433.253 20.6631 432.364 20.0537L419.917 11.5225C419.028 10.9131 418.821 9.75667 419.44 8.85379C420.059 7.95091 421.212 7.72647 422.101 8.33584L434.548 16.8671C435.437 17.4764 435.644 18.6329 435.025 19.5358Z" fill="white"/>
<path d="M433.535 8.36631L424.07 22.1751C423.451 23.078 422.298 23.3024 421.409 22.693C420.52 22.0837 420.314 20.9272 420.932 20.0244L430.397 6.21558C431.016 5.3127 432.169 5.08825 433.058 5.69763C433.947 6.307 434.154 7.46343 433.535 8.36631Z" fill="white"/>
<path d="M451.098 33.0833C450.344 33.2497 449.655 32.8173 449.491 32.0743L448.126 25.8826C447.962 25.1396 448.405 24.4576 449.159 24.2912C449.914 24.1248 450.603 24.5573 450.766 25.3003L452.132 31.4919C452.296 32.2349 451.853 32.9169 451.098 33.0833Z" fill="white"/>
<path d="M453.936 29.2145L446.894 30.7676C446.139 30.9339 445.451 30.5015 445.287 29.7585C445.123 29.0155 445.566 28.3335 446.32 28.1671L453.363 26.614C454.117 26.4476 454.806 26.8801 454.97 27.6231C455.134 28.3661 454.691 29.0481 453.936 29.2145Z" fill="white"/>
<path d="M418.727 103.648C416.768 103.648 415.053 103.174 413.634 102.544C412.104 101.863 411.415 100.071 412.093 98.5396C412.772 97.0051 414.584 96.324 416.09 96.9981L416.095 97.0003C417.3 97.5355 420.923 99.1444 426.835 93.0983C428.003 91.9034 429.927 91.8843 431.117 93.0547C432.313 94.227 432.334 96.1481 431.162 97.3447C426.469 102.141 422.215 103.648 418.727 103.648Z" fill="#FFAB09"/>
<path d="M429.057 117.991C429.561 119.121 430.668 119.792 431.826 119.792C432.24 119.792 432.657 119.708 433.057 119.529C434.584 118.848 435.273 117.055 434.595 115.524C434.069 114.347 432.48 110.764 438.588 104.769C439.784 103.597 439.805 101.676 438.633 100.479C437.468 99.2841 435.548 99.265 434.351 100.435C426.814 107.827 427.314 114.061 429.057 117.991Z" fill="#FFAB09"/>
<path fill-rule="evenodd" clip-rule="evenodd" d="M504.884 38.7865C506.559 39.4221 508.224 39.7495 509.791 39.7495C512.16 39.7495 514.302 39.0024 515.913 37.4417C517.972 35.2593 518.629 31.983 517.802 28.4089C518.101 28.1477 518.396 27.8795 518.678 27.5973C521.395 24.8767 523.325 21.6283 524.118 18.4513C525.033 14.7971 524.337 11.4791 522.212 9.35237C520.056 7.18911 516.713 6.47325 513.05 7.39115C509.899 8.18017 506.685 10.0978 504 12.7871C503.683 13.1041 503.387 13.4141 503.106 13.7242C499.523 12.815 496.257 13.4681 494.1 15.621C491.933 17.7895 491.227 21.1423 492.159 24.8192C492.321 25.4597 492.53 26.1036 492.783 26.746L469.072 49.4106C452.835 37.9233 434.383 40.8009 412.765 58.1706C412.094 58.7105 411.683 59.5117 411.635 60.3722C411.589 61.2326 411.909 62.0739 412.518 62.6835L416.56 66.7296C418.136 68.3076 419.005 70.4186 419.005 72.6725C419.005 74.9263 418.136 77.0373 416.56 78.6153L409.895 85.2915C406.626 88.566 401.293 88.566 398.024 85.2915L393.078 80.3362C391.933 79.1884 390.093 79.1466 388.9 80.2334C377.801 90.3112 367.317 99.8317 367.007 112.559C366.792 121.359 371.366 130.702 381.326 141.667C381.472 141.892 381.651 142.102 381.862 142.288C381.907 142.328 381.953 142.367 382 142.404C382.469 142.911 382.95 143.422 383.441 143.936L380.211 147.172C379.028 148.357 379.028 150.276 380.211 151.462C380.802 152.055 381.578 152.351 382.354 152.351C383.129 152.351 383.905 152.055 384.496 151.462L387.726 148.227C388.238 148.718 388.747 149.198 389.252 149.667C389.288 149.713 389.326 149.758 389.365 149.802C389.553 150.018 389.766 150.2 389.994 150.348C400.696 160.098 409.851 164.693 418.466 164.693C418.661 164.693 418.859 164.691 419.054 164.686C431.764 164.374 441.274 153.877 451.337 142.761C452.422 141.562 452.377 139.721 451.236 138.577L446.286 133.622C444.71 132.044 443.841 129.933 443.841 127.679C443.841 125.425 444.71 123.314 446.286 121.736L452.951 115.06C456.102 111.904 461.667 111.904 464.819 115.06L468.857 119.104C469.466 119.716 470.308 120.038 471.17 119.989C472.033 119.94 472.833 119.526 473.369 118.848C490.335 97.4956 493.176 79.1132 482.01 62.7415L504.884 38.7865ZM389.908 141.877C390.524 142.493 391.135 143.092 391.74 143.674L407.898 129.466L402.188 123.804L387.989 139.918C388.569 140.523 389.166 141.133 389.781 141.75C389.795 141.763 389.809 141.776 389.822 141.789C389.83 141.797 389.838 141.805 389.846 141.813C389.867 141.834 389.888 141.855 389.908 141.877ZM499.501 35.6464C498.863 35.1318 498.239 34.571 497.634 33.9652C497.036 33.3657 496.475 32.7414 495.956 32.0987L443.925 81.8327L449.761 87.7345L475.876 60.3634C475.95 60.2868 476.027 60.2144 476.107 60.1462L499.501 35.6464ZM498.382 19.9127C498.726 19.5696 499.318 19.4006 500.052 19.4006C500.886 19.4006 501.906 19.6218 502.949 20.0572C504.229 20.6007 505.707 20.1931 506.542 19.0801C507.06 18.3852 507.582 17.7773 508.281 17.0788C510.177 15.1821 512.448 13.7956 514.522 13.2766C516.042 12.8934 517.322 13.0293 517.927 13.6406C518.504 14.2171 518.619 15.466 518.243 16.9796C517.718 19.0749 516.316 21.381 514.393 23.3074C514.015 23.6844 513.602 24.0252 513.199 24.3574L513.085 24.4517L512.341 25.0718C511.37 25.9096 511.029 27.2699 511.492 28.4665C512.295 30.5479 512.302 32.4359 511.607 33.1779C510.32 34.425 505.906 33.6726 501.919 29.6752C499.979 27.7314 498.559 25.4184 498.031 23.3265C497.638 21.7764 497.766 20.531 498.382 19.9127ZM451.991 94.1814C451.95 94.2234 451.909 94.2641 451.867 94.3034C451.365 94.773 450.744 95.0397 450.107 95.1045C450.026 95.1129 449.944 95.1179 449.862 95.1197L449.827 95.1202L449.799 95.1203C449.047 95.1203 448.293 94.8399 447.705 94.279L447.703 94.2776C447.684 94.2593 447.665 94.2406 447.646 94.2215L437.448 83.9085C437.305 83.7639 437.178 83.6064 437.068 83.4388L437.046 83.4032L437.028 83.3754C436.964 83.272 436.906 83.165 436.855 83.055C436.838 83.0179 436.821 82.9805 436.806 82.9427C436.647 82.5627 436.566 82.1507 436.571 81.7313C436.581 80.9179 436.919 80.1428 437.507 79.5803L464.565 53.6803C451.542 45.1021 436.988 47.4048 419.228 60.8198L420.845 62.4379C426.48 68.0812 426.48 77.2637 420.845 82.9053L414.181 89.5814C408.546 95.2212 399.38 95.2212 393.738 89.5814L390.834 86.6692C381.22 95.4442 373.293 103.27 373.063 112.708C372.903 119.236 376.458 126.704 383.889 135.402L399.769 117.381C400.349 116.724 401.151 116.378 401.963 116.357C402.023 116.355 402.084 116.356 402.145 116.358C402.881 116.382 403.61 116.673 404.173 117.232L414.472 127.444C414.914 127.883 415.193 128.424 415.308 128.993C415.443 129.658 415.353 130.356 415.045 130.967C414.875 131.304 414.64 131.615 414.339 131.879L396.256 147.781C404.981 155.246 412.523 158.846 418.908 158.621C428.334 158.39 436.147 150.452 444.909 140.824L442.001 137.913C439.281 135.188 437.781 131.554 437.781 127.679C437.781 123.803 439.281 120.17 442.001 117.446L448.665 110.77C451.385 108.046 455.017 106.546 458.885 106.546C462.753 106.546 466.384 108.046 469.104 110.77L470.708 112.376C483.765 94.868 486.025 80.3767 477.714 67.2402L451.991 94.1814Z" fill="#FFAB09"/>
<path fill-rule="evenodd" clip-rule="evenodd" d="M459.973 152.835C459.455 153.353 459.164 154.012 459.1 154.688C459.085 154.842 459.082 154.997 459.091 155.151C459.097 155.26 459.109 155.368 459.126 155.476L460.821 166.634L448.665 178.822C447.482 180.008 447.482 181.927 448.668 183.112C449.26 183.704 450.032 184 450.808 184C451.583 184 452.359 183.702 452.95 183.11L543.113 92.7129C543.795 92.0301 544.111 91.0652 543.965 90.1124L542.05 77.505C541.961 76.8764 541.675 76.2702 541.192 75.7866C540.01 74.5987 538.09 74.5987 536.907 75.7866L459.973 152.835ZM537.746 89.5098L466.14 161.302L465.34 156.039L536.956 84.3171L537.746 89.5098Z" fill="#FFAB09"/>
<path d="M418.727 103.648C416.768 103.648 415.053 103.174 413.634 102.544C412.104 101.863 411.415 100.071 412.093 98.5396C412.772 97.0051 414.584 96.324 416.09 96.9981L416.095 97.0003C417.3 97.5355 420.923 99.1444 426.835 93.0983C428.003 91.9034 429.927 91.8843 431.117 93.0547C432.313 94.227 432.334 96.1481 431.162 97.3447C426.469 102.141 422.215 103.648 418.727 103.648Z" stroke="#292B3C" stroke-width="3"/>
<path d="M429.057 117.991C429.561 119.121 430.668 119.792 431.826 119.792C432.24 119.792 432.657 119.708 433.057 119.529C434.584 118.848 435.273 117.055 434.595 115.524C434.069 114.347 432.48 110.764 438.588 104.769C439.784 103.597 439.805 101.676 438.633 100.479C437.468 99.2841 435.548 99.265 434.351 100.435C426.814 107.827 427.314 114.061 429.057 117.991Z" stroke="#292B3C" stroke-width="3"/>
<path fill-rule="evenodd" clip-rule="evenodd" d="M504.884 38.7865C506.559 39.4221 508.224 39.7495 509.791 39.7495C512.16 39.7495 514.302 39.0024 515.913 37.4417C517.972 35.2593 518.629 31.983 517.802 28.4089C518.101 28.1477 518.396 27.8795 518.678 27.5973C521.395 24.8767 523.325 21.6283 524.118 18.4513C525.033 14.7971 524.337 11.4791 522.212 9.35237C520.056 7.18911 516.713 6.47325 513.05 7.39115C509.899 8.18017 506.685 10.0978 504 12.7871C503.683 13.1041 503.387 13.4141 503.106 13.7242C499.523 12.815 496.257 13.4681 494.1 15.621C491.933 17.7895 491.227 21.1423 492.159 24.8192C492.321 25.4597 492.53 26.1036 492.783 26.746L469.072 49.4106C452.835 37.9233 434.383 40.8009 412.765 58.1706C412.094 58.7105 411.683 59.5117 411.635 60.3722C411.589 61.2326 411.909 62.0739 412.518 62.6835L416.56 66.7296C418.136 68.3076 419.005 70.4186 419.005 72.6725C419.005 74.9263 418.136 77.0373 416.56 78.6153L409.895 85.2915C406.626 88.566 401.293 88.566 398.024 85.2915L393.078 80.3362C391.933 79.1884 390.093 79.1466 388.9 80.2334C377.801 90.3112 367.317 99.8317 367.007 112.559C366.792 121.359 371.366 130.702 381.326 141.667C381.472 141.892 381.651 142.102 381.862 142.288C381.907 142.328 381.953 142.367 382 142.404C382.469 142.911 382.95 143.422 383.441 143.936L380.211 147.172C379.028 148.357 379.028 150.276 380.211 151.462C380.802 152.055 381.578 152.351 382.354 152.351C383.129 152.351 383.905 152.055 384.496 151.462L387.726 148.227C388.238 148.718 388.747 149.198 389.252 149.667C389.288 149.713 389.326 149.758 389.365 149.802C389.553 150.018 389.766 150.2 389.994 150.348C400.696 160.098 409.851 164.693 418.466 164.693C418.661 164.693 418.859 164.691 419.054 164.686C431.764 164.374 441.274 153.877 451.337 142.761C452.422 141.562 452.377 139.721 451.236 138.577L446.286 133.622C444.71 132.044 443.841 129.933 443.841 127.679C443.841 125.425 444.71 123.314 446.286 121.736L452.951 115.06C456.102 111.904 461.667 111.904 464.819 115.06L468.857 119.104C469.466 119.716 470.308 120.038 471.17 119.989C472.033 119.94 472.833 119.526 473.369 118.848C490.335 97.4956 493.176 79.1132 482.01 62.7415L504.884 38.7865ZM389.908 141.877C390.524 142.493 391.135 143.092 391.74 143.674L407.898 129.466L402.188 123.804L387.989 139.918C388.569 140.523 389.166 141.133 389.781 141.75C389.795 141.763 389.809 141.776 389.822 141.789C389.83 141.797 389.838 141.805 389.846 141.813C389.867 141.834 389.888 141.855 389.908 141.877ZM499.501 35.6464C498.863 35.1318 498.239 34.571 497.634 33.9652C497.036 33.3657 496.475 32.7414 495.956 32.0987L443.925 81.8327L449.761 87.7345L475.876 60.3634C475.95 60.2868 476.027 60.2144 476.107 60.1462L499.501 35.6464ZM498.382 19.9127C498.726 19.5696 499.318 19.4006 500.052 19.4006C500.886 19.4006 501.906 19.6218 502.949 20.0572C504.229 20.6007 505.707 20.1931 506.542 19.0801C507.06 18.3852 507.582 17.7773 508.281 17.0788C510.177 15.1821 512.448 13.7956 514.522 13.2766C516.042 12.8934 517.322 13.0293 517.927 13.6406C518.504 14.2171 518.619 15.466 518.243 16.9796C517.718 19.0749 516.316 21.381 514.393 23.3074C514.015 23.6844 513.602 24.0252 513.199 24.3574L513.085 24.4517L512.341 25.0718C511.37 25.9096 511.029 27.2699 511.492 28.4665C512.295 30.5479 512.302 32.4359 511.607 33.1779C510.32 34.425 505.906 33.6726 501.919 29.6752C499.979 27.7314 498.559 25.4184 498.031 23.3265C497.638 21.7764 497.766 20.531 498.382 19.9127ZM451.991 94.1814C451.95 94.2234 451.909 94.2641 451.867 94.3034C451.365 94.773 450.744 95.0397 450.107 95.1045C450.026 95.1129 449.944 95.1179 449.862 95.1197L449.827 95.1202L449.799 95.1203C449.047 95.1203 448.293 94.8399 447.705 94.279L447.703 94.2776C447.684 94.2593 447.665 94.2406 447.646 94.2215L437.448 83.9085C437.305 83.7639 437.178 83.6064 437.068 83.4388L437.046 83.4032L437.028 83.3754C436.964 83.272 436.906 83.165 436.855 83.055C436.838 83.0179 436.821 82.9805 436.806 82.9427C436.647 82.5627 436.566 82.1507 436.571 81.7313C436.581 80.9179 436.919 80.1428 437.507 79.5803L464.565 53.6803C451.542 45.1021 436.988 47.4048 419.228 60.8198L420.845 62.4379C426.48 68.0812 426.48 77.2637 420.845 82.9053L414.181 89.5814C408.546 95.2212 399.38 95.2212 393.738 89.5814L390.834 86.6692C381.22 95.4442 373.293 103.27 373.063 112.708C372.903 119.236 376.458 126.704 383.889 135.402L399.769 117.381C400.349 116.724 401.151 116.378 401.963 116.357C402.023 116.355 402.084 116.356 402.145 116.358C402.881 116.382 403.61 116.673 404.173 117.232L414.472 127.444C414.914 127.883 415.193 128.424 415.308 128.993C415.443 129.658 415.353 130.356 415.045 130.967C414.875 131.304 414.64 131.615 414.339 131.879L396.256 147.781C404.981 155.246 412.523 158.846 418.908 158.621C428.334 158.39 436.147 150.452 444.909 140.824L442.001 137.913C439.281 135.188 437.781 131.554 437.781 127.679C437.781 123.803 439.281 120.17 442.001 117.446L448.665 110.77C451.385 108.046 455.017 106.546 458.885 106.546C462.753 106.546 466.384 108.046 469.104 110.77L470.708 112.376C483.765 94.868 486.025 80.3767 477.714 67.2402L451.991 94.1814Z" stroke="#292B3C" stroke-width="3"/>
<path fill-rule="evenodd" clip-rule="evenodd" d="M459.973 152.835C459.455 153.353 459.164 154.012 459.1 154.688C459.085 154.842 459.082 154.997 459.091 155.151C459.097 155.26 459.109 155.368 459.126 155.476L460.821 166.634L448.665 178.822C447.482 180.008 447.482 181.927 448.668 183.112C449.26 183.704 450.032 184 450.808 184C451.583 184 452.359 183.702 452.95 183.11L543.113 92.7129C543.795 92.0301 544.111 91.0652 543.965 90.1124L542.05 77.505C541.961 76.8764 541.675 76.2702 541.192 75.7866C540.01 74.5987 538.09 74.5987 536.907 75.7866L459.973 152.835ZM537.746 89.5098L466.14 161.302L465.34 156.039L536.956 84.3171L537.746 89.5098Z" stroke="#292B3C" stroke-width="3"/>
</svg>
