<?xml version="1.0" encoding="utf-8"?>
<!-- Generator: Adobe Illustrator 22.0.0, SVG Export Plug-In . SVG Version: 6.00 Build 0)  -->
<svg version="1.1" id="Layer_1" xmlns="http://www.w3.org/2000/svg" xmlns:xlink="http://www.w3.org/1999/xlink" x="0px" y="0px"
	 viewBox="0 0 500 167" style="enable-background:new 0 0 500 167;" xml:space="preserve">
<style type="text/css">
	.st0{fill:#FF4284;}
	.st1{fill:#FFFFFF;filter:url(#Adobe_OpacityMaskFilter);}
	.st2{mask:url(#path-1-inside-1_1_);fill:#292B3C;}
	.st3{fill:#6AD2FF;}
	.st4{fill:#FFAB09;}
	.st5{fill:#F8774E;}
	.st6{fill:#292B3C;}
	.st7{fill:#FFFFFF;}
	.st8{fill:#FFFFFF;stroke:#131520;}
	.st9{fill:none;stroke:#292B3C;stroke-width:3;}
</style>
<path class="st0" d="M8.1,46.3c0,2.6,1.7,5.3,4.7,5.8C21.2,60,27,70.6,30.1,83.7c0,0,0,0,0,0v29.8l0,0c0,13.1,6,24.9,15.5,32.6
	c0.2,0.2,0.4,0.4,0.7,0.6c7.1,5.6,16.1,8.9,25.9,8.9h0.1h43.2v0.6c0,1.1,0.9,2,2,2c1.1,0,2-0.9,2-2v-2.6c0,0,0,0,0-0.1
	c0,0,0,0,0-0.1v-2.6c0-1.1-0.9-2-2-2c-1.1,0-2,0.9-2,2v0.6H90.1c14.3-6.8,24.1-21.3,24.1-38.1c0-23.2-18.9-42.1-42.1-42.1
	c-9.7,0-18.7,3.3-25.9,8.9c-0.3,0.1-0.5,0.3-0.7,0.6c-4.8,3.9-8.8,8.9-11.5,14.6V83.2c0,0,0,0,0,0c3.2-12.8,8.9-23.2,17.1-31
	c1.3-0.2,2.4-0.8,3.3-1.8c0.9-1.1,1.5-2.5,1.5-4c0-2.9-2-5.9-5.8-5.9H14c-1.8,0-3.3,0.7-4.4,1.9C8.6,43.4,8.1,44.8,8.1,46.3z
	 M14,44.4c-1.7,0-1.8,1.4-1.8,1.9c0,0.4,0.1,1.9,1.8,1.9h36.2c1.7,0,1.8-1.4,1.8-1.9c0-0.4-0.1-1.9-1.8-1.9H14z M45.5,52.2H18.6
	c5.9,6.5,10.4,14.4,13.4,23.6C35.1,66.6,39.6,58.7,45.5,52.2z M72.2,151.5c21,0,38-17.1,38-38.1c0-21-17.1-38.1-38.1-38.1
	c-8.6,0-16.6,2.9-23,7.8v4.6c6.3-5.6,14.4-8.7,23-8.7c19,0,34.5,15.5,34.5,34.4s-15.5,34.4-34.5,34.4c-8.5,0-16.7-3.1-23-8.7v4.6
	c6.4,4.9,14.3,7.7,22.9,7.8H72.2L72.2,151.5z M49.2,133.5c5.8,6.6,14.2,10.4,23,10.4c16.8,0,30.4-13.6,30.4-30.4
	S88.9,83.1,72.1,83.1c-8.8,0-17.1,3.8-23,10.4v4.8h6.8c0.5-5.2,4.7-7.9,9-7.9s8.5,2.7,9,7.9h6.9v-0.9c0-1.1,0.9-2,2-2
	c1.1,0,2,0.9,2,2v2.9c0,0,0,0,0,0.1c0,0,0,0,0,0.1v2.9c0,1.1-0.9,2-2,2c-1.1,0-2-0.9-2-2v-0.9h-6.8v9.2h6.8v-0.9c0-1.1,0.9-2,2-2
	c1.1,0,2,0.9,2,2v2.9c0,0,0,0,0,0.1s0,0,0,0.1v2.9c0,1.1-0.9,2-2,2c-1.1,0-2-0.9-2-2v-0.9h-6.8v9.2h6.8v-0.9c0-1.1,0.9-2,2-2
	c1.1,0,2,0.9,2,2v2.9c0,0,0,0,0,0.1s0,0,0,0.1v2.8c0,1.1-0.9,2-2,2c-1.1,0-2-0.9-2-2v-0.9h-6.9c-0.5,5.2-4.7,7.9-9,7.9
	c-2.3,0-4.5-0.8-6.1-2.2c-1.2-1-2.6-2.8-2.8-5.7h-6.8V133.5z M69.8,98.2c-0.4-2.7-2.7-3.9-4.9-3.9c-2.2,0-4.4,1.2-4.9,3.9H69.8z
	 M69.9,102.3v9.2h-9.9v-9.2H69.9z M55.9,102.3h-6.7v9.2h6.7V102.3z M45.1,100.2V86.7c-6.8,6.9-11,16.3-11,26.8s4.2,19.9,11,26.8
	v-13.5v-13.2V100.2z M49.2,124.7h6.7v-9.2h-6.7V124.7z M60,128.7c0.4,2.7,2.7,3.9,4.9,3.9c2.2,0,4.4-1.2,4.9-3.9H60z M69.9,124.7
	h-9.9v-9.2h9.9V124.7z"/>
<defs>
	<filter id="Adobe_OpacityMaskFilter" filterUnits="userSpaceOnUse" x="7.3" y="39.6" width="113.1" height="119.5">
		<feColorMatrix  type="matrix" values="1 0 0 0 0  0 1 0 0 0  0 0 1 0 0  0 0 0 1 0"/>
	</filter>
</defs>
<mask maskUnits="userSpaceOnUse" x="7.3" y="39.6" width="113.1" height="119.5" id="path-1-inside-1_1_">
	<path class="st1" d="M8.1,46.3c0,2.6,1.7,5.3,4.7,5.8C21.2,60,27,70.6,30.1,83.7c0,0,0,0,0,0v29.8l0,0c0,13.1,6,24.9,15.5,32.6
		c0.2,0.2,0.4,0.4,0.7,0.6c7.1,5.6,16.1,8.9,25.9,8.9h0.1h43.2v0.6c0,1.1,0.9,2,2,2c1.1,0,2-0.9,2-2v-2.6c0,0,0,0,0-0.1
		c0,0,0,0,0-0.1v-2.6c0-1.1-0.9-2-2-2c-1.1,0-2,0.9-2,2v0.6H90.1c14.3-6.8,24.1-21.3,24.1-38.1c0-23.2-18.9-42.1-42.1-42.1
		c-9.7,0-18.7,3.3-25.9,8.9c-0.3,0.1-0.5,0.3-0.7,0.6c-4.8,3.9-8.8,8.9-11.5,14.6V83.2c0,0,0,0,0,0c3.2-12.8,8.9-23.2,17.1-31
		c1.3-0.2,2.4-0.8,3.3-1.8c0.9-1.1,1.5-2.5,1.5-4c0-2.9-2-5.9-5.8-5.9H14c-1.8,0-3.3,0.7-4.4,1.9C8.6,43.4,8.1,44.8,8.1,46.3z
		 M14,44.4c-1.7,0-1.8,1.4-1.8,1.9c0,0.4,0.1,1.9,1.8,1.9h36.2c1.7,0,1.8-1.4,1.8-1.9c0-0.4-0.1-1.9-1.8-1.9H14z M45.5,52.2H18.6
		c5.9,6.5,10.4,14.4,13.4,23.6C35.1,66.6,39.6,58.7,45.5,52.2z M72.2,151.5c21,0,38-17.1,38-38.1c0-21-17.1-38.1-38.1-38.1
		c-8.6,0-16.6,2.9-23,7.8v4.6c6.3-5.6,14.4-8.7,23-8.7c19,0,34.5,15.5,34.5,34.4s-15.5,34.4-34.5,34.4c-8.5,0-16.7-3.1-23-8.7v4.6
		c6.4,4.9,14.3,7.7,22.9,7.8H72.2L72.2,151.5z M49.2,133.5c5.8,6.6,14.2,10.4,23,10.4c16.8,0,30.4-13.6,30.4-30.4
		S88.9,83.1,72.1,83.1c-8.8,0-17.1,3.8-23,10.4v4.8h6.8c0.5-5.2,4.7-7.9,9-7.9s8.5,2.7,9,7.9h6.9v-0.9c0-1.1,0.9-2,2-2
		c1.1,0,2,0.9,2,2v2.9c0,0,0,0,0,0.1c0,0,0,0,0,0.1v2.9c0,1.1-0.9,2-2,2c-1.1,0-2-0.9-2-2v-0.9h-6.8v9.2h6.8v-0.9c0-1.1,0.9-2,2-2
		c1.1,0,2,0.9,2,2v2.9c0,0,0,0,0,0.1s0,0,0,0.1v2.9c0,1.1-0.9,2-2,2c-1.1,0-2-0.9-2-2v-0.9h-6.8v9.2h6.8v-0.9c0-1.1,0.9-2,2-2
		c1.1,0,2,0.9,2,2v2.9c0,0,0,0,0,0.1s0,0,0,0.1v2.8c0,1.1-0.9,2-2,2c-1.1,0-2-0.9-2-2v-0.9h-6.9c-0.5,5.2-4.7,7.9-9,7.9
		c-2.3,0-4.5-0.8-6.1-2.2c-1.2-1-2.6-2.8-2.8-5.7h-6.8V133.5z M69.8,98.2c-0.4-2.7-2.7-3.9-4.9-3.9c-2.2,0-4.4,1.2-4.9,3.9H69.8z
		 M69.9,102.3v9.2h-9.9v-9.2H69.9z M55.9,102.3h-6.7v9.2h6.7V102.3z M45.1,100.2V86.7c-6.8,6.9-11,16.3-11,26.8s4.2,19.9,11,26.8
		v-13.5v-13.2V100.2z M49.2,124.7h6.7v-9.2h-6.7V124.7z M60,128.7c0.4,2.7,2.7,3.9,4.9,3.9c2.2,0,4.4-1.2,4.9-3.9H60z M69.9,124.7
		h-9.9v-9.2h9.9V124.7z"/>
</mask>
<path class="st2" d="M12.9,52.1l0.6-0.6l-0.2-0.2l-0.3,0L12.9,52.1z M30.1,83.7l0.8-0.2l0,0L30.1,83.7z M30.1,83.7H31v-0.1l0-0.1
	L30.1,83.7z M45.6,146.1l0.7-0.5l-0.1-0.1l-0.1-0.1L45.6,146.1z M46.3,146.6l0.5-0.7l-0.1-0.1l-0.1,0L46.3,146.6z M72.1,155.6v0.9h0
	L72.1,155.6z M72.2,155.6v-0.9h0L72.2,155.6z M115.4,155.6h0.9v-0.9h-0.9V155.6z M119.5,153.6l-0.9,0v0v0H119.5z M119.5,153.5h-0.9
	v0v0L119.5,153.5z M115.4,151.5v0.9h0.9v-0.9H115.4z M90.1,151.5l-0.4-0.8l0.4,1.7V151.5z M46.3,80.3l0.4,0.8l0.1,0l0.1-0.1
	L46.3,80.3z M45.6,80.9l0.6,0.7l0.1-0.1l0.1-0.1L45.6,80.9z M34.1,95.5h-0.9l1.7,0.4L34.1,95.5z M34.1,83.2l-0.8-0.2l0,0.1l0,0.1
	L34.1,83.2z M51.3,52.1l-0.1-0.9l-0.3,0l-0.2,0.2L51.3,52.1z M54.6,50.3l0.7,0.6l0,0L54.6,50.3z M9.6,42.3l0.7,0.6l0,0L9.6,42.3z
	 M18.6,52.2v-0.9h-2l1.3,1.5L18.6,52.2z M45.5,52.2l0.6,0.6l1.3-1.5h-2V52.2z M32.1,75.8l-0.8,0.3l0.8,2.5l0.8-2.5L32.1,75.8z
	 M72.2,151.5v0.9h0L72.2,151.5z M49.2,83.2l-0.5-0.7l-0.3,0.3v0.4H49.2z M49.2,87.8h-0.9v1.9l1.4-1.3L49.2,87.8z M49.2,139.2
	l0.6-0.6l-1.4-1.3v1.9H49.2z M49.2,143.8h-0.9v0.4l0.3,0.3L49.2,143.8z M72.1,151.5l0,0.9h0L72.1,151.5z M72.1,151.5v-0.9h0
	L72.1,151.5z M49.2,133.5h-0.9v0.3l0.2,0.2L49.2,133.5z M49.2,93.5l-0.7-0.6l-0.2,0.2v0.3H49.2z M49.2,98.2h-0.9v0.9h0.9V98.2z
	 M55.9,98.2v0.9h0.8l0.1-0.8L55.9,98.2z M73.8,98.2L73,98.3l0.1,0.8h0.8V98.2z M80.7,98.2v0.9h0.9v-0.9H80.7z M84.8,100.2h-0.9v0
	l0,0L84.8,100.2z M84.8,100.3l-0.9,0l0,0v0H84.8z M80.7,102.3h0.9v-0.9h-0.9V102.3z M73.9,102.3v-0.9H73v0.9H73.9z M73.9,111.5H73
	v0.9h0.9V111.5z M80.7,111.5v0.9h0.9v-0.9H80.7z M84.8,113.4h-0.9v0l0,0L84.8,113.4z M84.8,113.5l-0.9,0l0,0v0H84.8z M80.7,115.5
	h0.9v-0.9h-0.9V115.5z M73.9,115.5v-0.9H73v0.9H73.9z M73.9,124.7H73v0.9h0.9V124.7z M80.7,124.7v0.9h0.9v-0.9H80.7z M84.8,126.6
	h-0.9v0l0,0L84.8,126.6z M84.8,126.8l-0.9,0l0,0v0H84.8z M80.7,128.7h0.9v-0.9h-0.9V128.7z M73.8,128.7v-0.9H73l-0.1,0.8L73.8,128.7
	z M58.8,134.4l0.6-0.7l0,0L58.8,134.4z M55.9,128.7l0.9-0.1l-0.1-0.8h-0.8V128.7z M49.2,128.7v-0.9h-0.9v0.9H49.2z M69.8,98.2v0.9h1
	l-0.2-1L69.8,98.2z M60,98.2l-0.9-0.1l-0.2,1h1V98.2z M69.9,111.5v0.9h0.9v-0.9H69.9z M69.9,102.3h0.9v-0.9h-0.9V102.3z M59.9,111.5
	H59v0.9h0.9V111.5z M59.9,102.3v-0.9H59v0.9H59.9z M49.2,102.3v-0.9h-0.9v0.9H49.2z M55.9,102.3h0.9v-0.9h-0.9V102.3z M49.2,111.5
	h-0.9v0.9h0.9V111.5z M55.9,111.5v0.9h0.9v-0.9H55.9z M45.1,86.7H46v-2.1l-1.5,1.5L45.1,86.7z M45.1,140.2l-0.6,0.6l1.5,1.5v-2.1
	H45.1z M55.9,124.7v0.9h0.9v-0.9H55.9z M49.2,124.7h-0.9v0.9h0.9V124.7z M55.9,115.5h0.9v-0.9h-0.9V115.5z M49.2,115.5v-0.9h-0.9
	v0.9H49.2z M60,128.7v-0.9h-1l0.2,1L60,128.7z M69.8,128.7l0.9,0.1l0.2-1h-1V128.7z M59.9,124.7H59v0.9h0.9V124.7z M69.9,124.7v0.9
	h0.9v-0.9H69.9z M59.9,115.5v-0.9H59v0.9H59.9z M69.9,115.5h0.9v-0.9h-0.9V115.5z M13,51.3c-2.6-0.4-4-2.7-4-5H7.3
	c0,2.9,1.9,6.1,5.5,6.7L13,51.3z M30.9,83.5c-3.1-13.2-9-23.9-17.4-31.9l-1.2,1.3c8.2,7.7,13.9,18.2,17,31.1L30.9,83.5z M30.9,83.5
	C30.9,83.5,30.9,83.5,30.9,83.5l-1.7,0.4c0,0,0,0,0,0.1L30.9,83.5z M31,113.5V83.7h-1.7v29.8H31z M31,113.5L31,113.5h-1.7l0,0H31z
	 M46.1,145.4c-9.3-7.6-15.2-19.1-15.2-31.9h-1.7c0,13.4,6.2,25.4,15.8,33.3L46.1,145.4z M46.7,145.9c-0.2-0.1-0.3-0.2-0.4-0.3
	l-1.4,1.1c0.3,0.3,0.6,0.6,1,0.8L46.7,145.9z M72.1,154.7c-9.5,0-18.3-3.3-25.3-8.7l-1.1,1.4c7.3,5.7,16.5,9.1,26.4,9.1V154.7z
	 M72.2,154.7L72.2,154.7l-0.1,1.7h0.1L72.2,154.7z M115.4,154.7H72.2v1.7h43.2V154.7z M116.3,156.2v-0.6h-1.7v0.6H116.3z
	 M117.5,157.3c-0.6,0-1.1-0.5-1.1-1.1h-1.7c0,1.6,1.3,2.9,2.9,2.9V157.3z M118.6,156.2c0,0.6-0.5,1.1-1.1,1.1v1.7
	c1.6,0,2.9-1.3,2.9-2.9H118.6z M118.6,153.6v2.6h1.7v-2.6H118.6z M118.6,153.6C118.6,153.6,118.6,153.6,118.6,153.6l1.7,0.1
	c0,0,0-0.1,0-0.1H118.6z M118.6,153.5C118.6,153.5,118.6,153.5,118.6,153.5l1.7,0c0,0,0-0.1,0-0.1L118.6,153.5z M118.6,150.9v2.6
	h1.7v-2.6H118.6z M117.5,149.8c0.6,0,1.1,0.5,1.1,1.1h1.7c0-1.6-1.3-2.9-2.9-2.9V149.8z M116.3,150.9c0-0.6,0.5-1.1,1.1-1.1v-1.7
	c-1.6,0-2.9,1.3-2.9,2.9H116.3z M116.3,151.5v-0.6h-1.7v0.6H116.3z M90.1,152.4h25.3v-1.7H90.1V152.4z M113.4,113.5
	c0,16.4-9.7,30.7-23.6,37.3l0.7,1.6c14.5-6.9,24.6-21.7,24.6-38.9H113.4z M72.1,72.2c22.7,0,41.2,18.5,41.2,41.2h1.7
	c0-23.7-19.3-43-43-43V72.2z M46.8,81c7-5.5,15.8-8.7,25.3-8.7v-1.7c-9.9,0-19.1,3.4-26.4,9.1L46.8,81z M46.3,81.4
	c0.1-0.1,0.2-0.2,0.4-0.3l-0.8-1.6c-0.4,0.2-0.7,0.5-1,0.8L46.3,81.4z M34.9,95.9c2.6-5.6,6.5-10.5,11.2-14.3L45,80.2
	c-4.9,4-8.9,9.1-11.7,14.9L34.9,95.9z M33.3,83.2v12.3H35V83.2H33.3z M33.3,83.2C33.3,83.2,33.3,83.2,33.3,83.2l1.7,0c0,0,0,0,0,0
	L33.3,83.2z M50.7,51.5C42.3,59.4,36.5,70,33.3,82.9l1.7,0.4c3.1-12.7,8.8-23,16.9-30.6L50.7,51.5z M53.9,49.8
	c-0.7,0.8-1.7,1.3-2.8,1.5l0.3,1.7c1.5-0.3,2.8-1,3.8-2.1L53.9,49.8z M55.1,46.3c0,1.3-0.4,2.5-1.2,3.4l1.3,1.1
	c1.1-1.2,1.7-2.9,1.7-4.6H55.1z M50.2,41.3c3.2,0,5,2.5,5,5h1.7c0-3.2-2.3-6.8-6.7-6.8V41.3z M14,41.3h36.2v-1.7H14V41.3z
	 M10.2,42.9c0.9-1,2.2-1.6,3.7-1.6v-1.7c-2,0-3.8,0.8-5,2.2L10.2,42.9z M9,46.3c0-1.3,0.4-2.5,1.2-3.4l-1.3-1.1
	c-1.1,1.2-1.7,2.9-1.7,4.6H9z M13,46.3c0-0.2,0-0.4,0.2-0.7c0.1-0.1,0.1-0.2,0.2-0.2c0.1-0.1,0.3-0.1,0.6-0.1v-1.7
	c-1.1,0-1.9,0.5-2.3,1.2c-0.4,0.6-0.4,1.3-0.4,1.5H13z M14,47.3c-0.3,0-0.5-0.1-0.6-0.1c-0.1-0.1-0.2-0.1-0.2-0.2
	c-0.1-0.2-0.2-0.5-0.2-0.7h-1.7c0,0.3,0,0.9,0.4,1.5c0.4,0.7,1.1,1.2,2.3,1.2V47.3z M50.2,47.3H14v1.7h36.2V47.3z M51.1,46.3
	c0,0.2,0,0.4-0.2,0.7c-0.1,0.1-0.1,0.2-0.2,0.2c-0.1,0.1-0.3,0.1-0.6,0.1v1.7c1.1,0,1.9-0.5,2.3-1.2c0.4-0.6,0.4-1.3,0.4-1.5H51.1z
	 M50.2,45.3c0.3,0,0.5,0.1,0.6,0.1c0.1,0.1,0.2,0.1,0.2,0.2c0.1,0.2,0.2,0.5,0.2,0.7h1.7c0-0.3,0-0.9-0.4-1.5
	c-0.4-0.7-1.1-1.2-2.3-1.2V45.3z M14,45.3h36.2v-1.7H14V45.3z M18.6,53.1h26.9v-1.7H18.6V53.1z M32.9,75.6
	c-3.1-9.3-7.6-17.3-13.6-23.9L18,52.8c5.8,6.4,10.3,14.2,13.3,23.3L32.9,75.6z M44.9,51.7c-6,6.6-10.6,14.6-13.7,23.9l1.6,0.5
	c3-9.1,7.5-16.9,13.3-23.3L44.9,51.7z M109.3,113.5c0,20.5-16.6,37.2-37.1,37.2l0,1.7c21.4-0.1,38.9-17.5,38.9-38.9H109.3z
	 M72.1,76.3c20.5,0,37.2,16.7,37.2,37.2h1.7c0-21.5-17.5-38.9-38.9-38.9V76.3z M49.7,83.8c6.2-4.8,14-7.6,22.4-7.6v-1.7
	c-8.8,0-17,3-23.5,7.9L49.7,83.8z M50,87.8v-4.6h-1.7v4.6H50z M49.7,88.4c6.1-5.5,14.1-8.5,22.4-8.5v-1.7c-8.7,0-17.1,3.2-23.5,9
	L49.7,88.4z M72.1,79.9c18.5,0,33.6,15.1,33.6,33.6h1.7c0-19.5-15.8-35.3-35.3-35.3V79.9z M105.7,113.5c0,18.5-15.1,33.6-33.6,33.6
	v1.7c19.5,0,35.3-15.8,35.3-35.3H105.7z M72.1,147c-8.3,0-16.2-3.1-22.4-8.5l-1.2,1.3c6.5,5.7,14.8,9,23.5,9V147z M50,143.8v-4.6
	h-1.7v4.6H50z M72.1,150.7c-8.4,0-16.2-2.8-22.4-7.6l-1.1,1.4c6.5,5,14.7,7.9,23.5,7.9L72.1,150.7z M72.1,150.7L72.1,150.7l0,1.7h0
	L72.1,150.7z M72.2,150.7L72.2,150.7l-0.1,1.7h0.1V150.7z M48.5,134c6,6.8,14.6,10.7,23.6,10.7V143c-8.6,0-16.6-3.7-22.3-10.1
	L48.5,134z M72.1,144.8c17.3,0,31.3-14,31.3-31.3h-1.7c0,16.3-13.3,29.5-29.6,29.5V144.8z M103.4,113.5c0-17.3-14-31.3-31.3-31.3
	v1.7c16.3,0,29.6,13.3,29.6,29.5H103.4z M72.1,82.2c-9.1,0-17.6,3.9-23.6,10.7l1.3,1.1c5.7-6.4,13.8-10.1,22.3-10.1V82.2z M50,98.2
	v-4.8h-1.7v4.8H50z M55.9,97.4h-6.8v1.7h6.8V97.4z M64.9,89.5c-4.6,0-9.3,3-9.8,8.7l1.7,0.2c0.4-4.7,4.2-7.1,8.1-7.1V89.5z
	 M74.7,98.1c-0.5-5.7-5.3-8.7-9.8-8.7v1.7c3.9,0,7.7,2.5,8.1,7.1L74.7,98.1z M80.7,97.4h-6.9v1.7h6.9V97.4z M79.9,97.3v0.9h1.7v-0.9
	H79.9z M82.7,94.4c-1.6,0-2.9,1.3-2.9,2.9h1.7c0-0.6,0.5-1.1,1.1-1.1V94.4z M85.6,97.3c0-1.6-1.3-2.9-2.9-2.9v1.7
	c0.6,0,1.1,0.5,1.1,1.1H85.6z M85.6,100.2v-2.9h-1.7v2.9H85.6z M85.6,100.2C85.6,100.2,85.6,100.2,85.6,100.2l-1.7,0c0,0,0,0,0,0
	H85.6z M85.6,100.3C85.6,100.3,85.6,100.3,85.6,100.3l-1.7-0.1c0,0,0,0,0,0L85.6,100.3z M85.6,103.2v-2.9h-1.7v2.9H85.6z
	 M82.7,106.1c1.6,0,2.9-1.3,2.9-2.9h-1.7c0,0.6-0.5,1.1-1.1,1.1V106.1z M79.9,103.2c0,1.6,1.3,2.9,2.9,2.9v-1.7
	c-0.6,0-1.1-0.5-1.1-1.1H79.9z M79.9,102.3v0.9h1.7v-0.9H79.9z M73.9,103.1h6.8v-1.7h-6.8V103.1z M74.8,111.5v-9.2H73v9.2H74.8z
	 M80.7,110.6h-6.8v1.7h6.8V110.6z M79.9,110.5v0.9h1.7v-0.9H79.9z M82.7,107.6c-1.6,0-2.9,1.3-2.9,2.9h1.7c0-0.6,0.5-1.1,1.1-1.1
	V107.6z M85.6,110.5c0-1.6-1.3-2.9-2.9-2.9v1.7c0.6,0,1.1,0.5,1.1,1.1H85.6z M85.6,113.4v-2.9h-1.7v2.9H85.6z M85.6,113.5
	C85.6,113.4,85.6,113.4,85.6,113.5l-1.7,0c0,0,0,0,0,0H85.6z M85.6,113.6C85.6,113.5,85.6,113.5,85.6,113.6l-1.7-0.1c0,0,0,0,0,0
	L85.6,113.6z M85.6,116.4v-2.9h-1.7v2.9H85.6z M82.7,119.3c1.6,0,2.9-1.3,2.9-2.9h-1.7c0,0.6-0.5,1.1-1.1,1.1V119.3z M79.9,116.4
	c0,1.6,1.3,2.9,2.9,2.9v-1.7c-0.6,0-1.1-0.5-1.1-1.1H79.9z M79.9,115.5v0.9h1.7v-0.9H79.9z M73.9,116.4h6.8v-1.7h-6.8V116.4z
	 M74.8,124.7v-9.2H73v9.2H74.8z M80.7,123.8h-6.8v1.7h6.8V123.8z M79.9,123.7v0.9h1.7v-0.9H79.9z M82.7,120.9
	c-1.6,0-2.9,1.3-2.9,2.9h1.7c0-0.6,0.5-1.1,1.1-1.1V120.9z M85.6,123.7c0-1.6-1.3-2.9-2.9-2.9v1.7c0.6,0,1.1,0.5,1.1,1.1H85.6z
	 M85.6,126.6v-2.9h-1.7v2.9H85.6z M85.6,126.7C85.6,126.7,85.6,126.6,85.6,126.7l-1.7,0c0,0,0,0,0,0H85.6z M85.6,126.8
	C85.6,126.8,85.6,126.7,85.6,126.8l-1.7-0.1c0,0,0,0,0,0L85.6,126.8z M85.6,129.6v-2.8h-1.7v2.8H85.6z M82.7,132.5
	c1.6,0,2.9-1.3,2.9-2.9h-1.7c0,0.6-0.5,1.1-1.1,1.1V132.5z M79.9,129.6c0,1.6,1.3,2.9,2.9,2.9v-1.7c-0.6,0-1.1-0.5-1.1-1.1H79.9z
	 M79.9,128.7v0.9h1.7v-0.9H79.9z M73.8,129.6h6.9v-1.7h-6.9V129.6z M64.9,137.5c4.6,0,9.3-3,9.8-8.7l-1.7-0.2
	c-0.4,4.7-4.2,7.1-8.1,7.1V137.5z M58.2,135c1.8,1.6,4.2,2.4,6.7,2.4v-1.7c-2.1,0-4.1-0.7-5.6-2L58.2,135z M55.1,128.8
	c0.3,3.1,1.8,5.1,3.1,6.3l1.1-1.3c-1-0.9-2.3-2.5-2.5-5.1L55.1,128.8z M49.2,129.6h6.8v-1.7h-6.8V129.6z M50,133.5v-4.8h-1.7v4.8H50
	z M64.9,95.2c1.9,0,3.7,1,4,3.2l1.7-0.3c-0.5-3.2-3.2-4.6-5.7-4.6V95.2z M60.8,98.4c0.4-2.1,2.1-3.2,4-3.2v-1.7
	c-2.5,0-5.2,1.4-5.7,4.6L60.8,98.4z M69.8,97.4H60v1.7h9.8V97.4z M70.7,111.5v-9.2H69v9.2H70.7z M59.9,112.3h9.9v-1.7h-9.9V112.3z
	 M59,102.3v9.2h1.7v-9.2H59z M69.9,101.4h-9.9v1.7h9.9V101.4z M49.2,103.1h6.7v-1.7h-6.7V103.1z M50,111.5v-9.2h-1.7v9.2H50z
	 M55.9,110.6h-6.7v1.7h6.7V110.6z M55,102.3v9.2h1.7v-9.2H55z M44.3,86.7v13.5H46V86.7H44.3z M35,113.5c0-10.2,4.1-19.4,10.8-26.2
	l-1.2-1.2c-7,7-11.3,16.7-11.3,27.4H35z M45.8,139.6c-6.7-6.7-10.8-16-10.8-26.2h-1.7c0,10.7,4.3,20.3,11.3,27.4L45.8,139.6z
	 M44.3,126.7v13.5H46v-13.5H44.3z M44.3,113.5v13.2H46v-13.2H44.3z M44.3,100.2v13.2H46v-13.2H44.3z M55.9,123.8h-6.7v1.7h6.7V123.8
	z M55,115.5v9.2h1.7v-9.2H55z M49.2,116.4h6.7v-1.7h-6.7V116.4z M50,124.7v-9.2h-1.7v9.2H50z M64.9,131.7c-1.9,0-3.7-1-4-3.2
	l-1.7,0.3c0.5,3.2,3.2,4.6,5.7,4.6V131.7z M68.9,128.6c-0.4,2.1-2.1,3.2-4,3.2v1.7c2.5,0,5.2-1.4,5.7-4.6L68.9,128.6z M60,129.6h9.8
	v-1.7H60V129.6z M59.9,125.6h9.9v-1.7h-9.9V125.6z M59,115.5v9.2h1.7v-9.2H59z M69.9,114.6h-9.9v1.7h9.9V114.6z M70.7,124.7v-9.2H69
	v9.2H70.7z"/>
<path class="st3" d="M470.8,97.7c-0.4-0.4-0.5-1-0.2-1.5c4.2-6.9,6.2-13.8,6-20.7c0-0.5,0.3-0.9,0.7-1.1c0.4-0.2,1-0.1,1.3,0.2
	L493.8,90c0.5,0.5,0.5,1.2,0,1.7c-0.5,0.5-1.2,0.5-1.7,0l-13.3-13.3c-0.3,6.4-2.4,12.8-6.3,19.1c-0.3,0.6-1.1,0.7-1.6,0.4
	C470.9,97.9,470.8,97.8,470.8,97.7z"/>
<path class="st3" d="M470.8,97.8c-0.1-0.1-0.1-0.1-0.2-0.2c-0.3-0.6-0.2-1.3,0.4-1.6c7.3-4.5,14.7-6.6,22.1-6.3
	c0.7,0,1.2,0.6,1.1,1.2c0,0.7-0.6,1.2-1.2,1.1c-6.9-0.3-13.8,1.7-20.7,5.9C471.7,98.2,471.1,98.1,470.8,97.8z"/>
<path class="st3" d="M492.1,91.6L477,76.5c-1.6-1.6-1.2-3.7,0-4.9c0.6-0.6,1.4-1,2.3-1.1c1-0.1,1.9,0.3,2.6,1L497,86.6
	c1.6,1.6,1.2,3.7,0,4.9c-0.6,0.6-1.4,1-2.3,1.1C493.7,92.7,492.8,92.3,492.1,91.6z M480.2,73.2c-0.7-0.7-1.4-0.2-1.5,0
	c-0.2,0.2-0.7,0.8,0,1.5l15.1,15.1c0.7,0.7,1.4,0.2,1.5,0c0.2-0.2,0.7-0.8,0-1.5L480.2,73.2z"/>
<path class="st3" d="M458.1,143.8c-9.7-9.7-9.7-25.4,0-35.1c9.7-9.7,25.4-9.7,35.1,0c9.7,9.7,9.7,25.5,0,35.1
	C483.6,153.5,467.8,153.5,458.1,143.8z M491.6,110.4c-8.7-8.7-23-8.7-31.7,0c-8.8,8.8-8.8,23,0,31.7c8.8,8.8,23,8.8,31.8,0
	C500.3,133.4,500.3,119.2,491.6,110.4z"/>
<path class="st3" d="M451.3,129.8c-0.5-0.5-0.5-1.2,0-1.7l26.2-26.2c0.5-0.5,1.2-0.5,1.7,0c0.5,0.5,0.5,1.2,0,1.7L453,129.8
	C452.6,130.2,451.8,130.2,451.3,129.8z"/>
<path class="st3" d="M458.1,110.4c-0.5-0.5-0.5-1.2,0-1.7l12.6-12.6c0.5-0.5,1.2-0.5,1.7,0c0.5,0.5,0.5,1.2,0,1.7l-12.6,12.6
	C459.4,110.9,458.6,110.9,458.1,110.4z"/>
<path class="st3" d="M463,132.9c-1-1-1.5-2.2-1.6-3.5c-0.1-1,0.2-2.5,1.6-4l11.9-11.9c2.4-2.4,5.6-1.8,7.5,0c1.9,1.9,2.5,5,0,7.5
	l-11.9,11.9C468,135.4,464.9,134.8,463,132.9z M480.6,115.3c-1-1-2.7-1.4-4.1,0l-11.9,11.9c-1.4,1.4-1,3.1,0,4.1c1,1,2.7,1.4,4.1,0
	l11.9-11.9C482.1,118,481.7,116.3,480.6,115.3z"/>
<path class="st3" d="M479.3,131.5l-14.9-14.9c-0.5-0.5-0.5-1.2,0-1.7c0.5-0.5,1.2-0.5,1.7,0l14.9,14.9c0.5,0.5,0.5,1.2,0,1.7
	C480.5,132,479.7,132,479.3,131.5z"/>
<path class="st3" d="M478,132.8c-0.5-0.5-0.5-1.2,0-1.7l2.5-2.5c0.5-0.5,1.2-0.5,1.7,0c0.5,0.5,0.5,1.2,0,1.7l-2.5,2.5
	C479.3,133.2,478.5,133.2,478,132.8z"/>
<path class="st3" d="M473.8,137.1l-14.9-14.9c-0.5-0.5-0.5-1.2,0-1.7c0.5-0.5,1.2-0.5,1.7,0l14.9,14.9c0.5,0.5,0.5,1.2,0,1.7
	C475,137.5,474.2,137.5,473.8,137.1z"/>
<path class="st3" d="M472.6,138.3c-0.5-0.5-0.5-1.2,0-1.7l2.4-2.4c0.5-0.5,1.2-0.5,1.7,0c0.5,0.5,0.5,1.2,0,1.7l-2.4,2.4
	C473.8,138.7,473,138.7,472.6,138.3z"/>
<path class="st3" d="M484.8,126l-14.9-14.9c-0.5-0.5-0.5-1.2,0-1.7c0.5-0.5,1.2-0.5,1.7,0l14.9,14.9c0.5,0.5,0.5,1.2,0,1.7
	C486,126.5,485.3,126.5,484.8,126z"/>
<path class="st3" d="M483.6,127.3c-0.5-0.5-0.5-1.2,0-1.7l2.5-2.5c0.5-0.5,1.2-0.5,1.7,0c0.5,0.5,0.5,1.2,0,1.7l-2.5,2.5
	C484.8,127.7,484,127.7,483.6,127.3z"/>
<path class="st3" d="M461.3,140.6c-4.3-4.3-6.4-10.2-5.9-16.2c0.1-0.7,0.6-1.1,1.3-1.1c0.7,0.1,1.1,0.6,1.1,1.3
	c-0.5,5.3,1.4,10.6,5.2,14.4c7,7,18.4,7,25.4,0c7-7,7-18.4,0-25.4c-3.8-3.8-9-5.7-14.4-5.2c-0.7,0.1-1.2-0.4-1.3-1.1
	c-0.1-0.7,0.4-1.2,1.1-1.3c6.1-0.5,12,1.6,16.2,5.9c7.9,7.9,7.9,20.8,0,28.7C482.1,148.6,469.2,148.6,461.3,140.6z"/>
<path class="st4" d="M152.1,104.7c-2.9,0-5.6-1.1-7.6-3.2c-4.2-4.2-4.2-11,0-15.2l17.4-17.4c4.2-4.2,11-4.2,15.2,0
	c4.2,4.2,4.2,11,0,15.2l-17.4,17.4C157.7,103.6,155,104.7,152.1,104.7z M146,87.7c-3.4,3.4-3.4,9,0,12.4c1.6,1.7,3.8,2.6,6.2,2.6
	c2.3,0,4.5-0.9,6.2-2.6l17.4-17.4c3.4-3.4,3.4-9,0-12.4c-1.6-1.6-3.8-2.6-6.2-2.6c-2.3,0-4.5,0.9-6.2,2.6L146,87.7L146,87.7z"/>
<path class="st4" d="M170.5,95.8c-0.3,0-0.5-0.1-0.7-0.3l-19.3-19.2c-0.4-0.4-0.4-1,0-1.4c0.4-0.4,1-0.4,1.4,0l19.3,19.2
	c0.4,0.4,0.4,1,0,1.4C171,95.7,170.7,95.8,170.5,95.8z"/>
<path class="st4" d="M149.9,78c-0.3,0-0.5-0.1-0.7-0.3c-0.4-0.4-0.4-1,0-1.4l2.7-2.7c0.4-0.4,1-0.4,1.4,0c0.4,0.4,0.4,1,0,1.4
	l-2.7,2.7C150.4,77.9,150.1,78,149.9,78z"/>
<path class="st4" d="M165.1,101.2c-0.3,0-0.5-0.1-0.7-0.3l-19.3-19.2c-0.4-0.4-0.4-1,0-1.4c0.4-0.4,1-0.4,1.4,0l19.3,19.2
	c0.4,0.4,0.4,1,0,1.4C165.6,101.1,165.4,101.2,165.1,101.2z"/>
<path class="st4" d="M144.5,83.3c-0.3,0-0.5-0.1-0.7-0.3c-0.4-0.4-0.4-1,0-1.4l2.7-2.7c0.4-0.4,1-0.4,1.4,0c0.4,0.4,0.4,1,0,1.4
	l-2.7,2.7C145,83.2,144.8,83.3,144.5,83.3z"/>
<path class="st4" d="M175.8,90.5c-0.3,0-0.5-0.1-0.7-0.3L155.8,71c-0.4-0.4-0.4-1,0-1.4c0.4-0.4,1-0.4,1.4,0l19.3,19.2
	c0.4,0.4,0.4,1,0,1.4C176.3,90.4,176.1,90.5,175.8,90.5z"/>
<path class="st4" d="M155.2,72.6c-0.3,0-0.5-0.1-0.7-0.3c-0.4-0.4-0.4-1,0-1.4l2.7-2.7c0.4-0.4,1-0.4,1.4,0c0.4,0.4,0.4,1,0,1.4
	l-2.7,2.7C155.7,72.5,155.5,72.6,155.2,72.6z"/>
<path class="st4" d="M135,98.3c-0.3,0-0.5-0.1-0.7-0.3c-0.4-0.4-0.4-1,0-1.4l32.8-32.8c0.4-0.4,1-0.4,1.4,0c0.4,0.4,0.4,1,0,1.4
	L135.7,98C135.5,98.2,135.2,98.3,135,98.3z"/>
<path class="st4" d="M167.8,65.5c-0.2,0-0.4,0-0.5-0.1c-0.5-0.3-0.6-0.9-0.3-1.4c3.5-5.7,5.2-11.5,5-17.2c0-0.4,0.2-0.8,0.6-1
	c0.4-0.2,0.8-0.1,1.1,0.2c4.2,4.2,8.4,8.5,12.7,12.7c0.4,0.4,0.4,1,0,1.4c-0.4,0.4-1,0.4-1.4,0c-3.7-3.6-7.3-7.3-11-11
	c-0.3,5.3-2,10.7-5.2,15.9C168.5,65.3,168.1,65.5,167.8,65.5z"/>
<path class="st4" d="M135.7,99c-0.3,0-0.5-0.1-0.7-0.3l-1.5-1.5c-0.4-0.4-0.4-1,0-1.4c0.4-0.4,1-0.4,1.4,0l1.5,1.5
	c0.4,0.4,0.4,1,0,1.4C136.2,98.9,136,99,135.7,99z"/>
<path class="st4" d="M167.8,65.5c-0.3,0-0.7-0.2-0.9-0.5c-0.3-0.5-0.1-1.1,0.3-1.4c6.1-3.7,12.2-5.5,18.4-5.3c0.6,0,1,0.5,1,1
	c0,0.5-0.5,1-1,1c0,0,0,0,0,0c-5.7-0.2-11.5,1.5-17.2,5C168.2,65.4,168,65.5,167.8,65.5z"/>
<path class="st0" d="M312.8,146.4c2.9,0,5.6-1.1,7.6-3.2c4.2-4.2,4.2-11,0-15.2L303,110.6c-4.2-4.2-11-4.2-15.2,0
	c-4.2,4.2-4.2,11,0,15.2l17.4,17.4C307.2,145.3,309.9,146.4,312.8,146.4z M319,129.4c3.4,3.4,3.4,9,0,12.4c-1.6,1.7-3.8,2.6-6.2,2.6
	c-2.3,0-4.5-0.9-6.2-2.6l-17.4-17.4c-3.4-3.4-3.4-9,0-12.4c1.6-1.6,3.8-2.6,6.2-2.6c2.3,0,4.5,0.9,6.2,2.6L319,129.4L319,129.4z"/>
<path class="st0" d="M294.5,137.5c0.3,0,0.5-0.1,0.7-0.3l19.3-19.2c0.4-0.4,0.4-1,0-1.4c-0.4-0.4-1-0.4-1.4,0l-19.3,19.2
	c-0.4,0.4-0.4,1,0,1.4C293.9,137.4,294.2,137.5,294.5,137.5z"/>
<path class="st0" d="M315.1,119.7c0.3,0,0.5-0.1,0.7-0.3c0.4-0.4,0.4-1,0-1.4l-2.7-2.7c-0.4-0.4-1-0.4-1.4,0c-0.4,0.4-0.4,1,0,1.4
	l2.7,2.7C314.6,119.6,314.8,119.7,315.1,119.7z"/>
<path class="st0" d="M299.8,142.9c0.3,0,0.5-0.1,0.7-0.3l19.3-19.2c0.4-0.4,0.4-1,0-1.4c-0.4-0.4-1-0.4-1.4,0l-19.3,19.2
	c-0.4,0.4-0.4,1,0,1.4C299.3,142.8,299.6,142.9,299.8,142.9z"/>
<path class="st0" d="M320.4,125c0.3,0,0.5-0.1,0.7-0.3c0.4-0.4,0.4-1,0-1.4l-2.7-2.7c-0.4-0.4-1-0.4-1.4,0c-0.4,0.4-0.4,1,0,1.4
	l2.7,2.7C319.9,124.9,320.2,125,320.4,125z"/>
<path class="st0" d="M289.1,132.2c0.3,0,0.5-0.1,0.7-0.3l19.3-19.2c0.4-0.4,0.4-1,0-1.4c-0.4-0.4-1-0.4-1.4,0l-19.3,19.2
	c-0.4,0.4-0.4,1,0,1.4C288.6,132.1,288.9,132.2,289.1,132.2z"/>
<path class="st0" d="M309.7,114.3c0.3,0,0.5-0.1,0.7-0.3c0.4-0.4,0.4-1,0-1.4l-2.7-2.7c-0.4-0.4-1-0.4-1.4,0c-0.4,0.4-0.4,1,0,1.4
	l2.7,2.7C309.2,114.2,309.5,114.3,309.7,114.3z"/>
<path class="st0" d="M329.9,140c0.3,0,0.5-0.1,0.7-0.3c0.4-0.4,0.4-1,0-1.4l-32.8-32.8c-0.4-0.4-1-0.4-1.4,0s-0.4,1,0,1.4l32.8,32.8
	C329.4,139.9,329.7,140,329.9,140z"/>
<path class="st0" d="M297.1,107.2c0.2,0,0.4,0,0.5-0.1c0.5-0.3,0.6-0.9,0.3-1.4c-3.5-5.7-5.2-11.5-5-17.2c0-0.4-0.2-0.8-0.6-1
	c-0.4-0.2-0.8-0.1-1.1,0.2c-4.2,4.2-8.4,8.5-12.7,12.7c-0.4,0.4-0.4,1,0,1.4c0.4,0.4,1,0.4,1.4,0c3.7-3.6,7.3-7.3,11-11
	c0.3,5.3,2,10.7,5.2,15.9C296.5,107,296.8,107.2,297.1,107.2z"/>
<path class="st0" d="M329.2,140.7c0.3,0,0.5-0.1,0.7-0.3l1.5-1.5c0.4-0.4,0.4-1,0-1.4c-0.4-0.4-1-0.4-1.4,0l-1.5,1.5
	c-0.4,0.4-0.4,1,0,1.4C328.7,140.6,329,140.7,329.2,140.7z"/>
<path class="st0" d="M297.1,107.2c0.3,0,0.7-0.2,0.9-0.5c0.3-0.5,0.1-1.1-0.3-1.4c-6.1-3.7-12.2-5.5-18.4-5.3c-0.6,0-1,0.5-1,1
	c0,0.5,0.5,1,1,1c0,0,0,0,0,0c5.7-0.2,11.5,1.5,17.2,5C296.8,107.1,296.9,107.2,297.1,107.2z"/>
<path class="st5" d="M266,137.5h-52.4c-0.5,0-0.9-0.4-0.9-0.9V102c0-10.4,8.4-18.8,18.8-18.8c4.1,0,8,1.3,11.3,3.7
	c3.2,2.4,5.5,5.7,6.7,9.5c0.1,0.2,0.1,0.4,0.2,0.7c0.7,2.6,1.7,5.2,5.1,5.7c3.2,0.5,6.1,1.8,8.3,3.9c0,0,0,0,0,0
	c2.5,2.4,3.9,5.3,3.9,8.6v21.3C266.9,137.1,266.5,137.5,266,137.5z M214.5,135.6h50.5v-20.3c0-2.8-1.1-5.3-3.3-7.3
	c-1.9-1.8-4.5-3-7.3-3.4c-4.9-0.7-6.1-4.9-6.6-7c-0.1-0.3-0.1-0.5-0.2-0.7c-1.1-3.4-3.2-6.4-6.1-8.6c-2.9-2.2-6.4-3.3-10.2-3.3
	c-9.4,0-17,7.6-17,17V135.6L214.5,135.6z"/>
<path class="st5" d="M266,128.3h-52.4c-0.5,0-0.9-0.4-0.9-0.9c0-0.5,0.4-0.9,0.9-0.9H266c0.5,0,0.9,0.4,0.9,0.9
	C266.9,127.8,266.5,128.3,266,128.3z"/>
<path class="st5" d="M218.8,134.4c-0.5,0-0.9-0.4-0.9-0.9v-6.2c0-0.5,0.4-0.9,0.9-0.9c0.5,0,0.9,0.4,0.9,0.9v6.2
	C219.7,134,219.3,134.4,218.8,134.4z"/>
<path class="st5" d="M222.3,134.4c-0.5,0-0.9-0.4-0.9-0.9v-6.2c0-0.5,0.4-0.9,0.9-0.9c0.5,0,0.9,0.4,0.9,0.9v6.2
	C223.2,134,222.8,134.4,222.3,134.4z"/>
<path class="st5" d="M229.3,134.4c-0.5,0-0.9-0.4-0.9-0.9v-6.2c0-0.5,0.4-0.9,0.9-0.9c0.5,0,0.9,0.4,0.9,0.9v6.2
	C230.2,134,229.8,134.4,229.3,134.4z"/>
<path class="st5" d="M232.8,134.4c-0.5,0-0.9-0.4-0.9-0.9v-6.2c0-0.5,0.4-0.9,0.9-0.9c0.5,0,0.9,0.4,0.9,0.9v6.2
	C233.7,134,233.3,134.4,232.8,134.4z"/>
<path class="st5" d="M236.3,134.4c-0.5,0-0.9-0.4-0.9-0.9v-6.2c0-0.5,0.4-0.9,0.9-0.9c0.5,0,0.9,0.4,0.9,0.9v6.2
	C237.2,134,236.8,134.4,236.3,134.4z"/>
<path class="st5" d="M243.3,134.4c-0.5,0-0.9-0.4-0.9-0.9v-6.2c0-0.5,0.4-0.9,0.9-0.9c0.5,0,0.9,0.4,0.9,0.9v6.2
	C244.2,134,243.8,134.4,243.3,134.4z"/>
<path class="st5" d="M246.8,134.4c-0.5,0-0.9-0.4-0.9-0.9v-6.2c0-0.5,0.4-0.9,0.9-0.9c0.5,0,0.9,0.4,0.9,0.9v6.2
	C247.7,134,247.3,134.4,246.8,134.4z"/>
<path class="st5" d="M253.8,134.4c-0.5,0-0.9-0.4-0.9-0.9v-6.2c0-0.5,0.4-0.9,0.9-0.9c0.5,0,0.9,0.4,0.9,0.9v6.2
	C254.8,134,254.4,134.4,253.8,134.4z"/>
<path class="st5" d="M257.3,134.4c-0.5,0-0.9-0.4-0.9-0.9v-6.2c0-0.5,0.4-0.9,0.9-0.9c0.5,0,0.9,0.4,0.9,0.9v6.2
	C258.3,134,257.9,134.4,257.3,134.4z"/>
<path class="st5" d="M260.8,134.4c-0.5,0-0.9-0.4-0.9-0.9v-6.2c0-0.5,0.4-0.9,0.9-0.9c0.5,0,0.9,0.4,0.9,0.9v6.2
	C261.8,134,261.4,134.4,260.8,134.4z"/>
<path class="st5" d="M217.6,103.6c-0.5,0-0.9-0.4-0.9-0.9c0-8.2,6.7-15,15-15c0.5,0,0.9,0.4,0.9,0.9c0,0.5-0.4,0.9-0.9,0.9
	c-7.2,0-13.1,5.9-13.1,13.1C218.5,103.2,218.1,103.6,217.6,103.6z"/>
<path class="st5" d="M217.4,120.2h-3.8c-0.5,0-0.9-0.4-0.9-0.9c0-0.5,0.4-0.9,0.9-0.9h3.8c0.5,0,0.9,0.4,0.9,0.9
	C218.3,119.8,217.9,120.2,217.4,120.2z"/>
<path class="st5" d="M266,120.2h-3.8c-0.5,0-0.9-0.4-0.9-0.9c0-0.5,0.4-0.9,0.9-0.9h3.8c0.5,0,0.9,0.4,0.9,0.9
	C266.9,119.8,266.5,120.2,266,120.2z"/>
<path class="st3" d="M263.3,89.8L263.3,89.8c-0.2,0-0.4-0.1-0.5-0.2l-3.8-3.8c-0.3-0.3-0.3-0.7,0-1l21-21c0.1-0.1,0.3-0.2,0.5-0.2h0
	c0.2,0,0.4,0.1,0.5,0.2l3.8,3.8c0.3,0.3,0.3,0.7,0,1l-21,21C263.7,89.7,263.5,89.8,263.3,89.8z M260.6,85.2l2.8,2.8l20-20l-2.8-2.8
	L260.6,85.2z"/>
<path class="st3" d="M278.5,70.8c-0.2,0-0.4-0.1-0.5-0.2c-0.3-0.3-0.3-0.7,0-1l0.5-0.5c0.3-0.3,0.7-0.3,1,0c0.3,0.3,0.3,0.7,0,1
	l-0.5,0.5C278.8,70.7,278.7,70.8,278.5,70.8z"/>
<path class="st3" d="M275.1,74.2c-0.2,0-0.4-0.1-0.5-0.2c-0.3-0.3-0.3-0.7,0-1l0.5-0.5c0.3-0.3,0.7-0.3,1,0c0.3,0.3,0.3,0.7,0,1
	l-0.5,0.5C275.5,74.1,275.3,74.2,275.1,74.2z"/>
<path class="st3" d="M271.7,77.6c-0.2,0-0.4-0.1-0.5-0.2c-0.3-0.3-0.3-0.7,0-1l0.5-0.5c0.3-0.3,0.7-0.3,1,0c0.3,0.3,0.3,0.7,0,1
	l-0.5,0.5C272.1,77.5,271.9,77.6,271.7,77.6z"/>
<path class="st3" d="M268.3,81c-0.2,0-0.4-0.1-0.5-0.2c-0.3-0.3-0.3-0.7,0-1l0.5-0.5c0.3-0.3,0.7-0.3,1,0c0.3,0.3,0.3,0.7,0,1
	l-0.5,0.5C268.7,80.9,268.5,81,268.3,81z"/>
<path class="st3" d="M264.9,84.4c-0.2,0-0.4-0.1-0.5-0.2c-0.3-0.3-0.3-0.7,0-1l0.5-0.5c0.3-0.3,0.7-0.3,1,0c0.3,0.3,0.3,0.7,0,1
	l-0.5,0.5C265.3,84.3,265.1,84.4,264.9,84.4z"/>
<path class="st3" d="M286,67.1L286,67.1c-0.2,0-0.4-0.1-0.5-0.2l-3.8-3.8c-0.3-0.3-0.3-0.7,0-1l5.6-5.6c0.3-0.3,0.7-0.3,1,0l3.8,3.8
	c0.1,0.1,0.2,0.3,0.2,0.5c0,0.2-0.1,0.4-0.2,0.5l-5.6,5.6C286.4,67,286.2,67.1,286,67.1z M283.2,62.5l2.8,2.8l4.6-4.6l-2.8-2.8
	L283.2,62.5z"/>
<path class="st3" d="M287.7,62.4c-0.2,0-0.4-0.1-0.5-0.2l-0.8-0.8c-0.3-0.3-0.3-0.7,0-1c0.3-0.3,0.7-0.3,1,0l0.8,0.8
	c0.3,0.3,0.3,0.7,0,1C288.1,62.3,287.9,62.4,287.7,62.4z"/>
<path class="st3" d="M286.5,62.8c-0.2,0-0.4-0.1-0.5-0.2c-0.3-0.3-0.3-0.7,0-1l0.8-0.8c0.3-0.3,0.7-0.3,1,0c0.3,0.3,0.3,0.7,0,1
	l-0.8,0.8C286.9,62.7,286.7,62.8,286.5,62.8z"/>
<path class="st3" d="M262.4,92.1c-0.2,0-0.4-0.1-0.5-0.2l-5.2-5.2c-0.3-0.3-0.3-0.7,0-1l1.7-1.7c0.3-0.3,0.7-0.3,1,0l5.2,5.2
	c0.3,0.3,0.3,0.7,0,1l-1.7,1.7C262.8,92.1,262.6,92.1,262.4,92.1z M258.2,86.2l4.2,4.2l0.7-0.7l-4.2-4.2L258.2,86.2z"/>
<path class="st3" d="M258.5,94.6c-0.2,0-0.4-0.1-0.5-0.2l-3.8-3.8c-0.1-0.1-0.2-0.3-0.2-0.5c0-0.2,0.1-0.4,0.2-0.5l3.2-3.2
	c0.3-0.3,0.7-0.3,1,0l3.8,3.8c0.3,0.3,0.3,0.7,0,1l-3.2,3.2C258.9,94.5,258.7,94.6,258.5,94.6z M255.7,90.1l2.8,2.8l2.1-2.1
	l-2.8-2.8L255.7,90.1z"/>
<path class="st3" d="M285.1,69.5c-0.2,0-0.4-0.1-0.5-0.2l-5.2-5.2c-0.1-0.1-0.2-0.3-0.2-0.5c0-0.2,0.1-0.4,0.2-0.5l1.7-1.7
	c0.3-0.3,0.7-0.3,1,0l5.2,5.2c0.1,0.1,0.2,0.3,0.2,0.5c0,0.2-0.1,0.4-0.2,0.5l-1.7,1.7C285.4,69.4,285.2,69.5,285.1,69.5z
	 M280.8,63.5l4.2,4.2l0.7-0.7l-4.2-4.2L280.8,63.5z"/>
<path class="st3" d="M291.6,61.5c-0.2,0-0.4-0.1-0.5-0.2l-3.8-3.8c-0.1-0.1-0.2-0.3-0.2-0.5c0-0.2,0.1-0.4,0.2-0.5
	c1.9-1.8,3.9-3.2,5.5-3.8c0.3-0.1,0.6,0,0.7,0.2l2.2,2.2c0.2,0.2,0.3,0.5,0.2,0.8c-0.6,1.6-2,3.6-3.8,5.5
	C292,61.4,291.8,61.5,291.6,61.5C291.6,61.5,291.6,61.5,291.6,61.5z M288.8,57l2.8,2.8c1.3-1.4,2.3-2.9,2.8-4.1l-1.5-1.5
	C291.7,54.7,290.3,55.7,288.8,57z"/>
<path class="st5" d="M131.2,72.6h-5c-0.4,0-0.8-0.4-0.8-0.8s0.4-0.8,0.8-0.8h5c0.6,0,1-0.3,1.3-0.7c0.3-0.5,0.3-1,0-1.4l-15.2-24.1
	L102,68.8c-0.3,0.4-0.3,1-0.1,1.4c0.3,0.5,0.7,0.8,1.3,0.8h18.7c0.4,0,0.8,0.4,0.8,0.8s-0.4,0.8-0.8,0.8h-18.7
	c-1.1,0-2.1-0.6-2.6-1.6c-0.5-1-0.5-2.2,0.1-3.1l15.9-25.1c0.3-0.5,1.1-0.5,1.3,0l15.9,25.2c0.6,0.9,0.6,2.1,0.1,3.1
	C133.3,72,132.3,72.6,131.2,72.6z"/>
<path class="st5" d="M117.2,44c-0.2,0-0.4-0.1-0.6-0.2l-2.9-2.9c-1.9-1.9-1.9-5,0-6.9c0.9-0.9,2.1-1.4,3.4-1.4c0,0,0,0,0,0
	c1.3,0,2.5,0.5,3.4,1.4c0.9,0.9,1.4,2.1,1.4,3.4c0,1.3-0.5,2.5-1.4,3.4l-2.9,2.9C117.6,43.9,117.4,44,117.2,44
	C117.2,44,117.2,44,117.2,44z M117.2,34.2c-0.9,0-1.7,0.3-2.3,1c-1.3,1.3-1.3,3.3,0,4.6l2.3,2.3l2.3-2.3c0.6-0.6,1-1.4,1-2.3
	c0-0.9-0.3-1.7-1-2.3C118.9,34.5,118.1,34.2,117.2,34.2C117.2,34.2,117.2,34.2,117.2,34.2z"/>
<path class="st5" d="M131.5,79c-0.2,0-0.4-0.1-0.6-0.3l-15.2-18.1c-0.3-0.3-0.2-0.8,0.1-1.1c0.3-0.3,0.8-0.2,1.1,0.1l15.2,18.1
	c0.3,0.3,0.2,0.8-0.1,1.1C131.8,78.9,131.6,79,131.5,79z"/>
<path class="st3" d="M195.8,94.2c0.2,0.2,0.5,0.4,0.7,0.6l-1.8,1.9l-1.6-1.6l1.8-1.8c0.2,0.2,0.3,0.4,0.5,0.6L195.8,94.2z M191,97.1
	l-4.4,4.2l1.8,1.8l4.2-4.4L191,97.1z M180.1,107.7l4.4-4.2l1.9,1.9l-4.2,4.4L180.1,107.7z M177.9,109.7l-8.3,8l2.4,2.4l8-8.3
	L177.9,109.7z M163,124.1l4.5-4.3l2.4,2.4l-4.3,4.5L163,124.1z M202.5,94.8c-0.8,0.6-1.7,0.9-2.7,0.9l-24,24.8
	c4.8,6.3,4.8,11.9,0,16.7c-1.6,1.7-3.6,2.9-5.8,3.8c-2.7,1-4.3,3.3-4.5,6c-0.3,5.2-2.5,10.1-6.2,13.8c-3.1,3.1-6.4,4.6-10.1,4.6
	c-1.1,0-2.2-0.1-3.4-0.4c-4-1-8.2-3.7-12.7-8.3c-10.1-10.1-11.4-18.9-4.1-26.2c3.7-3.7,8.6-5.9,13.8-6.2c2.8-0.2,5.1-1.8,6.1-4.5
	c0.8-2.2,2.2-4.2,3.8-5.8c4.8-4.8,10.5-4.8,16.7,0L194,90.1c0-1,0.4-2,0.9-2.8l-0.1-0.1c-0.6-0.6-0.6-1.5,0-2.1
	c0.6-0.6,1.5-0.6,2.1,0l0.1,0.1l0.9-0.9l-0.1-0.1c-0.6-0.6-0.6-1.5,0-2.1c0.6-0.6,1.5-0.6,2.1,0l0.1,0.1l0.9-0.9l-0.1-0.1
	c-0.6-0.6-0.6-1.5,0-2.1c0.6-0.6,1.5-0.6,2.1,0l0.2,0.2c1.4-1,3.4-1,4.7,0.3l2.6,2.6c1.3,1.3,1.4,3.4,0.3,4.7l0.2,0.2
	c0.6,0.6,0.6,1.5,0,2.1c-0.3,0.3-0.7,0.4-1,0.4c-0.4,0-0.8-0.2-1.1-0.5l-0.1-0.1l-0.9,0.9l0.1,0.1c0.6,0.6,0.5,1.5,0,2.1
	c-0.3,0.3-0.7,0.4-1,0.4c-0.4,0-0.8-0.2-1.1-0.5l-0.1-0.1l-0.9,0.9l0.2,0.2c0.6,0.6,0.5,1.5,0,2.1c-0.3,0.3-0.7,0.4-1,0.4
	c-0.4,0-0.8-0.2-1.1-0.5L202.5,94.8z M197.6,88.7l3.5-3.5c0,0,0,0,0.1-0.1l0,0l3.7-3.7c0.1-0.1,0.3-0.2,0.4-0.2
	c0.2,0,0.3,0.1,0.4,0.2l2.5,2.5c0.2,0.3,0.3,0.7,0,0.9l-7.3,7.2c-0.9,0.9-2.3,0.9-3.1,0l-0.3-0.3C196.8,91,196.8,89.6,197.6,88.7z
	 M168.8,127.7l4.9-5.1c3.6,4.9,3.6,8.9,0,12.5c-1.3,1.4-2.9,2.4-4.8,3.1c-3.7,1.4-6.2,4.7-6.4,8.7c-0.3,4.5-2.2,8.7-5.4,11.9
	c-3.3,3.3-6.7,4.4-10.6,3.4c-3.4-0.9-7.2-3.4-11.4-7.5c-8.9-8.9-10.2-15.9-4.1-22c3.2-3.2,7.4-5.1,11.9-5.4c3.9-0.2,7.3-2.7,8.7-6.4
	c0.7-1.8,1.8-3.5,3.1-4.8c3.6-3.6,7.6-3.6,12.5,0l-5.1,4.9c-3.1-0.8-6.4,0.1-8.7,2.4c-1.7,1.7-2.7,4.1-2.7,6.5c0,2.5,1,4.8,2.7,6.5
	c1.7,1.7,4.1,2.7,6.5,2.7h0c2.5,0,4.8-1,6.5-2.7C168.7,134.1,169.6,130.8,168.8,127.7z M155.4,125.5c1.1-1.1,2.5-1.7,4-1.8
	c0,0.1-0.1,0.3-0.1,0.4c0,0.4,0.2,0.8,0.4,1.1l4.8,4.7c0.3,0.3,0.7,0.4,1,0.4h0c0.1,0,0.3,0,0.4-0.1c-0.1,1.5-0.7,3-1.9,4.1
	c-1.2,1.2-2.7,1.8-4.4,1.8h0c-1.7,0-3.2-0.7-4.4-1.8c-1.2-1.2-1.8-2.8-1.8-4.4C153.6,128.2,154.3,126.6,155.4,125.5z M146.6,150.2
	c0.3,0.3,0.7,0.4,1.1,0.4c0.4,0,0.8-0.1,1.1-0.4c0.6-0.6,0.6-1.5,0-2.1l-7.1-7.1c-0.6-0.6-1.5-0.6-2.1,0c-0.6,0.6-0.6,1.5,0,2.1
	L146.6,150.2z"/>
<path class="st6" d="M196.5,94.8l0.3,0.3l0.4-0.4l-0.4-0.3L196.5,94.8z M195.8,94.2l-0.3,0.3l0,0L195.8,94.2z M194.7,96.7l-0.3,0.3
	l0.3,0.3L195,97L194.7,96.7z M193.1,95.1l-0.3-0.3l-0.3,0.3l0.3,0.3L193.1,95.1z M195,93.3l0.4-0.3l-0.3-0.4l-0.4,0.3L195,93.3z
	 M195.5,93.9l0.3-0.3h0L195.5,93.9z M186.6,101.4l-0.3-0.3l-0.3,0.3l0.3,0.3L186.6,101.4z M191,97.1l0.3-0.3l-0.3-0.3l-0.3,0.3
	L191,97.1z M188.4,103.2l-0.3,0.3l0.3,0.3l0.3-0.3L188.4,103.2z M192.7,98.8l0.3,0.3l0.3-0.3l-0.3-0.3L192.7,98.8z M184.5,103.4
	l0.3-0.3l-0.3-0.3l-0.3,0.3L184.5,103.4z M180.1,107.7l-0.3-0.3l-0.3,0.3l0.3,0.3L180.1,107.7z M186.3,105.3l0.3,0.3l0.3-0.3
	l-0.3-0.3L186.3,105.3z M182.1,109.7l-0.3,0.3l0.3,0.3l0.3-0.3L182.1,109.7z M169.6,117.7l-0.3-0.3l-0.3,0.3l0.3,0.3L169.6,117.7z
	 M177.9,109.7l0.3-0.3l-0.3-0.3l-0.3,0.3L177.9,109.7z M172,120.1l-0.3,0.3l0.3,0.3l0.3-0.3L172,120.1z M180,111.8l0.3,0.3l0.3-0.3
	l-0.3-0.3L180,111.8z M167.5,119.8l0.3-0.3l-0.3-0.3l-0.3,0.3L167.5,119.8z M163,124.1l-0.3-0.3l-0.3,0.3l0.3,0.3L163,124.1z
	 M169.9,122.3l0.3,0.3l0.3-0.3l-0.3-0.3L169.9,122.3z M165.6,126.7l-0.3,0.3l0.3,0.3l0.3-0.3L165.6,126.7z M199.8,95.7l0-0.4l-0.2,0
	l-0.1,0.1L199.8,95.7z M202.5,94.8l0.3-0.3l-0.3-0.3l-0.3,0.2L202.5,94.8z M175.8,120.5l-0.3-0.3l-0.3,0.3l0.2,0.3L175.8,120.5z
	 M175.9,137.2l-0.3-0.3l0,0L175.9,137.2z M170,141l0.2,0.4l0,0L170,141z M165.5,147l0.4,0v0L165.5,147z M159.3,160.8l-0.3-0.3l0,0
	L159.3,160.8z M149.2,165.5v0.4l0,0V165.5z M145.8,165l-0.1,0.4l0,0L145.8,165z M133.1,156.7l0.3-0.3L133.1,156.7z M128.9,130.5
	l0.3,0.3l0,0L128.9,130.5z M142.7,124.3l0-0.4l0,0L142.7,124.3z M148.8,119.8l-0.4-0.2l0,0L148.8,119.8z M152.5,113.9l-0.3-0.3h0
	L152.5,113.9z M169.3,114l-0.3,0.3l0.3,0.2l0.3-0.3L169.3,114z M194,90.1l0.3,0.3l0.1-0.1l0-0.2L194,90.1z M195,87.3l0.4,0.3
	l0.2-0.3l-0.3-0.3L195,87.3z M194.8,87.1l0.3-0.3l0,0L194.8,87.1z M194.8,85l0.3,0.3l0,0L194.8,85z M196.9,85l-0.3,0.3l0,0L196.9,85
	z M197,85.1l-0.3,0.3l0.3,0.3l0.3-0.3L197,85.1z M198,84.2l0.3,0.3l0.3-0.3l-0.3-0.3L198,84.2z M197.9,84.1l0.3-0.3l0,0L197.9,84.1z
	 M197.8,82l0.3,0.3l0,0L197.8,82z M199.9,81.9l-0.3,0.3l0,0L199.9,81.9z M200.1,82.1l-0.3,0.3l0.3,0.3l0.3-0.3L200.1,82.1z
	 M201,81.2l0.3,0.3l0.3-0.3l-0.3-0.3L201,81.2z M200.9,81.1l-0.3,0.3v0L200.9,81.1z M200.9,79l0.3,0.3v0L200.9,79z M203,78.9
	l0.3-0.3v0L203,78.9z M203.1,79.1l-0.3,0.3l0.3,0.3l0.3-0.2L203.1,79.1z M207.8,79.3l0.3-0.3l0,0l0,0L207.8,79.3z M210.4,81.9
	l0.3-0.3l0,0l0,0L210.4,81.9z M210.7,86.6l-0.3-0.3l-0.2,0.3l0.3,0.3L210.7,86.6z M210.9,86.8l0.3-0.3l0,0L210.9,86.8z M210.8,88.9
	l0.3,0.3l0,0L210.8,88.9z M208.7,88.9l-0.3,0.3l0,0L208.7,88.9z M208.6,88.8l0.3-0.3l-0.3-0.3l-0.3,0.3L208.6,88.8z M207.7,89.7
	l-0.3-0.3l-0.3,0.3l0.3,0.3L207.7,89.7z M207.8,89.8l-0.3,0.3l0,0L207.8,89.8z M207.8,91.9l-0.3-0.3l0,0L207.8,91.9z M205.7,91.9
	l-0.3,0.3l0,0L205.7,91.9z M205.6,91.8l0.3-0.3l-0.3-0.3l-0.3,0.3L205.6,91.8z M204.6,92.7l-0.3-0.3l-0.3,0.3l0.3,0.3L204.6,92.7z
	 M204.8,92.9l0.3-0.3l0,0L204.8,92.9z M204.8,95l-0.3-0.3l0,0L204.8,95z M202.6,94.9l0.3-0.3l0,0L202.6,94.9z M201.1,85.2l-0.3-0.3
	l0,0L201.1,85.2z M197.6,88.7l-0.3-0.3v0L197.6,88.7z M201.2,85.2l0.3,0.3v0L201.2,85.2z M201.2,85.2l-0.3-0.3l0,0L201.2,85.2z
	 M204.9,81.5l-0.3-0.3l0,0L204.9,81.5z M205.7,81.5l0.3-0.3l0,0L205.7,81.5z M208.2,84l0.3-0.3l0,0l0,0L208.2,84z M208.3,84.9
	l0.3,0.3l0,0L208.3,84.9z M201,92.1l-0.3-0.3l0,0L201,92.1z M197.9,92.1l-0.3,0.3l0,0L197.9,92.1z M197.6,91.8l0.3-0.3v0L197.6,91.8
	z M173.7,122.6l0.4-0.3l-0.3-0.4l-0.4,0.4L173.7,122.6z M168.8,127.7l-0.3-0.3l-0.2,0.2l0.1,0.2L168.8,127.7z M173.7,135.1l-0.3-0.3
	l0,0L173.7,135.1z M169,138.2l0.2,0.4l0,0L169,138.2z M162.5,146.9l0.4,0v0L162.5,146.9z M157.2,158.7l-0.3-0.3l0,0L157.2,158.7z
	 M146.5,162.1l-0.1,0.4l0,0L146.5,162.1z M135.2,154.6l0.3-0.3l0,0L135.2,154.6z M131,132.6l0.3,0.3l0,0L131,132.6z M142.9,127.2
	l0-0.4h0L142.9,127.2z M151.6,120.8l-0.4-0.2l0,0L151.6,120.8z M154.6,116l-0.3-0.3L154.6,116z M167.1,116l0.3,0.3l0.4-0.4l-0.4-0.3
	L167.1,116z M162,120.9l-0.1,0.4l0.2,0.1l0.2-0.2L162,120.9z M153.3,123.3L153,123v0L153.3,123.3z M153.3,136.4l0.3-0.3l0,0
	L153.3,136.4z M159.9,139.1v-0.4l0,0V139.1z M159.9,139.1v0.4h0L159.9,139.1z M166.4,136.4l-0.3-0.3l0,0L166.4,136.4z M159.5,123.7
	l0.4,0.1l0.2-0.6l-0.6,0L159.5,123.7z M155.4,125.5l0.3,0.3L155.4,125.5z M159.4,124.1l-0.4,0v0L159.4,124.1z M159.8,125.2l-0.3,0.3
	v0L159.8,125.2z M164.6,129.9l-0.3,0.3l0,0L164.6,129.9z M165.7,130.3v0.4h0L165.7,130.3z M166.1,130.2l0.4,0l0-0.6l-0.6,0.2
	L166.1,130.2z M164.2,134.3l-0.3-0.3l0,0L164.2,134.3z M159.9,136.2v0.4h0L159.9,136.2z M155.4,134.3l0.3-0.3l0,0L155.4,134.3z
	 M146.6,150.2l0.3-0.3l0,0L146.6,150.2z M148.7,150.2l0.3,0.3l0,0L148.7,150.2z M148.7,148.1l-0.3,0.3l0,0L148.7,148.1z
	 M141.6,141.1l-0.3,0.3l0,0L141.6,141.1z M139.5,141.1l-0.3-0.3v0L139.5,141.1z M139.5,143.2l0.3-0.3l0,0L139.5,143.2z M196.8,94.4
	c-0.2-0.2-0.5-0.3-0.7-0.5l-0.6,0.6c0.2,0.2,0.5,0.5,0.8,0.6L196.8,94.4z M195,97l1.8-1.9l-0.6-0.6l-1.8,1.9L195,97z M192.8,95.4
	l1.6,1.6l0.6-0.6l-1.6-1.6L192.8,95.4z M194.7,93l-1.8,1.8l0.6,0.6l1.8-1.8L194.7,93z M195.8,93.6c-0.2-0.2-0.3-0.4-0.5-0.6
	l-0.7,0.5c0.2,0.2,0.4,0.5,0.6,0.7L195.8,93.6z M196.1,93.9l-0.3-0.3l-0.6,0.6l0.3,0.3L196.1,93.9z M186.9,101.7l4.4-4.2l-0.6-0.6
	l-4.4,4.2L186.9,101.7z M188.7,102.9l-1.8-1.8l-0.6,0.6l1.8,1.8L188.7,102.9z M192.3,98.5l-4.2,4.4l0.6,0.6l4.2-4.4L192.3,98.5z
	 M190.7,97.5l1.7,1.7l0.6-0.6l-1.7-1.7L190.7,97.5z M184.2,103.1l-4.4,4.2l0.6,0.6l4.4-4.2L184.2,103.1z M186.7,105l-1.9-1.9
	l-0.6,0.6l1.9,1.9L186.7,105z M182.4,110l4.2-4.4L186,105l-4.2,4.4L182.4,110z M179.8,108l2,2l0.6-0.6l-2-2L179.8,108z M169.9,118
	l8.3-8l-0.6-0.6l-8.3,8L169.9,118z M172.3,119.8l-2.4-2.4l-0.6,0.6l2.4,2.4L172.3,119.8z M179.7,111.5l-8,8.3l0.6,0.6l8-8.3
	L179.7,111.5z M177.6,110l2.1,2.1l0.6-0.6l-2.1-2.1L177.6,110z M167.2,119.5l-4.5,4.3l0.6,0.6l4.5-4.3L167.2,119.5z M170.3,121.9
	l-2.4-2.4l-0.6,0.6l2.4,2.4L170.3,121.9z M165.9,127l4.3-4.5l-0.6-0.6l-4.3,4.5L165.9,127z M162.7,124.4l2.6,2.6l0.6-0.6l-2.6-2.6
	L162.7,124.4z M199.8,96.1c1-0.1,2-0.4,2.9-1l-0.5-0.7c-0.7,0.5-1.6,0.8-2.5,0.9L199.8,96.1z M176.1,120.8l24-24.8l-0.6-0.6
	l-24,24.8L176.1,120.8z M176.2,137.5c2.5-2.5,3.7-5.2,3.7-8.1c0-2.9-1.3-6-3.7-9.2l-0.7,0.5c2.4,3.1,3.5,6,3.5,8.7
	c0,2.7-1.1,5.2-3.5,7.5L176.2,137.5z M170.2,141.4c2.3-0.9,4.3-2.2,6-3.9l-0.6-0.6c-1.6,1.6-3.5,2.9-5.7,3.7L170.2,141.4z
	 M165.9,147.1c0.2-2.6,1.7-4.7,4.2-5.7l-0.3-0.8c-2.8,1.1-4.6,3.5-4.8,6.4L165.9,147.1z M159.6,161.1c3.8-3.8,6-8.8,6.4-14.1
	l-0.9-0.1c-0.3,5.1-2.5,9.9-6.1,13.5L159.6,161.1z M149.2,165.9c3.8,0,7.2-1.6,10.4-4.7l-0.6-0.6c-3,3-6.3,4.5-9.8,4.5V165.9z
	 M145.7,165.4c1.2,0.3,2.4,0.5,3.5,0.5V165c-1.1,0-2.2-0.1-3.3-0.4L145.7,165.4z M132.7,157c4.6,4.6,8.8,7.4,12.9,8.4l0.2-0.8
	c-3.9-1-8-3.6-12.5-8.2L132.7,157z M128.6,130.2c-3.7,3.7-5.3,7.9-4.6,12.5c0.7,4.5,3.6,9.3,8.7,14.4l0.6-0.6c-5-5-7.8-9.6-8.5-13.9
	c-0.7-4.2,0.8-8.1,4.3-11.7L128.6,130.2z M142.7,123.8c-5.3,0.3-10.3,2.6-14.1,6.4l0.6,0.6c3.6-3.6,8.4-5.8,13.5-6.1L142.7,123.8z
	 M148.4,119.6c-0.9,2.5-3,4.1-5.7,4.2l0.1,0.9c3-0.2,5.4-2,6.4-4.8L148.4,119.6z M152.2,113.6c-1.7,1.7-3,3.7-3.9,6l0.8,0.3
	c0.8-2.2,2.1-4.1,3.7-5.7L152.2,113.6z M169.5,113.6c-3.2-2.5-6.3-3.7-9.2-3.7c-2.9,0-5.7,1.3-8.1,3.7l0.6,0.6
	c2.3-2.3,4.9-3.5,7.5-3.5c2.7,0,5.6,1.2,8.7,3.6L169.5,113.6z M193.7,89.8L169,113.6l0.6,0.6l24.8-23.9L193.7,89.8z M194.6,87
	c-0.6,0.9-1,2-1,3.1l0.9,0c0-0.9,0.3-1.8,0.9-2.6L194.6,87z M194.5,87.4l0.1,0.1l0.6-0.6l-0.1-0.1L194.5,87.4z M194.5,84.7
	c-0.7,0.8-0.7,2,0.1,2.7l0.6-0.6c-0.4-0.4-0.4-1.1,0-1.5L194.5,84.7z M197.2,84.7c-0.8-0.7-2-0.7-2.7,0.1l0.6,0.6
	c0.4-0.4,1.1-0.4,1.5,0L197.2,84.7z M197.3,84.8l-0.1-0.1l-0.6,0.6l0.1,0.1L197.3,84.8z M197.7,83.9l-0.9,0.9l0.6,0.6l0.9-0.9
	L197.7,83.9z M197.6,84.4L197.6,84.4l0.7-0.5l-0.1-0.1L197.6,84.4z M197.5,81.7c-0.7,0.8-0.7,2,0.1,2.7l0.6-0.6
	c-0.4-0.4-0.4-1.1,0-1.5L197.5,81.7z M200.2,81.6c-0.8-0.7-2-0.7-2.7,0.1l0.6,0.6c0.4-0.4,1.1-0.4,1.5,0L200.2,81.6z M200.4,81.8
	l-0.1-0.1l-0.6,0.6l0.1,0.1L200.4,81.8z M200.7,80.8l-0.9,0.9l0.6,0.6l0.9-0.9L200.7,80.8z M200.6,81.4L200.6,81.4l0.7-0.5l-0.1-0.1
	L200.6,81.4z M200.5,78.7c-0.7,0.8-0.7,2,0.1,2.7l0.6-0.6c-0.4-0.4-0.4-1.1,0-1.5L200.5,78.7z M203.3,78.6c-0.8-0.7-2-0.7-2.7,0.1
	l0.6,0.6c0.4-0.4,1.1-0.4,1.5,0L203.3,78.6z M203.4,78.8l-0.2-0.2l-0.6,0.6l0.2,0.2L203.4,78.8z M208.1,79c-1.5-1.4-3.7-1.5-5.3-0.3
	l0.5,0.7c1.2-0.9,3-0.8,4.1,0.3L208.1,79z M210.7,81.6l-2.6-2.6l-0.6,0.6l2.6,2.6L210.7,81.6z M211,86.9c1.2-1.5,1.1-3.8-0.3-5.3
	l-0.6,0.6c1.1,1.2,1.2,3,0.3,4.2L211,86.9z M211.2,86.5l-0.2-0.2l-0.6,0.6l0.2,0.2L211.2,86.5z M211.1,89.2c0.8-0.7,0.8-2,0.1-2.7
	l-0.6,0.6c0.4,0.4,0.4,1.1,0,1.5L211.1,89.2z M209.8,89.8c0.5,0,1-0.2,1.3-0.5l-0.6-0.6c-0.2,0.2-0.5,0.3-0.7,0.3V89.8z M208.4,89.2
	c0.4,0.4,0.9,0.6,1.4,0.6v-0.9c-0.3,0-0.6-0.1-0.8-0.3L208.4,89.2z M208.3,89.1L208.3,89.1l0.7-0.5l-0.1-0.1L208.3,89.1z M208,90
	l0.9-0.9l-0.6-0.6l-0.9,0.9L208,90z M208.1,89.5l-0.1-0.1l-0.6,0.6l0.1,0.1L208.1,89.5z M208.1,92.3c0.8-0.7,0.8-2,0.1-2.7l-0.6,0.6
	c0.4,0.4,0.4,1.1,0,1.5L208.1,92.3z M206.7,92.8c0.5,0,1-0.2,1.3-0.5l-0.6-0.6c-0.2,0.2-0.5,0.3-0.7,0.3V92.8z M205.4,92.2
	c0.4,0.4,0.9,0.6,1.4,0.6v-0.9c-0.3,0-0.6-0.1-0.8-0.3L205.4,92.2z M205.3,92.1l0.1,0.1l0.6-0.6l-0.1-0.1L205.3,92.1z M204.9,93
	l0.9-0.9l-0.6-0.6l-0.9,0.9L204.9,93z M205.1,92.6l-0.2-0.2l-0.6,0.6l0.2,0.2L205.1,92.6z M205.1,95.3c0.8-0.7,0.8-2,0.1-2.7
	l-0.6,0.6c0.4,0.4,0.4,1.1,0,1.5L205.1,95.3z M203.7,95.8c0.5,0,1-0.2,1.3-0.5l-0.6-0.6c-0.2,0.2-0.5,0.3-0.7,0.3V95.8z M202.3,95.2
	c0.4,0.4,0.9,0.6,1.4,0.6V95c-0.3,0-0.6-0.1-0.8-0.3L202.3,95.2z M202.2,95.1l0.2,0.2l0.6-0.6l-0.2-0.2L202.2,95.1z M200.8,84.9
	l-3.5,3.5l0.6,0.6l3.5-3.5L200.8,84.9z M200.9,84.9C200.8,84.9,200.8,84.9,200.9,84.9l0.6,0.7c0,0,0,0,0.1-0.1L200.9,84.9z
	 M200.9,84.9L200.9,84.9l0.6,0.6l0,0L200.9,84.9z M204.6,81.2l-3.7,3.7l0.6,0.6l3.7-3.7L204.6,81.2z M205.3,80.9
	c-0.3,0-0.5,0.1-0.7,0.3l0.6,0.6c0,0,0.1,0,0.1,0V80.9z M206,81.2c-0.2-0.2-0.5-0.3-0.7-0.3v0.9c0.1,0,0.1,0,0.1,0L206,81.2z
	 M208.6,83.7l-2.5-2.5l-0.6,0.6l2.5,2.5L208.6,83.7z M208.6,85.2c0.4-0.4,0.4-1.1,0-1.5l-0.6,0.6c0,0,0.1,0.1,0.1,0.2
	c0,0.1,0,0.1,0,0.1L208.6,85.2z M201.3,92.4l7.3-7.2l-0.6-0.6l-7.3,7.2L201.3,92.4z M197.6,92.4c1,1,2.7,1,3.7,0l-0.6-0.6
	c-0.7,0.7-1.8,0.7-2.5,0L197.6,92.4z M197.3,92.1l0.3,0.3l0.6-0.6l-0.3-0.3L197.3,92.1z M197.3,88.4c-1,1-1,2.7,0,3.7l0.6-0.6
	c-0.6-0.6-0.6-1.8,0-2.4L197.3,88.4z M173.4,122.3l-4.9,5.1l0.6,0.6l4.9-5.1L173.4,122.3z M174,135.4c1.9-1.9,2.8-3.9,2.8-6.1
	c0-2.2-1-4.5-2.8-7l-0.7,0.5c1.8,2.4,2.6,4.5,2.6,6.5c0,1.9-0.8,3.7-2.6,5.4L174,135.4z M169.1,138.6c1.9-0.7,3.6-1.8,4.9-3.2
	l-0.6-0.6c-1.3,1.3-2.8,2.3-4.6,3L169.1,138.6z M163,146.9c0.2-3.8,2.6-6.9,6.1-8.3l-0.3-0.8c-3.9,1.5-6.5,4.9-6.7,9L163,146.9z
	 M157.5,159c3.3-3.3,5.2-7.6,5.5-12.1l-0.9-0.1c-0.3,4.4-2.1,8.5-5.3,11.6L157.5,159z M146.4,162.5c4.1,1,7.7-0.2,11-3.5l-0.6-0.6
	c-3.2,3.2-6.5,4.2-10.2,3.3L146.4,162.5z M134.9,154.9c4.1,4.2,8,6.7,11.6,7.6l0.2-0.8c-3.3-0.8-7.1-3.3-11.2-7.4L134.9,154.9z
	 M130.7,132.3c-3.1,3.1-4.4,6.5-3.7,10.3c0.7,3.8,3.3,7.8,7.8,12.3l0.6-0.6c-4.4-4.4-6.9-8.3-7.6-11.8c-0.6-3.5,0.5-6.6,3.4-9.6
	L130.7,132.3z M142.9,126.8c-4.6,0.3-8.9,2.2-12.1,5.5l0.6,0.6c3.1-3.1,7.2-5,11.6-5.3L142.9,126.8z M151.1,120.7
	c-1.3,3.6-4.5,5.9-8.3,6.1l0.1,0.9c4.1-0.2,7.6-2.8,9-6.7L151.1,120.7z M154.3,115.7c-1.4,1.4-2.5,3.1-3.2,4.9l0.8,0.3
	c0.7-1.8,1.7-3.4,3-4.6L154.3,115.7z M167.4,115.7c-2.5-1.8-4.8-2.8-7-2.8c-2.2,0-4.2,1-6.1,2.8l0.6,0.6c1.7-1.7,3.5-2.6,5.4-2.6
	c1.9,0,4.1,0.9,6.5,2.6L167.4,115.7z M162.3,121.2l5.1-4.9l-0.6-0.6l-5.1,4.9L162.3,121.2z M153.6,123.7c2.2-2.2,5.3-3,8.3-2.3
	l0.2-0.8c-3.2-0.8-6.7,0.1-9.1,2.5L153.6,123.7z M151.1,129.9c0-2.4,0.9-4.6,2.6-6.2L153,123c-1.8,1.8-2.8,4.3-2.8,6.9H151.1z
	 M153.6,136.1c-1.7-1.7-2.6-3.9-2.6-6.2h-0.9c0,2.6,1,5,2.8,6.8L153.6,136.1z M159.9,138.7c-2.4,0-4.6-0.9-6.2-2.6l-0.6,0.6
	c1.8,1.8,4.3,2.8,6.8,2.8V138.7z M159.9,138.7L159.9,138.7l0,0.9h0V138.7z M166.1,136.1c-1.6,1.7-3.8,2.6-6.2,2.6l0,0.9
	c2.6,0,5-1,6.8-2.8L166.1,136.1z M168.4,127.8c0.7,2.9-0.1,6.1-2.3,8.3l0.6,0.6c2.4-2.4,3.4-5.9,2.6-9.2L168.4,127.8z M159.4,123.2
	c-1.6,0.1-3.1,0.8-4.3,1.9l0.6,0.6c1-1,2.4-1.6,3.8-1.7L159.4,123.2z M159.8,124.1c0-0.1,0-0.2,0.1-0.3l-0.8-0.3
	c-0.1,0.2-0.1,0.4-0.1,0.6L159.8,124.1z M160.1,124.9c-0.2-0.2-0.3-0.5-0.3-0.8l-0.9,0c0,0.5,0.2,1,0.6,1.4L160.1,124.9z
	 M164.9,129.6l-4.8-4.7l-0.6,0.6l4.8,4.7L164.9,129.6z M165.7,129.9c-0.3,0-0.5-0.1-0.7-0.3l-0.6,0.6c0.4,0.4,0.8,0.6,1.4,0.6V129.9
	z M165.7,129.9L165.7,129.9l0,0.9h0V129.9z M166,129.8c-0.1,0-0.2,0-0.3,0l0,0.9c0.2,0,0.4,0,0.6-0.1L166,129.8z M164.6,134.6
	c1.2-1.2,1.9-2.8,2-4.4l-0.9-0.1c-0.1,1.4-0.7,2.8-1.7,3.8L164.6,134.6z M159.9,136.6c1.8,0,3.4-0.7,4.7-2l-0.6-0.6
	c-1.1,1.1-2.5,1.7-4,1.7L159.9,136.6z M159.9,136.6L159.9,136.6l0-0.9h0V136.6z M155.1,134.6c1.3,1.3,2.9,2,4.7,2v-0.9
	c-1.6,0-3-0.6-4.1-1.7L155.1,134.6z M153.2,129.9c0,1.8,0.7,3.5,2,4.7l0.6-0.6c-1.1-1.1-1.7-2.6-1.7-4.1H153.2z M155.1,125.2
	c-1.3,1.3-2,3-2,4.7h0.9c0-1.6,0.6-3,1.7-4.1L155.1,125.2z M147.6,150.3c-0.3,0-0.5-0.1-0.7-0.3l-0.6,0.6c0.4,0.4,0.9,0.6,1.4,0.6
	V150.3z M148.4,149.9c-0.2,0.2-0.5,0.3-0.7,0.3v0.9c0.5,0,1-0.2,1.4-0.6L148.4,149.9z M148.4,148.4c0.4,0.4,0.4,1.1,0,1.5l0.6,0.6
	c0.8-0.8,0.8-2,0-2.7L148.4,148.4z M141.3,141.4l7.1,7.1l0.6-0.6l-7.1-7.1L141.3,141.4z M139.8,141.4c0.4-0.4,1.1-0.4,1.5,0l0.6-0.6
	c-0.8-0.8-2-0.8-2.7,0L139.8,141.4z M139.8,142.9c-0.4-0.4-0.4-1.1,0-1.5l-0.6-0.6c-0.8,0.8-0.8,2,0,2.7L139.8,142.9z M146.9,149.9
	l-7.1-7.1l-0.6,0.6l7.1,7.1L146.9,149.9z"/>
<path class="st7" d="M78,42.8c-0.3,0.3-0.8,0.4-1.2,0.1L74,40.3c-0.3-0.3-0.4-0.8-0.1-1.2c0.3-0.3,0.8-0.4,1.2-0.1l2.9,2.6
	C78.3,41.9,78.3,42.5,78,42.8z"/>
<path class="st7" d="M78.1,39.8l-3,3.3c-0.3,0.3-0.8,0.4-1.2,0.1c-0.3-0.3-0.4-0.8-0.1-1.2l3-3.3c0.3-0.3,0.8-0.4,1.2-0.1
	C78.3,38.9,78.4,39.5,78.1,39.8z"/>
<path class="st7" d="M95.8,32.8c-1.8,2-4.7,2.1-6.7,0.4c-1.9-1.7-2.1-4.7-0.3-6.7c1.8-2,4.7-2.1,6.7-0.4
	C97.5,27.9,97.6,30.9,95.8,32.8z M90.5,28.1c-0.9,1-0.9,2.6,0.2,3.5c1,0.9,2.6,0.8,3.5-0.2c0.9-1,0.9-2.6-0.2-3.5
	C93,26.9,91.4,27,90.5,28.1z"/>
<path class="st8" d="M8.7,32c-1.8,2-4.7,2.1-6.7,0.4c-1.9-1.7-2.1-4.7-0.3-6.7s4.7-2.1,6.7-0.4C10.3,27,10.5,30,8.7,32z M3.4,27.2
	c-0.9,1-0.9,2.6,0.2,3.5c1,0.9,2.6,0.8,3.5-0.2c0.9-1,0.9-2.6-0.2-3.5C5.9,26.1,4.3,26.1,3.4,27.2z"/>
<path class="st7" d="M464.6,42.8c-0.3,0.3-0.8,0.4-1.2,0.1l-2.9-2.6c-0.3-0.3-0.4-0.8-0.1-1.2c0.3-0.3,0.8-0.4,1.2-0.1l2.9,2.6
	C464.9,41.9,464.9,42.5,464.6,42.8z"/>
<path class="st7" d="M464.6,39.8l-3,3.3c-0.3,0.3-0.8,0.4-1.2,0.1c-0.3-0.3-0.4-0.8-0.1-1.2l3-3.3c0.3-0.3,0.8-0.4,1.2-0.1
	C464.9,38.9,464.9,39.5,464.6,39.8z"/>
<path class="st7" d="M476.1,31.1c-1.8,2-4.7,2.1-6.7,0.4c-1.9-1.7-2.1-4.7-0.3-6.7c1.8-2,4.7-2.1,6.7-0.4
	C477.7,26.2,477.8,29.2,476.1,31.1z M470.8,26.3c-0.9,1-0.9,2.6,0.2,3.5c1,0.9,2.6,0.8,3.5-0.2c0.9-1,0.9-2.6-0.2-3.5
	C473.3,25.2,471.7,25.3,470.8,26.3z"/>
<path class="st7" d="M203.6,135.9c-1.8,2-4.7,2.1-6.7,0.4c-1.9-1.7-2.1-4.7-0.3-6.7c1.8-2,4.7-2.1,6.7-0.4
	C205.2,130.9,205.3,133.9,203.6,135.9z M198.2,131.1c-0.9,1-0.9,2.6,0.2,3.5c1,0.9,2.6,0.8,3.5-0.2c0.9-1,0.9-2.6-0.2-3.5
	C200.7,130,199.2,130,198.2,131.1z"/>
<path class="st7" d="M225.4,75.7c-0.9,1-2.3,1.1-3.3,0.2c-1-0.9-1-2.3-0.1-3.3c0.9-1,2.3-1.1,3.3-0.2
	C226.2,73.2,226.3,74.7,225.4,75.7z M222.8,73.3c-0.5,0.5-0.4,1.3,0.1,1.7c0.5,0.5,1.3,0.4,1.7-0.1c0.5-0.5,0.4-1.3-0.1-1.7
	C224,72.7,223.3,72.8,222.8,73.3z"/>
<path class="st7" d="M256.4,74.4c-0.2,0.1-0.5-0.1-0.5-0.3l-0.8-3.4c-0.1-0.2,0.1-0.5,0.3-0.5c0.2-0.1,0.5,0.1,0.5,0.3l0.8,3.4
	C256.8,74.2,256.6,74.4,256.4,74.4z"/>
<path class="st7" d="M257.9,72.3l-3.8,0.8c-0.2,0.1-0.5-0.1-0.5-0.3c-0.1-0.2,0.1-0.5,0.3-0.5l3.8-0.8c0.2-0.1,0.5,0.1,0.5,0.3
	C258.3,72,258.2,72.2,257.9,72.3z"/>
<path class="st7" d="M375.6,12.2c-0.5,0.8-1.5,1-2.3,0.4l-10.8-7.4c-0.8-0.5-1-1.5-0.4-2.3s1.5-1,2.3-0.4l10.8,7.4
	C376,10.4,376.2,11.4,375.6,12.2z"/>
<path class="st7" d="M374.3,2.5l-8.2,12c-0.5,0.8-1.5,1-2.3,0.4c-0.8-0.5-1-1.5-0.4-2.3l8.2-12c0.5-0.8,1.5-1,2.3-0.4
	C374.7,0.7,374.9,1.7,374.3,2.5z"/>
<path class="st7" d="M389.6,24c-0.7,0.1-1.3-0.2-1.4-0.9l-1.2-5.4c-0.1-0.6,0.2-1.2,0.9-1.4c0.7-0.1,1.3,0.2,1.4,0.9l1.2,5.4
	C390.6,23.2,390.2,23.8,389.6,24z"/>
<path class="st7" d="M392,20.6l-6.1,1.3c-0.7,0.1-1.3-0.2-1.4-0.9s0.2-1.2,0.9-1.4l6.1-1.3c0.7-0.1,1.3,0.2,1.4,0.9
	C393.1,19.9,392.7,20.5,392,20.6z"/>
<path class="st4" d="M361.5,85.3c-1.7,0-3.2-0.4-4.4-1c-1.3-0.6-1.9-2.1-1.3-3.5c0.6-1.3,2.2-1.9,3.5-1.3l0,0c1,0.5,4.2,1.9,9.3-3.4
	c1-1,2.7-1.1,3.7,0c1,1,1.1,2.7,0,3.7C368.2,84,364.5,85.3,361.5,85.3z"/>
<path class="st4" d="M370.4,97.7c0.4,1,1.4,1.6,2.4,1.6c0.4,0,0.7-0.1,1.1-0.2c1.3-0.6,1.9-2.1,1.3-3.5c-0.5-1-1.8-4.1,3.5-9.3
	c1-1,1.1-2.7,0-3.7c-1-1-2.7-1.1-3.7,0C368.5,88.9,368.9,94.3,370.4,97.7z"/>
<path class="st4" d="M436.3,28.9c1.5,0.6,2.9,0.8,4.3,0.8c2.1,0,3.9-0.6,5.3-2c1.8-1.9,2.4-4.7,1.6-7.8c0.3-0.2,0.5-0.5,0.8-0.7
	c2.4-2.4,4-5.2,4.7-7.9c0.8-3.2,0.2-6.1-1.7-7.9c-1.9-1.9-4.8-2.5-8-1.7c-2.7,0.7-5.5,2.4-7.9,4.7c-0.3,0.3-0.5,0.5-0.8,0.8
	c-3.1-0.8-5.9-0.2-7.8,1.6c-1.9,1.9-2.5,4.8-1.7,8c0.1,0.6,0.3,1.1,0.5,1.7l-20.6,19.7c-14.1-10-30.1-7.5-48.9,7.6
	c-0.6,0.5-0.9,1.2-1,1.9c0,0.7,0.2,1.5,0.8,2l3.5,3.5c1.4,1.4,2.1,3.2,2.1,5.2c0,2-0.8,3.8-2.1,5.2l-5.8,5.8
	c-2.8,2.8-7.5,2.8-10.3,0l-4.3-4.3c-1-1-2.6-1-3.6-0.1c-9.6,8.8-18.7,17-19,28.1c-0.2,7.6,3.8,15.8,12.4,25.3
	c0.1,0.2,0.3,0.4,0.5,0.5c0,0,0.1,0.1,0.1,0.1c0.4,0.4,0.8,0.9,1.3,1.3l-2.8,2.8c-1,1-1,2.7,0,3.7c0.5,0.5,1.2,0.8,1.9,0.8
	c0.7,0,1.3-0.3,1.9-0.8l2.8-2.8c0.4,0.4,0.9,0.8,1.3,1.3c0,0,0.1,0.1,0.1,0.1c0.2,0.2,0.3,0.3,0.5,0.5c9.3,8.5,17.2,12.5,24.7,12.5
	c0.2,0,0.3,0,0.5,0c11-0.3,19.3-9.4,28-19c0.9-1,0.9-2.6-0.1-3.6l-4.3-4.3c-1.4-1.4-2.1-3.2-2.1-5.2s0.8-3.8,2.1-5.2l5.8-5.8
	c2.7-2.7,7.6-2.7,10.3,0l3.5,3.5c0.5,0.5,1.3,0.8,2,0.8c0.7,0,1.4-0.4,1.9-1c14.7-18.5,17.2-34.5,7.5-48.7L436.3,28.9z M336.4,118.5
	c0.5,0.5,1.1,1.1,1.6,1.6l14-12.3l-5-4.9l-12.3,14c0.5,0.5,1,1.1,1.6,1.6C336.3,118.4,336.3,118.4,336.4,118.5
	C336.4,118.4,336.4,118.4,336.4,118.5C336.4,118.5,336.4,118.5,336.4,118.5z M431.6,26.2c-0.6-0.4-1.1-0.9-1.6-1.5
	c-0.5-0.5-1-1.1-1.5-1.6l-45.2,43.2l5.1,5.1l22.7-23.8c0.1-0.1,0.1-0.1,0.2-0.2L431.6,26.2z M430.7,12.5c0.3-0.3,0.8-0.4,1.5-0.4
	c0.7,0,1.6,0.2,2.5,0.6c1.1,0.5,2.4,0.1,3.1-0.8c0.4-0.6,0.9-1.1,1.5-1.7c1.6-1.6,3.6-2.9,5.4-3.3c1.3-0.3,2.4-0.2,3,0.3
	c0.5,0.5,0.6,1.6,0.3,2.9c-0.5,1.8-1.7,3.8-3.3,5.5c-0.3,0.3-0.7,0.6-1,0.9l-0.1,0.1l-0.6,0.5c-0.8,0.7-1.1,1.9-0.7,2.9
	c0.7,1.8,0.7,3.4,0.1,4.1c-1.1,1.1-5,0.4-8.4-3c-1.7-1.7-2.9-3.7-3.4-5.5C430,14.2,430.1,13.1,430.7,12.5z M390.4,77.1
	c0,0-0.1,0.1-0.1,0.1c-0.4,0.4-1,0.6-1.5,0.7c-0.1,0-0.1,0-0.2,0l0,0l0,0c-0.7,0-1.3-0.2-1.8-0.7l0,0c0,0,0,0,0,0l-8.9-9
	c-0.1-0.1-0.2-0.3-0.3-0.4l0,0l0,0c-0.1-0.1-0.1-0.2-0.2-0.3c0,0,0-0.1,0-0.1c-0.1-0.3-0.2-0.7-0.2-1.1c0-0.7,0.3-1.4,0.8-1.9
	l23.5-22.5c-11.3-7.5-24-5.5-39.4,6.2l1.4,1.4c4.9,4.9,4.9,12.9,0,17.8l-5.8,5.8c-4.9,4.9-12.9,4.9-17.8,0l-2.5-2.5
	c-8.4,7.6-15.2,14.4-15.4,22.6c-0.1,5.7,2.9,12.2,9.4,19.7L345,97.2c0.5-0.6,1.2-0.9,1.9-0.9c0.1,0,0.1,0,0.2,0
	c0.6,0,1.3,0.3,1.8,0.8l8.9,8.9c0.4,0.4,0.6,0.9,0.7,1.3c0.1,0.6,0,1.2-0.2,1.7c-0.1,0.3-0.4,0.6-0.6,0.8l-15.7,13.8
	c7.6,6.5,14.1,9.6,19.7,9.4c8.2-0.2,15-7.1,22.6-15.5l-2.5-2.5c-2.4-2.4-3.7-5.5-3.7-8.9c0-3.4,1.3-6.5,3.7-8.9l5.8-5.8
	c2.4-2.4,5.5-3.7,8.9-3.7c3.4,0,6.5,1.3,8.9,3.7l1.4,1.4c11.3-15.2,13.3-27.8,6.1-39.2L390.4,77.1z"/>
<path class="st4" d="M397.3,128c-0.4,0.4-0.7,1-0.8,1.6c0,0.1,0,0.3,0,0.4c0,0.1,0,0.2,0,0.3l1.5,9.7l-10.6,10.6c-1,1-1,2.7,0,3.7
	c0.5,0.5,1.2,0.8,1.9,0.8c0.7,0,1.3-0.3,1.9-0.8l78.3-78.5c0.6-0.6,0.9-1.4,0.7-2.3l-1.7-11c-0.1-0.5-0.3-1.1-0.7-1.5
	c-1-1-2.7-1-3.7,0L397.3,128z M464.9,73l-62.2,62.4l-0.7-4.6l62.2-62.3L464.9,73z"/>
<path class="st9" d="M361.5,85.3c-1.7,0-3.2-0.4-4.4-1c-1.3-0.6-1.9-2.1-1.3-3.5c0.6-1.3,2.2-1.9,3.5-1.3l0,0c1,0.5,4.2,1.9,9.3-3.4
	c1-1,2.7-1.1,3.7,0c1,1,1.1,2.7,0,3.7C368.2,84,364.5,85.3,361.5,85.3z"/>
<path class="st9" d="M370.4,97.7c0.4,1,1.4,1.6,2.4,1.6c0.4,0,0.7-0.1,1.1-0.2c1.3-0.6,1.9-2.1,1.3-3.5c-0.5-1-1.8-4.1,3.5-9.3
	c1-1,1.1-2.7,0-3.7c-1-1-2.7-1.1-3.7,0C368.5,88.9,368.9,94.3,370.4,97.7z"/>
<path class="st9" d="M436.3,28.9c1.5,0.6,2.9,0.8,4.3,0.8c2.1,0,3.9-0.6,5.3-2c1.8-1.9,2.4-4.7,1.6-7.8c0.3-0.2,0.5-0.5,0.8-0.7
	c2.4-2.4,4-5.2,4.7-7.9c0.8-3.2,0.2-6.1-1.7-7.9c-1.9-1.9-4.8-2.5-8-1.7c-2.7,0.7-5.5,2.4-7.9,4.7c-0.3,0.3-0.5,0.5-0.8,0.8
	c-3.1-0.8-5.9-0.2-7.8,1.6c-1.9,1.9-2.5,4.8-1.7,8c0.1,0.6,0.3,1.1,0.5,1.7l-20.6,19.7c-14.1-10-30.1-7.5-48.9,7.6
	c-0.6,0.5-0.9,1.2-1,1.9c0,0.7,0.2,1.5,0.8,2l3.5,3.5c1.4,1.4,2.1,3.2,2.1,5.2c0,2-0.8,3.8-2.1,5.2l-5.8,5.8
	c-2.8,2.8-7.5,2.8-10.3,0l-4.3-4.3c-1-1-2.6-1-3.6-0.1c-9.6,8.8-18.7,17-19,28.1c-0.2,7.6,3.8,15.8,12.4,25.3
	c0.1,0.2,0.3,0.4,0.5,0.5c0,0,0.1,0.1,0.1,0.1c0.4,0.4,0.8,0.9,1.3,1.3l-2.8,2.8c-1,1-1,2.7,0,3.7c0.5,0.5,1.2,0.8,1.9,0.8
	c0.7,0,1.3-0.3,1.9-0.8l2.8-2.8c0.4,0.4,0.9,0.8,1.3,1.3c0,0,0.1,0.1,0.1,0.1c0.2,0.2,0.3,0.3,0.5,0.5c9.3,8.5,17.2,12.5,24.7,12.5
	c0.2,0,0.3,0,0.5,0c11-0.3,19.3-9.4,28-19c0.9-1,0.9-2.6-0.1-3.6l-4.3-4.3c-1.4-1.4-2.1-3.2-2.1-5.2s0.8-3.8,2.1-5.2l5.8-5.8
	c2.7-2.7,7.6-2.7,10.3,0l3.5,3.5c0.5,0.5,1.3,0.8,2,0.8c0.7,0,1.4-0.4,1.9-1c14.7-18.5,17.2-34.5,7.5-48.7L436.3,28.9z M336.4,118.5
	c0.5,0.5,1.1,1.1,1.6,1.6l14-12.3l-5-4.9l-12.3,14c0.5,0.5,1,1.1,1.6,1.6C336.3,118.4,336.3,118.4,336.4,118.5
	C336.4,118.4,336.4,118.4,336.4,118.5C336.4,118.5,336.4,118.5,336.4,118.5z M431.6,26.2c-0.6-0.4-1.1-0.9-1.6-1.5
	c-0.5-0.5-1-1.1-1.5-1.6l-45.2,43.2l5.1,5.1l22.7-23.8c0.1-0.1,0.1-0.1,0.2-0.2L431.6,26.2z M430.7,12.5c0.3-0.3,0.8-0.4,1.5-0.4
	c0.7,0,1.6,0.2,2.5,0.6c1.1,0.5,2.4,0.1,3.1-0.8c0.4-0.6,0.9-1.1,1.5-1.7c1.6-1.6,3.6-2.9,5.4-3.3c1.3-0.3,2.4-0.2,3,0.3
	c0.5,0.5,0.6,1.6,0.3,2.9c-0.5,1.8-1.7,3.8-3.3,5.5c-0.3,0.3-0.7,0.6-1,0.9l-0.1,0.1l-0.6,0.5c-0.8,0.7-1.1,1.9-0.7,2.9
	c0.7,1.8,0.7,3.4,0.1,4.1c-1.1,1.1-5,0.4-8.4-3c-1.7-1.7-2.9-3.7-3.4-5.5C430,14.2,430.1,13.1,430.7,12.5z M390.4,77.1
	c0,0-0.1,0.1-0.1,0.1c-0.4,0.4-1,0.6-1.5,0.7c-0.1,0-0.1,0-0.2,0l0,0l0,0c-0.7,0-1.3-0.2-1.8-0.7l0,0c0,0,0,0,0,0l-8.9-9
	c-0.1-0.1-0.2-0.3-0.3-0.4l0,0l0,0c-0.1-0.1-0.1-0.2-0.2-0.3c0,0,0-0.1,0-0.1c-0.1-0.3-0.2-0.7-0.2-1.1c0-0.7,0.3-1.4,0.8-1.9
	l23.5-22.5c-11.3-7.5-24-5.5-39.4,6.2l1.4,1.4c4.9,4.9,4.9,12.9,0,17.8l-5.8,5.8c-4.9,4.9-12.9,4.9-17.8,0l-2.5-2.5
	c-8.4,7.6-15.2,14.4-15.4,22.6c-0.1,5.7,2.9,12.2,9.4,19.7L345,97.2c0.5-0.6,1.2-0.9,1.9-0.9c0.1,0,0.1,0,0.2,0
	c0.6,0,1.3,0.3,1.8,0.8l8.9,8.9c0.4,0.4,0.6,0.9,0.7,1.3c0.1,0.6,0,1.2-0.2,1.7c-0.1,0.3-0.4,0.6-0.6,0.8l-15.7,13.8
	c7.6,6.5,14.1,9.6,19.7,9.4c8.2-0.2,15-7.1,22.6-15.5l-2.5-2.5c-2.4-2.4-3.7-5.5-3.7-8.9c0-3.4,1.3-6.5,3.7-8.9l5.8-5.8
	c2.4-2.4,5.5-3.7,8.9-3.7c3.4,0,6.5,1.3,8.9,3.7l1.4,1.4c11.3-15.2,13.3-27.8,6.1-39.2L390.4,77.1z"/>
<path class="st9" d="M397.3,128c-0.4,0.4-0.7,1-0.8,1.6c0,0.1,0,0.3,0,0.4c0,0.1,0,0.2,0,0.3l1.5,9.7l-10.6,10.6c-1,1-1,2.7,0,3.7
	c0.5,0.5,1.2,0.8,1.9,0.8c0.7,0,1.3-0.3,1.9-0.8l78.3-78.5c0.6-0.6,0.9-1.4,0.7-2.3l-1.7-11c-0.1-0.5-0.3-1.1-0.7-1.5
	c-1-1-2.7-1-3.7,0L397.3,128z M464.9,73l-62.2,62.4l-0.7-4.6l62.2-62.3L464.9,73z"/>
</svg>
