<svg width="175" height="62" viewBox="0 0 175 62" fill="none" xmlns="http://www.w3.org/2000/svg">
<path d="M90.8296 23.1707C90.8296 22.7442 91.2561 22.3178 91.6825 22.3178H94.5255C95.3785 22.3178 96.0892 22.6021 96.5157 23.0285C96.9421 23.455 97.0843 23.8814 97.0843 24.3079C97.0843 25.1608 96.6578 25.7294 96.0892 26.0137C96.9421 26.298 97.5107 26.8666 97.5107 28.0038C97.5107 29.4254 96.3735 30.1361 94.5255 30.1361H91.6825C91.2561 30.1361 90.8296 29.7097 90.8296 29.2832V23.1707ZM94.0991 25.4451C94.8098 25.4451 95.3785 25.1608 95.3785 24.5922C95.3785 24.0236 94.952 23.7393 94.2412 23.7393H92.5354V25.4451H94.0991ZM94.5255 28.5725C95.2363 28.5725 95.8049 28.2881 95.8049 27.7195C95.8049 27.1509 95.3785 26.8666 94.5255 26.8666H92.5354V28.5725H94.5255Z" fill="white"/>
<path d="M98.2222 25.0188C98.2222 22.0336 100.497 19.617 103.766 19.617C106.893 19.617 109.168 22.0336 109.168 24.8766C109.168 27.8618 106.893 30.1362 103.624 30.1362C100.497 30.2784 98.2222 28.004 98.2222 25.0188ZM106.893 25.0188C106.893 23.1708 105.614 21.7493 103.766 21.7493C101.918 21.7493 100.639 23.1708 100.639 25.0188C100.639 26.7246 101.918 28.2883 103.766 28.2883C105.614 28.2883 106.893 26.7246 106.893 25.0188Z" fill="white"/>
<path d="M110.305 23.7392C110.305 20.0432 113.148 17.058 117.128 17.058C119.118 17.058 120.397 17.4845 121.535 18.3374C121.819 18.4795 122.103 18.906 122.103 19.4746C122.103 20.1854 121.535 20.8961 120.682 20.8961C120.255 20.8961 119.971 20.754 119.829 20.6118C119.118 20.0432 118.265 19.7589 116.986 19.7589C114.854 19.7589 113.29 21.6069 113.29 23.7392C113.29 26.1558 114.854 27.8616 117.27 27.8616C118.265 27.8616 119.26 27.5773 119.971 27.1508V25.3028H117.981C117.27 25.3028 116.702 24.7342 116.702 24.0235C116.702 23.3127 117.27 22.7441 117.981 22.7441H121.25C122.103 22.7441 122.672 23.3127 122.672 24.1656V27.293C122.672 28.1459 122.388 28.7145 121.677 29.1409C120.682 29.8517 119.118 30.4203 117.128 30.4203C113.148 30.4203 110.305 27.5773 110.305 23.7392Z" fill="white"/>
<path d="M123.524 22.1755C123.524 17.6266 127.078 13.9307 132.053 13.9307C137.028 13.9307 140.44 17.6266 140.44 22.0334C140.44 26.5822 136.886 30.2782 131.911 30.2782C126.936 30.4203 123.524 26.7244 123.524 22.1755ZM136.744 22.1755C136.744 19.4746 134.754 17.2002 131.911 17.2002C129.068 17.2002 127.078 19.4746 127.078 22.1755C127.078 24.8764 129.068 27.1508 131.911 27.1508C134.754 27.1508 136.744 25.0185 136.744 22.1755Z" fill="white"/>
<path d="M144.563 14.9259H140.583C139.588 14.9259 138.593 14.0729 138.593 12.9357C138.593 11.9407 139.446 10.9456 140.583 10.9456H152.808C153.803 10.9456 154.798 11.7985 154.798 12.9357C154.798 13.9308 153.945 14.9259 152.808 14.9259H148.828V28.146C148.828 29.2832 147.833 30.2783 146.695 30.2783C145.558 30.2783 144.563 29.4254 144.563 28.146V14.9259Z" fill="white"/>
<path d="M152.381 27.0089L160.2 9.38203C160.768 8.10266 161.763 7.3919 163.043 7.3919H163.327C164.607 7.3919 165.602 8.10266 166.17 9.38203L173.989 27.0089C174.131 27.2932 174.273 27.7196 174.273 28.0039C174.273 29.2833 173.278 30.4205 171.998 30.4205C170.861 30.4205 170.15 29.7098 169.582 28.7147L168.018 25.1609H158.21L156.646 28.8568C156.22 29.8519 155.367 30.4205 154.372 30.4205C153.092 30.4205 152.097 29.4255 152.097 28.1461C152.097 27.7196 152.239 27.2932 152.381 27.0089ZM166.17 20.7542L163.043 13.3623L159.916 20.7542H166.17ZM161.763 5.11747C161.763 4.83316 161.906 4.54886 162.048 4.26456L163.754 1.56367C164.18 0.852909 164.749 0.426453 165.602 0.426453C166.739 0.426453 168.302 1.13721 168.302 1.84797C168.302 2.27443 168.018 2.70088 167.592 2.98519L165.602 4.83316C164.607 5.68607 163.896 5.82823 162.759 5.82823C162.332 5.82823 161.763 5.54392 161.763 5.11747Z" fill="white"/>
<path d="M90.8281 35.1115C90.8281 34.1164 91.681 33.2635 92.6761 33.2635H93.1026C93.8133 33.2635 94.3819 33.6899 94.8084 34.2586L99.2151 41.3662L103.622 34.1164C104.048 33.5478 104.475 33.2635 105.185 33.2635H105.612C106.607 33.2635 107.46 34.1164 107.46 35.1115V48.3316C107.46 49.3267 106.607 50.1796 105.612 50.1796C104.617 50.1796 103.764 49.3267 103.764 48.3316V39.9446L100.637 44.92C100.21 45.4886 99.7837 45.7729 99.0729 45.7729C98.3622 45.7729 97.9357 45.3464 97.5093 44.92L94.3819 40.0868V48.3316C94.3819 49.3267 93.529 50.0374 92.534 50.0374C91.5389 50.0374 90.8281 49.3267 90.8281 48.3316V35.1115Z" fill="white"/>
<path d="M111.44 48.0473V35.1115C111.44 34.1164 112.293 33.2635 113.288 33.2635H122.528C123.381 33.2635 124.092 33.9743 124.092 34.8272C124.092 35.6801 123.381 36.3908 122.528 36.3908H114.994V39.9446H121.249C122.102 39.9446 122.813 40.6554 122.813 41.5083C122.813 42.3612 122.102 43.072 121.249 43.072H114.994V46.4836H122.528C123.381 46.4836 124.092 47.1944 124.092 48.0473C124.092 48.9002 123.381 49.611 122.528 49.611H113.288C112.151 49.8953 111.44 49.1845 111.44 48.0473Z" fill="white"/>
<path d="M126.65 48.7582C126.224 48.4739 125.939 47.9052 125.939 47.3366C125.939 46.3416 126.65 45.6308 127.645 45.6308C128.072 45.6308 128.356 45.773 128.782 46.0573C129.493 46.6259 130.204 46.9102 130.915 46.9102C132.336 46.9102 133.189 46.0573 133.189 44.2093V35.2537C133.189 34.2587 134.042 33.4057 135.037 33.4057C136.032 33.4057 136.885 34.2587 136.885 35.2537V44.2093C136.885 46.1994 136.317 47.6209 135.321 48.616C134.326 49.6111 132.763 50.1797 131.057 50.1797C129.067 50.1797 127.645 49.4689 126.65 48.7582Z" fill="white"/>
<path d="M139.871 41.6506C139.871 36.9596 143.567 32.9793 148.684 32.9793C153.802 32.9793 157.497 36.8174 157.497 41.5084C157.497 46.1994 153.802 50.0375 148.684 50.0375C143.424 50.1797 139.871 46.3416 139.871 41.6506ZM153.659 41.6506C153.659 38.8075 151.527 36.3909 148.684 36.3909C145.699 36.3909 143.709 38.6654 143.709 41.5084C143.709 44.3515 145.841 46.768 148.684 46.768C151.527 46.9102 153.659 44.4936 153.659 41.6506Z" fill="white"/>
<path d="M160.624 35.2537C160.624 34.2587 161.476 33.4057 162.471 33.4057H168.158C170.29 33.4057 171.854 33.9743 172.991 35.1116C173.844 35.9645 174.412 37.386 174.412 38.9497C174.412 41.5084 173.133 43.2142 171.143 43.925L173.701 47.0523C174.128 47.4788 174.27 47.9052 174.27 48.4739C174.27 49.4689 173.417 50.1797 172.564 50.1797C171.711 50.1797 171.143 49.7532 170.716 49.1846L167.163 44.6357H164.319V48.1895C164.319 49.1846 163.467 50.0375 162.471 50.0375C161.476 50.0375 160.624 49.1846 160.624 48.1895V35.2537ZM168.015 41.3663C169.721 41.3663 170.858 40.3712 170.858 39.0918C170.858 37.5282 169.721 36.6752 168.015 36.6752H164.462V41.3663H168.015Z" fill="white"/>
<path d="M90.8297 54.0178C90.8297 53.4491 91.2561 53.0227 91.8247 53.0227H94.3835C96.3736 53.0227 97.6529 54.3021 97.6529 56.0079C97.6529 57.998 96.0893 58.9931 94.0991 58.9931H92.6776V60.6989C92.6776 61.2675 92.2512 61.694 91.6826 61.694C91.114 61.694 90.6875 61.2675 90.6875 60.6989V54.0178H90.8297ZM94.2413 57.4294C95.2364 57.4294 95.805 56.8608 95.805 56.15C95.805 55.2971 95.2364 54.8707 94.2413 54.8707H92.8198V57.5716H94.2413V57.4294Z" fill="white"/>
<path d="M97.9374 60.4147L100.923 53.5914C101.065 53.1649 101.491 52.8806 102.06 52.8806H102.202C102.771 52.8806 103.055 53.1649 103.339 53.5914L106.324 60.4147C106.324 60.5569 106.467 60.699 106.467 60.8412C106.467 61.4098 106.04 61.6941 105.614 61.6941C105.187 61.6941 104.903 61.4098 104.761 60.9833L104.192 59.5618H100.354L99.7853 60.9833C99.6432 61.4098 99.3589 61.5519 98.9325 61.5519C98.506 61.5519 98.0795 61.1255 98.0795 60.699C97.7952 60.699 97.9374 60.5569 97.9374 60.4147ZM103.339 57.9981L102.202 55.1551L101.065 57.9981H103.339Z" fill="white"/>
<path d="M107.889 54.0178C107.889 53.4491 108.315 53.0227 108.884 53.0227H111.869C113.006 53.0227 113.859 53.307 114.428 53.8756C114.854 54.3021 115.139 55.0128 115.139 55.8657C115.139 57.2872 114.428 57.998 113.433 58.4245L114.712 59.9881C114.854 60.2724 114.996 60.4146 114.996 60.6989C114.996 61.2675 114.57 61.5518 114.143 61.5518C113.717 61.5518 113.433 61.4097 113.148 61.1254L111.3 58.8509H109.737V60.6989C109.737 61.2675 109.31 61.694 108.742 61.694C108.173 61.694 107.747 61.2675 107.747 60.6989V54.0178H107.889ZM111.727 57.2872C112.722 57.2872 113.148 56.8608 113.148 56.0079C113.148 55.155 112.58 54.7285 111.727 54.7285H109.879V57.1451H111.727V57.2872Z" fill="white"/>
<path d="M116.275 60.4147L119.26 53.5914C119.402 53.1649 119.829 52.8806 120.397 52.8806H120.539C121.108 52.8806 121.392 53.1649 121.677 53.5914L124.662 60.4147C124.662 60.5569 124.804 60.699 124.804 60.8412C124.804 61.4098 124.377 61.6941 123.951 61.6941C123.525 61.6941 123.24 61.4098 123.098 60.9833L122.529 59.5618H118.691L118.123 60.9833C117.981 61.4098 117.696 61.5519 117.27 61.5519C116.843 61.5519 116.417 61.1255 116.417 60.699C116.133 60.699 116.275 60.5569 116.275 60.4147ZM121.677 57.9981L120.539 55.1551L119.402 57.9981H121.677Z" fill="white"/>
<path d="M131.911 54.7285H130.063C129.637 54.7285 129.21 54.3021 129.21 53.8756C129.21 53.4491 129.637 53.0227 130.063 53.0227H135.607C136.034 53.0227 136.46 53.4491 136.46 53.8756C136.46 54.3021 136.034 54.7285 135.607 54.7285H133.759V60.6989C133.759 61.2675 133.333 61.694 132.764 61.694C132.196 61.694 131.769 61.2675 131.769 60.6989V54.7285H131.911Z" fill="white"/>
<path d="M137.172 57.4295C137.172 55.0129 139.162 52.8806 141.721 52.8806C144.422 52.8806 146.27 54.8708 146.27 57.2874C146.27 59.7039 144.279 61.6941 141.721 61.6941C139.02 61.8362 137.172 59.8461 137.172 57.4295ZM144.279 57.4295C144.279 55.8658 143.142 54.7286 141.721 54.7286C140.157 54.7286 139.162 55.8658 139.162 57.4295C139.162 58.851 140.299 60.1304 141.721 60.1304C143.284 59.9882 144.279 58.851 144.279 57.4295Z" fill="white"/>
<path d="M147.975 54.0178C147.975 53.4491 148.401 53.0227 148.97 53.0227H151.386C154.087 53.0227 155.935 54.8707 155.935 57.2872C155.935 59.7038 154.087 61.5518 151.386 61.5518H148.97C148.401 61.5518 147.975 61.1254 147.975 60.5567V54.0178ZM151.386 59.9881C152.95 59.9881 153.945 58.9931 153.945 57.4294C153.945 55.8657 152.95 54.8707 151.386 54.8707H149.965V60.1303H151.386V59.9881Z" fill="white"/>
<path d="M157.214 57.4295C157.214 55.0129 159.204 52.8806 161.763 52.8806C164.464 52.8806 166.312 54.8708 166.312 57.2874C166.312 59.7039 164.321 61.6941 161.763 61.6941C159.204 61.8362 157.214 59.8461 157.214 57.4295ZM164.464 57.4295C164.464 55.8658 163.326 54.7286 161.905 54.7286C160.341 54.7286 159.346 55.8658 159.346 57.4295C159.346 58.851 160.483 60.1304 161.905 60.1304C163.326 59.9882 164.464 58.851 164.464 57.4295Z" fill="white"/>
<path d="M167.877 60.699C167.735 60.5569 167.451 60.2725 167.451 59.9882C167.451 59.5618 167.877 59.1353 168.304 59.1353C168.588 59.1353 168.73 59.2775 168.872 59.2775C169.583 59.7039 170.294 59.9882 171.147 59.9882C171.857 59.9882 172.426 59.7039 172.426 59.1353C172.426 58.7089 172.142 58.4246 170.72 57.9981C169.014 57.5717 167.877 57.1452 167.877 55.2972C167.877 53.7336 169.156 52.7385 170.862 52.7385C171.857 52.7385 172.852 53.0228 173.563 53.4493C173.705 53.5914 173.99 53.8757 173.99 54.16C173.99 54.5865 173.563 55.0129 173.137 55.0129C172.995 55.0129 172.852 55.0129 172.71 54.8708C172.142 54.4443 171.431 54.3022 170.862 54.3022C170.152 54.3022 169.725 54.5865 169.725 55.0129C169.725 55.5815 170.152 55.7237 171.573 56.1501C173.279 56.5766 174.274 57.2874 174.274 58.7089C174.274 60.4147 172.995 61.4098 171.147 61.4098C170.009 61.8362 168.872 61.4098 167.877 60.699Z" fill="white"/>
<path d="M77.0405 0.284195H75.9033V61.836H77.0405V0.284195Z" fill="white"/>
<path d="M6.24839 52.7384H5.11117L4.68471 51.6011H2.55243L2.12599 52.7384H0.98877L2.97889 47.4787H4.11611L6.24839 52.7384ZM4.40041 50.7482L3.68965 48.7581L2.97889 50.7482H4.40041Z" fill="white"/>
<path d="M6.53271 52.7385V47.621H7.66993V51.8855H10.2287V52.7385H6.53271Z" fill="white"/>
<path d="M14.0665 50.8904L15.0616 51.1747C14.9194 51.7433 14.6351 52.1697 14.3508 52.454C13.9243 52.7384 13.4979 52.8805 12.9293 52.8805C12.2185 52.8805 11.6499 52.5962 11.2235 52.1697C10.797 51.7433 10.5127 51.0325 10.5127 50.1796C10.5127 49.3267 10.797 48.6159 11.2235 48.1895C11.6499 47.763 12.2185 47.4787 12.9293 47.4787C13.64 47.4787 14.0665 47.6209 14.493 48.0473C14.7773 48.3316 14.9194 48.6159 15.0616 49.0424L14.0665 49.3267C14.0665 49.0424 13.9243 48.9002 13.64 48.6159C13.4979 48.4738 13.2136 48.3316 12.9293 48.3316C12.5028 48.3316 12.2185 48.4738 11.9342 48.7581C11.6499 49.0424 11.5078 49.4689 11.5078 50.0375C11.5078 50.7482 11.6499 51.1747 11.9342 51.459C12.2185 51.7433 12.5028 51.8854 12.9293 51.8854C13.2136 51.8854 13.4979 51.7433 13.64 51.6011C13.7822 51.6011 13.9243 51.3168 14.0665 50.8904Z" fill="white"/>
<path d="M20.4642 52.7384H19.327L18.9005 51.6011H16.7682L16.3418 52.7384H15.2046L17.1947 47.4787H18.3319L20.4642 52.7384ZM18.4741 50.7482L17.7633 48.7581L17.0526 50.7482H18.4741Z" fill="white"/>
<path d="M20.7476 52.7385V47.621H21.7426V51.8855H24.3014V52.7385H20.7476Z" fill="white"/>
<path d="M24.8711 47.621H26.8612C27.2877 47.621 27.572 47.621 27.8563 47.7631C28.1406 47.9053 28.4249 48.0474 28.7092 48.1896C28.9935 48.4739 29.1356 48.7582 29.2778 49.0425C29.4199 49.3268 29.42 49.7533 29.42 50.3219C29.42 50.7483 29.4199 51.1748 29.2778 51.4591C29.1356 51.8855 28.9935 52.1698 28.7092 52.312C28.567 52.4542 28.2827 52.5963 27.9984 52.7385C27.7141 52.8806 27.4298 52.8806 27.0034 52.8806H25.0132V47.621H24.8711ZM25.8662 48.4739V51.8855H26.7191C27.0034 51.8855 27.2877 51.8855 27.2877 51.8855C27.4298 51.8855 27.572 51.7434 27.7141 51.7434C27.8563 51.6012 27.8563 51.4591 27.9984 51.1748C27.9984 50.8905 28.1406 50.6062 28.1406 50.1797C28.1406 49.7533 28.1406 49.469 27.9984 49.1847C27.8563 49.0425 27.8563 48.7582 27.7141 48.616C27.572 48.4739 27.4298 48.4739 27.2877 48.3317C27.1455 48.3317 26.8612 48.3317 26.4348 48.3317H25.8662V48.4739Z" fill="white"/>
<path d="M29.9874 47.0524L30.4139 46.0573H31.5511L30.556 47.0524H29.9874ZM29.7031 47.621H30.6982V52.7385H29.7031V47.621Z" fill="white"/>
<path d="M36.243 52.7384H35.1058L34.6794 51.6011H32.5471L32.1206 52.7384H30.9834L32.9735 47.4787H34.1108L36.243 52.7384ZM34.2529 50.7482L33.5421 48.7581L32.8314 50.7482H34.2529Z" fill="white"/>
<path d="M37.9482 52.7385V47.621H39.5119L40.3648 51.1748L41.3599 47.621H42.9236V52.7385H41.9285V48.616L40.9334 52.7385H39.9384L38.9433 48.616V52.7385H37.9482Z" fill="white"/>
<path d="M48.4676 52.7384H47.3304L46.904 51.6011H44.7717L44.3452 52.7384H43.208L45.1981 47.4787H46.3354L48.4676 52.7384ZM46.4775 50.7482L45.7667 48.7581L45.056 50.7482H46.4775Z" fill="white"/>
<path d="M49.3201 52.7385V50.6062L47.4722 47.621H48.7515L49.8888 49.6111L51.1681 47.621H52.3053L50.4574 50.6062V52.7385H49.3201Z" fill="white"/>
<path d="M52.3057 50.1797C52.3057 49.6111 52.4478 49.1847 52.59 48.9004C52.7321 48.616 52.8743 48.3317 53.0164 48.1896C53.1586 47.9053 53.4429 47.7631 53.7272 47.7631C54.0115 47.621 54.438 47.621 54.8644 47.621C55.5752 47.621 56.2859 47.9053 56.7124 48.3317C57.1388 48.7582 57.4231 49.469 57.4231 50.3219C57.4231 51.1748 57.1388 51.8855 56.7124 52.312C56.2859 52.7385 55.5752 53.0228 54.8644 53.0228C54.1537 53.0228 53.4429 52.7385 53.0164 52.312C52.59 51.7434 52.3057 51.0326 52.3057 50.1797ZM53.4429 50.1797C53.4429 50.7483 53.585 51.1748 53.8693 51.4591C54.1536 51.7434 54.438 51.8855 54.8644 51.8855C55.2909 51.8855 55.5752 51.7434 55.8595 51.4591C56.1438 51.1748 56.2859 50.7483 56.2859 50.0376C56.2859 49.469 56.1438 49.0425 55.8595 48.7582C55.5752 48.4739 55.2909 48.3317 54.8644 48.3317C54.438 48.3317 54.0115 48.4739 53.8693 48.7582C53.585 49.1847 53.4429 49.6111 53.4429 50.1797Z" fill="white"/>
<path d="M57.9912 52.7384V47.4787H60.2657C60.8343 47.4787 61.2607 47.4787 61.545 47.6209C61.8293 47.763 61.9715 47.9052 62.1136 48.1895C62.2558 48.4738 62.3979 48.7581 62.3979 49.0424C62.3979 49.4689 62.2558 49.7532 62.1136 50.0375C61.8293 50.3218 61.545 50.4639 61.1186 50.4639C61.4029 50.6061 61.545 50.7482 61.6872 50.8904C61.8293 51.0325 61.9715 51.3168 62.2558 51.7433L62.9665 52.7384H61.6872L60.9764 51.6011C60.6921 51.1747 60.55 50.8904 60.4078 50.8904C60.2657 50.7482 60.2656 50.7482 60.1235 50.6061C59.9813 50.6061 59.8392 50.6061 59.5549 50.6061H59.4127V52.7384H57.9912ZM58.9863 49.7532H59.6971C60.2657 49.7532 60.5499 49.7532 60.6921 49.7532C60.8342 49.7532 60.9764 49.611 60.9764 49.4689C61.1186 49.3267 61.1186 49.1846 61.1186 49.0424C61.1186 48.9003 61.1186 48.7581 60.9764 48.6159C60.8343 48.4738 60.6921 48.4738 60.55 48.4738C60.4078 48.4738 60.2657 48.4738 59.8392 48.4738H58.9863V49.7532Z" fill="white"/>
<path d="M52.7319 60.2725H51.7368V61.2676H52.7319V60.2725Z" fill="white"/>
<path d="M4.40044 56.15H6.24842C6.67488 56.15 6.95918 56.15 7.24348 56.2921C7.52778 56.4343 7.81209 56.5764 7.95424 56.7186C8.23854 57.0029 8.3807 57.2872 8.3807 57.5715C8.52285 57.8558 8.52286 58.2823 8.52286 58.8509C8.52286 59.2773 8.52285 59.7038 8.3807 59.9881C8.23855 60.4145 8.0964 60.6989 7.8121 60.841C7.66995 60.9832 7.38564 61.1253 7.10134 61.2675C6.81704 61.4096 6.53272 61.4096 6.24842 61.4096H4.2583V56.15H4.40044ZM5.3955 57.0029V60.4146H6.10626C6.39056 60.4146 6.67488 60.4146 6.67488 60.4146C6.81703 60.4146 6.95919 60.2724 7.10134 60.2724C7.24349 60.1302 7.24349 59.9881 7.38564 59.8459C7.38564 59.5616 7.52778 59.2773 7.52778 58.8509C7.52778 58.4244 7.52779 58.1401 7.38564 57.998C7.24349 57.8558 7.24349 57.5715 7.10134 57.4294C6.95919 57.2872 6.81703 57.2872 6.67488 57.1451C6.53273 57.1451 6.24842 57.1451 5.82196 57.1451H5.3955V57.0029Z" fill="white"/>
<path d="M9.23438 61.2675V56.15H13.0725V57.0029H10.3716V58.1401H12.9303V58.993H10.3716V60.4146H13.2146V61.2675H9.23438Z" fill="white"/>
<path d="M15.4897 56.1501H17.4799C17.9063 56.1501 18.1906 56.1501 18.3328 56.1501C18.4749 56.1501 18.7592 56.2923 18.9014 56.2923C19.0435 56.4344 19.1857 56.5766 19.3278 56.7187C19.47 56.8609 19.47 57.1452 19.47 57.2873C19.47 57.5716 19.47 57.7138 19.3278 57.9981C19.1857 58.1402 19.0435 58.2824 18.7592 58.4245C19.0435 58.5667 19.3279 58.7088 19.47 58.851C19.6122 59.1353 19.7543 59.2774 19.7543 59.5617C19.7543 59.846 19.7543 59.9882 19.6121 60.2725C19.47 60.5568 19.3279 60.699 19.1857 60.8411C19.0436 60.9833 18.7592 61.1254 18.4749 61.1254C18.3328 61.1254 17.9063 61.1254 17.1956 61.1254H15.4897V56.1501ZM16.4848 57.003V58.1402H17.1956C17.622 58.1402 17.9063 58.1402 17.9063 58.1402C18.0485 58.1402 18.1906 57.9981 18.3328 57.9981C18.4749 57.8559 18.4749 57.7138 18.4749 57.5716C18.4749 57.4295 18.4749 57.2873 18.3328 57.1452C18.1906 57.003 18.0485 57.003 17.9063 57.003C17.7642 57.003 17.4799 57.003 17.0534 57.003H16.4848ZM16.4848 58.9931V60.4147H17.4799C17.9063 60.4147 18.0485 60.4147 18.1906 60.4147C18.3328 60.4147 18.4749 60.2725 18.6171 60.2725C18.7592 60.1304 18.7592 59.9882 18.7592 59.846C18.7592 59.7039 18.7592 59.5617 18.6171 59.4196C18.4749 59.2774 18.4749 59.2774 18.3328 59.1353C18.1906 59.1353 17.9063 58.9931 17.4799 58.9931H16.4848Z" fill="white"/>
<path d="M20.1792 58.7087C20.1792 58.1401 20.3213 57.7137 20.4635 57.4294C20.6057 57.1451 20.7478 57.0029 20.89 56.7186C21.0321 56.5764 21.3164 56.2921 21.6007 56.2921C21.885 56.15 22.3115 56.15 22.7379 56.15C23.4487 56.15 24.1594 56.4343 24.5859 56.8608C25.0124 57.2872 25.2967 57.998 25.2967 58.8509C25.2967 59.7038 25.0124 60.2724 24.5859 60.841C24.1594 61.2675 23.5909 61.5518 22.7379 61.5518C22.0272 61.5518 21.3164 61.2675 20.89 60.841C20.3214 60.1302 20.1792 59.5616 20.1792 58.7087ZM21.1743 58.7087C21.1743 59.2773 21.3164 59.7038 21.6007 59.9881C21.885 60.2724 22.1693 60.4146 22.5958 60.4146C23.0222 60.4146 23.3065 60.2724 23.5908 59.9881C23.8751 59.7038 24.0173 59.2773 24.0173 58.7087C24.0173 58.1401 23.8751 57.7137 23.5908 57.4294C23.3065 57.1451 23.0222 57.0029 22.5958 57.0029C22.1693 57.0029 21.885 57.1451 21.6007 57.4294C21.3164 57.5715 21.1743 57.998 21.1743 58.7087Z" fill="white"/>
<path d="M27.9972 59.4196V58.4245H30.2716V60.4147C29.9873 60.5568 29.703 60.8411 29.2766 60.9833C28.8501 61.1254 28.4237 61.2676 27.9972 61.2676C27.4286 61.2676 27.0022 61.1254 26.5757 60.9833C26.1492 60.699 25.8649 60.4147 25.7228 59.9882C25.5806 59.5617 25.4385 59.1353 25.4385 58.5667C25.4385 57.9981 25.5806 57.5716 25.7228 57.1452C26.0071 56.7187 26.2914 56.4344 26.7178 56.1501C27.0021 56.008 27.4286 55.8658 27.9972 55.8658C28.5658 55.8658 29.1344 56.0079 29.5609 56.2923C29.9873 56.5766 30.1295 56.8609 30.2716 57.4295L29.2766 57.5716C29.2766 57.2873 29.1344 57.1452 28.8501 57.003C28.708 56.8609 28.4237 56.7187 28.1394 56.7187C27.7129 56.7187 27.2865 56.8609 27.0022 57.1452C26.7179 57.4295 26.5757 57.8559 26.5757 58.4245C26.5757 58.9931 26.7179 59.4196 27.0022 59.8461C27.2865 60.1304 27.5708 60.2725 27.9972 60.2725C28.2815 60.2725 28.4237 60.2725 28.708 60.1304C28.9923 59.9882 29.1344 59.9882 29.2766 59.8461V59.1353H27.9972V59.4196Z" fill="white"/>
<path d="M30.6992 58.7087C30.6992 58.1401 30.8414 57.7137 30.9835 57.4294C31.1257 57.1451 31.2678 57.0029 31.41 56.7186C31.5521 56.5764 31.8364 56.2921 32.1207 56.2921C32.405 56.15 32.8315 56.15 33.258 56.15C33.9687 56.15 34.6795 56.4343 35.1059 56.8608C35.5324 57.2872 35.8167 57.998 35.8167 58.8509C35.8167 59.7038 35.5324 60.2724 35.1059 60.841C34.6795 61.2675 34.1109 61.5518 33.258 61.5518C32.5472 61.5518 31.8364 61.2675 31.41 60.841C30.9835 60.1302 30.6992 59.5616 30.6992 58.7087ZM31.8364 58.7087C31.8364 59.2773 31.9786 59.7038 32.2629 59.9881C32.5472 60.2724 32.8315 60.4146 33.258 60.4146C33.6844 60.4146 33.9687 60.2724 34.253 59.9881C34.5373 59.7038 34.6795 59.2773 34.6795 58.7087C34.6795 58.1401 34.5373 57.7137 34.253 57.4294C33.9687 57.1451 33.6844 57.0029 33.258 57.0029C32.8315 57.0029 32.5472 57.1451 32.2629 57.4294C31.9786 57.5715 31.8364 57.998 31.8364 58.7087Z" fill="white"/>
<path d="M37.3791 61.2675V57.0029H35.8154V56.15H39.9378V57.0029H38.3742V61.2675H37.3791Z" fill="white"/>
<path d="M44.9134 61.2675H43.7761L43.3497 60.1302H41.3596L40.9331 61.2675H39.7959L41.786 56.15H42.9232L44.9134 61.2675ZM43.0654 59.1352L42.3546 57.2872L41.6439 59.1352H43.0654ZM41.9282 55.5814L42.3546 54.5863H43.4918L42.4968 55.5814H41.9282Z" fill="white"/>
<path d="M46.9039 56.15H48.7518C49.1783 56.15 49.4626 56.15 49.7469 56.2921C50.0312 56.4343 50.3155 56.5764 50.4577 56.7186C50.5998 57.0029 50.8841 57.2872 50.8841 57.5715C51.0263 57.8558 51.0263 58.2823 51.0263 58.8509C51.0263 59.2773 51.0263 59.7038 50.8841 59.9881C50.742 60.4145 50.5998 60.6989 50.3155 60.841C50.1734 60.9832 49.8891 61.1253 49.6048 61.2675C49.3205 61.4096 49.0361 61.4096 48.7518 61.4096H46.7617V56.15H46.9039ZM47.8989 57.0029V60.4146H48.6097C48.894 60.4146 49.0362 60.4146 49.1783 60.4146C49.3205 60.4146 49.4626 60.2724 49.6048 60.2724C49.7469 60.1302 49.7469 59.9881 49.8891 59.8459C49.8891 59.5616 50.0312 59.2773 50.0312 58.8509C50.0312 58.4244 50.0312 58.1401 49.8891 57.998C49.7469 57.8558 49.7469 57.5715 49.6048 57.4294C49.4626 57.2872 49.3205 57.2872 49.1783 57.1451C49.0362 57.1451 48.7519 57.1451 48.3254 57.1451H47.8989V57.0029Z" fill="white"/>
<path d="M56.7125 59.2776L57.7076 59.5619C57.5654 60.1305 57.2811 60.5569 56.9968 60.8412C56.5704 61.1255 56.1439 61.2677 55.5753 61.2677C54.8645 61.2677 54.2959 60.9834 53.8695 60.5569C53.443 60.1305 53.1587 59.4197 53.1587 58.7089C53.1587 57.856 53.443 57.1453 53.8695 56.7188C54.2959 56.2924 54.8645 56.0081 55.5753 56.0081C56.1439 56.0081 56.7125 56.1502 57.1389 56.5767C57.4232 56.861 57.5654 57.1453 57.7076 57.5717L56.7125 57.856C56.7125 57.5717 56.5704 57.4296 56.2861 57.2874C56.1439 57.1453 55.8596 57.0031 55.5753 57.0031C55.1488 57.0031 54.8645 57.1453 54.5802 57.4296C54.2959 57.7139 54.2959 58.1403 54.2959 58.7089C54.2959 59.4197 54.4381 59.8462 54.5802 60.1305C54.8645 60.4148 55.1488 60.5569 55.4331 60.5569C55.7174 60.5569 56.0017 60.4148 56.1439 60.2726C56.4282 59.9883 56.5703 59.704 56.7125 59.2776Z" fill="white"/>
<path d="M59.2704 60.2725H58.2754V61.2676H59.2704V60.2725Z" fill="white"/>
<path d="M21.7422 24.7346C21.8843 24.8767 22.3108 24.5924 22.3108 24.4503C22.1686 24.166 22.3108 23.5974 22.7373 23.5974V23.4552C22.7373 23.4552 22.0265 23.4552 21.8843 23.8817C21.8843 23.8817 21.3157 23.313 21.1736 23.313C21.0314 23.4552 21.3157 24.166 21.3157 24.166C20.8893 24.0238 20.605 24.7346 20.605 24.7346L20.7471 24.8767C20.8893 24.3081 21.6 24.4503 21.7422 24.7346Z" fill="white"/>
<path d="M27.429 29.5677C27.0025 29.9942 26.8604 30.5628 26.8604 31.1314C27.429 31.1314 27.8554 30.8471 28.2819 30.4206C28.7083 29.9942 28.8505 29.4256 28.8505 28.857C28.2819 28.857 27.8554 29.1413 27.429 29.5677Z" fill="white"/>
<path d="M42.2135 24.0237C42.2135 24.0237 42.4978 23.3129 42.3557 23.1708C42.2135 23.1708 41.6449 23.7394 41.6449 23.7394C41.5027 23.3129 40.792 23.3129 40.792 23.3129V23.4551C41.2184 23.4551 41.3606 24.1659 41.2185 24.308C41.2185 24.4502 41.6449 24.7345 41.7871 24.5923C41.9292 24.308 42.4978 24.1659 42.7821 24.5923L42.9243 24.4502C42.9243 24.5923 42.64 24.0237 42.2135 24.0237Z" fill="white"/>
<path d="M36.0993 29.5676C35.6728 29.1412 35.1042 28.999 34.6777 28.999C34.6777 29.5676 34.8199 30.1362 35.2463 30.5627C35.6728 30.9892 36.0992 31.2735 36.6679 31.2735C36.6679 30.5627 36.3836 29.9941 36.0993 29.5676Z" fill="white"/>
<path d="M41.3599 24.5923C40.3648 24.0237 39.0855 24.1658 38.5169 24.8766C37.9482 25.7295 38.3747 26.7246 39.3698 27.4353C38.659 27.4353 37.8061 26.5824 37.8061 26.5824C37.3796 27.2932 38.0904 27.7196 38.659 27.8618C38.5169 27.8618 38.5169 28.0039 38.3747 28.0039C37.8061 27.8618 37.664 28.1461 37.664 28.1461C37.5218 28.1461 36.3846 26.8667 35.5317 26.0138L36.2424 25.8717C35.6738 24.5923 34.1101 24.308 33.1151 23.4551C32.4043 22.8865 33.2572 22.6022 33.3994 22.7443C35.3895 24.308 37.0953 23.3129 37.0953 23.3129C35.6738 22.8865 35.1052 21.3228 35.1052 21.3228C37.9483 22.8865 40.0805 21.0385 40.0805 21.0385C38.2326 21.3228 36.811 19.617 36.811 19.617C39.6541 20.3277 41.7864 18.3376 41.7864 18.3376C40.6491 18.4798 38.0904 17.3425 38.0904 17.3425C42.3549 17.2004 42.7814 14.2152 42.7814 14.2152C41.6442 14.926 38.5169 14.6417 38.5169 14.6417C42.9236 13.078 42.6393 9.38203 42.6393 9.38203C41.6442 10.8036 37.3796 12.0829 37.3796 12.0829C36.2424 12.5094 35.2474 13.5044 35.2474 14.6417C35.2474 15.2103 34.6787 15.4946 34.2523 15.4946C33.1151 15.4946 33.1151 13.7887 33.1151 13.078C33.1151 11.9408 33.1151 10.5192 32.2622 10.5192H30.5564C30.2721 10.5192 29.7034 10.5192 29.5613 10.8036C29.1348 11.3722 29.1348 12.6515 29.4191 12.3672C29.4191 12.3672 30.1299 12.2251 30.5564 12.3672C31.125 12.5094 30.6985 14.2152 30.6985 14.6417C30.6985 15.0681 30.272 15.6367 29.7034 15.6367C29.1348 15.6367 28.7084 15.2103 28.7084 14.7838C28.7084 13.5044 27.7133 12.5094 26.7182 12.2251C26.7182 12.2251 22.3115 10.8036 21.4586 9.52419C21.4586 9.52419 21.1743 13.2201 25.581 14.7838C25.581 14.7838 22.4537 15.0681 21.1743 14.2152C21.1743 14.2152 21.7429 17.3425 26.0075 17.4847C26.0075 17.4847 23.1644 18.4798 22.1694 18.3376C22.1694 18.3376 24.1595 20.612 27.1447 19.9013C27.1447 19.9013 25.4389 21.3228 23.5909 21.0385C23.5909 21.0385 25.7232 22.8865 28.5662 21.3228C28.5662 21.3228 27.9976 22.7443 26.5761 23.1708C26.5761 23.1708 28.2819 24.308 30.272 22.6022C30.5563 22.3179 31.2671 22.6022 30.5564 23.3129C29.4191 24.1658 27.9976 24.308 27.2869 25.7295L28.1398 25.8717C27.2868 26.7246 26.0075 28.0039 26.0075 28.0039C26.0075 28.0039 25.8653 27.7196 25.2967 27.8618L25.1546 27.7196C25.7232 27.5775 26.4339 27.151 26.0075 26.4403C26.0075 26.4403 25.1546 27.4353 24.4438 27.2932C25.4389 26.5824 25.7232 25.5874 25.2967 24.7344C24.7281 23.8815 23.4487 23.7394 22.4537 24.4501C21.4586 25.0187 21.0322 26.2981 21.4586 27.0089C21.8851 27.7196 23.0223 28.0039 24.1595 27.4353C23.7331 28.0039 22.8801 28.2882 22.5958 28.4304C22.5958 28.4304 23.1644 29.5676 24.4438 28.0039C24.586 28.0039 24.586 28.1461 24.586 28.1461C24.3017 28.4304 24.1595 28.8569 24.4438 29.1412C24.4438 29.1412 24.3017 29.8519 25.1546 29.8519C25.1546 29.8519 25.4389 30.2784 26.0075 29.9941C26.4339 30.9891 26.2918 31.9842 26.2918 32.4107H27.429C27.2868 31.9842 27.2868 30.4205 26.4339 28.999C26.5761 28.8568 26.7182 28.7147 26.5761 28.4304C26.5761 28.4304 28.1398 27.4353 29.277 26.7246L29.4191 27.4353C29.8456 26.8667 30.4142 26.5824 30.9828 26.2981C30.272 27.2932 29.8456 28.4304 30.1299 29.8519C30.1299 29.8519 30.2721 29.2833 31.2671 29.1412C31.2671 29.1412 29.9877 30.7048 32.12 33.8322C34.2523 30.7048 32.9729 29.1412 32.9729 29.1412C33.968 29.2833 34.1102 29.8519 34.1102 29.8519C34.2523 28.2882 33.968 27.151 33.1151 26.156C33.8258 26.2981 34.3945 26.7246 34.8209 27.2932L34.9631 26.5824C36.1003 27.2932 37.664 28.2882 37.664 28.2882C37.5218 28.4304 37.6639 28.7147 37.8061 28.8569C36.9532 30.2784 36.9532 31.6999 36.811 32.1263H37.9483C38.0904 31.5577 37.9482 30.7048 38.2326 29.7098C38.8012 29.9941 39.0855 29.4255 39.0855 29.4255C39.9384 29.4255 39.7962 28.7147 39.7962 28.7147C40.0805 28.5725 39.9384 28.1461 39.6541 27.8618C39.7962 27.8618 39.7962 27.7196 39.9384 27.7196C41.2177 29.1412 41.7864 28.1461 41.7864 28.1461C41.502 28.0039 40.6491 27.8618 40.2227 27.151C41.2177 27.7196 42.355 27.5775 42.9236 26.7246C42.7814 26.4403 42.355 25.3031 41.3599 24.5923ZM23.8752 27.4353C23.4487 27.7196 22.738 27.5775 22.1694 26.7246C21.6008 25.8717 21.6008 25.0187 22.0272 24.7344C22.4537 24.4501 23.3066 24.8766 23.7331 25.7295C24.4438 26.4403 24.3017 27.151 23.8752 27.4353ZM31.125 12.0829C30.8406 12.0829 30.6985 11.9408 30.6985 11.6565C30.6985 11.3722 30.8406 11.23 31.125 11.23C31.4093 11.23 31.5514 11.3722 31.5514 11.6565C31.4093 11.9408 31.2671 12.0829 31.125 12.0829ZM41.2178 26.7246C40.6491 27.5775 39.9384 27.7196 39.6541 27.4353C39.2276 27.151 39.0855 26.5824 39.6541 25.7295C40.2227 24.8766 40.9334 24.4501 41.3599 24.7344C41.7863 25.0187 41.7864 25.8717 41.2178 26.7246Z" fill="white"/>
<path d="M32.6888 10.377L33.6839 8.81333L32.2624 9.38194L31.6937 8.10257L31.1251 9.38194L29.7036 8.81333L30.6987 10.377H32.6888Z" fill="white"/>
<path d="M17.763 21.0385C17.763 20.1856 17.1943 19.4748 16.7679 19.4748C16.3414 19.4748 16.0571 20.1856 16.0571 21.1807C16.0571 22.0336 16.6258 22.46 17.0522 22.46C17.4787 22.3179 17.9051 21.8914 17.763 21.0385Z" fill="white"/>
<path d="M46.761 32.553C46.3345 32.2687 45.6238 32.6952 45.1973 33.4059C44.6287 34.1167 44.7708 34.8274 45.1973 34.9696C45.6238 35.2539 46.1924 34.9696 46.761 34.2588C47.1874 33.5481 47.1874 32.6952 46.761 32.553Z" fill="white"/>
<path d="M37.5224 5.11736C37.5224 4.69091 37.0959 4.26445 36.1008 4.26445C35.1058 4.26445 34.395 4.69091 34.395 5.11736C34.395 5.54382 35.1058 5.97027 35.9587 5.97027C36.9537 5.97027 37.5224 5.54382 37.5224 5.11736Z" fill="white"/>
<path d="M18.4727 33.4059C17.9041 32.6952 17.1933 32.2687 16.7669 32.553C16.3404 32.8373 16.3404 33.5481 16.909 34.2588C17.4776 34.9696 18.0463 35.1117 18.4727 34.9696C18.8992 34.6853 19.0413 34.1167 18.4727 33.4059Z" fill="white"/>
<path d="M29.8452 37.8126C28.8501 37.6704 28.1394 37.9547 27.9972 38.3812C27.8551 38.8076 28.5658 39.3762 29.4187 39.5184C30.2716 39.6605 30.9824 39.3762 30.9824 38.9498C31.1245 38.5233 30.6981 37.9547 29.8452 37.8126Z" fill="white"/>
<path d="M31.694 0.142152C26.008 3.12734 19.0425 3.12734 13.3564 0.142152V33.1214C13.3564 37.1017 16.6259 40.3712 20.7483 40.3712C24.7286 40.3712 28.2824 40.9398 31.694 43.072C35.1057 40.9398 38.6595 40.3712 42.6398 40.3712C46.7622 40.3712 50.1738 37.2438 50.1738 33.1214V0C44.3456 3.12734 37.5223 3.12734 31.694 0.142152ZM46.4778 5.25962C46.4778 5.25962 46.62 4.54886 46.7622 4.54886C46.9043 4.54886 47.1886 5.25962 47.1886 5.25962C47.4729 4.97532 48.0415 5.25962 48.0415 5.25962V5.40178C47.6151 5.25962 47.1886 5.68608 47.3308 5.82823C47.3308 5.97038 46.7622 5.97038 46.7622 5.82823C46.7622 5.54393 46.3357 5.25962 45.9092 5.40178V5.25962C45.6249 5.40178 46.1935 4.97532 46.4778 5.25962ZM46.9043 6.11254C48.0415 5.97038 49.0366 6.68114 49.0366 7.53406C49.0366 8.38697 48.3258 9.09772 47.3308 9.23988C47.8994 9.52418 48.6101 9.23988 49.0366 9.09772C49.0366 9.09772 49.1787 10.0928 47.6151 9.80848C47.6151 10.6614 47.1886 11.23 46.9043 12.0829C47.0465 11.9408 47.1886 11.7986 47.3308 11.6565C47.7572 11.3722 48.3258 11.23 48.8944 11.3722C48.8944 11.7986 48.6101 12.2251 48.1837 12.5094C47.7572 12.7937 47.3308 12.9358 46.9043 12.7937C46.9043 13.2201 47.0465 13.6466 47.3308 14.2152L46.62 14.7838C46.1935 14.073 46.0514 12.3672 46.7622 11.23C47.1886 10.3771 47.1886 10.0928 47.1886 9.80848C46.62 9.95064 45.625 10.2349 45.4828 9.38203C45.4828 9.38203 46.62 9.52418 47.1886 9.23988C46.1935 9.23988 45.3406 8.67127 45.1985 7.81836C44.9142 6.96545 45.7671 6.25469 46.9043 6.11254ZM48.1837 18.6219C47.7572 18.6219 47.3308 19.0484 47.3308 19.1905C47.3308 19.3327 46.7622 19.3327 46.7622 19.1905C46.7622 18.9062 46.4779 18.4798 46.0514 18.7641V18.6219C46.0514 18.6219 46.62 18.3376 46.9043 18.6219C46.9043 18.6219 47.1886 17.9111 47.3308 17.9111C47.4729 17.9111 47.6151 18.6219 47.6151 18.6219C47.6151 18.1954 48.1837 18.6219 48.1837 18.6219ZM36.1008 3.12734C36.9537 3.12734 37.6644 3.98025 37.6644 4.97532C37.9487 4.40671 37.8066 3.69595 37.6644 3.2695C37.6644 3.2695 38.8017 3.2695 38.3752 4.69102C39.2281 4.69102 39.7967 5.25962 40.6496 5.54393C40.5075 5.40177 40.3653 5.25962 40.2232 5.11747C39.9389 4.69101 39.9389 4.12241 40.081 3.69595C40.5075 3.8381 40.9339 4.12241 41.2182 4.54886C41.5025 4.97532 41.5025 5.40177 41.5025 5.82823C41.929 5.82823 42.3554 5.82823 42.9241 5.54393L43.4927 6.25469C42.6397 6.53899 40.9339 6.53899 39.7967 5.82823C39.086 5.40177 38.6595 5.25962 38.3752 5.25962C38.5174 5.68608 38.6595 6.8233 37.8066 6.8233C37.8066 6.8233 38.0909 5.68608 37.6644 5.11747C37.6644 6.11253 36.9537 6.96545 35.9586 6.96545C35.1057 6.96545 34.3949 6.11253 34.3949 4.97532C34.3949 3.98025 35.1057 3.12734 36.1008 3.12734ZM33.3999 4.69102C33.1156 4.40671 33.542 3.8381 33.542 3.8381H33.6842C33.3999 4.26456 33.9685 4.54886 34.1106 4.54886C34.2528 4.54886 34.2528 5.11747 34.1106 5.11747C33.8263 5.11747 33.3999 5.54393 33.542 5.97038H33.3999C33.3999 5.97038 33.1156 5.54393 33.3999 5.11747C33.3999 5.11747 32.6891 4.97532 32.6891 4.83317C32.547 4.83317 33.3999 4.69102 33.3999 4.69102ZM29.5618 4.69102C29.8461 4.69102 30.2725 4.26456 29.9882 3.98026H30.1304C30.1304 3.98026 30.5568 4.40671 30.2725 4.83317C30.2725 4.83317 31.1254 4.97532 31.1254 5.11747C31.1254 5.25962 30.4147 5.40178 30.4147 5.40178C30.699 5.68608 30.4147 6.25469 30.4147 6.25469H30.2725C30.4147 5.82823 29.9882 5.40178 29.7039 5.40178C29.4196 5.25962 29.4196 4.69102 29.5618 4.69102ZM20.7483 5.40178C21.317 5.54393 21.7434 5.68608 22.1699 5.68608C22.0277 5.25962 22.1699 4.83317 22.4542 4.40671C22.7385 3.98026 23.1649 3.69595 23.5914 3.5538C23.7335 3.98025 23.7335 4.54886 23.4492 4.97532C23.3071 5.11747 23.1649 5.25962 23.0228 5.40178C23.8757 5.11747 24.4443 4.54886 25.2972 4.54886C24.8707 2.98519 26.008 3.12734 26.008 3.12734C26.008 3.41165 25.7237 4.12241 26.008 4.83317C26.008 3.8381 26.7187 2.98519 27.5716 2.98519C28.5667 2.98519 29.2775 3.8381 29.2775 4.97532C29.2775 6.11253 28.5667 6.96545 27.7138 6.96545C26.8609 6.96545 26.008 6.11253 26.008 5.11747C25.5815 5.68608 25.8658 6.8233 25.8658 6.8233C25.0129 6.8233 25.155 5.68608 25.2972 5.25962C25.0129 5.25962 24.7286 5.40177 23.8757 5.82823C22.7385 6.53899 21.0327 6.53899 20.1797 6.25469L20.7483 5.40178ZM16.6259 5.11747C16.6259 5.11747 16.9103 4.40671 17.0524 4.40671C17.1946 4.40671 17.3367 5.11747 17.3367 5.11747C17.7632 4.83317 18.1896 5.25962 18.1896 5.25962V5.40178C17.7631 5.25962 17.3367 5.68608 17.3367 5.82823C17.3367 5.97038 16.7681 5.97038 16.7681 5.82823C16.7681 5.54393 16.4838 5.11747 16.0573 5.40178V5.25962C15.773 5.25962 16.3416 4.97532 16.6259 5.11747ZM16.7681 6.11254C17.9053 6.11254 18.7582 6.96545 18.6161 7.81836C18.4739 8.67127 17.621 9.23988 16.6259 9.23988C17.1946 9.66633 18.3318 9.38203 18.3318 9.38203C18.1896 10.2349 17.1946 9.95064 16.6259 9.80848C16.6259 10.0928 16.6259 10.3771 17.0524 11.23C17.621 12.3672 17.4788 14.073 17.1945 14.7838L16.4838 14.2152C16.7681 13.6466 16.9102 13.2201 16.9102 12.7937C16.4838 12.7937 16.0573 12.6515 15.6309 12.5094C15.2044 12.2251 14.9201 11.7986 14.9201 11.3722C15.4887 11.23 16.0573 11.3722 16.4838 11.6565C16.6259 11.7986 16.7681 11.9408 16.9102 12.0829C16.6259 11.23 16.1995 10.6614 16.1995 9.80848C14.6358 10.0928 14.778 9.09772 14.778 9.09772C15.2044 9.23988 15.773 9.38203 16.4838 9.23988C15.4887 9.09772 14.778 8.38697 14.778 7.53406C14.6358 6.68114 15.6309 6.11254 16.7681 6.11254ZM17.9053 18.4798C17.4788 18.4798 17.0524 18.9062 17.0524 19.0484C17.0524 19.1905 16.4838 19.1905 16.4838 19.0484C16.4838 18.7641 16.0573 18.4798 15.6309 18.6219V18.4798C15.6309 18.4798 16.0573 18.0533 16.4838 18.3376C16.4838 18.3376 16.6259 17.6268 16.7681 17.6268C16.9102 17.6268 17.1945 18.3376 17.1945 18.3376C17.3367 18.1954 17.9053 18.4798 17.9053 18.4798ZM14.3515 23.7394C14.9201 23.7394 15.3466 23.8815 15.773 24.308C16.0573 24.4501 16.1995 24.8766 16.1995 25.1609C16.1995 25.0187 16.3416 24.8766 16.3416 24.7344C16.7681 23.8815 16.7681 23.5972 16.7681 23.3129C16.1995 23.4551 15.2044 23.7394 15.0623 22.8865C15.0623 22.8865 16.3416 23.0286 16.7681 22.6022C15.773 22.6022 14.778 22.0336 14.778 21.1806C14.778 20.3277 15.6309 19.617 16.6259 19.4748C17.7632 19.4748 18.7582 20.0434 18.7582 20.8963C18.7582 21.7493 18.0475 22.46 16.9102 22.6022C17.621 22.8865 18.3318 22.6022 18.6161 22.46C18.6161 22.46 18.7582 23.4551 17.1945 23.1708C17.3367 24.5923 15.773 25.303 16.9102 27.5775L16.1995 28.1461C15.9152 27.5775 15.773 26.4403 16.0573 25.4452C15.6309 25.4452 15.0623 25.303 14.778 24.8766C14.4937 24.5923 14.3515 24.1658 14.3515 23.7394ZM15.4887 32.4106C15.3466 32.2685 15.6309 31.6999 16.0573 31.842C16.0573 31.842 15.773 31.1313 15.9152 31.1313C16.0573 30.9891 16.6259 31.5577 16.6259 31.5577C16.7681 31.1313 17.3367 31.1313 17.3367 31.1313V31.2734C16.9102 31.4156 16.7681 31.842 16.9102 32.1263C17.0524 32.2685 16.4838 32.5528 16.4838 32.4106C16.3416 32.1263 15.773 31.9842 15.4887 32.4106ZM21.7434 39.0918C21.6013 38.5232 21.4591 38.0967 21.1748 37.8124C20.8905 38.0967 20.3219 38.2389 19.8954 38.2389C19.3268 38.2389 18.7582 38.0967 18.4739 37.6703C18.7582 37.2438 19.3268 37.1017 19.8954 37.1017C20.1797 37.1017 20.3219 37.1017 20.464 37.1017C19.7533 36.5331 19.0425 36.3909 18.4739 35.6801C17.3367 36.8174 16.9102 35.9644 16.9102 35.9644C17.1945 35.8223 18.0475 35.6801 18.3318 34.9694C17.4789 35.538 16.3416 35.3958 15.773 34.6851C15.3466 33.9743 15.6309 32.8371 16.6259 32.2685C17.621 31.6999 18.7582 31.842 19.1847 32.5528C19.6111 33.2636 19.3268 34.2586 18.4739 34.8272C19.1847 34.8272 20.0376 33.9743 20.0376 33.9743C20.464 34.6851 19.469 35.1115 18.9004 35.2537C19.0425 35.538 19.3268 35.6801 20.0376 36.1066C21.317 36.6752 22.1699 38.0967 22.312 38.9496L21.7434 39.0918ZM27.5716 38.5232C27.2873 38.5232 26.7187 38.8075 26.8609 39.2339H26.7187C26.7187 39.2339 26.4344 38.6653 26.8609 38.381C26.8609 38.381 26.1501 38.0967 26.1501 37.9546C26.1501 37.8124 27.003 37.8124 27.003 37.8124C26.7187 37.386 27.2873 36.9595 27.2873 36.9595L27.4295 37.1017C27.1452 37.5281 27.5717 37.9546 27.7138 37.9546C27.856 37.9546 27.7138 38.5232 27.5716 38.5232ZM36.2429 39.6604C35.6743 39.3761 35.2479 39.2339 34.8214 39.0918C34.8214 39.5182 34.6792 39.9447 34.2528 40.229C33.8263 40.6555 33.3999 40.7976 32.9734 40.7976C32.9734 40.3712 33.1156 39.8025 33.542 39.3761C33.6842 39.2339 33.8263 39.0918 33.9685 39.0918C33.1156 39.2339 32.4048 39.5182 31.5519 39.3761C31.6941 40.9398 30.5568 40.6555 30.5568 40.6555C30.699 40.3712 31.1254 39.6604 30.8411 39.0918C30.5568 40.0869 29.7039 40.7976 28.851 40.5133C27.9981 40.229 27.4295 39.2339 27.5716 38.2389C27.8559 37.1017 28.7088 36.3909 29.5618 36.6752C30.4147 36.8174 30.8411 37.8124 30.699 38.8075C31.1254 38.381 31.1254 37.2438 31.1254 37.2438C31.9784 37.5281 31.5519 38.381 31.4097 38.8075C31.694 38.9496 32.1205 38.8075 32.8313 38.6653C34.1106 38.2389 35.8165 38.5232 36.5272 39.0918L36.2429 39.6604ZM31.694 36.1066C29.2775 34.6851 27.1452 34.4008 24.4443 34.4008C21.6013 34.4008 19.6111 32.2685 19.6111 29.5676V7.3919C22.5963 8.95557 28.9932 7.96051 31.8362 6.39684C34.6792 7.81836 41.0761 8.95557 44.0613 7.3919V29.5676C44.0613 32.1263 41.6447 34.4008 38.9438 34.4008C36.2429 34.4008 33.9685 34.6851 31.694 36.1066ZM47.6151 34.8272C47.1886 35.538 46.0514 35.6801 45.1985 35.1115C45.6249 35.6801 46.3357 35.9644 46.62 35.9644C46.62 35.9644 46.0514 36.8174 45.0563 35.6801C44.6299 36.3909 43.777 36.5331 43.0662 37.1017C43.2083 37.1017 43.4927 37.1017 43.6348 37.1017C44.2034 37.1017 44.6299 37.386 45.0563 37.6703C44.772 37.9546 44.2034 38.2389 43.6348 38.2389C43.2084 38.2389 42.7819 38.0967 42.3554 37.8124C42.0711 38.0967 41.929 38.5232 41.7868 39.0918H40.7918C40.9339 38.2389 41.929 36.8174 43.0662 36.2487C43.9191 35.8223 44.0613 35.6801 44.3456 35.3958C43.7769 35.2537 42.9241 34.8272 43.2084 34.1165C43.2084 34.1165 44.0613 34.9694 44.6299 34.9694C43.777 34.4008 43.4927 33.4057 43.9191 32.695C44.3456 31.9842 45.4828 31.842 46.4778 32.4106C47.7572 32.9793 48.1837 34.1165 47.6151 34.8272ZM48.1837 32.4106C47.8994 31.9842 47.3307 32.1263 47.1886 32.4106C47.1886 32.5528 46.62 32.1263 46.62 32.1263C46.7621 31.842 46.7622 31.4156 46.1936 31.2734V31.1313C46.1936 31.1313 46.7622 31.1313 46.9043 31.5577C46.9043 31.5577 47.4729 30.9891 47.6151 31.1313C47.7572 31.2734 47.4729 31.842 47.4729 31.842C48.0415 31.6999 48.3258 32.2685 48.1837 32.4106ZM48.8944 24.8766C48.6101 25.1609 48.0415 25.4452 47.6151 25.4452C47.8994 26.4403 47.7572 27.5775 47.4729 28.1461L46.7622 27.5775C47.8994 25.303 46.3357 24.5923 46.4778 23.1708C44.9142 23.4551 45.0563 22.46 45.0563 22.46C45.3406 22.6022 46.0514 22.8865 46.7622 22.6022C45.7671 22.46 44.9142 21.7493 44.9142 20.8963C45.0564 20.0434 46.0514 19.4748 47.0465 19.4748C48.1837 19.617 49.0366 20.3277 48.8944 21.1806C48.7523 22.0336 47.8994 22.6022 46.9043 22.6022C47.4729 23.0286 48.6101 22.8865 48.6101 22.8865C48.468 23.7394 47.4729 23.4551 46.9043 23.3129C46.9043 23.5972 46.9043 23.8815 47.3308 24.7344C47.3308 24.8766 47.4729 25.0187 47.4729 25.1609C47.4729 24.8766 47.7572 24.5923 47.8994 24.308C48.3258 23.8815 48.7523 23.7394 49.3209 23.7394C49.3209 24.1658 49.1787 24.5923 48.8944 24.8766Z" fill="white"/>
<path d="M16.6249 9.09783C17.0514 9.09783 17.4778 8.67137 17.62 7.81846C17.62 6.96555 17.3357 6.25479 16.9092 6.11264C16.4828 6.11264 15.9142 6.68125 15.9142 7.67631C15.772 8.67137 16.0563 9.09783 16.6249 9.09783Z" fill="white"/>
<path d="M47.0449 9.09783C47.4713 9.09783 47.8977 8.52922 47.8977 7.67631C47.8977 6.8234 47.3292 6.11264 46.9027 6.11264C46.4762 6.11264 46.0498 6.8234 46.1919 7.81846C46.1919 8.81353 46.6184 9.23998 47.0449 9.09783Z" fill="white"/>
<path d="M27.5709 5.82823C28.4238 5.82823 29.1346 5.40177 29.2768 4.97532C29.2768 4.54886 28.566 4.12241 27.5709 4.12241C26.718 4.12241 26.1494 4.54886 26.1494 4.97532C26.1494 5.54393 26.5759 5.97038 27.5709 5.82823Z" fill="white"/>
<path d="M47.6145 21.1807C47.6145 20.3277 47.3302 19.617 46.9038 19.4748C46.4773 19.4748 45.9087 20.0434 45.9087 21.0385C45.9087 21.8914 46.3352 22.46 46.7616 22.46C47.1881 22.46 47.6145 22.0336 47.6145 21.1807Z" fill="white"/>
</svg>
