<svg width="161" height="358" viewBox="0 0 161 358" fill="none" xmlns="http://www.w3.org/2000/svg">
<path d="M58.5548 25.0258L53.9143 25.0258C49.9613 25.0258 52.5393 20.9009 54.4299 17.5781C56.3205 14.2552 55.5757 2.62531 55.5757 2.62531L61.1902 2.62531" stroke="#161824" stroke-width="4" stroke-miterlimit="10" stroke-linecap="round" stroke-linejoin="round"/>
<path d="M61.1312 25.0259L58.5531 25.0259L53.9126 25.0259L53.7407 25.0259L53.6262 29.6091L53.5116 33.7913L53.2251 43.8171L53.1105 47.942L50.4179 143.101L48.0117 225.427L61.1312 225.427" stroke="#161824" stroke-width="4" stroke-miterlimit="10" stroke-linecap="round" stroke-linejoin="round"/>
<path d="M61.1886 294.864L46.2051 294.864C46.2051 294.864 54.1111 315.374 54.1111 324.941C54.1111 334.509 53.9965 343.56 53.9965 347.857C53.9965 352.154 54.5694 355.305 58.2933 355.305" stroke="#161824" stroke-width="4" stroke-miterlimit="10" stroke-linecap="round" stroke-linejoin="round"/>
<path d="M50.4181 143.101C6.59104 148.716 9.97116 191.11 13.0648 196.61C16.3877 202.454 20.9709 210.646 14.0961 215.803C21.4292 217.063 31.856 218.782 31.856 236.542C31.856 254.302 19.7105 268.624 10.0857 266.218C10.0857 294.863 2.52343 278.707 2.52343 305.175C2.52343 351.752 55.9179 355.075 60.9022 355.304C61.1313 355.304 61.2459 355.304 61.2459 355.304" stroke="#161824" stroke-width="4" stroke-miterlimit="10" stroke-linecap="round" stroke-linejoin="round"/>
<path d="M50.9649 244.447C53.4857 238.031 41.9131 237.572 41.9131 244.447C41.9131 251.322 41.2256 266.676 40.7672 272.405C40.3089 278.134 36.7569 280.884 33.606 280.884C30.455 280.884 27.9915 277.733 30.455 274.696" stroke="#161824" stroke-width="4" stroke-miterlimit="10" stroke-linecap="round" stroke-linejoin="round"/>
<path d="M53.1118 55.0062L39.8205 55.0062C39.8205 55.0062 39.3621 61.1804 36.9559 61.1804C34.5498 61.1804 32.6592 56.4826 32.6592 53.217C32.6592 49.9515 33.9196 46.5714 37.1278 46.5714C40.3361 46.5714 39.9923 53.2038 39.9923 53.2038L53.2264 53.2038" stroke="#161824" stroke-width="4" stroke-miterlimit="10" stroke-linecap="round" stroke-linejoin="round"/>
<path d="M53.5128 37.4886L41.8256 37.4886C41.8256 37.4886 41.3673 39.7669 38.9611 39.7669C36.5549 39.7669 32.6592 39.5951 32.6592 36.3868C32.6592 33.1786 35.6383 32.663 38.8465 32.663C41.9975 32.663 41.9975 35.7434 41.9975 35.7434L53.6847 35.7434" stroke="#161824" stroke-width="4" stroke-miterlimit="10" stroke-linecap="round" stroke-linejoin="round"/>
<path d="M61.0166 2.6261L66.631 2.6261C66.631 2.6261 65.9436 14.3133 67.7768 17.5788C69.6101 20.8444 72.2455 25.0266 68.2925 25.0266L63.6519 25.0266" stroke="#161824" stroke-width="4" stroke-miterlimit="10" stroke-linecap="round" stroke-linejoin="round"/>
<path d="M61.0166 225.427L74.1361 225.427L71.7872 143.101L69.0372 47.942L68.9227 43.8171L68.6362 33.7913L68.5216 29.6091L68.407 25.0259L68.2352 25.0259L63.5947 25.0259L61.0166 25.0259" stroke="#161824" stroke-width="4" stroke-miterlimit="10" stroke-linecap="round" stroke-linejoin="round"/>
<path d="M61.0186 294.863L76.0021 294.863C76.0021 294.863 68.0961 315.373 68.0961 324.94C68.0961 334.508 68.2106 343.559 68.2106 347.856C68.2106 352.153 67.6377 355.304 63.9139 355.304" stroke="#161824" stroke-width="4" stroke-miterlimit="10" stroke-linecap="round" stroke-linejoin="round"/>
<path d="M71.7868 143.102C115.614 148.716 112.234 191.111 109.14 196.611C105.817 202.454 101.234 210.647 108.109 215.803C100.776 217.063 90.3489 218.782 90.3489 236.542C90.3489 254.302 102.494 268.625 112.119 266.218C112.119 294.864 119.681 278.708 119.681 305.176C119.681 351.695 66.3443 355.076 61.36 355.305C61.1308 355.305 60.959 355.305 60.959 355.305" stroke="#161824" stroke-width="4" stroke-miterlimit="10" stroke-linecap="round" stroke-linejoin="round"/>
<path d="M71.1844 244.447C68.6636 238.03 80.2363 237.572 80.2363 244.447C80.2363 251.321 80.9237 266.675 81.3821 272.404C81.8404 278.133 85.3924 280.883 88.5433 280.883C91.6943 280.883 94.1578 277.732 91.6943 274.696" stroke="#161824" stroke-width="4" stroke-miterlimit="10" stroke-linecap="round" stroke-linejoin="round"/>
<path d="M68.9229 53.2615L82.2142 53.2615C82.2142 53.2615 81.9277 46.629 85.0787 46.629C88.2297 46.629 89.5473 50.0092 89.5473 53.2747C89.5473 56.5402 87.714 61.238 85.2506 61.238C82.7871 61.238 82.386 55.0639 82.386 55.0639L69.0947 55.0639" stroke="#161824" stroke-width="4" stroke-miterlimit="10" stroke-linecap="round" stroke-linejoin="round"/>
<path d="M68.5215 35.6868L80.2087 35.6868C80.2087 35.6868 80.2087 32.6064 83.3597 32.6064C86.5106 32.6064 89.547 33.0647 89.547 36.3302C89.547 39.5958 85.7085 39.7104 83.2451 39.7104C80.7816 39.7104 80.3806 37.432 80.3806 37.432L68.6934 37.432" stroke="#161824" stroke-width="4" stroke-miterlimit="10" stroke-linecap="round" stroke-linejoin="round"/>
<path d="M158.998 261.926L148.349 244.308L148.349 71.6583L158.998 89.2757L158.998 261.926Z" stroke="#161824" stroke-width="4" stroke-miterlimit="10" stroke-linecap="round" stroke-linejoin="round"/>
<path d="M158.999 89.275L158.999 297.732" stroke="#161824" stroke-width="4" stroke-miterlimit="10" stroke-linecap="round" stroke-linejoin="round"/>
</svg>
